<?xml version="1.0" encoding="UTF-8"?>
<svg id="_Слой_2" data-name="Слой 2" xmlns="http://www.w3.org/2000/svg" xmlns:xlink="http://www.w3.org/1999/xlink" viewBox="0 0 750 500">
  <defs>
    <style>
      .cls-1 {
        fill: #66994f;
      }

      .cls-2 {
        fill: #fff;
      }

      .cls-3 {
        fill: #b6eeff;
      }

      .cls-4 {
        fill: #b4c17c;
      }

      .cls-5 {
        fill: #f19a94;
      }

      .cls-6 {
        fill: #8ccbf2;
      }

      .cls-7 {
        clip-path: url(#clippath-2);
      }

      .cls-8 {
        fill: #50783e;
      }

      .cls-9 {
        fill: #f7e788;
      }

      .cls-10 {
        fill: #45313d;
      }

      .cls-11 {
        fill: #def9ff;
      }

      .cls-12 {
        fill: #267340;
      }

      .cls-13 {
        clip-path: url(#clippath-1);
      }

      .cls-14 {
        clip-path: url(#clippath-4);
      }

      .cls-15 {
        opacity: .6;
      }

      .cls-16 {
        fill: #62997f;
      }

      .cls-17 {
        fill: #8b5e3c;
      }

      .cls-18 {
        fill: #f9fcfb;
      }

      .cls-19 {
        fill: #f1cc4b;
      }

      .cls-20 {
        fill: #dbcd78;
      }

      .cls-21 {
        fill: #8fcc81;
      }

      .cls-22 {
        fill: #3eab7b;
      }

      .cls-23 {
        clip-path: url(#clippath);
      }

      .cls-24 {
        fill: #4d9966;
      }

      .cls-25 {
        fill: #ffecd6;
      }

      .cls-26 {
        fill: none;
      }

      .cls-27 {
        clip-path: url(#clippath-3);
      }

      .cls-28 {
        fill: #357269;
      }

      .cls-29 {
        opacity: .25;
      }

      .cls-30 {
        fill: #74ab93;
      }

      .cls-31 {
        fill: #bfce8b;
      }

      .cls-32 {
        fill: #7ac0eb;
      }
    </style>
    <clipPath id="clippath">
      <rect class="cls-26" width="750" height="500"/>
    </clipPath>
    <clipPath id="clippath-1">
      <path class="cls-26" d="m646.19,382.31s.84,3.55,5.41,6.68c16.88,11.18,78.6,28.93,136.17,32.51,41.88,2.6,84.08-4.3,103.98-8.26-2.79,1.83-5.84,3.71-9.14,5.66-27.91,16.45-60.04,21.21-81,23.36-38.62,3.97-113.49-11.88-148.06-27.58s-49.66-29.74-53.71-42.82c-.1-.32-.18-.63-.27-.94,26.55,10.21,46.63,11.38,46.63,11.38Z"/>
    </clipPath>
    <clipPath id="clippath-2">
      <path class="cls-26" d="m646.19,382.31s.84,3.55,5.41,6.68c16.88,11.18,78.6,28.93,136.17,32.51,41.88,2.6,84.08-4.3,103.98-8.26-2.79,1.83-5.84,3.71-9.14,5.66-27.91,16.45-60.04,21.21-81,23.36-38.62,3.97-113.49-11.88-148.06-27.58s-49.66-29.74-53.71-42.82c-.1-.32-.18-.63-.27-.94,26.55,10.21,46.63,11.38,46.63,11.38Z"/>
    </clipPath>
    <clipPath id="clippath-3">
      <path class="cls-26" d="m646.19,382.31s.84,3.55,5.41,6.68c16.88,11.18,78.6,28.93,136.17,32.51,41.88,2.6,84.08-4.3,103.98-8.26-2.79,1.83-5.84,3.71-9.14,5.66-27.91,16.45-60.04,21.21-81,23.36-38.62,3.97-113.49-11.88-148.06-27.58s-49.66-29.74-53.71-42.82c-.1-.32-.18-.63-.27-.94,26.55,10.21,46.63,11.38,46.63,11.38Z"/>
    </clipPath>
    <clipPath id="clippath-4">
      <rect class="cls-26" width="750" height="500"/>
    </clipPath>
  </defs>
  <g id="_Слой_1-2" data-name="Слой 1">
    <g id="BACKGROUND">
      <rect class="cls-18" width="750" height="500"/>
    </g>
    <g id="OBJECTS">
      <g>
        <g>
          <path class="cls-11" d="m239.09,253.18c-1.05-84.47-4.96-171.15,7.28-253.18h28.36c-2.95,166.61,34.64,335.99,16.77,500h-77.28c22.96-76.02,25.91-163.48,24.88-246.82Z"/>
          <path class="cls-11" d="m43.5,0h23.59c-2.57,82.14-2.95,164.59,8.89,245.03,7.76,52.74,20.69,103.89,28.85,156.53,5,32.27,8.15,65.61,7.16,98.45H43.96c-25.1-161.4,8.73-333.62-.46-500Z"/>
          <path class="cls-11" d="m456.04,327.61c-7.98-108.84-2.46-218.5,3.88-327.61h22.61c-3.03,75.54-3.89,151.49,8.08,225.16,8.55,52.59,23.48,102.9,34.15,154.79,8.03,39.03,13.62,79.88,12.07,120.05h-89.64c6.83-17.3,10.98-36.9,12.73-56.33,3.47-38.53-1.06-77.43-3.89-116.06Z"/>
          <path class="cls-11" d="m400.33,0h18.59c1.19,80.2,2.39,160.39,3.58,240.59,1.29,86.73,2.45,174.74-10.29,259.41h-48.89c4.07-84.54,17.48-168.39,27.73-252.26,9.99-81.76,16.86-166.09,9.28-247.74Z"/>
          <path class="cls-11" d="m578.22,340.83c32.52-107.71,47.93-224.66,45.16-340.83h17.23c-3.2,84.08,10.57,168.95,18.68,253.09,7.97,82.65,9.43,171.4-14.05,246.91h-87.32c-1.79-54.19,5.12-108.9,20.3-159.17Z"/>
        </g>
        <g>
          <path class="cls-3" d="m554.85,253.18c1.41-84.47,6.66-171.15-9.78-253.18h-38.11c3.97,166.61-46.57,335.99-22.54,500h103.88c-30.86-76.02-34.83-163.48-33.44-246.82Z"/>
          <path class="cls-3" d="m703.4,0h-31.71c3.46,82.14,3.96,164.59-11.95,245.03-10.43,52.74-27.81,103.89-38.77,156.53-6.72,32.27-10.95,65.61-9.63,98.45h91.45c33.74-161.4-11.73-333.62.62-500Z"/>
          <path class="cls-3" d="m148.91,327.61c10.72-108.84,3.3-218.5-5.21-327.61h-30.4c4.08,75.54,5.23,151.49-10.86,225.16-11.49,52.59-31.56,102.9-45.9,154.79-10.79,39.03-18.3,79.88-16.22,120.05h120.49c-9.18-17.3-14.76-36.9-17.11-56.33-4.67-38.53,1.42-77.43,5.22-116.06Z"/>
          <path class="cls-3" d="m223.78,0h-24.98c-1.6,80.2-3.21,160.39-4.82,240.59-1.74,86.73-3.3,174.74,13.83,259.41h65.71c-5.47-84.54-23.5-168.39-37.27-252.26-13.42-81.76-22.67-166.09-12.48-247.74Z"/>
          <path class="cls-3" d="m395.65,340.83C351.94,233.12,331.23,116.17,334.96,0h-23.17c4.3,84.08-14.21,168.95-25.11,253.09-10.71,82.65-12.68,171.4,18.88,246.91h117.37c2.4-54.19-6.88-108.9-27.28-159.17Z"/>
        </g>
      </g>
      <g class="cls-23">
        <g>
          <g>
            <g>
              <path class="cls-21" d="m747.83,139.06c-6.48-6.86-19.62-5.06-24.02,3.29.91-7.73-4.96-15.65-12.62-17.04-1.62,4.71-1.4,9.98.4,14.62,2.54,1.25,4.39,3.6,3.95,6.44-1.71-1.88-3.03-4.08-3.95-6.44-2.6-1.27-5.93-1.39-8.32.33-4.72,3.4-5.16,10.63-2.56,15.83s7.44,8.87,12.11,12.33c-12.19-1.86-24.25,10.65-21.94,22.76-9.2-5.53-22.31-3.24-29.09,5.08.72-7.58-2.49-15.43-8.32-20.33-6.92,10.09-7.66,24.07-1.86,34.84-6.74-4.95-16.34-5.67-23.73-1.77-1.69,5.55,1.6,12.14,7.06,14.11-5.23.73-12.3.25-15.4,5.4-1.47,2.44-1.49,4.83-.52,7.35,1.09,2.84,1.53,5.96,2.16,8.95-4.24-4.04-12.28-2.62-14.89,2.61-2.61,5.24,1.09,12.51,6.86,13.47-6.1-1.04-12.67,2.73-14.85,8.52-2.18,5.79.26,12.96,5.53,16.21-9.58-3.96-21.97,2.95-23.62,13.18-.37-8.54-15.68-10.01-17.66-1.69-6.73-19.48-35.39-26.78-50.61-12.9,3.43-7.11,1.24-16.48-5-21.33-6.24-4.84-15.86-4.65-21.9.43-.49-5.23.35-12.79-2.6-17.43-3.77-5.92-10.83-3.01-16.61-2.84,10.31-4.56,15.73-19.32,8.43-27.9-5.27-6.19-16.09-4.42-20.88,1.18-.91-3.25-3.44-6.22-6.81-6.87-6.44-1.25-12.76,4.12-14.56,10.43-.86,3.01-.93,6.14-.49,9.24-2-1.51-4.54-2.32-6.98-1.76-6.34,1.44-9.9,8.73-9.42,15.21.49,6.48,3.98,12.3,7.37,17.85-14.67-3.3-28.51,16.03-20.67,28.85-6.58-7.39-21.44,2.17-17.43,11.23-9.04-4.62-20.34,7.39-16.48,16.22.31.49.6,1,.85,1.54-.34-.5-.61-1.01-.85-1.54-4.21-6.66-14.1-9.27-20.91-5.13-7.32,4.45-9.37,15.62-4.11,22.38-11.23-7.88-28.59-4.93-36.59,6.21-.69-4.56-1.04-9.03-5.84-11.07-1.68-.71-3.55-.89-5.36-.83-.88.03-4.71.05-5.18.74,8.65-12.77-4.19-33.27-19.46-31.05,5.49-7.45,5.62-18.42.3-26-5.31-7.58-15.67-11.2-24.55-8.57,8.13-10.33-3.37-28.44-16.17-25.48-.91-2.5-1.5-6.28-3.02-8.41-1.29-1.82-4.27-2.69-6.38-2.68-2.27,0-4.48.91-6.25,2.31-.9.71-4.4,4.16-3.84,5.43-3.53-8.06-14.91-11.39-22.23-6.51-7.32,4.88-8.62,16.67-2.54,23.03-11.96-11.52-34.93-4.41-40.09,10.74-.1,1.44-.4,2.89-.95,4.32.15-1.5.49-2.94.95-4.32.91-13.27-16.17-26.01-28.29-18.81,6.9-9.55-5.86-25.02-16.55-20.06,1.21-6.69-2.97-13.95-9.37-16.25-5.59-2.01-12.28-.04-16.11,4.44-.47.71-.96,1.41-1.47,2.1.42-.75.92-1.45,1.47-2.1,6.55-9.96,8.61-22.81,5.39-34.3-11.31-.5-22.61,6.16-27.66,16.29.03-10.27.05-20.54.08-30.81-10.54,4.11-19.52,12.04-25.02,21.91-.23,1.17-.75,2.27-1.64,3.2.5-1.09,1.06-2.15,1.64-3.2.88-4.48-2.7-10-7.57-10.72-6.15-.91-12,4-14.15,9.84-1.51,4.13-1.59,8.57-1.09,12.99.77,1.66,1.11,3.5.84,5.43-.34-1.79-.63-3.61-.84-5.43-1.9-4.11-6.44-7.13-11.03-7.66v349.36h761.38V134.01c-2.8,1.39-5.44,3.07-7.87,5.05Z"/>
              <g>
                <path class="cls-8" d="m49.45,225.16c0,3.69-2.99,6.68-6.68,6.68s-6.68-2.99-6.68-6.68,2.99-6.68,6.68-6.68,6.68,2.99,6.68,6.68Z"/>
                <path class="cls-8" d="m111.14,281.11c0,3.69-2.99,6.68-6.68,6.68s-6.68-2.99-6.68-6.68,2.99-6.68,6.68-6.68c3.69,0,6.68,2.99,6.68,6.68Z"/>
                <path class="cls-8" d="m418.4,317.76c0,3.69-2.99,6.68-6.68,6.68s-6.68-2.99-6.68-6.68,2.99-6.68,6.68-6.68,6.68,2.99,6.68,6.68Z"/>
                <path class="cls-8" d="m733.1,251.67c0,3.69-2.99,6.68-6.68,6.68s-6.68-2.99-6.68-6.68,2.99-6.68,6.68-6.68,6.68,2.99,6.68,6.68Z"/>
                <path class="cls-8" d="m661.57,274.43c0,3.69-2.99,6.68-6.68,6.68s-6.68-2.99-6.68-6.68,2.99-6.68,6.68-6.68,6.68,2.99,6.68,6.68Z"/>
                <path class="cls-8" d="m691.28,219.84c0,3.69-2.99,6.68-6.68,6.68s-6.68-2.99-6.68-6.68,2.99-6.68,6.68-6.68c3.69,0,6.68,2.99,6.68,6.68Z"/>
                <path class="cls-8" d="m457.6,258.35c0,3.69-2.99,6.68-6.68,6.68s-6.68-2.99-6.68-6.68,2.99-6.68,6.68-6.68,6.68,2.99,6.68,6.68Z"/>
                <path class="cls-8" d="m206.91,288.25c0,3.69-2.99,6.68-6.68,6.68s-6.68-2.99-6.68-6.68,2.99-6.68,6.68-6.68,6.68,2.99,6.68,6.68Z"/>
                <path class="cls-8" d="m272.74,331.68c0,3.69-2.99,6.68-6.68,6.68s-6.68-2.99-6.68-6.68,2.99-6.68,6.68-6.68,6.68,2.99,6.68,6.68Z"/>
              </g>
            </g>
            <g>
              <g>
                <path class="cls-12" d="m756.6,266.36c4.26-16.23,10.84-31.77,15.33-47.94,2.2-7.93,3.35-17.78-2.88-23.15-3.47-2.99-8.54-3.65-12.98-2.51s-8.32,3.86-11.66,7c-10.05,9.44-15.79,22.74-18.46,36.27-2.67,13.53-2.51,27.43-2.34,41.22-2.91-19.71-7.85-39.19-15.44-57.64-4.52-11-15.73-41.86-31.95-26.4-10.14,9.67-2.97,32.17,1.53,43.09,7.02,17.02,20.04,31.45,24.57,49.29-12.76-18.17-27.33-36.64-48-44.72-3.18-1.24-6.55-2.23-9.96-2.04s-6.89,1.75-8.7,4.64c-2.1,3.36-1.59,7.71-.44,11.5,4.59,15.13,17.48,26.07,30.08,35.62,10.61,8.04,21.84,16.18,29.18,27.08l58.24-16.78c-.86-11.5.93-23.31,3.88-34.54Z"/>
                <g>
                  <path class="cls-10" d="m739.6,304.85c-.08,0-.16-.06-.17-.15-2.9-18.61-2.25-38.65,1.89-57.96,4.31-20.13,12.24-38.38,22.92-52.79.06-.08.17-.09.24-.04.08.06.09.16.04.24-10.65,14.37-18.56,32.58-22.86,52.66-4.13,19.27-4.78,39.27-1.89,57.84.02.09-.05.18-.14.2-.01,0-.02,0-.03,0Z"/>
                  <path class="cls-10" d="m718.57,310.91h0c-.1,0-.17-.08-.17-.17.02-21.57-6.72-43.3-13.03-61.98-6.71-19.85-15.68-39.15-24.36-57.82-.04-.09,0-.19.08-.23.08-.04.19,0,.23.08,8.68,18.67,17.66,37.98,24.37,57.85,6.33,18.7,13.07,40.47,13.05,62.09,0,.1-.08.17-.17.17Z"/>
                  <path class="cls-10" d="m704.92,315.39c-.07,0-.14-.04-.16-.11-6.11-16.09-17.48-29.63-27.8-40.75-10.67-11.51-23.77-24.28-40-31.77-.09-.04-.12-.14-.08-.23s.14-.13.23-.08c16.29,7.51,29.41,20.31,40.11,31.85,10.34,11.15,21.73,24.73,27.87,40.87.03.09-.01.19-.1.22-.02,0-.04.01-.06.01Z"/>
                  <path class="cls-10" d="m738.83,262.97s-.1-.02-.13-.06c-6.55-7.48-10.91-16.61-12.61-26.4-.02-.09.05-.18.14-.2.09,0,.18.05.2.14,1.69,9.73,6.02,18.8,12.53,26.23.06.07.06.18-.02.24-.03.03-.07.04-.11.04Z"/>
                  <path class="cls-10" d="m744.18,236.78s-.09-.02-.12-.05c-.07-.07-.07-.18,0-.24,7.97-7.77,17.6-14.15,27.87-18.45.09-.04.19,0,.22.09.04.09,0,.19-.09.23-10.22,4.29-19.82,10.64-27.76,18.38-.03.03-.08.05-.12.05Z"/>
                  <path class="cls-10" d="m750.52,218.64c-.06,0-.12-.03-.15-.09-3.09-6.01-4.8-12.75-4.92-19.51,0-.1.08-.17.17-.18h0c.09,0,.17.07.17.17.12,6.7,1.81,13.39,4.88,19.35.04.09,0,.19-.07.23-.02.01-.05.02-.08.02Z"/>
                  <path class="cls-10" d="m737.82,279.06s-.09-.02-.12-.05c-.07-.07-.07-.17,0-.24,5.13-5.42,11.53-9.72,18.49-12.41.09-.03.19.01.22.1.03.09,0,.19-.1.22-6.92,2.68-13.27,6.94-18.36,12.33-.03.04-.08.05-.12.05Z"/>
                  <path class="cls-10" d="m698.47,229.98s-.04,0-.06-.01c-.09-.04-.13-.14-.1-.23,2.82-7.11,4.05-15.01,3.66-23.46,0-.1.07-.18.16-.18.1,0,.17.07.18.16.39,8.51-.85,16.45-3.68,23.61-.03.07-.09.11-.16.11Z"/>
                  <path class="cls-10" d="m692.17,216.03s0,0-.02,0c-7.51-.64-14.92-3.54-20.86-8.18-.08-.06-.09-.17-.03-.24.06-.07.17-.09.24-.03,5.89,4.6,13.23,7.48,20.68,8.11.09,0,.16.09.16.19,0,.09-.08.16-.17.16Z"/>
                  <path class="cls-10" d="m709.4,260.74s-.07-.01-.1-.03c-8.23-5.6-17.41-10.07-25.85-12.6-.09-.03-.14-.12-.12-.21.03-.09.12-.14.21-.12,8.48,2.54,17.69,7.03,25.94,12.64.08.05.1.16.04.24-.03.05-.09.08-.14.08Z"/>
                  <path class="cls-10" d="m714.14,276.85c-.09,0-.17-.08-.17-.17-.13-7.75,1.67-15.5,5.21-22.4.04-.09.15-.12.23-.07.08.04.12.15.07.23-3.52,6.85-5.3,14.54-5.17,22.23,0,.1-.08.17-.17.18,0,0,0,0,0,0Z"/>
                  <path class="cls-10" d="m658.04,256.21c-.08,0-.15-.05-.17-.14-1.17-5.38-2.74-10.73-4.67-15.88-.03-.09.01-.19.1-.22.09-.03.19.01.22.1,1.94,5.17,3.52,10.53,4.68,15.93.02.09-.04.18-.13.2-.01,0-.02,0-.04,0Z"/>
                  <path class="cls-10" d="m670.49,267.68s-.02,0-.02,0c-9.61-1.35-20.21-1.67-29.83-.88-.09,0-.18-.06-.19-.16,0-.09.06-.18.16-.19,9.65-.78,20.27-.47,29.91.89.09.01.16.1.15.2-.01.09-.09.15-.17.15Z"/>
                  <path class="cls-10" d="m687.08,285.98c-.09,0-.16-.07-.17-.15-.86-8.36-2.85-17.25-6.08-27.16-.03-.09.02-.19.11-.22.09-.03.19.02.22.11,3.23,9.94,5.23,18.84,6.09,27.23.01.09-.06.18-.15.19,0,0-.01,0-.02,0Z"/>
                  <path class="cls-10" d="m670.46,294.74c-.09,0-.17-.08-.17-.17,0-.09.08-.17.17-.17l23.04-.19h0c.09,0,.17.08.17.17,0,.1-.08.17-.17.17l-23.04.19h0Z"/>
                  <path class="cls-10" d="m705.8,296.89c-.07,0-.14-.05-.16-.12l-3.31-10.27c-.03-.09.02-.19.11-.22.09-.03.19.02.22.11l3.31,10.27c.03.09-.02.19-.11.22-.02,0-.03,0-.05,0Z"/>
                  <path class="cls-10" d="m727.16,288.67c-.08,0-.14-.05-.17-.13l-3.23-11.62c-.03-.09.03-.19.12-.21.1-.02.19.03.21.12l3.23,11.62c.02.09-.03.19-.12.21-.02,0-.03,0-.05,0Z"/>
                </g>
              </g>
              <g>
                <g>
                  <path class="cls-12" d="m80.21,324.95c10.28-.76,20.91-6.93,23.54-16.9-13.74-3.53-27.48-7.06-41.22-10.6,4.69-3.97,11.67-3.95,17.53-2.12,5.87,1.83,11.12,5.21,16.84,7.48,5.71,2.26,12.41,3.32,17.86.48,5.01-2.61,8.02-8.11,8.93-13.69.91-5.58,0-11.28-1.1-16.82-5.49,4.73-13.72,3.81-20.84,2.44-7.12-1.37-15.15-2.75-21.09,1.41,3.6-3.74,9.09-4.95,14.28-5.2,5.18-.25,10.45.26,15.53-.8s10.17-4.18,11.67-9.15c.96-3.19.31-6.64-.61-9.84-2.92-10.13-8.57-19.46-16.19-26.75-6.91-.31-13.91-.62-20.66.89-6.75,1.5-13.33,5.06-16.99,10.92-6.09,9.74-2.64,22.38.97,33.28-7.15-9.69-8.52-23.33-3.42-34.24-7.19.62-13.99,4.79-17.79,10.93-3.8,6.13-4.51,14.08-1.86,20.79,1.68,4.26,4.6,7.96,6.08,12.3,1.49,4.33,1.05,9.92-2.76,12.45,2.22-4.51.71-10.01-1.8-14.37s-5.99-8.15-8.07-12.73-2.42-10.51,1.02-14.18c-7.24,4.57-15.13,10.07-16.68,18.49-1.06,5.74,1.17,11.59,4.05,16.67,2.88,5.08,6.47,9.81,8.52,15.27,3.1,8.25,4.02,19.41,14.96,19.98,9.81.51,19.31,4.36,29.3,3.62Z"/>
                  <g>
                    <path class="cls-10" d="m45.02,318.93s-.05,0-.07-.01c-.12-.04-.19-.17-.16-.3,5.06-16.24,13.39-32.61,25.47-50.04,10.79-15.57,23.16-30.01,35.13-43.98.08-.1.24-.11.33-.03.1.09.11.23.03.33-11.96,13.96-24.32,28.4-35.1,43.95-12.05,17.39-20.36,33.71-25.4,49.91-.03.1-.13.17-.23.17Z"/>
                    <path class="cls-10" d="m58.01,288.63s-.04,0-.06,0c-.13-.03-.21-.16-.17-.29.96-3.94.63-8.31-1.06-14.19-.42-1.46-.9-2.93-1.36-4.36-1.01-3.12-2.05-6.34-2.59-9.63-1.24-7.55.28-15.67,4.15-22.27.07-.11.21-.15.32-.08.11.07.15.21.08.32-3.82,6.51-5.31,14.51-4.1,21.95.53,3.26,1.57,6.46,2.57,9.56.46,1.43.94,2.9,1.36,4.37,1.16,4.01,2.33,9.28,1.07,14.43-.03.11-.12.18-.23.18Z"/>
                    <path class="cls-10" d="m46.01,313.66c-.13,0-.24-.1-.24-.23-.06-5.9-1.38-11.86-3.8-17.24-1.15-2.54-2.57-5.04-3.95-7.46-2.74-4.81-5.57-9.78-6.34-15.33-1-7.24,1.68-15.19,7.35-21.82.09-.1.24-.11.33-.03.1.09.11.23.03.33-5.58,6.52-8.22,14.34-7.24,21.45.75,5.46,3.56,10.39,6.28,15.16,1.38,2.42,2.81,4.93,3.97,7.5,2.45,5.44,3.78,11.47,3.84,17.43,0,.13-.1.24-.23.24,0,0,0,0,0,0Z"/>
                    <path class="cls-10" d="m54.76,295.59s-.09-.01-.14-.04c-.11-.08-.13-.22-.06-.33,3.36-4.79,9.2-7.31,13.9-9.33,2.91-1.26,6.21-2.68,9.63-2.52,2.66.12,5.16,1.18,7.58,2.21l.46.2c5.64,2.38,12.34,4.81,19.32,4.81.07,0,.14,0,.21,0,7.42-.05,13.99-3.09,17.58-8.14.07-.11.22-.13.33-.05.11.08.13.22.06.33-3.68,5.17-10.4,8.29-17.97,8.34-.07,0-.14,0-.21,0-7.06,0-13.82-2.45-19.5-4.85l-.47-.2c-2.38-1.01-4.84-2.05-7.42-2.17-3.31-.16-6.56,1.24-9.42,2.48-4.64,2-10.41,4.49-13.7,9.17-.05.07-.12.1-.19.1Z"/>
                    <path class="cls-10" d="m89.9,318.26c-7.32,0-14.69-1.02-21.68-3.01-1.27-.36-2.57-.76-3.82-1.15-5.54-1.72-11.27-3.49-16.95-2.54-.13.02-.25-.06-.27-.19s.06-.25.19-.27c5.79-.98,11.58.82,17.17,2.55,1.25.39,2.54.79,3.81,1.15,9.51,2.71,19.74,3.61,29.57,2.58.12-.02.25.08.26.21s-.08.25-.21.26c-2.67.28-5.36.42-8.07.42Z"/>
                    <path class="cls-10" d="m76.33,260.84c-.06,0-.11-.02-.16-.06-.1-.09-.1-.24-.01-.33,2.48-2.67,6.26-4.42,11.24-5.2,2.03-.32,4.1-.47,6.11-.62,2.07-.15,4.21-.32,6.29-.65,7.17-1.17,13.99-4.59,19.22-9.62.1-.09.24-.09.33,0,.09.09.09.24,0,.33-5.3,5.1-12.21,8.56-19.47,9.75-2.1.34-4.25.5-6.33.66-2,.15-4.06.3-6.07.62-4.88.76-8.57,2.46-10.97,5.06-.05.05-.11.08-.17.08Z"/>
                    <path class="cls-10" d="m80.22,255.49s-.09-.01-.13-.04c-.11-.07-.14-.22-.07-.33,1.07-1.65.77-3.78.49-5.83l-.1-.69c-1.11-8.39,1.63-17.13,7.32-23.4.09-.1.24-.1.33-.02.1.09.1.24.02.33-5.6,6.16-8.29,14.76-7.21,23.01l.09.69c.3,2.14.61,4.36-.56,6.16-.04.07-.12.11-.2.11Z"/>
                  </g>
                </g>
                <g>
                  <path class="cls-12" d="m35.67,303.61c9.58-3.81,17.86-12.89,17.38-23.19-14.17.76-28.33,1.51-42.5,2.27,3.29-5.19,9.94-7.27,16.09-7.28s12.18,1.63,18.31,2.08c6.13.44,12.84-.56,17.19-4.9,4-3.99,5.21-10.14,4.4-15.73-.81-5.59-3.38-10.76-6.1-15.71-3.82,6.16-11.94,7.76-19.14,8.59-7.2.83-15.27,1.93-19.69,7.68,2.31-4.65,7.19-7.45,12.06-9.25,4.87-1.8,10.04-2.88,14.57-5.43,4.53-2.54,8.45-7.04,8.39-12.23-.04-3.33-1.7-6.42-3.54-9.2-5.83-8.79-14.02-15.99-23.47-20.66-6.68,1.77-13.45,3.59-19.44,7.05-5.99,3.46-11.2,8.82-12.93,15.52-2.88,11.12,4.2,22.14,10.92,31.46-9.73-7.09-15.13-19.7-13.54-31.64-6.67,2.75-11.9,8.77-13.69,15.76-1.78,6.99-.07,14.79,4.47,20.39,2.88,3.56,6.78,6.22,9.5,9.9,2.72,3.68,3.98,9.15,1.1,12.7.76-4.97-2.33-9.77-6.03-13.16-3.71-3.4-8.16-5.97-11.52-9.72-3.36-3.75-5.47-9.3-3.29-13.84-5.53,6.53-11.41,14.15-10.37,22.64.71,5.79,4.59,10.7,8.86,14.68s9.11,7.41,12.71,12.01c5.44,6.94,9.66,17.31,20.26,14.57,9.51-2.46,19.73-1.64,29.04-5.35Z"/>
                  <g>
                    <path class="cls-10" d="m.22,308.44c-.13,0-.24-.11-.24-.23-.05-17.01,2.98-35.12,9.27-55.38,5.61-18.08,13.08-35.58,20.3-52.5.05-.12.19-.18.31-.12.12.05.18.19.12.31-7.22,16.91-14.68,34.4-20.29,52.46C3.43,273.17.4,291.24.45,308.2c0,.13-.11.24-.24.24H.22Z"/>
                    <path class="cls-10" d="m3.51,275.63c-.12,0-.23-.1-.24-.22-.27-4.04-1.89-8.12-5.27-13.21-.84-1.26-1.73-2.52-2.6-3.74-1.9-2.67-3.86-5.44-5.36-8.42-3.44-6.83-4.44-15.03-2.72-22.49.03-.13.15-.2.28-.18.13.03.21.16.18.28-1.69,7.35-.71,15.43,2.68,22.17,1.49,2.95,3.44,5.7,5.32,8.35.87,1.22,1.76,2.49,2.61,3.76,2.31,3.48,5,8.15,5.35,13.45,0,.13-.09.24-.22.25,0,0-.01,0-.02,0Z"/>
                    <path class="cls-10" d="m2.51,283.25s-.05,0-.07-.01c-.12-.04-.19-.17-.15-.3,1.77-5.58,6.58-9.73,10.45-13.08,2.4-2.07,5.11-4.41,8.43-5.29,2.57-.68,5.28-.42,7.89-.17l.5.05c6.16.58,13.36.89,20.07-1.27,7.06-2.28,12.42-7.15,14.33-13.04.04-.12.18-.19.3-.15.12.04.19.17.15.3-1.96,6.03-7.43,11.03-14.63,13.35-6.79,2.19-14.05,1.88-20.26,1.29l-.5-.05c-2.57-.25-5.24-.51-7.73.15-3.22.85-5.89,3.16-8.24,5.2-3.82,3.3-8.58,7.41-10.31,12.86-.03.1-.13.16-.23.16Z"/>
                    <path class="cls-10" d="m.29,300.69c-.09,0-.17-.05-.21-.13-.06-.11-.01-.26.1-.32,5.23-2.67,11.29-2.7,17.15-2.72,1.31,0,2.66-.01,3.97-.05,9.89-.27,19.91-2.49,28.98-6.42.12-.05.26,0,.31.12.05.12,0,.26-.12.31-9.13,3.96-19.21,6.19-29.15,6.46-1.32.04-2.67.04-3.99.05-5.8.02-11.8.05-16.93,2.67-.03.02-.07.02-.11.02Z"/>
                    <path class="cls-10" d="m12.65,243.63s-.07,0-.1-.02c-.12-.06-.17-.2-.11-.31,1.56-3.29,4.64-6.1,9.16-8.34,1.84-.91,3.77-1.68,5.64-2.43,1.93-.77,3.92-1.56,5.8-2.51,6.48-3.27,11.97-8.57,15.44-14.95.06-.12.21-.16.32-.1.12.06.16.21.1.32-3.52,6.46-9.08,11.84-15.65,15.14-1.9.96-3.9,1.75-5.84,2.53-1.86.74-3.79,1.51-5.61,2.41-4.42,2.19-7.43,4.92-8.94,8.12-.04.08-.13.13-.21.13Z"/>
                    <path class="cls-10" d="m14.75,237.35s-.04,0-.06,0c-.13-.04-.2-.16-.16-.29.53-1.9-.4-3.84-1.29-5.71l-.3-.63c-3.57-7.67-3.59-16.83-.04-24.51.06-.12.19-.17.31-.12.12.05.17.2.12.31-3.49,7.56-3.48,16.57.04,24.12l.3.63c.93,1.95,1.89,3.98,1.32,6.04-.03.1-.13.17-.23.17Z"/>
                  </g>
                </g>
              </g>
            </g>
            <g>
              <path class="cls-9" d="m760.29,298.71c-36.62,1.68-138.09,1.52-174.95-3.84-33.8-4.92-68.17-5.8-102.09-9.33-36.56-3.8-73.66-6.67-110.37-2.8-56.2,5.93-112.38,13.05-169.04,12.93-39.95-.08-79.78,1.38-119.38-4.99-8.61-1.39-87.78-4.62-96.96-7.35v252.19h772.8v-236.82Z"/>
              <g>
                <g>
                  <path class="cls-6" d="m760.29,315.37c-22.05,4.78-110.85,12.68-130.33,19.55-22.51,7.94-44,18.22-66.22,26.92-16.37,6.41-36.33,11.36-50.79,21.92-30.15,22.01,37.43,24,46.89,39.64-12.31,13.95-38.66,19.79-56.17,22.85-50.96,8.91-101.39,4.39-152.75,3.22-62.96-1.43-127.34-2.51-190.26.33-31.3,1.41-139.83,6.68-173.17,17.42v68.32h772.8v-220.16Z"/>
                  <path class="cls-32" d="m86.6,535.53c50.7-25.38,108.74-37.39,165.21-39.46,91.86-4.77,180.13,10.74,273.18-7.16,21.28-4.26,58.69-7.56,66.53-30.23,1.67-4.83-1.38-10-6.35-11.18-17.6-4.19-35.66-5.9-53.38-7.96-9.74,3.21-19.9,5.25-28.12,6.69-50.95,8.91-101.39,4.39-152.75,3.22-62.96-1.43-127.34-2.51-190.26.33-31.3,1.41-139.83,6.68-173.17,17.42v68.32h99.12Z"/>
                  <path class="cls-32" d="m760.29,315.37c-22.05,4.78-110.85,12.68-130.33,19.55-22.51,7.94-44,18.22-66.22,26.92-16.37,6.41-36.33,11.36-50.79,21.92-22.31,16.29,8.89,21.61,30.46,29.62,109.59-51.23,165.62-42.64,216.87-57.69v-40.31h0Z"/>
                </g>
                <g>
                  <path class="cls-20" d="m760.29,315.37c-22.05,4.78-110.85,12.68-130.33,19.55-22.51,7.95-44.01,18.22-66.22,26.91-16.37,6.41-36.33,11.36-50.78,21.91-14.08,10.27-6.86,16.19,5.82,21.16,13.7-8.04,30.69-12.53,44.96-18.11,22.21-8.7,43.71-18.98,66.22-26.91,19.47-6.87,108.27-14.77,130.33-19.55v-24.97Z"/>
                  <path class="cls-20" d="m539.19,436.83c-11.79,4.83-25.18,7.6-35.51,9.4-50.96,8.91-101.4,4.4-152.76,3.23-62.96-1.44-127.35-2.52-190.26.32-31.3,1.42-139.82,6.69-173.17,17.43v24.96c33.35-10.74,141.88-16.01,173.17-17.42,62.91-2.84,127.3-1.77,190.26-.33,51.36,1.17,101.79,5.69,152.76-3.22,17.5-3.05,43.85-8.89,56.16-22.85v-24.97c-5.05,5.73-12.45,10.08-20.65,13.44Z"/>
                </g>
              </g>
            </g>
            <g>
              <g>
                <path class="cls-2" d="m52.78,295.34c.4,7.4.63,15.45-3.65,21.5,6.85-4.19,16.66-2.58,21.8,3.59-5.56,4.2-13.5,4.97-19.76,1.9,5.71,5.72,6.93,15.39,2.82,22.35-7.66-3.41-12.36-12.43-10.78-20.66-2.04,4.25-6.72,6.73-11.38,7.37s-9.39-.26-14.01-1.16c2.11-7.91,10.46-13.63,18.59-12.74-4.2-1.09-8.36-3.09-10.94-6.58-2.58-3.49-3.13-8.71-.42-12.1,3.44,1.19,8.17,2.17,10.9,4.62,1.49,1.34,2.85,2.83,4.06,4.43.67.88,3.2,3.74,3.04,4.87.62-4.34,1.28-8.8,3.45-12.61.83-1.46,1.89-2.17,3.26-3.03.2-.13,3.02-1.86,3.02-1.75Z"/>
                <path class="cls-19" d="m40.04,316.16c-.67,1.19.99,3.39,3.7,4.91,2.71,1.52,5.45,1.8,6.12.61s-.99-3.39-3.7-4.91c-2.71-1.52-5.45-1.8-6.12-.61Z"/>
              </g>
              <g>
                <path class="cls-2" d="m572.42,297.87c-1.03,5.64-1.98,11.79.73,16.85-4.85-3.88-12.54-3.59-17.08.64,3.86,3.76,9.88,5.12,14.98,3.37-4.94,3.84-6.81,11.14-4.32,16.88,6.21-1.87,10.69-8.34,10.27-14.82,1.15,3.46,4.5,5.81,8.02,6.76,3.52.95,7.23.71,10.87.47-.85-6.27-6.71-11.47-13.04-11.57,3.33-.43,6.72-1.56,9.03-3.99,2.32-2.43,3.24-6.38,1.49-9.24-2.76.58-6.48.87-8.82,2.49-1.27.88-2.46,1.9-3.54,3.01-.6.61-2.82,2.56-2.8,3.45-.06-3.39-.13-6.88-1.43-10.01-.5-1.2-1.24-1.85-2.21-2.64-.14-.12-2.13-1.72-2.15-1.64Z"/>
                <path class="cls-19" d="m580.18,315.08c.4.98-1.09,2.5-3.32,3.41-2.23.91-4.36.85-4.76-.12-.4-.98,1.09-2.5,3.32-3.41,2.23-.91,4.36-.85,4.76.12Z"/>
              </g>
              <g>
                <path class="cls-2" d="m83.14,363.99c1.31,2.05,2.68,4.31,2.43,6.73,1.28-2.3,4.34-3.43,6.81-2.5-.91,2.1-3.05,3.6-5.33,3.74,2.56.71,4.47,3.27,4.42,5.93-2.74.27-5.54-1.55-6.42-4.16.11,1.54-.83,3.01-2.06,3.95-1.23.94-2.72,1.45-4.19,1.94-.68-2.6.78-5.58,3.25-6.64-1.38.37-2.89.47-4.19-.11-1.3-.58-2.3-1.98-2.07-3.39,1.18-.22,2.68-.7,3.86-.44.64.14,1.27.35,1.87.61.33.14,1.52.55,1.66.9-.52-1.34-1.06-2.72-1.05-4.16,0-.55.19-.93.44-1.39.04-.07.56-1.02.58-.99Z"/>
                <path class="cls-19" d="m82.87,372c0,.45.83.81,1.85.8,1.02,0,1.85-.37,1.85-.82,0-.45-.83-.81-1.85-.8-1.02,0-1.85.37-1.85.82Z"/>
              </g>
              <g>
                <path class="cls-2" d="m624.76,302.17c1.31,2.05,2.68,4.31,2.43,6.73,1.28-2.3,4.34-3.43,6.8-2.5-.91,2.1-3.05,3.6-5.34,3.74,2.55.71,4.47,3.27,4.42,5.93-2.74.27-5.54-1.55-6.42-4.16.1,1.54-.83,3.01-2.06,3.95-1.23.94-2.72,1.45-4.19,1.94-.68-2.6.78-5.58,3.25-6.64-1.38.37-2.89.47-4.19-.11-1.3-.58-2.3-1.98-2.08-3.39,1.17-.22,2.68-.7,3.86-.44.64.14,1.27.35,1.87.61.33.14,1.52.55,1.66.9-.52-1.34-1.06-2.72-1.05-4.16,0-.55.19-.93.44-1.39.04-.07.56-1.02.58-.99Z"/>
                <path class="cls-19" d="m624.49,310.17c0,.45.83.81,1.85.8,1.02,0,1.85-.37,1.85-.82,0-.45-.83-.81-1.85-.8s-1.85.37-1.85.82Z"/>
              </g>
            </g>
            <g>
              <path class="cls-21" d="m301.46,0c.08,6.11-1.82,12.03-6.72,16.49-4.97,4.54-12.12,6.14-18.35,4.43-3.4,10.91-16.36,15.91-26.46,9.9-7.58,10.64-21.21,14.06-32.94,9.46-.7,4.97,1.21,10.02,5.12,13.57,3.15,2.87.82,9.3-3.67,8.84-6.18-.63-11.45-3.46-15.18-7.64-4.57,16.81-17.94,29.52-33.54,37.96-4.43,2.4-9.85-2.52-7.09-7.09,4.67-7.7,7-16.09,7.05-24.57-7.78,6.55-17.57,10.06-28.02,8.73,2.34,12.64-1.9,26.56-13.72,33.27-10.85,6.17-25.39,3.85-33.94-4.82-10.1,12.63-29.03,14.19-40.65,2.43-4.43,5.04-10.13,8.87-17.06,9.48-4.9.43-9.78-.81-13.72-3.45-4.42,8.9-12.99,14.84-22.57,18.14V0h301.46Z"/>
              <path class="cls-21" d="m750,0v112.15c-2.37.16-4.82-.03-7.24-.58-4.09-.96-7.57-2.88-10.57-5.42.43,8.69,3.18,17.09,8.14,24.75,3.03,4.69-2.75,9.18-7.09,7.09-15.14-7.28-26.57-19.49-35.61-33.35-3.45,3.84-7.4,7.07-12.03,9.78-4.4,2.57-9.84-2.63-7.09-7.09,3.93-6.39,3.52-14.12-1.55-19.76-.33-.36-.57-.73-.78-1.11-1.92,1.58-4.25,2.69-7.12,3.01-7.79.91-13.42-4.39-17.36-10.54-1.49,1.99-2.93,4.07-5.52,5.11-3.88,1.54-8.33.7-11.85-1.39-8.46-5-8.96-13.58-9.72-22.14-17.82,7.43-36.51-3.19-45.99-19.4-9.97,8.43-25.75,4.66-31.57-7-1.76,1.96-3.46,3.99-5.72,5.42-3.72,2.36-8.1,2.91-12.33,1.82-6.93-1.81-11.09-6.88-13.9-12.84-4.14,4.87-9.49,8.45-16.26,7.45-7.66-1.13-11.7-7.27-13.97-14.02-4.54,1.61-9.69,1.33-14.39-.67-8.94-3.82-13.41-12.82-17-21.27h296.52Z"/>
            </g>
            <g>
              <g>
                <path class="cls-28" d="m752.52,385.97s1.52-6.24-.72-6.99c-2.24-.76-4.82,5.55-4.82,5.55l5.54,1.44Z"/>
                <path class="cls-28" d="m746.99,384.52s1.54-6.24-.69-7c-2.23-.76-4.84,5.55-4.84,5.55l5.53,1.45Z"/>
                <path class="cls-28" d="m741.46,383.06s1.56-6.23-.67-7c-2.23-.77-4.86,5.52-4.86,5.52l5.53,1.48Z"/>
                <path class="cls-28" d="m735.93,381.57s1.59-6.23-.64-7c-2.23-.77-4.89,5.51-4.89,5.51l5.53,1.49Z"/>
                <path class="cls-28" d="m730.41,380.07s1.62-6.22-.6-7.01c-2.22-.79-4.91,5.48-4.91,5.48l5.52,1.53Z"/>
                <path class="cls-28" d="m724.89,378.53s1.65-6.21-.57-7.01c-2.22-.79-4.94,5.45-4.94,5.45l5.51,1.56Z"/>
                <path class="cls-28" d="m719.38,376.97s1.68-6.2-.53-7.01c-2.21-.81-4.98,5.43-4.98,5.43l5.51,1.59Z"/>
                <path class="cls-28" d="m713.88,375.37s1.72-6.19-.48-7.02c-2.2-.83-5.02,5.39-5.02,5.39l5.5,1.63Z"/>
                <path class="cls-28" d="m708.38,373.73s1.77-6.17-.42-7.02c-2.19-.85-5.07,5.34-5.07,5.34l5.49,1.68Z"/>
                <path class="cls-28" d="m702.89,372.04s1.83-6.16-.35-7.03c-2.18-.86-5.13,5.28-5.13,5.28l5.48,1.74Z"/>
                <path class="cls-28" d="m697.42,370.29s1.91-6.14-.26-7.03c-1.09-.44-2.37.85-3.41,2.26-1.03,1.41-1.81,2.93-1.81,2.93,1.82.63,3.65,1.23,5.47,1.83Z"/>
                <path class="cls-28" d="m691.95,368.45s2.01-6.1-.11-7.03c-1.06-.47-2.37.8-3.46,2.17-1.08,1.38-1.98,2.83-1.98,2.83,1.95.78,3.7,1.39,5.54,2.03Z"/>
              </g>
              <path class="cls-16" d="m705.73,396.12s.14,41.3-14.07,43.75-17.82-5.13-17.82-5.13c0,0-.78-2.26,1.98-1.64,0,0-1.4-3.2,1.25-2.48,0,0-.55-3,1.3-1.93,1.85,1.07,4.64,2.46,6.2.12,1.56-2.34,5.57-25.44,5.57-31.54,0-6.1,12.43-17.29,15.59-1.15Z"/>
              <g>
                <path class="cls-22" d="m651.6,388.99c-4.57-3.13-5.41-6.68-5.41-6.68,0,0-20.08-1.17-46.63-11.38-3.68-12.58-2.03-21.6.58-24.08,2.67-2.55,5.54,3.21,5.54,3.21,0,0,2.19-4.12,4.27-3.24s2.31,4.83,2.31,4.83l31.69,2.54s.67-11.69,11.33-10.11c10.66,1.58,9.55,14.1,9.55,14.1,0,0,6.79-11.47,15.16-8.2s6.07,12.45,6.07,12.45c24.53,15.07,103.62,31.38,147.39,35.65s75.45-8.32,76.74-8.5c13.11-1.91,2.39,10.08-18.43,23.68-19.9,3.96-62.1,10.86-103.98,8.26-57.57-3.58-119.29-21.33-136.17-32.51Z"/>
                <g>
                  <g class="cls-13">
                    <path class="cls-4" d="m765.24,441.66c-38.66-3.71-86.16-15.38-111.69-26.97-34.56-15.7-49.66-29.74-53.71-42.82-.1-.32-.18-.63-.27-.94,3.65,1.4,7.17,2.63,10.54,3.71,35.4,32.18,83.37,49.75,131.17,61.9,7.91,2.49,15.98,3.45,23.98,5.12Z"/>
                  </g>
                  <g class="cls-7">
                    <path class="cls-31" d="m646.19,382.31s.84,3.55,5.41,6.68c16.88,11.18,78.6,28.93,136.17,32.51,41.88,2.6,84.08-4.3,103.98-8.26-2.79,1.83-5.84,3.71-9.14,5.66-27.91,16.45-60.04,21.21-81,23.36-10.1,1.04-22.68.71-36.36-.6-8-1.67-16.07-2.64-23.97-5.12-47.8-12.16-95.76-29.73-131.17-61.9,21.15,6.79,36.09,7.67,36.09,7.67Z"/>
                  </g>
                  <g class="cls-27">
                    <g>
                      <path class="cls-30" d="m639.97,418.98c19.24-4.9,22.83-38.93,22.86-39.27l-.65-.07c-.03.34-3.57,33.91-22.38,38.7l.16.63Z"/>
                      <path class="cls-30" d="m660.48,428.54c18.07-8.23,15.59-42.35,15.56-42.69l-.65.05c.03.34,2.48,34.01-15.18,42.05l.27.59Z"/>
                      <path class="cls-30" d="m682.11,435.23c18.07-8.23,15.59-42.35,15.56-42.69l-.65.05c.03.34,2.48,34.01-15.18,42.05l.27.59Z"/>
                      <path class="cls-30" d="m714.55,443.99c18.07-8.23,15.59-42.35,15.56-42.69l-.65.05c.03.34,2.48,34.01-15.18,42.05l.27.59Z"/>
                      <path class="cls-30" d="m734.03,446.08c18.07-8.23,15.59-42.35,15.56-42.69l-.65.05c.03.34,2.48,34.01-15.18,42.05l.27.59Z"/>
                    </g>
                  </g>
                </g>
              </g>
              <path class="cls-25" d="m644.71,382.15s-1.67,7.45-4.16,6.31-2.33-6.73-2.33-6.73l6.49.42Z"/>
              <path class="cls-25" d="m637.2,381.34s-1.67,7.45-4.16,6.31-2.33-6.73-2.33-6.73l6.49.42Z"/>
              <path class="cls-25" d="m630.82,379.84s-1.67,7.45-4.16,6.31-2.33-6.73-2.33-6.73l6.49.42Z"/>
              <path class="cls-25" d="m623.97,378.2s-1.67,7.45-4.16,6.31-2.24-7.54-2.24-7.54l6.41,1.23Z"/>
              <path class="cls-25" d="m616.97,376.41s-1.67,7.45-4.16,6.31c-2.49-1.14-2.24-7.54-2.24-7.54l6.41,1.23Z"/>
              <path class="cls-25" d="m610.58,374.64s-1.67,7.45-4.16,6.31-2.24-7.54-2.24-7.54l6.41,1.23Z"/>
              <path class="cls-10" d="m641.63,382.94c1.93.21,3.53.26,4.67.09,9.19-1.32,9.16-8.89,9.16-8.97,0-.4-.34-.72-.74-.72-.4,0-.72.34-.72.74,0,.26-.03,6.36-7.91,7.5-8.4,1.21-45.66-10.29-46.04-10.41-.39-.11-.79.1-.91.48-.12.39.1.79.48.91,1.34.42,29.08,8.98,42.01,10.37Z"/>
              <path class="cls-10" d="m671.45,360.4c-.21,1.9.59,3.55,1.78,3.68,1.19.13,2.32-1.31,2.53-3.21.21-1.9-.59-3.55-1.78-3.68-1.19-.13-2.32,1.31-2.53,3.21Z"/>
              <path class="cls-10" d="m650.93,354.71c-.21,1.9.59,3.55,1.78,3.68,1.19.13,2.32-1.31,2.53-3.21.21-1.9-.59-3.55-1.78-3.68-1.19-.13-2.32,1.31-2.53,3.21Z"/>
              <path class="cls-10" d="m606.67,359.43c1.44.16,3.42-2.46,2.31-5.31-1.11-2.84-5.97,4.89-2.31,5.31Z"/>
              <path class="cls-10" d="m601.6,358.88c-1.44-.15-2.82-3.14-1.13-5.68,1.69-2.54,4.79,6.05,1.13,5.68Z"/>
              <path class="cls-5" d="m665.1,383.07c.22,2.6,5.12,4.32,10.94,3.83,5.82-.49,10.37-3,10.15-5.6-.22-2.6-5.12-4.32-10.94-3.83-5.82.49-10.37,3-10.15,5.6Z"/>
              <path class="cls-22" d="m718.11,402.68s.14,41.3-14.07,43.75-17.82-5.13-17.82-5.13c0,0-.78-2.26,1.98-1.64,0,0-1.4-3.2,1.25-2.48,0,0-.55-3,1.3-1.93,1.85,1.07,4.64,2.46,6.2.12,1.56-2.34,5.57-25.44,5.57-31.54,0-6.1,12.43-17.29,15.59-1.15Z"/>
              <g class="cls-15">
                <g>
                  <path class="cls-31" d="m639.17,364.76c-.47-.71-1.26-1.97-.68-2.88.58-.9,2.8-.93,3.44-.87.64.05.69,2.52.95,2.73.26.22-.2,1.09-.77,1.19,0,0-2.47.54-2.94-.17Z"/>
                  <path class="cls-31" d="m644.31,359.22c-.18.31-1.22.07-1.44-.12s-.88-.89-.55-1.01c0,0,1.63-.69,1.84-.09.21.6.33.91.15,1.22Z"/>
                  <path class="cls-31" d="m636.51,359.74c-.2.21-.92.15-1.02-.19,0,0-.59-1.03.02-1.19.62-.16.93-.25,1.23-.05.29.2-.03,1.22-.23,1.43Z"/>
                  <path class="cls-31" d="m641.25,358.97c-.35,1-1.39.72-1.91.66-.53-.06-1.51-.49-1.05-1.32,0,0,1.34-1.29,1.92-1.25.58.04,1.4.91,1.04,1.91Z"/>
                  <path class="cls-31" d="m634.52,361.83c.22-1.04,1.29-.89,1.82-.9.53,0,1.56.29,1.21,1.17,0,0-1.16,1.45-1.75,1.49-.58.04-1.5-.72-1.28-1.76Z"/>
                </g>
                <g>
                  <path class="cls-31" d="m629.89,362.67c-.47-.71-1.26-1.97-.68-2.88.58-.9,2.8-.93,3.44-.87s.69,2.52.95,2.73c.26.21-.2,1.09-.77,1.19,0,0-2.47.54-2.94-.17Z"/>
                  <path class="cls-31" d="m634.07,357.67c-.18.31-1.22.07-1.44-.12s-.88-.89-.55-1.01c0,0,1.63-.69,1.84-.09.21.6.33.91.15,1.22Z"/>
                  <path class="cls-31" d="m625.82,358.59c-.2.21-.92.15-1.02-.19,0,0-.59-1.03.02-1.19.62-.16.93-.25,1.23-.05.29.2-.03,1.22-.23,1.43Z"/>
                  <path class="cls-31" d="m645.71,362.61c-.2.21-.92.15-1.02-.19,0,0-.59-1.03.02-1.19.62-.16.93-.25,1.23-.05.29.2-.03,1.22-.23,1.43Z"/>
                  <path class="cls-31" d="m620.38,357.53c-.2.21-.92.15-1.02-.19,0,0-.59-1.03.02-1.19.62-.16.93-.25,1.23-.05.29.2-.03,1.22-.23,1.43Z"/>
                  <path class="cls-31" d="m630.69,356.98c.1,1.06-.96,1.23-1.46,1.4-.5.17-1.57.19-1.51-.75,0,0,.68-1.73,1.22-1.94.54-.21,1.65.24,1.75,1.29Z"/>
                  <path class="cls-31" d="m623.69,358.78c.1,1.06-.96,1.23-1.46,1.4-.5.17-1.57.19-1.51-.75,0,0,.68-1.73,1.22-1.94.54-.21,1.65.24,1.75,1.29Z"/>
                  <path class="cls-31" d="m625.15,361.08c-.43-.97.52-1.48.94-1.8.42-.32,1.43-.68,1.67.23,0,0-.09,1.86-.54,2.23-.45.37-1.64.3-2.07-.67Z"/>
                </g>
              </g>
            </g>
          </g>
          <path class="cls-17" d="m136.42,122.4c19.76,0,37.5-2.51,46.36-8.64C230.24,80.92,236.65,23.53,239.06,1.93c.23-2.01.42-3.74.6-5.03l-2.97-.42c-.19,1.34-.38,3.09-.61,5.12-2.37,21.23-8.67,77.63-55.01,109.7-20.16,13.95-100.5,4.57-127.7-6.67l-1.15,2.77c16.57,6.85,56.57,15.01,84.2,15.01Z"/>
        </g>
      </g>
      <g id="top_layer" data-name="top layer">
        <g class="cls-14">
          <g>
            <g>
              <g>
                <path class="cls-12" d="m1.04,518.45c-5.3-27.98-20.71-53.94-42.73-72,27.06,5.65,51,24.64,62.65,49.71-13.74-46.77-9.16-98.67,12.57-142.31-5.47,43.08-10.61,88.66,6.86,128.43,1.25-34.94,19.09-68.93,47.13-89.82-19.86,26.49-29.7,60.31-27.16,93.32,25.63-19.47,53.85-39.85,86.04-39.64-30.56,12.97-53.63,42.23-59.13,74.97"/>
                <g>
                  <path class="cls-1" d="m-4.16,472.3c9.02,13.92,14.64,30,16.36,46.5l14.93.46c-5.43-18.31-16.47-34.92-31.3-46.96Z"/>
                  <path class="cls-1" d="m59.11,509.17c-5.73-19.29-6.75-39.97-2.93-59.73-8.59,20.52-7.79,43.59-6.85,65.82-11.66-18.77-20.45-39.33-25.97-60.73.6,21.62,2.03,43.23,4.26,64.74l51.42,1.58c3.54-21,12.69-41.06,26.43-57.34-19.29,10.51-35.55,26.53-46.36,45.66Z"/>
                </g>
              </g>
              <g>
                <path class="cls-12" d="m754.47,458.54v47.84l-.6.6h-164.22c11.68-3.16,25.82-2.95,33.27-11.38-3.54-3.83-7.31-7.45-10.02-11.91,9.56,1.48,17.73,8.48,26.65,12.01-1.01-1.62-1.49-3.91-2.36-5.59,11.74,1.16,24.39,4.58,35.83,7.53-13.15-7.89-31.73-20.42-48.82-19.43,21.42-4.36,40.91-4.63,63.29.5-6.08-11.75-13.32-21.91-25.19-28.51,13.13-.8,33.05,7.38,41.32,17.43-1.14-27.57-3.02-56.76,8.19-82.46.29,21.98-2,50.87,8.36,71.15.39-8.29.27-16.64,1.13-24.93,2.15,6.01,1.92,12.88,4.05,18.51.4-8.43,1.08-18.27,5.21-25.67,3.95,8.61,5.47,20.55,5.56,30.82.43-29.24,4.98-54.37,14.06-82.37-8.56,27.42-5.72,58.44,4.29,85.86Z"/>
                <path class="cls-1" d="m754.47,492.33v14.05l-.6.6h-49.51c-7.93-10.14-19.64-18.97-30.59-22.5,11.22,1.72,22.02,4.49,33.13,6.48-3.97-5.16-8.19-10.18-11.12-16.04,8.97,6.01,19.05,15.54,28.53,20.12-2.27-8.28-4.75-18.93-5.26-27.26,4.95,4.55,8.25,13.02,13.83,16.51.56-9.44-.47-19.32,1.94-28.51,4.04,13.24,9.26,26.44,19.21,35.86.14.23.29.46.44.69Z"/>
              </g>
            </g>
            <g>
              <g>
                <path class="cls-17" d="m462.64-101.31c-7,10.19-12.98,21.07-19.91,31.32-6.95,10.26-14.35,20.23-22.26,29.77-15.81,19.09-33.81,36.52-54.23,50.64-40.06,27.71-91.81,41.33-139.82,29.29-26.34-6.61-54.68-21.63-67.09-46.95-1.5-3.06-6.24-.71-4.74,2.36,11.01,22.66,34.26,37.75,57.29,46.21,23.86,8.76,49.94,10.66,75.02,7.26,51.77-7.02,96.6-36.71,130.68-75.3,9.62-10.89,18.49-22.42,26.69-34.41,8.26-12.08,16.72-24.62,22.77-37.97,1.19-2.63-2.86-4.49-4.42-2.22Z"/>
                <path class="cls-17" d="m703.44-58.68c-10.06,9.25-19.63,18.94-30.16,27.67-10.28,8.54-21.08,16.43-32.29,23.69-22.21,14.38-46.13,26.1-71.13,34.76-54.76,18.97-114.43,22.72-171.21,11.22-15.92-3.22-31.58-7.62-46.85-13.15-14.65-5.3-30.01-11.84-39.38-24.93-1.74-2.43-5.78-.16-4.07,2.38,7.3,10.8,18.16,17.73,29.9,22.94,13.57,6.02,27.84,10.65,42.18,14.45,29.3,7.76,59.76,11.47,90.07,11.01,57.74-.87,114.65-17.14,164.2-46.77,13.37-7.99,26.13-16.96,38.23-26.76,12.2-9.88,24.35-20.59,34.14-32.91,2.01-2.52-1.14-5.89-3.61-3.61Z"/>
                <path class="cls-17" d="m756.68,68.92c-9.06,1.36-17.95,4-27,5.5-8.76,1.45-17.6,2.42-26.49,2.62-17.35.39-35.06-2.19-50.77-9.87-29.72-14.53-48.5-43.5-65.82-70.45-1.7-2.65-5.93-.22-4.25,2.48,14.01,22.6,28.64,45.91,49.88,62.49,22.09,17.24,49.32,23.21,76.93,21.59,16.08-.95,33.9-3.2,48.97-9.1,3.3-1.29,2.03-5.79-1.45-5.27Z"/>
                <path class="cls-17" d="m158.12-5.15c-10.24,29.68-28.93,56.05-52.92,76.23-24.4,20.53-56,36.18-88.1,38.8-19.96,1.63-39.54-4.83-49.43-23.21-1.15-2.14-4.49-.49-3.8,1.76,5.07,16.28,22.22,25.7,38.27,27.65,18.36,2.24,37.51-2.79,54.55-9.35,31.75-12.22,59.89-33.69,80.21-60.98,11.28-15.15,20.07-31.9,26.09-49.8,1.02-3.05-3.83-4.1-4.87-1.1Z"/>
              </g>
              <g>
                <g>
                  <path class="cls-24" d="m48.01-18.86c10.42-2.96,23.13-.71,29.32,8.18C65.06-2.23,52.78,6.21,40.49,14.65c6.06,2.22,12.94-.31,18.06-4.24,5.12-3.93,9.09-9.16,13.92-13.45,4.82-4.3,11.04-7.76,17.45-6.93,5.89.76,10.84,5.11,13.75,10.28,2.91,5.17,4.07,11.12,4.99,16.99-7.13-2.69-14.91,1.19-21.44,5.11s-13.95,8.18-21.31,6.22c4.9,2.39,10.76,1.6,15.96-.02,5.21-1.62,10.21-4.03,15.61-4.82,5.4-.78,11.55.45,14.82,4.81,2.1,2.8,2.7,6.43,2.95,9.93.78,11.05-1.43,22.3-6.31,32.24-6.7,2.8-13.5,5.63-20.7,6.58-7.2.95-14.98-.18-20.71-4.64-9.52-7.42-10.69-21.12-11.06-33.19-3.56,12.14.02,26.09,8.99,35.02-7.32,1.99-15.53.32-21.49-4.36s-9.53-12.26-9.34-19.84c.12-4.81,1.66-9.52,1.56-14.33-.1-4.81-2.54-10.17-7.22-11.28,3.82,3.65,4.32,9.62,3.41,14.83-.91,5.21-2.97,10.2-3.37,15.47s1.41,11.25,6.13,13.62c-8.79-1.89-18.56-4.47-23.13-12.21-3.12-5.28-3.03-11.85-2.02-17.9s2.84-12.01,2.89-18.14c.08-9.26-3.04-20.6,7.54-25.11,9.49-4.04,17.48-11.27,27.6-14.15Z"/>
                  <g>
                    <path class="cls-10" d="m109.2,71.03s-.06,0-.09-.02c-16.85-9.46-34.27-19.25-50.53-30.71C40.38,27.47,26.26,14.33,15.41.14c-.06-.08-.05-.19.03-.25.08-.06.19-.05.26.03,10.83,14.16,24.92,27.27,43.1,40.08,16.25,11.45,33.66,21.23,50.5,30.69.09.05.12.16.07.25-.03.06-.1.09-.16.09Z"/>
                    <path class="cls-10" d="m56.63,75.43s-.08-.01-.12-.04c-6.19-5.1-10.61-12.55-12.12-20.43-.66-3.44-.79-6.99-.92-10.43-.06-1.57-.12-3.2-.23-4.79-.45-6.42-1.71-10.87-4.09-14.41-.06-.08-.03-.2.05-.25.08-.06.2-.03.25.05,3.13,4.67,3.87,10.56,4.15,14.59.11,1.6.17,3.22.24,4.8.13,3.42.27,6.96.92,10.37,1.49,7.8,5.86,15.17,11.99,20.22.08.06.09.18.02.26-.04.04-.09.07-.14.07Z"/>
                    <path class="cls-10" d="m34.01,68.37s-.06,0-.09-.02c-7.97-4.48-13.47-11.35-15.09-18.83-1.25-5.74-.25-11.66.72-17.38.49-2.88.99-5.86,1.2-8.79.45-6.19-.41-12.56-2.48-18.41-.03-.09.02-.2.11-.23.09-.03.2.02.23.11,2.09,5.9,2.95,12.31,2.5,18.55-.21,2.94-.72,5.93-1.21,8.83-.96,5.69-1.95,11.58-.72,17.25,1.61,7.38,7.04,14.16,14.92,18.59.09.05.12.16.07.25-.03.06-.1.09-.16.09Z"/>
                    <path class="cls-10" d="m54.19,24c-1.25,0-2.48-.07-3.66-.14-5.35-.3-12.02-.68-17.05-4.18-.08-.06-.1-.17-.05-.25.06-.08.17-.1.25-.05,4.94,3.44,11.55,3.82,16.86,4.12,3.27.18,6.99.4,10.22-.96,2.51-1.05,4.57-2.98,6.56-4.83l.39-.36c4.79-4.46,10.63-9.36,17.67-11.88,7.47-2.68,15.2-2.03,20.68,1.73.08.06.1.17.05.25-.06.08-.17.1-.25.05-5.38-3.7-12.99-4.33-20.35-1.69-6.98,2.5-12.79,7.37-17.55,11.81l-.39.36c-2.01,1.88-4.1,3.83-6.66,4.91-2.13.9-4.45,1.12-6.72,1.12Z"/>
                    <path class="cls-10" d="m20.58,6.61c-.09,0-.16-.06-.18-.15-.02-.1.05-.19.15-.21,5.97-1.11,10.98-4.93,15.83-8.64,1.1-.84,2.23-1.7,3.35-2.52,8.45-6.14,18.26-10.74,28.39-13.29.1-.02.2.03.22.13.03.1-.03.2-.13.22-10.08,2.54-19.86,7.11-28.26,13.23-1.12.81-2.25,1.68-3.34,2.51-4.89,3.73-9.94,7.58-15.99,8.71-.01,0-.02,0-.03,0Z"/>
                    <path class="cls-10" d="m74.84,47.83c-2.86,0-5.37-.55-7.51-1.64-.09-.05-.12-.15-.08-.24.05-.09.15-.13.24-.08,3.32,1.7,7.59,2.05,12.69,1.03,2.09-.42,4.19-1.01,6.21-1.58,2.11-.6,4.29-1.22,6.48-1.64,7.58-1.45,15.63-.53,22.69,2.58.09.04.13.15.09.24-.04.09-.15.13-.24.09-6.99-3.09-14.97-3.99-22.47-2.56-2.18.42-4.35,1.03-6.45,1.63-2.03.58-4.13,1.17-6.24,1.59-1.92.38-3.73.57-5.42.57Z"/>
                    <path class="cls-10" d="m91.57,76.81s-.06,0-.08-.02c-7.86-4.11-13.7-11.74-15.64-20.39-.05-.24-.11-.48-.16-.72-.46-2.14-.94-4.36-2.61-5.62-.08-.06-.1-.17-.04-.25s.17-.1.25-.04c1.78,1.34,2.27,3.62,2.75,5.83.05.24.1.48.16.72,1.91,8.55,7.69,16.08,15.45,20.15.09.05.12.16.08.25-.03.06-.09.1-.16.1Z"/>
                  </g>
                </g>
                <g>
                  <path class="cls-12" d="m-1.97,24.07c-.95,3.43-2.18,7.71.48,10.08,2.7,2.42,7.08.51,9.56-2.13,5.87-6.27,7-16.49,2.63-23.9,5.11,3.01,7.73,9.15,8,15.08.27,5.93-1.47,11.75-3.31,17.38-.87,2.68-1.79,5.41-1.7,8.23.08,2.81,1.37,5.77,3.89,7.04,4.44,2.23,9.73-2.04,11.16-6.79,1.43-4.76.55-9.9,1.26-14.81,3.14,11.19,2.06,23.5-2.99,33.97-1.05,2.18-2.27,4.31-2.77,6.67s-.12,5.08,1.64,6.73c2.89,2.71,8.01,1.03,10.18-2.29s2.23-7.54,2.22-11.5c.33,10.5-1.5,21.07-5.34,30.85-1.53,3.9-3.17,8.9-.13,11.78,2.92,2.76,8.15.82,10.09-2.7,1.94-3.52,1.58-7.81,1.16-11.8-.24,9.54-.48,19.09-.72,28.64-.09,3.78.32,8.41,3.77,9.96,3.49,1.57,7.61-1.7,8.4-5.45s-.69-7.56-2.14-11.1c3.28,8.04,6.55,16.09,9.83,24.13.97,2.39,2.61,5.22,5.18,5.01,3.04-.25,3.87-4.54,2.68-7.35-1.19-2.81-3.51-5.21-3.8-8.25,3.81,6.4,8.46,13.42,15.77,14.85,2.3.45,4.84.24,6.75-1.11s3-4.01,2.07-6.16c-.85-1.98-3-3.02-5.01-3.78-6.35-2.41-13.09-3.79-19.88-4.08,2.3.1,4.66.19,6.82-.59,2.16-.78,4.1-2.65,4.23-4.94.13-2.2-1.41-4.2-3.29-5.35-1.88-1.14-4.07-1.62-6.18-2.24-8.67-2.52-16.56-7.66-22.38-14.57,2.54,1.78,5.2,3.61,8.27,4.08,3.07.47,6.65-.87,7.7-3.78.86-2.36-.17-5.05-1.81-6.95-1.65-1.9-3.84-3.21-5.85-4.71-7.96-5.92-13.32-15.21-14.48-25.06,1.75,1.7,3.6,3.38,5.86,4.29,2.26.92,5.03.94,6.97-.53,3.07-2.32,2.76-7.26.57-10.42s-5.68-5.11-8.77-7.4c-5.38-3.99-9.78-9.31-12.7-15.34,1.92,2.23,3.92,4.51,6.54,5.84,2.62,1.33,6.07,1.5,8.33-.39,2.81-2.35,2.65-6.95.65-10.02-2-3.07-5.32-4.97-8.51-6.76-7.48-4.19-14.97-8.38-22.45-12.57,3.23.17,6,2.27,9.03,3.4s7.28.75,8.42-2.28c1.24-3.28-2.18-6.38-5.31-7.97C17.28,1.24,4.39.07-8.08-1.06,2.36.04-.06,17.17-1.97,24.07Z"/>
                  <g>
                    <path class="cls-10" d="m78.48,137.23s0,0-.01,0c-8.28-2.4-15.62-7.6-21.84-15.46-5.35-6.76-9.67-15.34-12.52-24.81-2.66-8.86-4.21-18.15-5.71-27.14-1.48-8.84-3-17.98-5.58-26.7C23.99,13.3,6.23,5-1,2.82c-.1-.03-.16-.14-.13-.24.03-.1.15-.16.24-.13,8.24,2.49,15.55,7.76,21.7,15.67,5.28,6.79,9.56,15.39,12.37,24.89,2.59,8.74,4.12,17.89,5.59,26.74,1.5,8.97,3.05,18.25,5.7,27.09,8.94,29.79,26.82,37.91,34.09,40.01.1.03.16.14.13.24-.03.1-.13.16-.23.14Z"/>
                    <path class="cls-10" d="m36.2,104.6s-.02,0-.03-.01c-.1-.04-.14-.16-.1-.26,3.14-7.2,4.63-15.16,4.29-23.01,0-.11.08-.2.19-.2.11,0,.2.08.2.19.34,7.91-1.16,15.93-4.33,23.18-.04.09-.13.13-.22.11Z"/>
                    <path class="cls-10" d="m55.68,99.39s0,0-.01,0c-6.39-2-11.7-6.89-14.22-13.08-.04-.1,0-.21.11-.25.1-.04.21,0,.25.11,2.47,6.09,7.7,10.9,13.98,12.86.1.03.16.14.13.24-.03.1-.13.15-.23.13Z"/>
                    <path class="cls-10" d="m49.63,127.73c-.09-.02-.16-.11-.15-.21.62-7.67-.19-15.29-2.4-22.66-.03-.1.03-.21.13-.24.1-.03.21.03.24.13,2.23,7.41,3.04,15.09,2.42,22.8,0,.11-.1.19-.21.18,0,0-.02,0-.03,0Z"/>
                    <path class="cls-10" d="m71.53,125.14h0c-7.56-1.76-14.61-5.88-19.86-11.59-.07-.08-.07-.2.01-.28.08-.07.2-.07.28.01,5.2,5.66,12.18,9.73,19.66,11.47.11.03.17.13.15.23-.03.1-.13.17-.23.15Z"/>
                    <path class="cls-10" d="m68.76,142.25c-.07-.02-.13-.07-.15-.15-1.28-6.5-4.62-12.6-9.43-17.16-.08-.07-.08-.2,0-.28.07-.08.2-.08.28,0,4.87,4.62,8.26,10.79,9.55,17.37.02.11-.05.21-.15.23-.03,0-.06,0-.08,0Z"/>
                    <path class="cls-10" d="m47.95,64.56s-.04-.01-.06-.03c-6.69-4.42-11.77-11.04-14.29-18.66-.03-.1.02-.21.12-.25.1-.03.21.02.25.12,2.49,7.53,7.52,14.09,14.14,18.45.09.06.11.18.06.27-.05.07-.13.1-.21.08Z"/>
                    <path class="cls-10" d="m32.14,76.68s-.02,0-.03,0c-.1-.04-.15-.15-.11-.25,2.92-7.25,3.98-15.19,3.05-22.96-.01-.11.06-.2.17-.22.1-.01.2.06.22.17.94,7.83-.12,15.84-3.08,23.15-.03.09-.13.14-.22.12Z"/>
                    <path class="cls-10" d="m40.93,36.26s-.03,0-.04-.01c-7.06-3.33-13.3-8.37-18.05-14.57-.07-.09-.05-.21.04-.27.09-.07.21-.05.27.04,4.71,6.15,10.9,11.15,17.9,14.45.1.05.14.16.09.26-.04.08-.13.13-.22.11Z"/>
                    <path class="cls-10" d="m20.15,47.17s-.03,0-.05-.02c-.1-.05-.13-.17-.08-.26,4.03-7.89,4.98-17.32,2.59-25.85-.03-.1.03-.21.14-.24.1-.03.21.03.24.14,2.42,8.63,1.46,18.15-2.61,26.13-.04.08-.13.12-.22.1Z"/>
                    <path class="cls-10" d="m26.57,10.64s-.03-.01-.05-.02c-7.1-3.92-15.15-6.08-23.25-6.25-.11,0-.19-.09-.19-.2,0-.11.09-.19.2-.19,8.17.17,16.28,2.35,23.43,6.3.09.05.13.17.08.26-.04.08-.13.12-.21.1Z"/>
                    <path class="cls-10" d="m5.61,28.27s0,0,0,0c-.1-.03-.17-.13-.14-.24,1.03-3.99,1.95-8.28,1.74-12.59-.22-4.67-1.83-8.77-4.51-11.55-.08-.08-.07-.2,0-.27.08-.08.2-.07.28,0,2.76,2.84,4.4,7.03,4.62,11.8.21,4.36-.72,8.68-1.75,12.7-.03.1-.13.17-.23.14Z"/>
                  </g>
                </g>
              </g>
              <g>
                <g>
                  <path class="cls-24" d="m713.83-2.88c-10.67,1.85-21.15,9.39-22.87,20.08,14.73,2.28,29.46,4.57,44.18,6.85-4.5,4.63-11.8,5.33-18.12,4.01-6.32-1.32-12.17-4.31-18.37-6.09-6.21-1.78-13.32-2.2-18.73,1.32-4.97,3.24-7.55,9.3-7.93,15.23-.38,5.92,1.15,11.79,2.87,17.47,5.26-5.51,13.95-5.39,21.54-4.69,7.59.7,16.12,1.32,21.9-3.64-3.38,4.28-9,6.11-14.4,6.9-5.4.79-10.95.79-16.15,2.43-5.2,1.63-10.21,5.41-11.27,10.76-.68,3.43.35,6.97,1.65,10.22,4.09,10.29,10.95,19.47,19.67,26.31,7.25-.38,14.61-.78,21.51-3.04,6.9-2.26,13.42-6.65,16.65-13.16,5.37-10.81.47-23.67-4.43-34.7,8.47,9.39,11.3,23.52,7.09,35.45,7.45-1.38,14.13-6.45,17.48-13.25s3.27-15.19-.19-21.93c-2.2-4.28-5.62-7.86-7.62-12.23-2-4.38-2.12-10.26,1.61-13.3-1.86,4.95.28,10.54,3.36,14.84,3.08,4.29,7.1,7.9,9.74,12.48,2.64,4.58,3.61,10.75.39,14.93,7.1-5.52,14.79-12.08,15.55-21.04.52-6.11-2.41-11.99-5.94-17.01-3.53-5.01-7.77-9.59-10.47-15.09-4.09-8.31-6.19-19.88-17.68-19.35-10.31.47-20.64-2.58-31.01-.78Z"/>
                  <g>
                    <path class="cls-10" d="m697.59,104.67s-.07-.01-.1-.03c-.08-.06-.1-.17-.04-.25,11.08-15.83,22.53-32.19,32.2-49.55,10.82-19.42,17.84-37.35,21.45-54.81.02-.1.12-.16.22-.14.1.02.16.12.14.22-3.62,17.49-10.65,35.46-21.49,54.91-9.68,17.37-21.14,33.75-32.22,49.58-.04.05-.09.08-.15.08Z"/>
                    <path class="cls-10" d="m746.87,85.84s-.05,0-.08-.02c-.09-.04-.13-.15-.09-.24,3.33-7.21,4.08-15.74,2.03-23.42-.89-3.36-2.3-6.61-3.67-9.75-.63-1.44-1.28-2.94-1.87-4.42-1.49-3.75-3.39-9.38-2.59-14.94.01-.1.09-.17.21-.15.1.01.17.11.15.21-.6,4.23.19,8.78,2.57,14.76.59,1.48,1.24,2.97,1.86,4.41,1.37,3.16,2.79,6.42,3.69,9.8,2.06,7.76,1.31,16.38-2.06,23.66-.03.07-.1.11-.16.11Z"/>
                    <path class="cls-10" d="m672.97,46.04s-.06,0-.09-.02c-.09-.05-.12-.16-.07-.25,3.3-5.76,9.99-9.7,17.88-10.53,7.45-.78,14.83,1.1,21.08,3.05l.51.16c2.6.81,5.29,1.66,8,1.51,3.5-.18,6.76-1.98,9.63-3.57,4.65-2.57,10.44-5.78,13.41-11.02.05-.09.16-.12.25-.07.09.05.12.16.07.25-3.01,5.33-8.85,8.56-13.54,11.16-2.9,1.61-6.19,3.43-9.78,3.61-2.79.15-5.49-.71-8.12-1.53l-.51-.16c-6.21-1.93-13.56-3.81-20.93-3.03-7.78.82-14.36,4.69-17.6,10.35-.03.06-.09.09-.16.09Z"/>
                    <path class="cls-10" d="m743.51,8.95c-4.04,0-8.13-.84-12.13-1.67-1.35-.28-2.74-.56-4.1-.81-10.23-1.86-21.01-1.75-31.2.34-.1.02-.19-.04-.22-.14-.02-.1.04-.19.14-.21,10.23-2.09,21.07-2.21,31.34-.34,1.36.25,2.76.53,4.1.81,5.98,1.23,12.16,2.51,18.02.92.1-.03.2.03.22.13.03.1-.03.2-.13.22-1.99.54-4.02.76-6.06.76Z"/>
                    <path class="cls-10" d="m681.33,85.4s-.08-.01-.12-.04c-.08-.07-.09-.18-.02-.26,5.01-5.87,11.87-10.19,19.32-12.17,2.16-.57,4.39-.96,6.55-1.34,2.07-.36,4.22-.73,6.28-1.27,5.03-1.3,8.73-3.47,10.98-6.44.06-.08.18-.1.26-.03.08.06.1.18.03.25-2.3,3.04-6.07,5.24-11.18,6.57-2.08.54-4.23.91-6.31,1.27-2.15.37-4.38.76-6.52,1.33-7.39,1.96-14.18,6.24-19.14,12.05-.04.04-.09.06-.14.06Z"/>
                    <path class="cls-10" d="m715.99,102.23s-.08-.01-.11-.04c-.08-.06-.1-.17-.04-.25,5.23-7.03,7.17-16.32,5.18-24.86-.05-.24-.11-.47-.17-.71-.53-2.2-1.08-4.47-.06-6.44.05-.09.16-.13.24-.08.09.05.12.15.08.25-.96,1.86-.43,4.06.09,6.19.06.24.11.48.17.72,2.01,8.64.05,18.04-5.25,25.16-.04.05-.09.07-.15.07Z"/>
                  </g>
                </g>
                <g>
                  <path class="cls-12" d="m722.44-2.02c-3.33-1.26-7.47-2.89-10.08-.46-2.66,2.47-1.17,7,1.24,9.71,5.7,6.43,15.77,8.49,23.55,4.84-3.47,4.81-9.83,6.85-15.76,6.57s-11.56-2.55-17-4.91c-2.58-1.12-5.22-2.28-8.03-2.46-2.81-.18-5.88.83-7.37,3.22-2.64,4.21,1.12,9.88,5.73,11.74s9.8,1.46,14.63,2.63c-11.43,2.09-23.59-.13-33.55-6.12-2.07-1.25-4.08-2.66-6.39-3.38-2.31-.72-5.05-.59-6.86,1.01-2.97,2.63-1.76,7.88,1.34,10.35s7.3,2.92,11.25,3.28c-10.49-.64-20.84-3.44-30.22-8.17-3.74-1.89-8.57-3.98-11.72-1.22-3.02,2.65-1.57,8.03,1.76,10.29,3.32,2.26,7.63,2.29,11.64,2.25-9.48-1.12-18.96-2.25-28.45-3.37-3.75-.44-8.41-.46-10.27,2.83-1.89,3.33.99,7.74,4.65,8.87s7.59.01,11.26-1.1c-8.31,2.52-16.62,5.03-24.94,7.55-2.47.75-5.44,2.11-5.47,4.69-.04,3.05,4.16,4.27,7.07,3.35,2.91-.92,5.52-3.01,8.57-3.01-6.73,3.2-14.14,7.17-16.25,14.32-.66,2.25-.68,4.79.48,6.83s3.71,3.35,5.95,2.63c2.05-.66,3.28-2.71,4.23-4.64,2.99-6.1,4.99-12.68,5.9-19.42-.31,2.28-.62,4.62-.05,6.85.57,2.22,2.26,4.33,4.53,4.67,2.17.33,4.31-1.02,5.63-2.78s1.99-3.9,2.8-5.95c3.31-8.4,9.16-15.78,16.58-20.93-2.01,2.37-4.07,4.85-4.83,7.85s.25,6.7,3.05,8.02c2.27,1.07,5.04.3,7.09-1.16,2.04-1.46,3.55-3.53,5.23-5.39,6.63-7.37,16.38-11.85,26.29-12.1-1.86,1.58-3.7,3.28-4.82,5.44-1.12,2.17-1.4,4.92-.12,6.99,2.02,3.27,6.97,3.42,10.32,1.53s5.61-5.18,8.18-8.05c4.48-4.99,10.17-8.87,16.45-11.22-2.4,1.71-4.86,3.48-6.43,5.97s-2.05,5.9-.38,8.33c2.08,3.01,6.67,3.28,9.91,1.58,3.24-1.7,5.44-4.83,7.52-7.85,4.87-7.06,9.73-14.12,14.6-21.19-.47,3.2-2.82,5.76-4.22,8.67-1.41,2.92-1.42,7.18,1.49,8.6,3.16,1.53,6.56-1.58,8.42-4.55,6.77-10.77,9.13-23.5,11.41-35.81-2.06,10.29-18.9,6.3-25.59,3.76Z"/>
                  <g>
                    <path class="cls-10" d="m602.41,67.83c-.1-.04-.15-.15-.11-.25,3.15-8.02,9.02-14.85,17.42-20.32,7.23-4.69,16.17-8.21,25.87-10.16,9.07-1.83,18.47-2.51,27.55-3.17,8.94-.65,18.18-1.32,27.1-3.08,30.51-6.02,40.41-22.94,43.26-29.93.04-.1.15-.15.26-.11h0c.1.04.15.15.11.25-3.24,7.98-9.17,14.76-17.62,20.16-7.25,4.63-16.21,8.09-25.93,10.01-8.94,1.77-18.2,2.44-27.15,3.09-9.07.66-18.45,1.34-27.5,3.17-30.49,6.14-40.23,23.19-43.01,30.24-.04.1-.15.15-.25.11h0Z"/>
                    <path class="cls-10" d="m644.22,31.34c-1.86-.76-3.67-1.63-5.42-2.59-.09-.05-.13-.17-.08-.26.05-.09.17-.13.27-.08,6.88,3.8,14.67,6.01,22.52,6.41.11,0,.19.1.18.2,0,.11-.1.19-.21.19-5.91-.3-11.78-1.62-17.26-3.86Z"/>
                    <path class="cls-10" d="m642.21,48.64h0c-.1-.04-.15-.16-.1-.26,2.58-6.17,7.94-11.01,14.35-12.95.1-.03.21.03.24.13.03.1-.03.21-.13.24-6.3,1.9-11.57,6.66-14.1,12.72-.04.1-.16.15-.26.11Z"/>
                    <path class="cls-10" d="m614.54,39.98c-.08-.03-.14-.12-.12-.21.02-.11.12-.18.23-.16,7.58,1.33,15.24,1.23,22.79-.29.1-.02.21.05.23.15.02.11-.05.21-.15.23-7.59,1.53-15.3,1.63-22.93.29-.02,0-.03,0-.04-.01Z"/>
                    <path class="cls-10" d="m615.09,62.03c-.09-.04-.14-.14-.11-.24,2.46-7.36,7.21-14,13.38-18.7.09-.06.21-.05.27.04.07.09.05.21-.04.27-6.11,4.65-10.82,11.22-13.25,18.51-.03.1-.14.16-.25.12,0,0,0,0-.01,0Z"/>
                    <path class="cls-10" d="m598.31,57.69c-.07-.03-.11-.09-.12-.16-.01-.11.07-.2.17-.21,6.59-.67,12.97-3.44,17.96-7.8.08-.07.21-.06.28.02.07.08.06.2-.02.28-5.05,4.42-11.5,7.22-18.18,7.9-.03,0-.07,0-.09-.01Z"/>
                    <path class="cls-10" d="m677.6,44.17s-.03-.02-.05-.03c-.08-.07-.1-.19-.03-.27,5.02-6.26,12.09-10.7,19.9-12.5.1-.02.21.04.23.15.02.1-.04.21-.15.23-7.73,1.78-14.72,6.18-19.69,12.37-.06.07-.15.09-.23.06Z"/>
                    <path class="cls-10" d="m670.68,29.01c-1.26-.51-2.49-1.09-3.71-1.71-.1-.05-.13-.17-.08-.26.05-.1.16-.14.26-.08,6.95,3.58,14.76,5.37,22.58,5.17.11,0,.2.08.2.19,0,.11-.08.2-.19.2-6.53.17-13.04-1.03-19.07-3.5Z"/>
                    <path class="cls-10" d="m706.42,39.81s-.02,0-.03-.01c-.09-.06-.12-.17-.07-.27,3.97-6.72,9.57-12.47,16.18-16.62.09-.06.21-.03.27.06.06.09.03.21-.06.27-6.56,4.12-12.11,9.82-16.05,16.49-.05.09-.15.12-.24.08Z"/>
                    <path class="cls-10" d="m703.01,20.95c-1.93-.79-3.79-1.75-5.55-2.86-.09-.06-.12-.18-.06-.27.06-.09.19-.12.27-.06,7.48,4.75,16.78,6.56,25.5,4.97.1-.02.21.05.23.16.02.11-.05.21-.16.23-6.76,1.23-13.87.44-20.23-2.16Z"/>
                    <path class="cls-10" d="m733.27,27.89s-.03-.01-.04-.02c-.09-.06-.11-.18-.05-.27,4.56-6.71,7.46-14.51,8.38-22.58.01-.11.11-.18.22-.17.11.02.18.11.17.22-.93,8.12-3.85,15.99-8.45,22.75-.05.08-.15.1-.23.07Z"/>
                    <path class="cls-10" d="m717.66,5.38c-.1-.04-.15-.15-.11-.25.04-.1.15-.15.25-.12,3.88,1.39,8.06,2.71,12.37,2.9,4.67.21,8.91-1,11.91-3.42.09-.07.21-.05.27.03.07.08.05.21-.03.27-3.08,2.48-7.41,3.73-12.18,3.51-4.36-.2-8.58-1.52-12.48-2.93,0,0,0,0,0,0Z"/>
                  </g>
                </g>
              </g>
            </g>
          </g>
        </g>
      </g>
    </g>
    <g id="shadow" class="cls-29">
      <path class="cls-17" d="m233.69,433.8c-22.32,0-40.41-2.81-40.41-6.28s18.09-6.28,40.41-6.28,40.4,2.81,40.4,6.28-18.09,6.28-40.4,6.28Z"/>
      <path class="cls-17" d="m348.14,444.77c-44.02,0-79.68-5.54-79.68-12.38s35.67-12.38,79.68-12.38,79.67,5.54,79.67,12.38c0,6.83-35.67,12.38-79.67,12.38Z"/>
      <path class="cls-17" d="m210.64,422.41c-45.16,0-81.77-3.79-81.77-8.45s36.61-8.45,81.77-8.45,81.78,3.78,81.78,8.45-36.61,8.45-81.78,8.45Z"/>
      <path class="cls-17" d="m470.98,428.76c-36.52,0-66.12-4.6-66.12-10.27s29.6-10.27,66.12-10.27,66.11,4.6,66.11,10.27-29.6,10.27-66.11,10.27Z"/>
      <path class="cls-17" d="m456.74,437.2c-23.6,0-42.73-2.97-42.73-6.64s19.13-6.64,42.73-6.64,42.72,2.97,42.72,6.64c0,3.66-19.13,6.64-42.72,6.64Z"/>
    </g>
  </g>
</svg>