<?xml version="1.0" encoding="UTF-8"?>
<svg id="_Слой_2" data-name="Слой 2" xmlns="http://www.w3.org/2000/svg" width="750" height="500" xmlns:xlink="http://www.w3.org/1999/xlink" viewBox="0 0 750 500">
  <defs>
    <clipPath id="clippath">
      <rect x="-.25" y=".2712" width="750" height="500" style="fill: none;"/>
    </clipPath>
    <clipPath id="clippath-1">
      <path d="m604.777,373.9492s.843,3.555,5.408,6.682c16.88,11.184,78.595,28.934,136.167,32.511,41.879,2.602,84.079-4.299,103.979-8.255-2.794,1.825-5.838,3.713-9.14,5.659-27.915,16.449-60.038,21.21-81.004,23.364-38.621,3.966-113.492-11.877-148.056-27.578s-49.661-29.743-53.714-42.817c-.1-.32-.179-.628-.271-.943,26.553,10.208,46.631,11.377,46.631,11.377Z" style="fill: none;"/>
    </clipPath>
    <clipPath id="clippath-2">
      <path d="m604.777,373.9492s.843,3.555,5.408,6.682c16.88,11.184,78.595,28.934,136.167,32.511,41.879,2.602,84.079-4.299,103.979-8.255-2.794,1.825-5.838,3.713-9.14,5.659-27.915,16.449-60.038,21.21-81.004,23.364-38.621,3.966-113.492-11.877-148.056-27.578s-49.661-29.743-53.714-42.817c-.1-.32-.179-.628-.271-.943,26.553,10.208,46.631,11.377,46.631,11.377Z" style="fill: none;"/>
    </clipPath>
    <clipPath id="clippath-3">
      <path d="m604.777,373.9492s.843,3.555,5.408,6.682c16.88,11.184,78.595,28.934,136.167,32.511,41.879,2.602,84.079-4.299,103.979-8.255-2.794,1.825-5.838,3.713-9.14,5.659-27.915,16.449-60.038,21.21-81.004,23.364-38.621,3.966-113.492-11.877-148.056-27.578s-49.661-29.743-53.714-42.817c-.1-.32-.179-.628-.271-.943,26.553,10.208,46.631,11.377,46.631,11.377Z" style="fill: none;"/>
    </clipPath>
    <clipPath id="clippath-4">
      <rect x="-.25" y=".2712" width="750" height="500" style="fill: none;"/>
    </clipPath>
  </defs>
  <g id="OBJECTS">
    <g id="BACKGROUND">
      <rect x="-.25" y=".2712" width="750" height="500" style="fill: #f7fbfb;"/>
    </g>
    <g>
      <g>
        <path d="m238.839,253.4491c-1.05-84.473-4.956-171.149,7.279-253.178h28.355c-2.954,166.614,34.645,335.987,16.77,500h-77.282c22.961-76.022,25.914-163.48,24.878-246.822Z" style="fill: #def9ff;"/>
        <path d="m43.25.2712h23.59c-2.574,82.139-2.949,164.587,8.893,245.027,7.764,52.74,20.689,103.894,28.846,156.527,5.001,32.269,8.145,65.614,7.164,98.446H43.709C18.607,338.8742,52.439,166.6492,43.25.2712Z" style="fill: #def9ff;"/>
        <path d="m455.785,327.8802c-7.977-108.841-2.457-218.502,3.88-327.609h22.614c-3.033,75.536-3.892,151.492,8.083,225.16,8.55,52.594,23.48,102.899,34.151,154.788,8.027,39.03,13.616,79.878,12.068,120.052h-89.639c6.827-17.296,10.98-36.897,12.731-56.335,3.471-38.532-1.057-77.429-3.888-116.056Z" style="fill: #def9ff;"/>
        <path d="m400.08.2712h18.586c1.194,80.197,2.389,160.394,3.583,240.591,1.292,86.727,2.455,174.739-10.289,259.409h-48.89c4.07-84.544,17.485-168.39,27.727-252.259,9.985-81.761,16.865-166.095,9.283-247.741Z" style="fill: #def9ff;"/>
        <path d="m577.969,341.1021c32.52-107.714,47.928-224.659,45.155-340.831h17.235c-3.203,84.077,10.571,168.95,18.681,253.093,7.967,82.648,9.431,171.396-14.046,246.907h-87.322c-1.789-54.188,5.12-108.9,20.297-159.169Z" style="fill: #def9ff;"/>
      </g>
      <g>
        <path d="m554.602,253.4491c1.411-84.473,6.661-171.149-9.783-253.178h-38.112c3.971,166.614-46.567,335.987-22.54,500h103.875c-30.863-76.022-34.833-163.48-33.44-246.822Z" style="fill: #b6eeff;"/>
        <path d="m703.151.2712h-31.708c3.46,82.139,3.963,164.586-11.953,245.027-10.435,52.74-27.808,103.894-38.773,156.527-6.722,32.269-10.948,65.614-9.629,98.446h91.446c33.7411-161.397-11.7329-333.622.6171-500Z" style="fill: #b6eeff;"/>
        <path d="m148.659,327.8802c10.722-108.841,3.302-218.502-5.214-327.609h-30.396c4.077,75.536,5.231,151.492-10.864,225.16-11.492,52.594-31.559,102.899-45.903,154.788-10.789,39.029-18.301,79.877-16.221,120.052h120.485c-9.176-17.296-14.758-36.897-17.111-56.335-4.666-38.532,1.419-77.429,5.224-116.056Z" style="fill: #b6eeff;"/>
        <path d="m223.533.2712h-24.981c-1.605,80.197-3.211,160.394-4.816,240.591-1.736,86.727-3.299,174.739,13.83,259.409h65.712c-5.47-84.544-23.502-168.39-37.268-252.259-13.421-81.761-22.668-166.095-12.477-247.741Z" style="fill: #b6eeff;"/>
        <path d="m395.402,341.1021C351.691,233.3882,330.982,116.4432,334.709.2712h-23.166c4.305,84.077-14.208,168.95-25.11,253.093-10.707,82.648-12.675,171.395,18.8799,246.907h117.371c2.404-54.188-6.882-108.9-27.282-159.169Z" style="fill: #b6eeff;"/>
      </g>
    </g>
    <g style="clip-path: url(#clippath);">
      <g>
        <g>
          <g>
            <path d="m747.578,139.3292c-6.482-6.86-19.622-5.057-24.017,3.294.91-7.732-4.959-15.654-12.621-17.035-1.623,4.711-1.401,9.978.401,14.616,2.542,1.247,4.386,3.601,3.95,6.444-1.711-1.877-3.032-4.08-3.95-6.444-2.6-1.275-5.932-1.391-8.318.33-4.719,3.404-5.161,10.626-2.563,15.832s7.437,8.867,12.109,12.334c-12.187-1.861-24.246,10.65-21.936,22.761-9.197-5.532-22.309-3.243-29.087,5.077.721-7.581-2.489-15.429-8.315-20.333-6.919,10.087-7.664,24.072-1.857,34.838-6.739-4.952-16.335-5.669-23.735-1.774-1.693,5.548,1.602,12.136,7.057,14.109-5.231.733-12.3.249-15.399,5.398-1.466,2.436-1.491,4.831-.523,7.348,1.093,2.843,1.533,5.959,2.163,8.954-4.242-4.035-12.277-2.624-14.891,2.614-2.614,5.239,1.089,12.507,6.863,13.471-6.099-1.036-12.67,2.734-14.853,8.522-2.183,5.788.261,12.958,5.526,16.208-9.576-3.965-21.966,2.952-23.616,13.183-.374-8.544-15.681-10.006-17.665-1.687-6.727-19.48-35.387-26.783-50.615-12.897,3.435-7.11,1.239-16.482-4.996-21.326-6.236-4.844-15.86-4.654-21.899.432-.488-5.228.352-12.795-2.602-17.431-3.774-5.922-10.829-3.013-16.615-2.841,10.311-4.561,15.735-19.318,8.426-27.902-5.267-6.186-16.086-4.422-20.884,1.18-.909-3.246-3.438-6.218-6.806-6.872-6.438-1.249-12.755,4.124-14.562,10.428-.864,3.015-.926,6.138-.495,9.243-1.996-1.509-4.536-2.316-6.983-1.76-6.34,1.441-9.904,8.729-9.415,15.212.489,6.483,3.977,12.303,7.372,17.847-14.669-3.302-28.513,16.026-20.666,28.852-6.583-7.395-21.438,2.173-17.427,11.225-9.038-4.621-20.344,7.389-16.482,16.219.311.492.599,1.002.845,1.537-.34-.498-.615-1.013-.845-1.537-4.214-6.662-14.096-9.268-20.912-5.127-7.319,4.447-9.372,15.622-4.111,22.38-11.231-7.882-28.589-4.934-36.588,6.214-.692-4.556-1.035-9.03-5.839-11.069-1.684-.715-3.545-.888-5.357-.832-.879.027-4.71.049-5.176.737,8.652-12.768-4.192-33.268-19.456-31.051,5.49-7.452,5.618-18.424.304-26.001-5.314-7.578-15.673-11.195-24.55-8.572,8.131-10.327-3.368-28.442-16.173-25.479-.906-2.503-1.501-6.278-3.017-8.411-1.29-1.815-4.273-2.687-6.375-2.679-2.275.008-4.481.906-6.25,2.309-.898.713-4.396,4.156-3.84,5.425-3.532-8.058-14.914-11.391-22.234-6.511-7.321,4.88-8.623,16.668-2.543,23.028-11.961-11.525-34.935-4.412-40.086,10.74-.098,1.441-.402,2.887-.954,4.316.152-1.502.487-2.939.954-4.316.908-13.266-16.169-26.006-28.294-18.806,6.896-9.555-5.859-25.016-16.55-20.062,1.21-6.69-2.975-13.949-9.37-16.254-5.587-2.014-12.285-.04-16.114,4.439-.469.714-.957,1.415-1.472,2.098.422-.749.917-1.449,1.472-2.098,6.547-9.965,8.611-22.805,5.388-34.297-11.305-.499-22.614,6.162-27.658,16.293.025-10.271.05-20.541.076-30.811-10.539,4.113-19.521,12.036-25.018,21.915-.229,1.17-.745,2.274-1.641,3.199.502-1.089,1.058-2.151,1.641-3.199.878-4.482-2.696-9.997-7.574-10.716-6.152-.906-12.003,4.002-14.146,9.839-1.515,4.129-1.585,8.574-1.093,12.986.768,1.664,1.109,3.504.837,5.435-.335-1.789-.633-3.609-.837-5.435-1.898-4.112-6.439-7.132-11.033-7.66v349.357h761.383V134.2782c-2.7971,1.388-5.4421,3.067-7.8681,5.051Z" style="fill: #8fcc81;"/>
            <g>
              <path d="m49.197,225.4312c0,3.689-2.99,6.679-6.679,6.679s-6.679-2.99-6.679-6.679,2.99-6.679,6.679-6.679,6.679,2.991,6.679,6.679Z" style="fill: #50783e;"/>
              <path d="m110.892,281.3792c0,3.689-2.99,6.679-6.679,6.679s-6.679-2.99-6.679-6.679,2.99-6.679,6.679-6.679c3.689,0,6.679,2.991,6.679,6.679Z" style="fill: #50783e;"/>
              <path d="m418.15,318.0342c0,3.689-2.99,6.679-6.679,6.679s-6.679-2.99-6.679-6.679,2.99-6.679,6.679-6.679,6.679,2.99,6.679,6.679Z" style="fill: #50783e;"/>
              <path d="m732.853,251.9382c0,3.689-2.99,6.679-6.679,6.679s-6.679-2.99-6.679-6.679,2.99-6.679,6.679-6.679,6.679,2.99,6.679,6.679Z" style="fill: #50783e;"/>
              <path d="m661.32,274.7001c0,3.689-2.99,6.679-6.679,6.679s-6.679-2.99-6.679-6.679,2.99-6.679,6.679-6.679,6.679,2.991,6.679,6.679Z" style="fill: #50783e;"/>
              <path d="m691.035,220.1102c0,3.689-2.99,6.679-6.679,6.679s-6.679-2.99-6.679-6.679,2.99-6.678,6.679-6.678c3.689-.001,6.679,2.989,6.679,6.678Z" style="fill: #50783e;"/>
              <path d="m457.349,258.6162c0,3.689-2.99,6.679-6.679,6.679s-6.679-2.99-6.679-6.679,2.99-6.679,6.679-6.679,6.679,2.991,6.679,6.679Z" style="fill: #50783e;"/>
              <path d="m206.66,288.5191c0,3.689-2.99,6.679-6.679,6.679s-6.679-2.99-6.679-6.679,2.99-6.679,6.679-6.679,6.679,2.99,6.679,6.679Z" style="fill: #50783e;"/>
              <path d="m272.491,331.9551c0,3.689-2.99,6.679-6.679,6.679s-6.679-2.99-6.679-6.679,2.99-6.679,6.679-6.679,6.679,2.99,6.679,6.679Z" style="fill: #50783e;"/>
            </g>
          </g>
          <g>
            <g>
              <path d="m756.346,266.6292c4.259-16.231,10.843-31.77,15.331-47.939,2.201-7.928,3.355-17.781-2.884-23.145-3.474-2.987-8.542-3.648-12.981-2.512s-8.321,3.861-11.66,6.999c-10.048,9.441-15.794,22.739-18.463,36.266-2.67,13.527-2.509,27.431-2.338,41.218-2.913-19.714-7.854-39.193-15.436-57.644-4.519-10.997-15.73-41.858-31.951-26.399-10.143,9.667-2.975,32.165,1.533,43.092,7.023,17.021,20.041,31.448,24.573,49.295-12.759-18.168-27.326-36.639-48.003-44.723-3.181-1.244-6.55-2.231-9.96-2.035s-6.888,1.747-8.698,4.643c-2.098,3.356-1.586,7.712-.437,11.499,4.59,15.132,17.478,26.072,30.082,35.622,10.611,8.04,21.842,16.18,29.177,27.077l58.238-16.777c-.858-11.505.9299-23.308,3.877-34.537Z" style="fill: #267340;"/>
              <g>
                <path d="m739.355,305.1162c-.084,0-.157-.061-.17-.146-2.903-18.605-2.25-38.648,1.888-57.962,4.313-20.127,12.238-38.382,22.921-52.789.057-.078.167-.092.241-.036.077.057.093.165.036.241-10.654,14.369-18.559,32.577-22.861,52.657-4.13,19.273-4.781,39.274-1.885,57.836.015.094-.049.183-.143.197-.01.001-.019.002-.027.002Z" style="fill: #45313d;"/>
                <path d="m718.315,311.1772h0c-.096,0-.172-.077-.172-.172.017-21.566-6.718-43.299-13.034-61.978-6.713-19.848-15.684-39.149-24.359-57.815-.041-.086-.003-.189.084-.229.084-.041.188-.003.228.083,8.68,18.674,17.656,37.984,24.373,57.851,6.325,18.704,13.07,40.469,13.052,62.087.001.097-.076.173-.172.173Z" style="fill: #45313d;"/>
                <path d="m704.675,315.6642c-.07,0-.135-.042-.161-.111-6.115-16.086-17.485-29.629-27.802-40.754-10.67-11.509-23.765-24.283-39.997-31.769-.086-.04-.125-.142-.084-.228s.144-.126.228-.084c16.286,7.511,29.413,20.312,40.106,31.846,10.338,11.15,21.735,24.725,27.87,40.866.034.09-.011.189-.099.223-.02.007-.041.011-.061.011Z" style="fill: #45313d;"/>
                <path d="m738.576,263.2372c-.048,0-.096-.02-.129-.058-6.549-7.479-10.911-16.609-12.613-26.403-.016-.093.047-.183.141-.199.094-.007.183.048.199.141,1.692,9.731,6.024,18.803,12.532,26.233.063.072.056.181-.015.243-.0349.029-.0749.043-.1149.043Z" style="fill: #45313d;"/>
                <path d="m743.931,237.0481c-.045,0-.09-.017-.123-.052-.066-.068-.065-.177.003-.243,7.968-7.767,17.605-14.145,27.867-18.447.086-.037.19.005.225.092.037.087-.004.189-.092.225-10.221,4.285-19.821,10.639-27.76,18.376-.033.033-.077.049-.12.049Z" style="fill: #45313d;"/>
                <path d="m750.266,218.9092c-.063,0-.122-.034-.154-.093-3.094-6.007-4.796-12.751-4.921-19.505-.001-.095.075-.174.169-.175h.003c.094,0,.17.075.172.169.124,6.701,1.813,13.393,4.883,19.352.043.085.009.189-.074.232-.024.014-.051.02-.078.02Z" style="fill: #45313d;"/>
                <path d="m737.571,279.3272c-.043,0-.085-.015-.119-.046-.069-.066-.072-.175-.007-.245,5.133-5.424,11.526-9.716,18.49-12.412.087-.034.189.01.222.099.035.089-.009.189-.099.222-6.917,2.677-13.266,6.94-18.362,12.328-.0339.036-.0789.054-.1249.054Z" style="fill: #45313d;"/>
                <path d="m698.216,230.2492c-.021,0-.043-.004-.064-.012-.087-.036-.132-.136-.097-.225,2.819-7.114,4.049-15.009,3.658-23.465-.005-.096.07-.176.164-.181.104.003.175.07.181.164.394,8.506-.846,16.448-3.681,23.609-.027.07-.092.11-.161.11Z" style="fill: #45313d;"/>
                <path d="m691.925,216.3042c-.005,0-.009,0-.015-.001-7.51-.638-14.919-3.543-20.861-8.182-.075-.058-.089-.166-.03-.242.061-.075.168-.089.242-.03,5.89,4.598,13.234,7.477,20.679,8.109.094.008.164.091.156.186-.0059.091-.082.16-.171.16Z" style="fill: #45313d;"/>
                <path d="m709.147,261.0151c-.034,0-.068-.01-.097-.03-8.226-5.597-17.406-10.07-25.848-12.596-.092-.028-.143-.124-.116-.214.027-.092.122-.142.214-.117,8.476,2.536,17.69,7.026,25.944,12.642.079.054.099.161.045.239-.0319.049-.0869.076-.1419.076Z" style="fill: #45313d;"/>
                <path d="m713.886,277.1222c-.094,0-.171-.076-.172-.169-.134-7.754,1.667-15.498,5.206-22.397.044-.085.147-.119.233-.074.084.044.118.148.074.233-3.515,6.847-5.302,14.535-5.169,22.231.001.096-.075.175-.169.176,0,0-.0019,0-.0029,0Z" style="fill: #45313d;"/>
                <path d="m657.786,256.4832c-.079,0-.152-.055-.169-.136-1.166-5.383-2.737-10.726-4.67-15.879-.033-.09.012-.189.101-.223.09-.031.189.013.222.101,1.939,5.169,3.515,10.527,4.684,15.927.02.093-.039.184-.133.205-.011.004-.0231.005-.035.005Z" style="fill: #45313d;"/>
                <path d="m670.237,267.9542c-.008,0-.016,0-.024-.001-9.612-1.353-20.209-1.666-29.83-.883-.089,0-.178-.064-.186-.159-.007-.094.064-.178.158-.186,9.649-.782,20.268-.467,29.907.885.094.014.16.101.147.196-.013.086-.087.148-.172.148Z" style="fill: #45313d;"/>
                <path d="m686.826,286.2462c-.087,0-.162-.066-.171-.155-.864-8.363-2.853-17.249-6.079-27.16-.029-.091.02-.188.111-.218.09-.029.188.021.218.111,3.233,9.936,5.226,18.843,6.093,27.232.01.094-.058.179-.154.189-.006.001-.0121.001-.0181.001Z" style="fill: #45313d;"/>
                <path d="m670.209,295.0082c-.094,0-.171-.076-.172-.171-.001-.094.076-.172.171-.174l23.042-.192h.001c.094,0,.171.076.172.171.001.096-.076.173-.171.174l-23.042.192h-.001Z" style="fill: #45313d;"/>
                <path d="m705.552,297.1642c-.073,0-.141-.047-.164-.12l-3.312-10.269c-.029-.09.021-.188.112-.217.091-.03.188.021.217.112l3.312,10.269c.029.09-.021.188-.112.217-.018.006-.035.008-.053.008Z" style="fill: #45313d;"/>
                <path d="m726.908,288.9432c-.076,0-.144-.05-.167-.126l-3.226-11.624c-.025-.092.029-.188.12-.213.098-.021.186.029.213.12l3.226,11.624c.024.092-.029.188-.12.213-.015.003-.0311.006-.046.006Z" style="fill: #45313d;"/>
              </g>
            </g>
            <g>
              <g>
                <path d="m79.965,325.2252c10.282-.76,20.908-6.932,23.535-16.902-13.74-3.531-27.479-7.063-41.219-10.595,4.695-3.966,11.67-3.953,17.535-2.118,5.866,1.835,11.125,5.211,16.839,7.475,5.715,2.263,12.411,3.323,17.863.485,5.011-2.608,8.017-8.111,8.925-13.687.908-5.576.004-11.277-1.099-16.817-5.491,4.735-13.719,3.814-20.839,2.443-7.12-1.372-15.147-2.748-21.086,1.412,3.602-3.737,9.093-4.949,14.278-5.202,5.184-.252,10.446.264,15.526-.801s10.174-4.177,11.673-9.147c.962-3.191.311-6.636-.613-9.838-2.922-10.132-8.568-19.464-16.186-26.754-6.907-.313-13.911-.618-20.66.886-6.749,1.503-13.329,5.057-16.993,10.921-6.088,9.744-2.642,22.379.975,33.284-7.153-9.686-8.516-23.334-3.421-34.243-7.19.617-13.987,4.794-17.786,10.928-3.799,6.135-4.509,14.081-1.857,20.792,1.682,4.258,4.598,7.965,6.085,12.295,1.488,4.33,1.054,9.921-2.764,12.447,2.222-4.513.714-10.013-1.804-14.368s-5.993-8.148-8.07-12.73-2.422-10.515,1.019-14.184c-7.235,4.568-15.13,10.071-16.684,18.485-1.06,5.74,1.17,11.587,4.049,16.666,2.879,5.078,6.466,9.806,8.521,15.27,3.104,8.251,4.02,19.41,14.955,19.976,9.813.51,19.313,4.36,29.303,3.621Z" style="fill: #267340;"/>
                <g>
                  <path d="m44.769,319.2022c-.023,0-.047-.003-.07-.01-.125-.038-.194-.171-.156-.296,5.059-16.243,13.389-32.611,25.466-50.04,10.789-15.571,23.163-30.015,35.129-43.984.085-.1.235-.111.333-.026.1.085.111.234.026.333-11.958,13.96-24.323,28.396-35.099,43.947-12.049,17.388-20.358,33.714-25.403,49.91-.032.101-.126.166-.226.166Z" style="fill: #45313d;"/>
                  <path d="m57.76,288.8972c-.019,0-.037-.002-.056-.007-.127-.03-.205-.158-.174-.285.96-3.936.633-8.312-1.062-14.188-.42-1.457-.896-2.931-1.357-4.355-1.007-3.116-2.047-6.34-2.586-9.631-1.235-7.554.28-15.67,4.155-22.27.066-.112.21-.149.324-.084.112.066.15.211.084.324-3.82,6.505-5.313,14.506-4.095,21.953.532,3.256,1.567,6.462,2.569,9.562.461,1.428.938,2.904,1.361,4.37,1.158,4.011,2.325,9.277,1.067,14.43-.027.109-.124.181-.23.181Z" style="fill: #45313d;"/>
                  <path d="m45.764,313.9272c-.129,0-.235-.104-.236-.234-.063-5.896-1.378-11.857-3.8-17.238-1.146-2.543-2.57-5.042-3.947-7.458-2.739-4.808-5.573-9.779-6.336-15.328-.998-7.241,1.68-15.193,7.346-21.82.086-.1.235-.111.334-.026.099.085.111.234.026.333-5.578,6.524-8.217,14.341-7.238,21.447.751,5.459,3.561,10.39,6.279,15.159,1.383,2.425,2.812,4.934,3.967,7.499,2.449,5.439,3.778,11.466,3.842,17.427.001.13-.103.238-.234.239-.001,0-.002,0-.003,0Z" style="fill: #45313d;"/>
                  <path d="m54.515,295.8651c-.047,0-.094-.014-.136-.043-.107-.075-.133-.223-.058-.33,3.36-4.786,9.202-7.308,13.896-9.333,2.908-1.255,6.205-2.679,9.63-2.52,2.658.124,5.16,1.184,7.58,2.209l.465.197c5.642,2.382,12.341,4.813,19.317,4.813.069,0,.137-.001.206-.001,7.421-.051,13.994-3.094,17.584-8.142.075-.107.223-.133.33-.055.106.076.132.223.056.33-3.678,5.17-10.395,8.288-17.966,8.34-.07,0-.14.001-.209.001-7.06,0-13.815-2.449-19.501-4.85l-.466-.197c-2.381-1.009-4.843-2.053-7.417-2.172-3.311-.162-6.56,1.245-9.421,2.48-4.639,2.003-10.413,4.494-13.697,9.172-.046.066-.119.101-.193.101Z" style="fill: #45313d;"/>
                  <path d="m89.651,318.5302c-7.321,0-14.69-1.015-21.678-3.009-1.27-.362-2.565-.764-3.817-1.153-5.54-1.719-11.269-3.495-16.95-2.538-.13.02-.251-.064-.273-.193s.065-.252.193-.273c5.795-.979,11.576.817,17.169,2.554,1.25.388,2.542.789,3.806,1.15,9.511,2.714,19.736,3.606,29.568,2.576.122-.015.246.082.26.211s-.081.246-.211.26c-2.666.276-5.363.415-8.067.415Z" style="fill: #45313d;"/>
                  <path d="m76.083,261.1141c-.058,0-.115-.021-.161-.063-.096-.089-.101-.239-.013-.334,2.476-2.67,6.259-4.42,11.242-5.202,2.025-.317,4.098-.471,6.105-.62,2.071-.155,4.213-.315,6.292-.652,7.165-1.17,13.99-4.586,19.218-9.621.096-.09.244-.087.334.006.091.094.088.243-.006.334-5.297,5.101-12.212,8.564-19.471,9.747-2.099.342-4.251.503-6.333.658-1.996.148-4.061.302-6.066.616-4.877.763-8.567,2.464-10.969,5.055-.046.05-.109.076-.172.076Z" style="fill: #45313d;"/>
                  <path d="m79.972,255.7562c-.044,0-.089-.013-.129-.038-.11-.071-.141-.217-.07-.326,1.071-1.652.773-3.778.485-5.834l-.096-.694c-1.105-8.388,1.633-17.133,7.324-23.395.09-.097.238-.103.334-.016.097.088.104.238.016.334-5.599,6.16-8.292,14.764-7.205,23.015l.094.691c.3,2.142.61,4.357-.556,6.156-.044.069-.12.107-.197.107Z" style="fill: #45313d;"/>
                </g>
              </g>
              <g>
                <path d="m35.418,303.8792c9.58-3.812,17.863-12.889,17.375-23.188-14.166.756-28.332,1.512-42.498,2.268,3.288-5.193,9.945-7.274,16.091-7.284s12.176,1.631,18.307,2.075c6.13.443,12.836-.556,17.185-4.9,3.997-3.992,5.212-10.144,4.404-15.735-.808-5.591-3.382-10.757-6.097-15.711-3.817,6.165-11.941,7.757-19.144,8.586-7.203.829-15.274,1.926-19.689,7.677,2.314-4.646,7.188-7.451,12.057-9.248,4.87-1.797,10.043-2.884,14.57-5.425,4.526-2.541,8.451-7.039,8.388-12.229-.04-3.333-1.696-6.423-3.538-9.2-5.829-8.787-14.016-15.994-23.472-20.661-6.682,1.775-13.454,3.587-19.441,7.047-5.986,3.46-11.196,8.825-12.93,15.519-2.882,11.122,4.199,22.14,10.922,31.456-9.73-7.092-15.128-19.701-13.543-31.637-6.673,2.747-11.903,8.771-13.685,15.764-1.782,6.992-.074,14.785,4.47,20.391,2.883,3.557,6.777,6.218,9.496,9.901,2.719,3.684,3.984,9.147,1.1,12.703.764-4.972-2.325-9.765-6.034-13.163-3.709-3.398-8.163-5.973-11.519-9.72-3.356-3.747-5.467-9.303-3.286-13.836-5.53,6.529-11.408,14.149-10.365,22.641.712,5.794,4.594,10.702,8.865,14.682s9.111,7.413,12.712,12.007c5.437,6.938,9.662,17.307,20.262,14.565,9.511-2.461,19.729-1.641,29.037-5.345Z" style="fill: #267340;"/>
                <g>
                  <path d="m-.034,308.7112c-.13,0-.236-.105-.236-.235-.051-17.011,2.981-35.125,9.268-55.377,5.613-18.079,13.081-35.579,20.304-52.502.05-.121.189-.18.31-.125.121.051.177.19.125.31-7.218,16.912-14.681,34.4-20.287,52.456C3.177,273.4442.152,291.5122.203,308.4732c0,.132-.106.238-.237.238H-.034Z" style="fill: #45313d;"/>
                  <path d="m3.26,275.9052c-.124,0-.228-.096-.236-.221-.266-4.044-1.891-8.119-5.272-13.214-.839-1.263-1.733-2.525-2.599-3.743-1.897-2.672-3.858-5.436-5.36-8.416-3.445-6.832-4.437-15.029-2.722-22.488.029-.126.155-.202.284-.177.127.029.207.156.178.284-1.692,7.352-.714,15.432,2.683,22.169,1.486,2.947,3.437,5.695,5.323,8.354.868,1.222,1.765,2.486,2.607,3.756,2.308,3.479,5.003,8.151,5.35,13.445.009.13-.09.242-.22.252-.006-.001-.011-.001-.016-.001Z" style="fill: #45313d;"/>
                  <path d="m2.256,283.5252c-.024,0-.048-.004-.072-.01-.125-.04-.193-.172-.154-.297,1.768-5.576,6.584-9.733,10.453-13.076,2.395-2.069,5.109-4.413,8.43-5.292,2.572-.683,5.278-.422,7.892-.17l.504.049c6.16.585,13.359.891,20.066-1.272,7.064-2.278,12.42-7.154,14.329-13.045.04-.122.175-.193.298-.151.124.04.192.174.152.298-1.955,6.035-7.426,11.025-14.633,13.348-6.791,2.189-14.05,1.882-20.256,1.293l-.505-.048c-2.573-.249-5.235-.506-7.725.155-3.215.852-5.885,3.158-8.242,5.195-3.824,3.302-8.583,7.411-10.311,12.859-.033.1-.126.164-.226.164Z" style="fill: #45313d;"/>
                  <path d="m.04,300.9612c-.085,0-.169-.047-.211-.129-.059-.115-.013-.259.103-.318,5.231-2.672,11.288-2.696,17.146-2.718,1.308-.005,2.661-.01,3.974-.046,9.885-.268,19.905-2.487,28.978-6.419.119-.055.259.004.311.122.052.12-.004.26-.124.311-9.126,3.956-19.207,6.189-29.152,6.459-1.319.035-2.674.041-3.985.046-5.802.022-11.802.045-16.932,2.667-.034.016-.072.025-.108.025Z" style="fill: #45313d;"/>
                  <path d="m12.397,243.9022c-.035,0-.069-.007-.101-.023-.118-.056-.168-.197-.112-.314,1.562-3.292,4.644-6.098,9.162-8.337,1.837-.911,3.771-1.681,5.641-2.427,1.928-.768,3.922-1.562,5.802-2.508,6.484-3.266,11.968-8.574,15.443-14.948.063-.115.208-.156.321-.095.115.063.157.206.095.321-3.521,6.457-9.077,11.836-15.646,15.144-1.898.956-3.902,1.754-5.84,2.526-1.861.742-3.786,1.508-5.606,2.411-4.42,2.191-7.43,4.921-8.945,8.115-.041.085-.126.135-.214.135Z" style="fill: #45313d;"/>
                  <path d="m14.498,237.6242c-.021,0-.042-.002-.064-.008-.126-.035-.199-.165-.164-.291.526-1.897-.397-3.836-1.289-5.711l-.299-.633c-3.572-7.67-3.586-16.834-.038-24.515.055-.119.195-.169.314-.116.119.055.171.196.116.314-3.491,7.556-3.477,16.572.037,24.117l.297.629c.93,1.954,1.891,3.975,1.318,6.04-.03.105-.125.174-.228.174Z" style="fill: #45313d;"/>
                </g>
              </g>
            </g>
          </g>
          <g>
            <path d="m760.038,298.9811c-36.617,1.681-138.094,1.522-174.95-3.842-33.803-4.92-68.168-5.797-102.094-9.326-36.562-3.803-73.663-6.671-110.371-2.796-56.199,5.932-112.375,13.055-169.042,12.935-39.953-.084-79.782,1.381-119.383-4.99-8.607-1.385-87.78-4.619-96.959-7.353v252.194h772.799v-236.822Z" style="fill: #f7e788;"/>
            <g>
              <g>
                <path d="m760.038,315.6392c-22.055,4.783-110.855,12.681-130.329,19.551-22.514,7.943-44.001,18.218-66.22,26.916-16.373,6.41-36.325,11.358-50.789,21.916-30.153,22.01,37.43,23.996,46.893,39.64-12.313,13.955-38.663,19.785-56.172,22.846-50.955,8.908-101.395,4.394-152.752,3.224-62.958-1.434-127.344-2.511-190.258.331-31.3,1.414-139.828,6.684-173.172,17.422v68.318h772.799v-220.164Z" style="fill: #8ccbf2;"/>
                <path d="m86.354,535.8042c50.696-25.381,108.744-37.392,165.208-39.458,91.856-4.772,180.132,10.736,273.181-7.158,21.278-4.256,58.686-7.562,66.529-30.229,1.672-4.833-1.378-9.996-6.353-11.179-17.603-4.187-35.664-5.901-53.379-7.962-9.744,3.208-19.905,5.254-28.119,6.69-50.955,8.908-101.395,4.394-152.752,3.224-62.958-1.434-127.344-2.511-190.258.331-31.3,1.414-139.828,6.684-173.172,17.422v68.318h99.115v.001Z" style="fill: #7ac0eb;"/>
                <path d="m760.038,315.6392c-22.055,4.783-110.855,12.681-130.329,19.551-22.514,7.943-44.001,18.218-66.22,26.916-16.373,6.41-36.325,11.358-50.789,21.916-22.314,16.288,8.894,21.611,30.464,29.618,109.588-51.233,165.622-42.643,216.873-57.691v-40.31h.001Z" style="fill: #7ac0eb;"/>
              </g>
              <g>
                <path d="m760.038,315.6382c-22.055,4.783-110.854,12.683-130.329,19.555-22.511,7.945-44.007,18.216-66.219,26.913-16.367,6.406-36.325,11.357-50.783,21.914-14.077,10.271-6.859,16.188,5.822,21.163,13.695-8.04,30.694-12.526,44.961-18.109,22.212-8.696,43.709-18.979,66.219-26.912,19.475-6.872,108.274-14.772,130.329-19.555v-24.969Z" style="fill: #dbcd78;"/>
                <path d="m538.939,437.1052c-11.786,4.831-25.183,7.599-35.514,9.4-50.962,8.911-101.399,4.402-152.755,3.233-62.963-1.443-127.345-2.517-190.26.322-31.296,1.415-139.824,6.69-173.172,17.427v24.963c33.348-10.738,141.876-16.007,173.172-17.422,62.915-2.839,127.298-1.766,190.26-.334,51.356,1.169,101.793,5.69,152.755-3.221,17.5-3.054,43.852-8.887,56.163-22.845v-24.967c-5.046,5.726-12.454,10.08-20.649,13.444Z" style="fill: #dbcd78;"/>
              </g>
            </g>
          </g>
          <g>
            <g>
              <path d="m52.525,295.6101c.402,7.405.632,15.447-3.655,21.499,6.845-4.192,16.658-2.578,21.8,3.586-5.555,4.201-13.504,4.966-19.759,1.903,5.71,5.719,6.93,15.392,2.817,22.349-7.66-3.408-12.365-12.431-10.775-20.662-2.036,4.247-6.716,6.727-11.382,7.37s-9.391-.259-14.014-1.157c2.106-7.907,10.461-13.629,18.594-12.736-4.201-1.09-8.364-3.087-10.942-6.579-2.578-3.491-3.131-8.71-.417-12.097,3.44,1.191,8.173,2.167,10.904,4.624,1.489,1.34,2.847,2.829,4.055,4.426.668.882,3.201,3.74,3.039,4.872.622-4.341,1.283-8.8,3.454-12.611.831-1.459,1.893-2.173,3.258-3.034.203-.128,3.015-1.861,3.023-1.753Z" style="fill: #fff;"/>
              <path d="m39.788,316.4322c-.668,1.188.989,3.387,3.701,4.911,2.712,1.524,5.451,1.796,6.119.608s-.989-3.387-3.701-4.911c-2.711-1.524-5.451-1.797-6.119-.608Z" style="fill: #f1cc4b;"/>
            </g>
            <g>
              <path d="m572.173,298.1382c-1.025,5.645-1.979,11.794.726,16.853-4.848-3.879-12.536-3.59-17.078.643,3.857,3.761,9.884,5.118,14.981,3.371-4.936,3.837-6.807,11.143-4.324,16.88,6.208-1.874,10.692-8.344,10.268-14.816,1.152,3.457,4.504,5.812,8.023,6.757,3.519.945,7.233.71,10.868.467-.852-6.272-6.71-11.472-13.039-11.573,3.33-.43,6.717-1.56,9.034-3.991,2.316-2.43,3.245-6.382,1.49-9.244-2.756.581-6.482.873-8.816,2.495-1.272.884-2.458,1.896-3.541,3.005-.598.612-2.819,2.561-2.804,3.445-.057-3.392-.134-6.878-1.431-10.013-.497-1.2-1.242-1.851-2.207-2.643-.142-.116-2.133-1.718-2.15-1.636Z" style="fill: #fff;"/>
              <path d="m579.935,315.3502c.398.977-1.087,2.504-3.315,3.411-2.229.908-4.358.851-4.755-.125-.398-.977,1.087-2.504,3.315-3.411,2.228-.908,4.357-.851,4.755.125Z" style="fill: #f1cc4b;"/>
            </g>
            <g>
              <path d="m82.893,364.2622c1.313,2.05,2.678,4.309,2.433,6.73,1.277-2.304,4.34-3.43,6.805-2.501-.907,2.098-3.053,3.602-5.335,3.738,2.555.71,4.468,3.275,4.418,5.927-2.739.265-5.541-1.55-6.418-4.158.105,1.542-.83,3.007-2.059,3.945-1.228.938-2.724,1.445-4.189,1.936-.677-2.599.783-5.584,3.251-6.644-1.376.368-2.888.471-4.188-.109-1.301-.58-2.302-1.981-2.075-3.387,1.175-.216,2.684-.703,3.862-.443.642.142,1.27.348,1.874.608.333.144,1.519.55,1.656.9-.524-1.34-1.057-2.721-1.053-4.16.002-.551.189-.927.44-1.393.035-.069.558-1.018.578-.989Z" style="fill: #fff;"/>
              <path d="m82.622,372.2682c.001.447.83.807,1.851.804,1.021-.003,1.847-.369,1.846-.816-.001-.447-.83-.807-1.851-.804-1.021.004-1.847.369-1.846.816Z" style="fill: #f1cc4b;"/>
            </g>
            <g>
              <path d="m624.507,302.4362c1.312,2.05,2.678,4.309,2.433,6.73,1.277-2.304,4.34-3.43,6.805-2.501-.907,2.098-3.053,3.602-5.335,3.738,2.555.71,4.468,3.275,4.418,5.927-2.739.265-5.541-1.55-6.418-4.158.105,1.542-.83,3.007-2.059,3.945-1.229.938-2.724,1.445-4.189,1.936-.677-2.599.783-5.584,3.251-6.644-1.376.368-2.888.471-4.189-.109-1.301-.58-2.302-1.981-2.075-3.387,1.175-.216,2.684-.703,3.862-.443.642.142,1.271.348,1.874.608.333.144,1.519.55,1.656.9-.524-1.34-1.056-2.721-1.053-4.16.001-.551.189-.926.44-1.393.0371-.069.5601-1.019.5791-.989Z" style="fill: #fff;"/>
              <path d="m624.237,310.4421c.001.447.83.807,1.851.804,1.021-.003,1.847-.369,1.846-.816-.001-.447-.83-.807-1.851-.804s-1.848.368-1.846.816Z" style="fill: #f1cc4b;"/>
            </g>
          </g>
          <g>
            <g>
              <path d="m755.633,388.4251s1.238-6.308-1.003-6.959c-2.236-.649-4.638,5.749-4.638,5.749l5.641,1.21Z" style="fill: #357269;"/>
              <path d="m749.994,387.2072s1.351-6.283-.887-6.933c-2.252-.708-4.708,5.649-4.708,5.649l2.779.672,2.816.612Z" style="fill: #357269;"/>
              <path d="m744.4,385.9161s1.418-6.27-.834-6.986c-2.252-.715-4.724,5.642-4.724,5.642l5.558,1.344Z" style="fill: #357269;"/>
              <path d="m738.845,384.5642s1.433-6.266-.818-6.982c-2.252-.715-4.739,5.638-4.739,5.638l5.557,1.344Z" style="fill: #357269;"/>
              <path d="m733.29,383.2122s1.448-6.262-.799-6.993c-2.247-.729-4.751,5.615-4.751,5.615l5.55,1.378Z" style="fill: #357269;"/>
              <path d="m727.742,381.8272s1.465-6.259-.782-6.989c-2.247-.729-4.768,5.61-4.768,5.61l5.55,1.379Z" style="fill: #357269;"/>
              <path d="m722.193,380.4402s1.481-6.252-.764-6.987c-2.242-.743-4.781,5.585-4.781,5.585l5.545,1.402Z" style="fill: #357269;"/>
              <path d="m716.651,379.0312s1.5-6.251-.741-6.995c-2.241-.743-4.801,5.58-4.801,5.58l5.5421,1.415Z" style="fill: #357269;"/>
              <path d="m711.11,377.6082s1.52-6.245-.721-6.99c-2.236-.755-4.818,5.554-4.818,5.554l5.539,1.436Z" style="fill: #357269;"/>
              <path d="m705.574,376.1642s1.542-6.24-.693-7c-2.235-.758-4.841,5.546-4.841,5.546l5.534,1.454Z" style="fill: #357269;"/>
              <path d="m700.042,374.7032s1.564-6.232-.669-6.996c-2.228-.775-4.86,5.516-4.86,5.516l5.529,1.48Z" style="fill: #357269;"/>
              <path d="m694.516,373.2162s1.59-6.228-.638-7.004c-2.228-.774-4.888,5.509-4.888,5.509l5.526,1.495Z" style="fill: #357269;"/>
              <path d="m688.992,371.7131s1.616-6.216-.605-7.01c-2.22-.791-4.912,5.476-4.912,5.476l5.517,1.534Z" style="fill: #357269;"/>
              <path d="m683.477,370.1711s1.65-6.212-.571-7.005c-2.218-.793-4.942,5.448-4.942,5.448l5.513,1.557Z" style="fill: #357269;"/>
              <path d="m677.966,368.6072s1.685-6.203-.527-7.014c-2.211-.808-4.979,5.426-4.979,5.426l5.506,1.588Z" style="fill: #357269;"/>
              <path d="m672.462,367.0122s1.724-6.193-.479-7.022c-2.201-.827-5.019,5.388-5.019,5.388l5.498,1.634Z" style="fill: #357269;"/>
              <path d="m666.966,365.3702s1.769-6.173-.422-7.023c-2.189-.846-5.067,5.341-5.067,5.341l5.489,1.682Z" style="fill: #357269;"/>
              <path d="m661.48,363.6812s1.827-6.157-.351-7.027c-2.176-.863-5.129,5.282-5.129,5.282l5.48,1.745Z" style="fill: #357269;"/>
              <path d="m656.002,361.9282s1.905-6.14-.257-7.028c-1.086-.44-2.37.849-3.409,2.262-1.035,1.41-1.806,2.932-1.806,2.932,1.8231.633,3.648,1.235,5.472,1.834Z" style="fill: #357269;"/>
              <path d="m650.533,360.0872s2.007-6.096-.108-7.03c-1.056-.47-2.369.802-3.457,2.169-1.076,1.376-1.979,2.831-1.979,2.831,1.9459.776,3.6989,1.386,5.5439,2.03Z" style="fill: #357269;"/>
            </g>
            <path d="m664.318,387.7582s.135,41.303-14.073,43.751-17.815-5.13-17.815-5.13c0,0-.783-2.263,1.983-1.639,0,0-1.398-3.201,1.247-2.48,0,0-.549-3.001,1.297-1.931,1.846,1.071,4.638,2.46,6.196.122,1.559-2.338,5.569-25.438,5.571-31.538.0021-6.1,12.4291-17.292,15.5941-1.155Z" style="fill: #62997f;"/>
            <path d="m748.104,396.7691s.135,41.303-14.073,43.751-17.815-5.13-17.815-5.13c0,0-.783-2.263,1.983-1.638,0,0-1.398-3.201,1.247-2.48,0,0-.549-3.001,1.297-1.931s4.638,2.46,6.197.122c1.559-2.338,5.162-25.7,5.164-31.8.001-6.101,12.835-17.031,16-.894Z" style="fill: #62997f;"/>
            <g>
              <path d="m610.185,380.6311c-4.565-3.127-5.408-6.682-5.408-6.682,0,0-20.079-1.169-46.631-11.377-3.683-12.576-2.028-21.597.578-24.08,2.671-2.545,5.537,3.21,5.537,3.21,0,0,2.186-4.123,4.271-3.245s2.313,4.825,2.313,4.825l31.688,2.536s.672-11.693,11.327-10.111c10.656,1.582,9.549,14.1,9.549,14.1,0,0,6.795-11.471,15.159-8.2s6.068,12.454,6.068,12.454c24.525,15.067,103.62,31.375,147.391,35.647s75.453-8.315,76.737-8.502c13.115-1.913,2.392,10.078-18.433,23.682-19.899,3.956-62.1,10.856-103.979,8.255-57.572-3.578-119.287-21.328-136.167-32.512Z" style="fill: #3eab7b;"/>
              <g>
                <g style="clip-path: url(#clippath-1);">
                  <path d="m723.825,433.3062c-38.66-3.713-86.165-15.377-111.694-26.974-34.564-15.701-49.661-29.743-53.714-42.817-.1-.32-.179-.628-.271-.943,3.648,1.403,7.169,2.629,10.537,3.71,35.403,32.177,83.371,49.748,131.167,61.903,7.908,2.486,15.979,3.455,23.975,5.121Z" style="fill: #b4c17c;"/>
                </g>
                <g style="clip-path: url(#clippath-2);">
                  <path d="m604.777,373.9492s.843,3.555,5.408,6.682c16.88,11.184,78.595,28.934,136.167,32.511,41.879,2.602,84.079-4.299,103.979-8.255-2.794,1.825-5.838,3.713-9.14,5.659-27.915,16.449-60.038,21.21-81.004,23.364-10.096,1.037-22.679.71-36.361-.604-7.997-1.666-16.067-2.635-23.975-5.12-47.796-12.156-95.764-29.726-131.167-61.903,21.147,6.791,36.093,7.666,36.093,7.666Z" style="fill: #bfce8b;"/>
                </g>
                <g style="clip-path: url(#clippath-3);">
                  <g>
                    <path d="m598.557,410.6252c19.242-4.902,22.828-38.926,22.862-39.268l-.646-.065c-.034.339-3.574,33.914-22.376,38.704l.16.629Z" style="fill: #74ab93;"/>
                    <path d="m619.068,420.1842c18.073-8.228,15.586-42.35,15.559-42.694l-.648.051c.027.339,2.48,34.012-15.179,42.051l.268.592Z" style="fill: #74ab93;"/>
                    <path d="m640.693,426.8752c18.074-8.228,15.586-42.349,15.559-42.693l-.649.051c.027.339,2.481,34.011-15.179,42.05l.269.592Z" style="fill: #74ab93;"/>
                    <path d="m673.135,435.6282c18.074-8.228,15.586-42.349,15.559-42.693l-.649.051c.027.339,2.48,34.011-15.179,42.05l.269.592Z" style="fill: #74ab93;"/>
                    <path d="m692.613,437.7232c18.073-8.228,15.585-42.349,15.558-42.693l-.648.051c.027.339,2.48,34.011-15.18,42.05l.27.592Z" style="fill: #74ab93;"/>
                    <path d="m712.09,439.8182c18.073-8.228,15.585-42.349,15.558-42.693l-.648.051c.027.339,2.48,34.011-15.18,42.05l.27.592Z" style="fill: #74ab93;"/>
                  </g>
                </g>
              </g>
            </g>
            <path d="m603.296,373.7902s-1.673,7.445-4.165,6.306-2.33-6.727-2.33-6.727l6.495.421Z" style="fill: #ffecd6;"/>
            <path d="m595.784,372.9822s-1.673,7.445-4.165,6.306-2.33-6.727-2.33-6.727l6.495.421Z" style="fill: #ffecd6;"/>
            <path d="m589.405,371.4792s-1.673,7.445-4.165,6.306-2.33-6.727-2.33-6.727l6.495.421Z" style="fill: #ffecd6;"/>
            <path d="m582.555,369.8431s-1.673,7.445-4.165,6.306-2.243-7.535-2.243-7.535l6.408,1.229Z" style="fill: #ffecd6;"/>
            <path d="m575.557,368.0562s-1.673,7.446-4.165,6.306c-2.492-1.139-2.243-7.535-2.243-7.535l6.408,1.229Z" style="fill: #ffecd6;"/>
            <path d="m569.169,366.2802s-1.673,7.445-4.165,6.306-2.243-7.535-2.243-7.535l6.408,1.229Z" style="fill: #ffecd6;"/>
            <path d="m600.212,374.5792c1.934.208,3.535.255,4.669.091,9.189-1.323,9.164-8.89,9.164-8.966-.007-.403-.338-.719-.742-.717-.403.007-.724.339-.717.742.003.257-.025,6.362-7.913,7.498-8.395,1.214-45.664-10.291-46.04-10.408-.385-.115-.793.096-.912.481-.119.385.096.793.481.912,1.344.417,29.078,8.976,42.0099,10.367Z" style="fill: #45313d;"/>
            <path d="m630.036,352.0451c-.205,1.903.594,3.55,1.784,3.678,1.19.128,2.32-1.311,2.525-3.214.205-1.903-.594-3.55-1.784-3.678-1.1901-.128-2.32,1.311-2.525,3.214Z" style="fill: #45313d;"/>
            <path d="m609.514,346.3521c-.205,1.903.594,3.55,1.784,3.678,1.19.128,2.32-1.311,2.525-3.214.205-1.903-.594-3.55-1.784-3.678-1.191-.129-2.321,1.311-2.525,3.214Z" style="fill: #45313d;"/>
            <path d="m565.261,351.0702c1.438.164,3.423-2.464,2.313-5.307-1.11-2.844-5.968,4.89-2.313,5.307Z" style="fill: #45313d;"/>
            <path d="m560.187,350.5241c-1.44-.146-2.821-3.136-1.132-5.678,1.69-2.542,4.792,6.048,1.132,5.678Z" style="fill: #45313d;"/>
            <path d="m623.688,374.7131c.219,2.602,5.116,4.316,10.939,3.826,5.824-.49,10.367-2.996,10.149-5.598-.219-2.602-5.117-4.315-10.939-3.826-5.825.49-10.368,2.997-10.149,5.598Z" style="fill: #f19a94;"/>
            <path d="m676.693,394.3202s.135,41.303-14.073,43.751-17.815-5.13-17.815-5.13c0,0-.783-2.263,1.983-1.639,0,0-1.398-3.201,1.247-2.48,0,0-.549-3.001,1.297-1.931,1.846,1.071,4.638,2.46,6.197.122,1.559-2.338,5.569-25.438,5.571-31.538.001-6.1,12.428-17.292,15.593-1.155Z" style="fill: #3eab7b;"/>
            <path d="m760.479,403.3312s.135,41.303-14.073,43.751-17.815-5.13-17.815-5.13c0,0-.783-2.263,1.983-1.638,0,0-1.398-3.201,1.247-2.48,0,0-.549-3.001,1.297-1.931s4.638,2.46,6.197.122c1.559-2.338,5.161-25.7,5.164-31.8.001-6.1,12.834-17.031,16-.894Z" style="fill: #3eab7b;"/>
            <g style="opacity: .6;">
              <g>
                <path d="m597.754,356.3972c-.475-.713-1.261-1.973-.677-2.878.582-.905,2.796-.927,3.44-.873.644.053.691,2.516.948,2.731.258.216-.198,1.09-.768,1.192,0,0-2.468.541-2.943-.172Z" style="fill: #bfce8b;"/>
                <path d="m602.894,350.8662c-.177.307-1.216.067-1.44-.117s-.878-.885-.546-1.009c0,0,1.63-.694,1.836-.092.2061.602.327.912.15,1.218Z" style="fill: #bfce8b;"/>
                <path d="m595.093,351.3792c-.201.209-.919.153-1.017-.186,0,0-.593-1.03.023-1.188.617-.158.935-.254,1.226-.053.293.203-.031,1.219-.232,1.427Z" style="fill: #bfce8b;"/>
                <path d="m599.832,350.6112c-.351,1.001-1.39.717-1.915.658-.527-.06-1.508-.49-1.054-1.316,0,0,1.343-1.29,1.924-1.251.582.039,1.397.909,1.045,1.909Z" style="fill: #bfce8b;"/>
                <path d="m593.105,353.4721c.22-1.038,1.286-.89,1.816-.898.529-.009,1.557.291,1.212,1.169,0,0-1.165,1.452-1.747,1.488-.5819.036-1.502-.722-1.2809-1.759Z" style="fill: #bfce8b;"/>
              </g>
              <g>
                <path d="m588.48,354.3142c-.475-.713-1.261-1.973-.677-2.878.583-.905,2.796-.927,3.44-.874s.691,2.516.948,2.731c.258.215-.198,1.089-.768,1.191,0,.002-2.468.543-2.943-.17Z" style="fill: #bfce8b;"/>
                <path d="m592.661,349.3112c-.177.307-1.216.067-1.44-.117s-.878-.885-.546-1.009c0,0,1.63-.694,1.836-.092.207.602.328.912.15,1.218Z" style="fill: #bfce8b;"/>
                <path d="m584.411,350.2311c-.201.209-.919.153-1.017-.186,0,0-.593-1.03.023-1.188.617-.158.935-.254,1.226-.053.293.203-.031,1.218-.232,1.427Z" style="fill: #bfce8b;"/>
                <path d="m604.297,354.2492c-.201.209-.919.153-1.016-.186,0,0-.593-1.03.023-1.187.617-.158.935-.254,1.226-.053.292.202-.032,1.217-.233,1.426Z" style="fill: #bfce8b;"/>
                <path d="m578.97,349.1742c-.201.209-.919.153-1.017-.186,0,0-.593-1.03.023-1.187.617-.158.935-.254,1.226-.052.293.201-.0309,1.216-.232,1.425Z" style="fill: #bfce8b;"/>
                <path d="m589.281,348.6202c.101,1.057-.961,1.234-1.463,1.401-.504.166-1.574.187-1.508-.754,0,0,.679-1.734,1.224-1.942.544-.208,1.649.241,1.747,1.295Z" style="fill: #bfce8b;"/>
                <path d="m582.279,350.4232c.101,1.056-.961,1.234-1.463,1.401-.504.166-1.574.187-1.508-.754,0,0,.679-1.734,1.224-1.942.544-.209,1.648.24,1.747,1.295Z" style="fill: #bfce8b;"/>
                <path d="m583.739,352.7172c-.432-.97.517-1.476.941-1.795.424-.318,1.43-.681,1.669.234,0,0-.089,1.859-.539,2.23-.449.372-1.64.299-2.071-.669Z" style="fill: #bfce8b;"/>
              </g>
            </g>
            <g style="opacity: .6;">
              <g>
                <path d="m745.054,387.5852c.774,1.162,2.054,3.215,1.104,4.689-.949,1.474-4.555,1.51-5.604,1.423-1.05-.087-1.126-4.099-1.546-4.449-.419-.351.323-1.775,1.252-1.941,0-.001,4.021-.883,4.794.278Z" style="fill: #bfce8b;"/>
                <path d="m736.682,396.5952c.289-.5,1.98-.109,2.346.191.365.3,1.429,1.443.889,1.644,0,0-2.654,1.131-2.989.15-.338-.98-.5359-1.485-.246-1.985Z" style="fill: #bfce8b;"/>
                <path d="m749.39,395.7602c.328-.341,1.498-.25,1.657.303,0,0,.964,1.678-.038,1.935-1.004.257-1.523.413-1.997.086-.478-.33.05-1.984.3781-2.324Z" style="fill: #bfce8b;"/>
                <path d="m741.669,397.0132c.572-1.631,2.264-1.169,3.121-1.073.859.098,2.456.798,1.716,2.144,0,0-2.187,2.103-3.135,2.038-.948-.063-2.276-1.482-1.702-3.109Z" style="fill: #bfce8b;"/>
                <path d="m752.629,392.3511c-.359,1.691-2.095,1.45-2.96,1.463-.862.014-2.537-.473-1.974-1.905,0,0,1.897-2.365,2.846-2.425.949-.058,2.448,1.177,2.088,2.867Z" style="fill: #bfce8b;"/>
              </g>
              <path d="m734.396,391.0852c.328-.341,1.498-.25,1.656.303,0,0,.965,1.678-.038,1.934-1.005.257-1.523.413-1.997.086-.477-.329.051-1.983.379-2.323Z" style="fill: #bfce8b;"/>
            </g>
          </g>
          <g>
            <path d="m301.213.2712c.075,6.105-1.821,12.031-6.717,16.494-4.971,4.538-12.121,6.135-18.345,4.433-3.403,10.912-16.36,15.912-26.465,9.896-7.583,10.643-21.211,14.061-32.944,9.464-.701,4.971,1.209,10.016,5.12,13.569,3.149,2.866.821,9.299-3.672,8.837-6.18-.627-11.449-3.463-15.181-7.643-4.568,16.808-17.942,29.525-33.541,37.959-4.433,2.403-9.852-2.523-7.09-7.09,4.672-7.702,7.001-16.091,7.046-24.57-7.777,6.553-17.569,10.061-28.018,8.732,2.344,12.643-1.896,26.555-13.718,33.272-10.852,6.165-25.391,3.851-33.944-4.821-10.105,12.628-29.033,14.195-40.646,2.433-4.433,5.045-10.135,8.867-17.061,9.479-4.896.433-9.777-.806-13.718-3.448-4.418,8.896-12.986,14.837-22.569,18.136V.2712h301.463Z" style="fill: #8fcc81;"/>
            <path d="m749.75.2712v112.146c-2.373.164-4.821-.03-7.24-.582-4.09-.955-7.568-2.881-10.568-5.418.433,8.687,3.18,17.091,8.135,24.749,3.03,4.687-2.747,9.18-7.09,7.09-15.136-7.284-26.57-19.494-35.615-33.347-3.448,3.836-7.404,7.075-12.031,9.777-4.403,2.567-9.837-2.627-7.09-7.09,3.926-6.389,3.523-14.121-1.552-19.763-.328-.358-.567-.731-.776-1.105-1.925,1.582-4.254,2.687-7.12,3.015-7.792.91-13.419-4.389-17.36-10.538-1.493,1.985-2.926,4.075-5.523,5.105-3.881,1.537-8.329.701-11.852-1.388-8.464-5.001-8.956-13.583-9.717-22.137-17.823,7.434-36.511-3.194-45.99-19.405-9.971,8.434-25.749,4.657-31.57-7.001-1.761,1.956-3.463,3.986-5.717,5.419-3.717,2.358-8.105,2.911-12.33,1.821-6.926-1.806-11.091-6.881-13.897-12.837-4.135,4.866-9.493,8.449-16.255,7.448-7.658-1.134-11.703-7.269-13.972-14.016-4.538,1.612-9.688,1.329-14.389-.672-8.9431-3.822-13.406-12.822-17.0041-21.271h296.523Z" style="fill: #8fcc81;"/>
          </g>
        </g>
        <path d="m136.168,122.6672c19.755,0,37.502-2.514,46.356-8.64,47.467-32.841,53.877-90.227,56.289-111.83.225-2.006.418-3.739.602-5.032l-2.971-.421c-.189,1.337-.385,3.09-.612,5.12-2.371,21.232-8.671,77.631-55.015,109.696-20.16,13.948-100.503,4.567-127.704-6.672l-1.146,2.772c16.573,6.848,56.568,15.007,84.201,15.007Z" style="fill: #8b5e3c;"/>
      </g>
    </g>
    <g style="opacity: .25;">
      <path d="m237.186,436.4282c-22.322,0-40.413-2.812-40.413-6.276s18.091-6.277,40.413-6.277,40.404,2.812,40.404,6.277-18.091,6.276-40.404,6.276Z" style="fill: #8b5e3c;"/>
      <path d="m351.636,447.4031c-44.015,0-79.685-5.544-79.685-12.376s35.671-12.376,79.685-12.376,79.667,5.544,79.667,12.376c0,6.832-35.671,12.376-79.667,12.376Z" style="fill: #8b5e3c;"/>
      <path d="m214.13,425.0422c-45.162,0-81.774-3.789-81.774-8.453,0-4.673,36.612-8.453,81.774-8.453s81.783,3.78,81.783,8.453c0,4.664-36.612,8.453-81.783,8.453Z" style="fill: #8b5e3c;"/>
      <path d="m474.475,431.3852c-36.524,0-66.123-4.6-66.123-10.269s29.6-10.269,66.123-10.269,66.108,4.6,66.108,10.269-29.6,10.269-66.108,10.269Z" style="fill: #8b5e3c;"/>
      <path d="m460.235,439.8282c-23.603,0-42.731-2.973-42.731-6.637s19.128-6.636,42.731-6.636,42.722,2.973,42.722,6.636c0,3.664-19.129,6.637-42.722,6.637Z" style="fill: #8b5e3c;"/>
    </g>
    <g style="clip-path: url(#clippath-4);">
      <g>
        <g>
          <g>
            <path d="m.788,518.7251c-5.304-27.983-20.706-53.94-42.726-72.003,27.06,5.654,50.996,24.644,62.655,49.71-13.741-46.771-9.157-98.669,12.569-142.308-5.467,43.085-10.607,88.664,6.858,128.429,1.254-34.943,19.086-68.931,47.126-89.82-19.859,26.489-29.702,60.306-27.16,93.315,25.632-19.473,53.851-39.854,86.04-39.645-30.56,12.974-53.63,42.225-59.127,74.967" style="fill: #267340;"/>
            <g>
              <path d="m-4.411,472.5702c9.021,13.918,14.643,30.004,16.363,46.498l14.935.458c-5.432-18.306-16.473-34.916-31.298-46.956Z" style="fill: #66994f;"/>
              <path d="m58.862,509.4362c-5.731-19.292-6.746-39.966-2.934-59.727-8.586,20.523-7.786,43.59-6.845,65.817-11.661-18.774-20.45-39.328-25.969-60.728.602,21.624,2.028,43.225,4.257,64.742l51.418,1.577c3.535-20.997,12.687-41.063,26.433-57.337-19.293,10.514-35.551,26.526-46.36,45.656Z" style="fill: #66994f;"/>
            </g>
          </g>
          <g>
            <path d="m754.223,458.8112v47.84l-.6.6h-164.22c11.68-3.16,25.82-2.95,33.27-11.38-3.54-3.83-7.31-7.45-10.02-11.91,9.56,1.48,17.73,8.48,26.65,12.01-1.01-1.62-1.49-3.91-2.36-5.59,11.74,1.16,24.39,4.58,35.83,7.53-13.15-7.89-31.73-20.42-48.82-19.43,21.42-4.36,40.91-4.63,63.29.5-6.08-11.75-13.32-21.91-25.19-28.51,13.13-.8,33.05,7.38,41.32,17.43-1.14-27.57-3.02-56.76,8.19-82.46.29,21.98-2,50.87,8.36,71.15.39-8.29.27-16.64,1.13-24.93,2.15,6.01,1.92,12.88,4.05,18.51.4-8.43,1.08-18.27,5.21-25.67,3.95,8.61,5.47,20.55,5.56,30.82.43-29.24,4.98-54.37,14.06-82.37-8.5601,27.42-5.7201,58.44,4.2899,85.86Z" style="fill: #267340;"/>
            <path d="m754.223,492.6011v14.05l-.6.6h-49.51c-7.93-10.14-19.64-18.97-30.59-22.5,11.22,1.72,22.02,4.49,33.13,6.48-3.97-5.16-8.19-10.18-11.12-16.04,8.97,6.01,19.05,15.54,28.53,20.12-2.27-8.28-4.75-18.93-5.26-27.26,4.95,4.55,8.25,13.02,13.83,16.51.56-9.44-.47-19.32,1.94-28.51,4.04,13.24,9.26,26.44,19.21,35.86.1399.23.2899.4601.4399.69Z" style="fill: #66994f;"/>
          </g>
        </g>
        <g>
          <g>
            <path d="m462.392-101.0358c-6.997,10.191-12.976,21.068-19.914,31.315-6.948,10.262-14.348,20.228-22.255,29.772-15.814,19.087-33.807,36.516-54.225,50.64-40.059,27.71-91.807,41.331-139.815,29.289-26.339-6.607-54.678-21.631-67.09-46.949-1.5-3.061-6.235-.712-4.742,2.362,11.006,22.658,34.262,37.752,57.292,46.21,23.856,8.762,49.939,10.659,75.024,7.258,51.768-7.019,96.601-36.712,130.681-75.296,9.62-10.892,18.488-22.416,26.693-34.407,8.264-12.076,16.716-24.618,22.774-37.972,1.192-2.626-2.863-4.495-4.423-2.222Z" style="fill: #8b5e3c;"/>
            <path d="m703.192-58.4068c-10.056,9.25-19.63,18.937-30.158,27.675-10.285,8.536-21.075,16.432-32.295,23.695-22.211,14.377-46.131,26.102-71.134,34.764-54.761,18.971-114.427,22.722-171.207,11.22-15.919-3.225-31.582-7.621-46.854-13.148-14.653-5.303-30.011-11.843-39.38-24.928-1.739-2.429-5.784-.161-4.068,2.378,7.3,10.796,18.158,17.727,29.898,22.938,13.569,6.023,27.838,10.652,42.177,14.449,29.303,7.76,59.756,11.47,90.065,11.014,57.74-.868,114.648-17.14,164.196-46.773,13.368-7.995,26.127-16.961,38.231-26.764,12.201-9.882,24.352-20.586,34.144-32.908,2.005-2.524-1.136-5.892-3.615-3.612Z" style="fill: #8b5e3c;"/>
            <path d="m756.426,69.1862c-9.056,1.359-17.946,4-27.002,5.501-8.763,1.452-17.605,2.424-26.491,2.624-17.351.39-35.058-2.193-50.768-9.872-29.718-14.525-48.502-43.503-65.816-70.451-1.704-2.653-5.928-.224-4.25,2.484,14.008,22.605,28.64,45.91,49.877,62.488,22.087,17.241,49.321,23.213,76.934,21.588,16.076-.946,33.904-3.196,48.968-9.096,3.301-1.293,2.0259-5.787-1.452-5.266Z" style="fill: #8b5e3c;"/>
            <path d="m157.869-4.8768c-10.238,29.678-28.934,56.051-52.921,76.23-24.4,20.527-55.996,36.178-88.098,38.801-19.964,1.631-39.545-4.835-49.431-23.213-1.153-2.143-4.495-.485-3.796,1.761,5.066,16.279,22.218,25.696,38.269,27.65,18.358,2.236,37.511-2.789,54.548-9.346,31.754-12.222,59.894-33.695,80.213-60.977,11.282-15.149,20.072-31.899,26.085-49.803,1.025-3.052-3.833-4.105-4.869-1.103Z" style="fill: #8b5e3c;"/>
          </g>
          <g>
            <g>
              <path d="m47.764-18.5868c10.418-2.962,23.13-.709,29.321,8.178C64.805-1.9638,52.525,6.4812,40.245,14.9252c6.064,2.218,12.94-.313,18.065-4.242,5.124-3.929,9.094-9.158,13.915-13.454,4.821-4.296,11.045-7.759,17.448-6.928,5.885.764,10.838,5.108,13.747,10.281,2.909,5.173,4.075,11.124,4.987,16.987-7.127-2.689-14.912,1.19-21.441,5.114s-13.952,8.18-21.313,6.22c4.903,2.387,10.758,1.6,15.964-.023,5.206-1.623,10.21-4.032,15.607-4.816,5.397-.783,11.546.448,14.819,4.81,2.101,2.801,2.703,6.435,2.948,9.927.775,11.051-1.425,22.296-6.31,32.239-6.702,2.802-13.501,5.632-20.702,6.585-7.201.953-14.976-.177-20.707-4.639-9.524-7.415-10.686-21.125-11.055-33.19-3.559,12.139.023,26.095,8.989,35.019-7.316,1.987-15.53.321-21.493-4.36s-9.532-12.264-9.34-19.843c.123-4.808,1.66-9.518,1.565-14.327-.096-4.809-2.542-10.168-7.221-11.282,3.821,3.65,4.319,9.621,3.407,14.826-.912,5.205-2.971,10.203-3.366,15.473s1.407,11.249,6.127,13.625c-8.787-1.895-18.563-4.473-23.134-12.213-3.119-5.281-3.03-11.854-2.023-17.904s2.839-12.008,2.893-18.141c.083-9.26-3.041-20.6,7.542-25.107,9.495-4.042,17.478-11.27,27.601-14.149Z" style="fill: #4d9966;"/>
              <g>
                <path d="m108.952,71.2982c-.031,0-.061-.008-.089-.023-16.848-9.461-34.27-19.245-50.532-30.708C40.13,27.7362,26.007,14.6002,15.156.4072c-.061-.08-.046-.194.034-.255.08-.06.195-.045.255.034,10.828,14.163,24.925,27.274,43.095,40.083,16.246,11.453,33.66,21.232,50.501,30.688.087.049.118.16.069.248-.033.059-.095.093-.158.093Z" style="fill: #45313d;"/>
                <path d="m56.384,75.7042c-.041,0-.082-.014-.116-.041-6.194-5.101-10.61-12.548-12.116-20.43-.656-3.437-.793-6.99-.925-10.426-.06-1.571-.123-3.197-.234-4.788-.449-6.421-1.709-10.866-4.086-14.414-.056-.083-.034-.196.05-.252.083-.055.197-.034.252.05,3.129,4.669,3.865,10.563,4.147,14.59.112,1.597.175,3.225.236,4.8.131,3.423.268,6.961.919,10.371,1.489,7.8,5.86,15.17,11.99,20.218.077.064.088.179.024.256-.037.044-.089.066-.141.066Z" style="fill: #45313d;"/>
                <path d="m33.756,68.6372c-.03,0-.061-.008-.089-.023-7.965-4.481-13.466-11.345-15.093-18.831-1.247-5.738-.248-11.658.718-17.383.487-2.883.99-5.865,1.202-8.792.449-6.191-.408-12.555-2.477-18.405-.033-.095.016-.199.111-.232.094-.034.199.016.232.111,2.086,5.898,2.949,12.313,2.497,18.553-.213,2.945-.718,5.935-1.206,8.826-.96,5.692-1.953,11.577-.722,17.245,1.606,7.384,7.042,14.161,14.917,18.591.087.049.118.16.069.248-.035.058-.096.092-.159.092Z" style="fill: #45313d;"/>
                <path d="m53.944,24.2672c-1.25,0-2.484-.07-3.662-.137-5.354-.304-12.018-.682-17.045-4.18-.083-.058-.103-.171-.046-.253.058-.083.173-.102.253-.046,4.943,3.44,11.55,3.815,16.858,4.116,3.274.184,6.985.395,10.22-.96,2.509-1.052,4.566-2.975,6.556-4.835l.386-.361c4.786-4.46,10.628-9.361,17.672-11.883,7.47-2.678,15.2-2.026,20.676,1.733.083.057.103.17.047.253-.058.083-.171.103-.253.047-5.381-3.696-12.987-4.327-20.348-1.692-6.982,2.5-12.788,7.373-17.547,11.808l-.385.361c-2.013,1.882-4.095,3.829-6.663,4.905-2.134.895-4.453,1.124-6.719,1.124Z" style="fill: #45313d;"/>
                <path d="m20.327,6.8842c-.086,0-.163-.062-.179-.149-.018-.099.047-.194.146-.212,5.965-1.106,10.982-4.935,15.834-8.637,1.095-.836,2.228-1.7,3.349-2.515,8.446-6.142,18.261-10.736,28.387-13.286.102-.025.197.035.221.131.025.098-.034.196-.131.221-10.083,2.54-19.856,7.114-28.264,13.229-1.118.813-2.248,1.676-3.342,2.51-4.885,3.728-9.937,7.583-15.988,8.705-.011.002-.022.003-.033.003Z" style="fill: #45313d;"/>
                <path d="m74.592,48.0992c-2.861,0-5.374-.547-7.509-1.638-.089-.046-.125-.155-.079-.245.046-.089.155-.126.244-.079,3.318,1.697,7.588,2.045,12.69,1.035,2.093-.415,4.186-1.009,6.208-1.583,2.11-.599,4.291-1.218,6.484-1.638,7.576-1.448,15.634-.533,22.689,2.583.092.041.134.148.093.239-.04.092-.148.135-.24.093-6.989-3.086-14.971-3.995-22.474-2.558-2.177.417-4.351,1.034-6.453,1.63-2.03.577-4.129,1.172-6.237,1.59-1.921.381-3.729.571-5.416.571Z" style="fill: #45313d;"/>
                <path d="m91.316,77.0782c-.029,0-.058-.007-.084-.021-7.858-4.114-13.704-11.738-15.638-20.393-.053-.237-.105-.478-.157-.72-.462-2.144-.938-4.361-2.61-5.618-.08-.06-.096-.174-.036-.254s.173-.098.254-.036c1.78,1.338,2.271,3.623,2.746,5.832.052.241.103.481.156.717,1.911,8.552,7.687,16.085,15.451,20.149.089.047.124.157.077.245-.03.063-.094.099-.159.099Z" style="fill: #45313d;"/>
              </g>
            </g>
            <g>
              <path d="m-2.215,24.3372c-.949,3.434-2.18,7.709.477,10.083,2.701,2.415,7.08.514,9.555-2.132,5.87-6.275,6.996-16.494,2.633-23.896,5.11,3.014,7.734,9.154,8,15.08.266,5.927-1.47,11.745-3.312,17.384-.874,2.676-1.786,5.411-1.705,8.225.082,2.814,1.373,5.773,3.888,7.038,4.439,2.233,9.729-2.036,11.159-6.794,1.43-4.759.547-9.896,1.265-14.813,3.141,11.186,2.059,23.504-2.985,33.971-1.049,2.176-2.274,4.31-2.771,6.674s-.124,5.083,1.639,6.734c2.893,2.711,8.009,1.025,10.179-2.294s2.232-7.54,2.222-11.505c.331,10.501-1.496,21.066-5.336,30.845-1.53,3.898-3.171,8.902-.13,11.782,2.918,2.763,8.146.816,10.087-2.702,1.942-3.519,1.578-7.806,1.161-11.803-.239,9.545-.477,19.09-.716,28.636-.094,3.775.322,8.414,3.767,9.961,3.494,1.568,7.611-1.704,8.398-5.452s-.691-7.56-2.14-11.105c3.276,8.044,6.552,16.087,9.828,24.131.973,2.391,2.609,5.217,5.182,5.009,3.04-.246,3.87-4.54,2.681-7.348-1.189-2.808-3.506-5.215-3.796-8.251,3.811,6.403,8.455,13.418,15.768,14.85,2.301.451,4.836.238,6.754-1.112s2.995-4.008,2.071-6.164c-.848-1.98-3.001-3.017-5.015-3.781-6.352-2.409-13.092-3.791-19.88-4.078,2.296.1,4.66.19,6.823-.588,2.162-.778,4.098-2.648,4.232-4.943.128-2.196-1.414-4.201-3.291-5.347-1.878-1.145-4.071-1.624-6.183-2.238-8.671-2.521-16.564-7.657-22.38-14.565,2.541,1.778,5.202,3.606,8.268,4.076,3.066.47,6.648-.868,7.704-3.784.856-2.361-.167-5.052-1.813-6.949-1.645-1.897-3.84-3.213-5.855-4.712-7.956-5.922-13.322-15.206-14.481-25.056,1.748,1.701,3.604,3.379,5.865,4.294,2.26.915,5.027.937,6.975-.532,3.071-2.316,2.762-7.259.57-10.42s-5.683-5.11-8.771-7.403c-5.382-3.995-9.778-9.308-12.696-15.342,1.924,2.228,3.917,4.512,6.542,5.844,2.625,1.333,6.069,1.496,8.327-.394,2.808-2.35,2.649-6.949.652-10.018-1.996-3.069-5.317-4.973-8.511-6.761-7.483-4.19-14.965-8.38-22.448-12.57,3.232.167,5.995,2.272,9.028,3.401s7.282.749,8.422-2.28c1.235-3.284-2.178-6.382-5.308-7.966C17.034,1.5132,4.142.3432-8.33-.7868,2.109.3092-.31,17.4432-2.215,24.3372Z" style="fill: #267340;"/>
              <g>
                <path d="m78.23,137.5032c-.004-.001-.007-.002-.011-.003-8.276-2.398-15.625-7.601-21.842-15.464-5.345-6.76-9.673-15.34-12.516-24.814-2.66-8.864-4.212-18.154-5.713-27.138-1.476-8.838-3.003-17.977-5.583-26.696C23.74,13.5702,5.977,5.2752-1.25,3.0922c-.103-.031-.161-.14-.13-.243.031-.102.146-.16.243-.13,8.244,2.489,15.546,7.762,21.704,15.672,5.283,6.787,9.562,15.393,12.372,24.886,2.587,8.742,4.116,17.893,5.594,26.743,1.499,8.972,3.049,18.249,5.702,27.09,8.939,29.791,26.82,37.908,34.093,40.015.103.03.163.138.133.242-.03.099-.131.159-.231.136Z" style="fill: #45313d;"/>
                <path d="m35.952,104.8672c-.011-.003-.023-.006-.035-.011-.098-.043-.144-.158-.101-.257,3.144-7.204,4.629-15.161,4.294-23.013-.005-.107.078-.198.186-.202.107-.005.199.079.202.186.337,7.91-1.159,15.927-4.326,23.185-.037.087-.131.132-.22.112Z" style="fill: #45313d;"/>
                <path d="m55.434,99.6582c-.005-.001-.01-.002-.015-.004-6.387-1.995-11.703-6.886-14.223-13.084-.04-.1.007-.213.107-.254.099-.04.213.008.254.107,2.475,6.092,7.701,10.899,13.978,12.859.102.032.16.141.127.244-.029.098-.13.155-.228.132Z" style="fill: #45313d;"/>
                <path d="m49.376,128.0042c-.093-.021-.159-.108-.151-.206.619-7.669-.19-15.292-2.403-22.66-.031-.103.028-.212.131-.243.102-.029.212.028.243.13,2.227,7.414,3.04,15.087,2.417,22.804-.008.107-.102.187-.21.178-.009,0-.019-.001-.027-.003Z" style="fill: #45313d;"/>
                <path d="m71.278,125.4142h0c-7.559-1.762-14.611-5.877-19.862-11.59-.073-.079-.067-.202.012-.275.08-.072.204-.067.276.012,5.198,5.656,12.181,9.73,19.662,11.474.105.025.17.129.146.234-.026.103-.13.169-.234.145Z" style="fill: #45313d;"/>
                <path d="m68.514,142.5242c-.073-.017-.132-.075-.148-.153-1.275-6.503-4.625-12.597-9.433-17.158-.078-.074-.082-.197-.007-.275.074-.078.198-.083.275-.008,4.867,4.617,8.257,10.785,9.548,17.367.021.106-.048.208-.154.228-.028.005-.055.004-.081-.001Z" style="fill: #45313d;"/>
                <path d="m47.704,64.8302c-.022-.005-.044-.014-.064-.027-6.695-4.416-11.772-11.042-14.295-18.657-.034-.102.022-.212.124-.247.103-.034.213.023.247.124,2.495,7.532,7.516,14.086,14.139,18.454.089.06.114.18.055.27-.046.071-.129.101-.206.083Z" style="fill: #45313d;"/>
                <path d="m31.892,76.9562c-.009-.002-.019-.005-.03-.009-.1-.04-.148-.153-.108-.254,2.925-7.255,3.979-15.195,3.05-22.962-.013-.107.063-.203.17-.216.104-.015.203.063.216.17.938,7.831-.125,15.838-3.075,23.154-.035.09-.131.138-.223.117Z" style="fill: #45313d;"/>
                <path d="m40.683,36.5362c-.013-.003-.027-.007-.04-.014-7.06-3.331-13.3-8.369-18.045-14.568-.065-.086-.049-.208.036-.273.087-.066.208-.048.273.036,4.707,6.15,10.898,11.148,17.903,14.454.097.046.139.162.093.259-.04.084-.132.126-.22.106Z" style="fill: #45313d;"/>
                <path d="m19.896,47.4422c-.015-.004-.03-.009-.045-.016-.096-.049-.134-.167-.085-.262,4.034-7.893,4.977-17.315,2.586-25.85-.029-.104.031-.211.135-.241.104-.027.211.032.241.135,2.416,8.629,1.462,18.154-2.615,26.133-.042.081-.132.12-.217.101Z" style="fill: #45313d;"/>
                <path d="m26.324,10.9152c-.017-.004-.034-.01-.051-.02-7.103-3.921-15.145-6.084-23.254-6.25-.112-.005-.193-.092-.191-.199.003-.108.091-.193.199-.191,8.173.169,16.276,2.347,23.434,6.299.094.052.128.17.076.264-.042.078-.13.116-.213.097Z" style="fill: #45313d;"/>
                <path d="m5.36,28.5392c-.002,0-.003-.001-.005-.001-.104-.027-.167-.133-.14-.237,1.026-3.993,1.947-8.281,1.743-12.586-.222-4.672-1.825-8.773-4.514-11.548-.075-.077-.073-.2.004-.275.078-.075.201-.073.275.004,2.756,2.842,4.397,7.033,4.623,11.799.207,4.357-.721,8.679-1.754,12.702-.027.103-.129.165-.232.142Z" style="fill: #45313d;"/>
              </g>
            </g>
          </g>
          <g>
            <g>
              <path d="m713.577-2.6038c-10.672,1.849-21.15,9.391-22.874,20.085,14.727,2.284,29.455,4.568,44.183,6.852-4.503,4.628-11.796,5.33-18.117,4.012-6.321-1.318-12.166-4.309-18.373-6.089-6.207-1.781-13.316-2.202-18.726,1.324-4.972,3.24-7.551,9.302-7.928,15.225-.378,5.922,1.152,11.79,2.873,17.47,5.256-5.514,13.953-5.394,21.537-4.69,7.585.704,16.119,1.321,21.902-3.638-3.383,4.277-9,6.107-14.395,6.903-5.395.795-10.949.794-16.151,2.429-5.202,1.634-10.209,5.411-11.267,10.76-.679,3.435.355,6.97,1.649,10.223,4.094,10.294,10.953,19.472,19.666,26.314,7.254-.381,14.608-.78,21.51-3.044,6.902-2.263,13.418-6.654,16.647-13.16,5.366-10.812.468-23.67-4.431-34.701,8.471,9.394,11.296,23.524,7.087,35.453,7.454-1.382,14.133-6.446,17.476-13.25s3.271-15.185-.19-21.93c-2.195-4.279-5.624-7.857-7.623-12.232-1.999-4.375-2.119-10.265,1.614-13.297-1.86,4.946.28,10.542,3.359,14.837,3.079,4.295,7.101,7.905,9.742,12.482,2.641,4.577,3.611,10.746.388,14.935,7.096-5.518,14.786-12.081,15.549-21.037.521-6.111-2.411-11.995-5.941-17.01-3.531-5.014-7.765-9.59-10.474-15.092-4.091-8.309-6.193-19.882-17.684-19.353-10.3109.474-20.6389-2.577-31.0079-.781Z" style="fill: #4d9966;"/>
              <g>
                <path d="m697.342,104.9412c-.036,0-.073-.011-.105-.033-.082-.058-.102-.171-.044-.253,11.075-15.828,22.529-32.195,32.196-49.552,10.819-19.422,17.836-37.35,21.45-54.807.021-.098.118-.164.215-.141.098.02.162.117.142.215-3.623,17.494-10.652,35.456-21.489,54.911-9.676,17.373-21.135,33.748-32.216,49.583-.035.05-.092.077-.149.077Z" style="fill: #45313d;"/>
                <path d="m746.621,86.1152c-.026,0-.052-.005-.076-.017-.091-.042-.131-.15-.088-.242,3.333-7.206,4.076-15.742,2.035-23.417-.892-3.357-2.305-6.607-3.671-9.75-.628-1.443-1.276-2.935-1.867-4.421-1.494-3.751-3.386-9.38-2.591-14.945.014-.098.088-.169.206-.154.1.014.168.106.154.206-.603,4.227.189,8.778,2.568,14.759.59,1.48,1.237,2.97,1.863,4.41,1.372,3.156,2.791,6.419,3.69,9.802,2.062,7.756,1.311,16.381-2.058,23.663-.0309.068-.0969.106-.1649.106Z" style="fill: #45313d;"/>
                <path d="m672.724,46.3132c-.031,0-.062-.008-.091-.024-.087-.05-.117-.161-.067-.249,3.305-5.764,9.989-9.7,17.879-10.528,7.446-.781,14.832,1.1,21.079,3.045l.511.16c2.598.812,5.287,1.657,7.996,1.512,3.504-.182,6.757-1.98,9.626-3.568,4.652-2.573,10.442-5.776,13.405-11.019.05-.089.162-.117.247-.069.088.05.118.16.069.248-3.012,5.332-8.853,8.563-13.545,11.159-2.903,1.606-6.194,3.426-9.784,3.612-2.787.152-5.495-.706-8.123-1.527l-.511-.16c-6.21-1.933-13.559-3.806-20.931-3.031-7.776.817-14.356,4.685-17.602,10.348-.034.058-.094.091-.158.091Z" style="fill: #45313d;"/>
                <path d="m743.255,9.2172c-4.037.001-8.127-.843-12.127-1.668-1.346-.278-2.738-.564-4.096-.812-10.227-1.862-21.014-1.746-31.204.338-.1.018-.194-.044-.215-.142-.019-.098.044-.194.142-.214,10.229-2.094,21.07-2.213,31.341-.34,1.363.248,2.756.535,4.103.814,5.978,1.232,12.16,2.508,18.018.917.104-.029.198.031.224.128.026.097-.031.197-.128.223-1.9921.541-4.019.756-6.058.756Z" style="fill: #45313d;"/>
                <path d="m681.082,85.6712c-.041,0-.084-.014-.118-.043-.076-.065-.085-.18-.021-.256,5.006-5.867,11.867-10.189,19.324-12.167,2.158-.573,4.392-.961,6.552-1.336,2.073-.36,4.216-.732,6.282-1.266,5.034-1.302,8.73-3.467,10.985-6.435.062-.082.176-.095.255-.035.08.061.096.175.035.255-2.305,3.035-6.068,5.244-11.184,6.567-2.08.538-4.23.911-6.31,1.272-2.153.374-4.379.76-6.521,1.329-7.385,1.96-14.182,6.241-19.14,12.052-.0359.041-.0869.063-.1389.063Z" style="fill: #45313d;"/>
                <path d="m715.74,102.5022c-.037,0-.076-.012-.109-.036-.08-.06-.097-.173-.037-.254,5.234-7.03,7.171-16.322,5.184-24.857-.055-.237-.113-.475-.17-.715-.531-2.197-1.078-4.468-.056-6.445.047-.089.159-.126.245-.078.089.046.124.155.079.245-.96,1.857-.429,4.061.085,6.193.058.241.115.481.171.718,2.01,8.638.049,18.042-5.247,25.157-.035.047-.089.072-.145.072Z" style="fill: #45313d;"/>
              </g>
            </g>
            <g>
              <path d="m722.186-1.7438c-3.332-1.264-7.473-2.886-10.084-.461-2.655,2.466-1.168,7.002,1.237,9.712,5.703,6.426,15.774,8.495,23.549,4.838-3.475,4.809-9.831,6.852-15.757,6.567s-11.558-2.553-17.002-4.91c-2.583-1.118-5.222-2.281-8.032-2.46-2.809-.18-5.875.832-7.368,3.219-2.635,4.212,1.125,9.876,5.73,11.741s9.802,1.462,14.631,2.633c-11.429,2.09-23.594-.13-33.547-6.122-2.07-1.246-4.081-2.664-6.388-3.378-2.308-.715-5.049-.594-6.857,1.007-2.968,2.63-1.763,7.88,1.34,10.348s7.301,2.922,11.25,3.279c-10.487-.644-20.836-3.444-30.217-8.174-3.74-1.885-8.57-3.983-11.719-1.222-3.022,2.65-1.568,8.035,1.755,10.294,3.324,2.259,7.626,2.295,11.644,2.25-9.482-1.123-18.964-2.246-28.446-3.369-3.75-.444-8.408-.459-10.267,2.827-1.886,3.333.991,7.737,4.65,8.868s7.591.013,11.255-1.101c-8.313,2.516-16.625,5.032-24.938,7.548-2.47.748-5.436,2.114-5.467,4.695-.037,3.049,4.162,4.274,7.068,3.351,2.906-.923,5.518-3.007,8.568-3.015-6.729,3.201-14.144,7.174-16.248,14.323-.662,2.25-.685,4.793.481,6.828s3.713,3.353,5.945,2.634c2.05-.66,3.282-2.708,4.229-4.643,2.987-6.101,4.989-12.684,5.904-19.416-.312,2.277-.622,4.623-.047,6.848.574,2.225,2.257,4.326,4.529,4.672,2.174.331,4.314-1.018,5.629-2.781s1.995-3.903,2.802-5.949c3.314-8.4,9.16-15.783,16.577-20.933-2.006,2.365-4.073,4.845-4.825,7.854s.248,6.7,3.053,8.022c2.271,1.071,5.045.302,7.087-1.16,2.042-1.462,3.555-3.526,5.235-5.393,6.634-7.373,16.376-11.854,26.291-12.095-1.856,1.582-3.699,3.275-4.82,5.441-1.121,2.166-1.399,4.919-.117,6.994,2.021,3.273,6.972,3.423,10.323,1.534s5.615-5.184,8.184-8.047c4.477-4.988,10.175-8.873,16.454-11.218-2.397,1.709-4.856,3.482-6.426,5.972s-2.052,5.904-.38,8.327c2.079,3.014,6.674,3.282,9.914,1.579,3.241-1.703,5.444-4.833,7.522-7.847,4.866-7.062,9.732-14.124,14.598-21.186-.466,3.203-2.818,5.759-4.223,8.674-1.406,2.915-1.421,7.181,1.49,8.597,3.155,1.535,6.557-1.577,8.424-4.547,6.771-10.768,9.13-23.496,11.412-35.809-2.061,10.293-18.897,6.297-25.585,3.76Z" style="fill: #267340;"/>
              <g>
                <path d="m602.159,68.1002c-.098-.04-.146-.152-.107-.251,3.154-8.018,9.016-14.853,17.423-20.315,7.227-4.695,16.171-8.208,25.868-10.16,9.072-1.827,18.466-2.51,27.549-3.172,8.937-.65,18.179-1.323,27.099-3.084,30.508-6.022,40.415-22.939,43.257-29.932.041-.1.154-.148.255-.107h0c.099.041.147.154.107.254-3.244,7.977-9.171,14.759-17.617,20.157-7.248,4.632-16.213,8.093-25.927,10.01-8.944,1.766-18.198,2.439-27.147,3.09-9.071.661-18.453,1.343-27.502,3.165-30.491,6.138-40.232,23.189-43.005,30.235-.038.1-.152.15-.252.11h-.001Z" style="fill: #45313d;"/>
                <path d="m643.975,31.6142c-1.857-.76-3.666-1.626-5.42-2.593-.095-.052-.128-.171-.077-.265.053-.095.167-.131.265-.076,6.881,3.798,14.666,6.013,22.516,6.41.108.005.19.096.185.204-.005.108-.098.19-.205.185-5.908-.298-11.782-1.62-17.264-3.865Z" style="fill: #45313d;"/>
                <path d="m641.955,48.9122h-.001c-.099-.041-.146-.156-.105-.255,2.578-6.173,7.941-11.014,14.348-12.948.102-.031.211.027.243.13.031.103-.028.212-.13.243-6.296,1.9-11.567,6.657-14.099,12.725-.0441.099-.157.146-.256.105Z" style="fill: #45313d;"/>
                <path d="m614.293,40.2522c-.083-.034-.135-.122-.118-.214.018-.106.12-.177.226-.158,7.578,1.327,15.244,1.229,22.786-.291.103-.022.207.047.229.152.021.106-.046.208-.153.23-7.589,1.529-15.303,1.627-22.929.292-.0151-.002-.028-.006-.041-.011Z" style="fill: #45313d;"/>
                <path d="m614.841,62.3002c-.095-.039-.144-.144-.111-.242,2.455-7.363,7.207-14.004,13.381-18.701.085-.065.209-.048.273.038.066.086.049.208-.036.273-6.113,4.65-10.818,11.225-13.249,18.514-.034.102-.144.157-.246.123-.004-.002-.008-.004-.012-.005Z" style="fill: #45313d;"/>
                <path d="m598.06,57.9602c-.065-.027-.113-.087-.12-.161-.011-.107.068-.202.174-.213,6.595-.665,12.973-3.436,17.96-7.801.083-.07.208-.06.275.019.072.081.063.204-.018.275-5.048,4.417-11.503,7.221-18.177,7.895-.0331.003-.0651-.002-.0941-.014Z" style="fill: #45313d;"/>
                <path d="m677.35,44.4462c-.017-.007-.033-.016-.049-.028-.083-.067-.097-.19-.029-.274,5.019-6.258,12.086-10.698,19.902-12.503.104-.022.211.042.234.146.024.105-.041.21-.146.234-7.73,1.785-14.722,6.177-19.686,12.366-.056.069-.148.091-.226.059Z" style="fill: #45313d;"/>
                <path d="m670.434,29.2802c-1.258-.515-2.495-1.085-3.706-1.71-.096-.05-.133-.167-.084-.262.049-.096.162-.14.263-.084,6.951,3.58,14.76,5.371,22.58,5.166.11-.005.198.083.201.19.002.107-.082.197-.189.2-6.525.171-13.04-1.033-19.065-3.5Z" style="fill: #45313d;"/>
                <path d="m706.173,40.0792c-.008-.004-.016-.007-.026-.013-.092-.055-.123-.174-.068-.267,3.971-6.72,9.565-12.466,16.179-16.617.091-.057.21-.03.269.061.056.091.029.211-.062.268-6.56,4.118-12.11,9.819-16.05,16.486-.05.085-.153.118-.242.082Z" style="fill: #45313d;"/>
                <path d="m702.761,21.2182c-1.93-.79-3.789-1.747-5.55-2.864-.091-.058-.119-.178-.061-.269.057-.092.19-.12.268-.06,7.484,4.749,16.78,6.562,25.5,4.972.104-.018.207.051.227.157.02.106-.051.207-.157.227-6.7631,1.232-13.869.441-20.2271-2.163Z" style="fill: #45313d;"/>
                <path d="m733.015,28.1582c-.012-.005-.025-.011-.036-.019-.089-.06-.112-.181-.052-.27,4.562-6.707,7.459-14.514,8.379-22.575.013-.107.109-.184.216-.172.113.019.183.111.172.216-.928,8.124-3.848,15.99-8.445,22.749-.052.077-.15.105-.234.071Z" style="fill: #45313d;"/>
                <path d="m717.411,5.6492c-.096-.039-.145-.148-.109-.246.036-.101.147-.154.248-.118,3.88,1.392,8.062,2.706,12.371,2.903,4.674.213,8.905-1.003,11.915-3.424.085-.067.208-.053.274.031.068.084.054.206-.03.274-3.084,2.48-7.409,3.725-12.176,3.508-4.361-.199-8.577-1.523-12.485-2.925-.0039-.001-.0059-.002-.0079-.003Z" style="fill: #45313d;"/>
              </g>
            </g>
          </g>
        </g>
      </g>
    </g>
  </g>
</svg>