<?xml version="1.0" encoding="UTF-8"?>
<svg id="_Слой_1" data-name="Слой 1" xmlns="http://www.w3.org/2000/svg" width="209.5433" height="164.8182" viewBox="0 0 209.5433 164.8182">
  <path d="m205.9073,47.8926c-2.44-6.306-9.9-10.089-15.731-7.337-.6981.3295-1.347.7414-1.9567,1.2089-4.3341-4.7935-9.843-8.7869-16.3043-12.8289-19.709-12.33-43.271,4.025-65.912,7.116-9.4924,1.296-19.3307-1.928-28.8997-3.6547-1.028-2.7189-2.3534-5.2906-3.9415-7.6741,3.5004-1.7635,5.2401-5.8105,5.2401-10.5262,0-6.336-3.135-11.472-9.471-11.472-5.3618,0-9.851,3.6839-11.1088,8.6542-5.0161-2.4094-10.6372-3.7602-16.5742-3.7602s-11.5574,1.3507-16.5732,3.7599c-1.2579-4.9702-5.7471-8.6539-11.1088-8.6539-6.336,0-9.471,5.136-9.471,11.472,0,4.7155,1.7396,8.7622,5.2396,10.5259-4.0494,6.077-6.4136,13.373-6.4136,21.2231,0,16.4152,10.3228,26.4038,24.8289,30.0634,4.2834,6.9781,8.6136,14.3473,9.3552,16.7757,1.615.387,3.222.981,4.753,1.579,4.6309,1.811,9.2617,3.6219,13.8926,5.4329.0002.0004.0002.0007.0004.0011.0002.0004.0005.0009.0007.0013-4.6313-1.811-9.2624-3.6224-13.8937-5.4333-1.531-.599-3.138-1.192-4.753-1.58,3.3183,10.8612,12.8298,25.3969,32.2143,34.3324.5057,1.8698.9011,3.7748,1.1497,5.7236.77,6.038.862,12.089-1.153,17.788-4.191,2.128-14.806,1.754-14.231,11.679h30.439c5.3084-8.1316,8.7527-17.9617,10.1036-27.9821,10.1257,1.2545,21.7805,1.2754,35.1874-.4369-6.34-6.995-15.532-10.81-24.251-14.22-3.5499-1.3883-7.1-2.7765-10.65-4.1648v-.0002s0-.0007,0-.001c3.55,1.388,7.0999,2.777,10.6499,4.165,8.718,3.409,17.91,7.225,24.251,14.22,1.455-.186,2.926-.386,4.422-.613,3.052-.463,5.958-1.816,8.775-3.212,5.197,6.707,11.124,14.995,17.264,18.988.8521,6.636-11.544.575-12.201,13.258h36.663c2.658-11.8671-2.421-13.4401-.314-19.4831,2.321-6.656,6.19-13.154,5.552-20.227-.495-5.489-1.317-8.238-6.057-10.391,9.8367-11.8621,14.8495-28.1031,13.7676-43.91.8953-.559,1.7513-1.1924,2.5464-1.919,4.848-4.43,7.114-12.181,4.674-18.487Z" style="fill: #383532;"/>
</svg>