<?xml version="1.0" encoding="UTF-8"?>
<svg id="_Слой_2" data-name="Слой 2" xmlns="http://www.w3.org/2000/svg" viewBox="0 0 206.98 162.59">
  <defs>
    <style>
      .cls-1 {
        fill: #d2936a;
      }

      .cls-2 {
        fill: #8b5e3c;
      }

      .cls-3 {
        fill: none;
      }

      .cls-4 {
        fill: #383532;
      }

      .cls-5 {
        fill: #333;
        stroke: #fff;
        stroke-miterlimit: 10;
        stroke-width: 3px;
      }

      .cls-6 {
        fill: #452d3b;
      }
    </style>
  </defs>
  <g id="_Слой_1-2" data-name="Слой 1">
    <g>
      <path class="cls-5" d="m204.49,46.67c-2.44-6.31-9.9-10.09-15.73-7.34-.7.33-1.35.74-1.96,1.21-4.33-4.79-9.84-8.79-16.3-12.83-19.71-12.33-43.27,4.02-65.91,7.12-9.49,1.3-19.33-1.93-28.9-3.65-1.03-2.72-2.35-5.29-3.94-7.67,3.5-1.76,5.24-5.81,5.24-10.53,0-6.34-3.13-11.47-9.47-11.47-5.36,0-9.85,3.68-11.11,8.65-5.02-2.41-10.64-3.76-16.57-3.76s-11.56,1.35-16.57,3.76c-1.26-4.97-5.75-8.65-11.11-8.65C5.81,1.5,2.67,6.64,2.67,12.97c0,4.72,1.74,8.76,5.24,10.53-4.05,6.08-6.41,13.37-6.41,21.22,0,16.42,10.32,26.4,24.83,30.06,4.28,6.98,8.61,14.35,9.36,16.78,1.61.39,3.22.98,4.75,1.58,4.63,1.81,9.26,3.62,13.89,5.43,0,0,0,0,0,0,0,0,0,0,0,0-4.63-1.81-9.26-3.62-13.89-5.43-1.53-.6-3.14-1.19-4.75-1.58,3.32,10.86,12.83,25.4,32.21,34.33.51,1.87.9,3.77,1.15,5.72.77,6.04.86,12.09-1.15,17.79-4.19,2.13-14.81,1.75-14.23,11.68h30.44c5.31-8.13,8.75-17.96,10.1-27.98,10.13,1.25,21.78,1.28,35.19-.44-6.34-7-15.53-10.81-24.25-14.22-3.55-1.39-7.1-2.78-10.65-4.16h0s0,0,0,0c3.55,1.39,7.1,2.78,10.65,4.16,8.72,3.41,17.91,7.23,24.25,14.22,1.46-.19,2.93-.39,4.42-.61,3.05-.46,5.96-1.82,8.77-3.21,5.2,6.71,11.12,14.99,17.26,18.99.85,6.64-11.54.58-12.2,13.26h36.66c2.66-11.87-2.42-13.44-.31-19.48,2.32-6.66,6.19-13.15,5.55-20.23-.49-5.49-1.32-8.24-6.06-10.39,9.84-11.86,14.85-28.1,13.77-43.91.9-.56,1.75-1.19,2.55-1.92,4.85-4.43,7.11-12.18,4.67-18.49Z"/>
      <g>
        <path class="cls-3" d="m80.05,70.63c-6.55-1.34-13.19,2.05-18.38,6.52-3.68,3.17-7.03,7.13-8.24,12.02-.33,1.33-.47,2.57-.45,3.76-.02-1.19.12-2.43.45-3.76,1.21-4.89,4.56-8.85,8.24-12.02,5.19-4.47,11.83-7.86,18.38-6.52,6.54,1.34,11.57,7.14,14.6,13.49,4.58,9.61.21,19.07-.13,29.54.34-10.46,4.72-19.93.13-29.54-3.03-6.35-8.06-12.15-14.6-13.49Z"/>
        <path class="cls-2" d="m204.49,46.67c-2.44-6.31-9.9-10.09-15.73-7.34-.7.33-1.35.74-1.96,1.21-4.33-4.79-9.84-8.79-16.3-12.83-19.71-12.33-43.27,4.02-65.91,7.12-9.49,1.3-19.33-1.93-28.9-3.65-1.03-2.72-2.35-5.29-3.94-7.67,3.5-1.76,5.24-5.81,5.24-10.53,0-6.34-3.13-11.47-9.47-11.47-5.36,0-9.85,3.68-11.11,8.65-5.02-2.41-10.64-3.76-16.57-3.76s-11.56,1.35-16.57,3.76c-1.26-4.97-5.75-8.65-11.11-8.65C5.81,1.5,2.67,6.64,2.67,12.97c0,4.72,1.74,8.76,5.24,10.53-4.05,6.08-6.41,13.37-6.41,21.22,0,16.42,10.32,26.4,24.83,30.06,4.28,6.98,8.61,14.35,9.36,16.78,1.61.39,3.22.98,4.75,1.58,4.63,1.81,9.26,3.62,13.89,5.43,0,0,0,0,0,0,0,0,0,0,0,0,.5,1.11,1.11,2.22,1.82,3.38,4.66,7.53,9.42,15.35,11.74,23.94.51,1.87.9,3.77,1.15,5.72.77,6.04.86,12.09-1.15,17.79-4.19,2.13-14.81,1.75-14.23,11.68h30.44c5.31-8.13,8.75-17.96,10.1-27.98.69-5.11.84-10.26.4-15.27-.1-1.2-.14-2.38-.12-3.55h0s0,0,0,0c3.55,1.39,7.1,2.78,10.65,4.16,8.72,3.41,17.91,7.23,24.25,14.22,1.46-.19,2.93-.39,4.42-.61,3.05-.46,5.96-1.82,8.77-3.21,5.2,6.71,11.12,14.99,17.26,18.99.85,6.64-11.54.58-12.2,13.26h36.66c2.66-11.87-2.42-13.44-.31-19.48,2.32-6.66,6.19-13.15,5.55-20.23-.49-5.49-1.32-8.24-6.06-10.39,9.84-11.86,14.85-28.1,13.77-43.91.9-.56,1.75-1.19,2.55-1.92,4.85-4.43,7.11-12.18,4.67-18.49Zm-147.99-6.45c1.63,0,2.96,1.33,2.96,2.96s-1.33,2.96-2.96,2.96c-1.63,0-2.96-1.33-2.96-2.96s1.33-2.96,2.96-2.96Zm8.08-32.84c4.72,0,7.05,3.82,7.05,8.54,0,2.09-.46,4.01-1.39,5.5-3.35-4.36-7.62-7.98-12.51-10.57,1.56-2.1,4.04-3.46,6.85-3.46ZM26.41,43.17c0,1.63-1.33,2.96-2.96,2.96-1.63,0-2.96-1.33-2.96-2.96s1.33-2.96,2.96-2.96,2.96,1.33,2.96,2.96ZM8.03,15.91c0-4.71,2.33-8.54,7.05-8.54,2.81,0,5.3,1.36,6.85,3.46-4.9,2.59-9.16,6.21-12.51,10.57-.92-1.49-1.39-3.4-1.39-5.49Zm29.06,60.8c-6.45-.02-12.45-4.69-11.78-12.02,1.25-6.87,7.02-10.82,11.54-15.47.59-.61,1.39-.95,2.24-.95h1.5c.84,0,1.65.34,2.24.95,4.52,4.65,10.29,8.59,11.54,15.47.67,7.33-5.33,12-11.78,12.02h-5.48Zm57.43,36.95c.34-10.46,4.72-19.93.13-29.54-3.03-6.35-8.06-12.15-14.6-13.49-6.54-1.34-13.18,2.05-18.38,6.52-3.68,3.17-7.03,7.13-8.24,12.02-.33,1.33-.47,2.57-.45,3.76-.02-1.19.12-2.43.45-3.76,1.21-4.89,4.56-8.85,8.24-12.02,5.19-4.47,11.83-7.86,18.38-6.52,6.54,1.34,11.57,7.14,14.6,13.49,4.58,9.61.21,19.08-.13,29.54Z"/>
        <path class="cls-1" d="m54.33,98.57c-4.63-1.81-9.26-3.62-13.89-5.43-1.53-.6-3.14-1.19-4.75-1.58,3.32,10.86,12.83,25.4,32.21,34.33-2.32-8.59-7.08-16.41-11.74-23.94-.71-1.15-1.33-2.27-1.82-3.38Z"/>
        <path class="cls-1" d="m94.21,133.1c10.13,1.25,21.78,1.28,35.19-.44-6.34-7-15.53-10.81-24.25-14.22-3.55-1.39-7.1-2.78-10.65-4.16-.02,1.17.01,2.35.12,3.55.44,5.01.29,10.16-.4,15.27Z"/>
        <path class="cls-1" d="m21.93,10.83c-1.56-2.1-4.04-3.46-6.85-3.46-4.71,0-7.05,3.82-7.05,8.54,0,2.09.46,4.01,1.39,5.49,3.35-4.36,7.62-7.98,12.51-10.57Z"/>
        <path class="cls-1" d="m70.24,21.4c.92-1.49,1.39-3.4,1.39-5.5,0-4.71-2.33-8.54-7.05-8.54-2.81,0-5.3,1.36-6.85,3.46,4.9,2.59,9.16,6.21,12.51,10.57Z"/>
        <path class="cls-1" d="m54.35,64.69c-1.25-6.87-7.02-10.82-11.54-15.47-.59-.61-1.39-.95-2.24-.95h-1.5c-.84,0-1.65.34-2.24.95-4.52,4.65-10.29,8.59-11.54,15.47-.67,7.33,5.33,12,11.78,12.02h5.48c6.45-.02,12.45-4.69,11.78-12.02Zm-14.38-9.72c3.29,0,5.96,1.98,5.96,4.41s-2.67,4.41-5.96,4.41-5.96-1.98-5.96-4.41,2.67-4.41,5.96-4.41Z"/>
        <path class="cls-4" d="m56.5,45.46c1.26,0,2.28-1.02,2.28-2.28s-1.02-2.28-2.28-2.28-2.28,1.02-2.28,2.28,1.02,2.28,2.28,2.28Z"/>
        <path class="cls-6" d="m56.5,46.13c1.63,0,2.96-1.33,2.96-2.96s-1.33-2.96-2.96-2.96-2.96,1.33-2.96,2.96,1.33,2.96,2.96,2.96Zm0-5.24c1.26,0,2.28,1.02,2.28,2.28s-1.02,2.28-2.28,2.28-2.28-1.02-2.28-2.28,1.02-2.28,2.28-2.28Z"/>
        <path class="cls-4" d="m25.73,43.17c0-1.26-1.02-2.28-2.28-2.28s-2.28,1.02-2.28,2.28,1.02,2.28,2.28,2.28,2.28-1.02,2.28-2.28Z"/>
        <path class="cls-6" d="m20.49,43.17c0,1.63,1.33,2.96,2.96,2.96,1.63,0,2.96-1.33,2.96-2.96s-1.33-2.96-2.96-2.96-2.96,1.33-2.96,2.96Zm.68,0c0-1.26,1.02-2.28,2.28-2.28s2.28,1.02,2.28,2.28-1.02,2.28-2.28,2.28-2.28-1.02-2.28-2.28Z"/>
        <ellipse class="cls-4" cx="39.97" cy="59.38" rx="5.96" ry="4.41"/>
      </g>
    </g>
  </g>
</svg>