<?xml version="1.0" encoding="UTF-8"?>
<svg id="_Слой_1" data-name="Слой 1" xmlns="http://www.w3.org/2000/svg" width="209.5433" height="164.8182" viewBox="0 0 209.5433 164.8182">
  <path d="m205.9073,47.8926c-2.44-6.306-9.9-10.089-15.731-7.337-.6981.3295-1.347.7414-1.9567,1.2089-4.3341-4.7935-9.843-8.7869-16.3043-12.8289-19.709-12.33-43.271,4.025-65.912,7.116-9.4924,1.296-19.3307-1.928-28.8997-3.6547-1.028-2.7189-2.3534-5.2906-3.9415-7.6741,3.5004-1.7635,5.2401-5.8105,5.2401-10.5262,0-6.336-3.135-11.472-9.471-11.472-5.3618,0-9.851,3.6839-11.1088,8.6542-5.0161-2.4094-10.6372-3.7602-16.5742-3.7602s-11.5574,1.3507-16.5732,3.7599c-1.2579-4.9702-5.7471-8.6539-11.1088-8.6539-6.336,0-9.471,5.136-9.471,11.472,0,4.7155,1.7396,8.7622,5.2396,10.5259-4.0494,6.077-6.4136,13.373-6.4136,21.2231,0,16.4152,10.3228,26.4038,24.8289,30.0634,4.2834,6.9781,8.6136,14.3473,9.3552,16.7757,1.615.387,3.222.981,4.753,1.579,4.6309,1.811,9.2617,3.6219,13.8926,5.4329.0002.0004.0002.0007.0004.0011.0002.0004.0005.0009.0007.0013-4.6313-1.811-9.2624-3.6224-13.8937-5.4333-1.531-.599-3.138-1.192-4.753-1.58,3.3183,10.8612,12.8298,25.3969,32.2143,34.3324.5057,1.8698.9011,3.7748,1.1497,5.7236.77,6.038.862,12.089-1.153,17.788-4.191,2.128-14.806,1.754-14.231,11.679h30.439c5.3084-8.1316,8.7527-17.9617,10.1036-27.9821,10.1257,1.2545,21.7805,1.2754,35.1874-.4369-6.34-6.995-15.532-10.81-24.251-14.22-3.5499-1.3883-7.1-2.7765-10.65-4.1648v-.0002s0-.0007,0-.001c3.55,1.388,7.0999,2.777,10.6499,4.165,8.718,3.409,17.91,7.225,24.251,14.22,1.455-.186,2.926-.386,4.422-.613,3.052-.463,5.958-1.816,8.775-3.212,5.197,6.707,11.124,14.995,17.264,18.988.8521,6.636-11.544.575-12.201,13.258h36.663c2.658-11.8671-2.421-13.4401-.314-19.4831,2.321-6.656,6.19-13.154,5.552-20.227-.495-5.489-1.317-8.238-6.057-10.391,9.8367-11.8621,14.8495-28.1031,13.7676-43.91.8953-.559,1.7513-1.1924,2.5464-1.919,4.848-4.43,7.114-12.181,4.674-18.487Z" style="fill: #383532;"/>
  <path d="m205.9073,47.8926c-2.44-6.306-9.9-10.089-15.731-7.337-.6981.3295-1.347.7414-1.9567,1.2089-4.3341-4.7935-9.843-8.7869-16.3043-12.8289-19.709-12.33-43.271,4.025-65.912,7.116-9.4924,1.296-19.3307-1.928-28.8997-3.6547-1.028-2.7189-2.3534-5.2906-3.9415-7.6741,3.5004-1.7635,5.2401-5.8105,5.2401-10.5262,0-6.336-3.135-11.472-9.471-11.472-5.3618,0-9.851,3.6839-11.1088,8.6542-5.0161-2.4094-10.6372-3.7602-16.5742-3.7602s-11.5574,1.3507-16.5732,3.7599c-1.2579-4.9702-5.7471-8.6539-11.1088-8.6539-6.336,0-9.471,5.136-9.471,11.472,0,4.7155,1.7396,8.7622,5.2396,10.5259-4.0494,6.077-6.4136,13.373-6.4136,21.2231,0,16.4152,10.3228,26.4038,24.8289,30.0634,4.2834,6.9781,8.6136,14.3473,9.3552,16.7757,1.615.387,3.222.981,4.753,1.579,4.6309,1.811,9.2617,3.6219,13.8926,5.4329.0002.0004.0002.0007.0004.0011.0002.0004.0005.0009.0007.0013-4.6313-1.811-9.2624-3.6224-13.8937-5.4333-1.531-.599-3.138-1.192-4.753-1.58,3.3183,10.8612,12.8298,25.3969,32.2143,34.3324.5057,1.8698.9011,3.7748,1.1497,5.7236.77,6.038.862,12.089-1.153,17.788-4.191,2.128-14.806,1.754-14.231,11.679h30.439c5.3084-8.1316,8.7527-17.9617,10.1036-27.9821,10.1257,1.2545,21.7805,1.2754,35.1874-.4369-6.34-6.995-15.532-10.81-24.251-14.22-3.5499-1.3883-7.1-2.7765-10.65-4.1648v-.0002s0-.0007,0-.001c3.55,1.388,7.0999,2.777,10.6499,4.165,8.718,3.409,17.91,7.225,24.251,14.22,1.455-.186,2.926-.386,4.422-.613,3.052-.463,5.958-1.816,8.775-3.212,5.197,6.707,11.124,14.995,17.264,18.988.8521,6.636-11.544.575-12.201,13.258h36.663c2.658-11.8671-2.421-13.4401-.314-19.4831,2.321-6.656,6.19-13.154,5.552-20.227-.495-5.489-1.317-8.238-6.057-10.391,9.8367-11.8621,14.8495-28.1031,13.7676-43.91.8953-.559,1.7513-1.1924,2.5464-1.919,4.848-4.43,7.114-12.181,4.674-18.487Z" style="fill: #383532; stroke: #fff; stroke-miterlimit: 10; stroke-width: 4px;"/>
  <g>
    <path d="m185.4243,142.8266c2.321-6.656,6.19-13.154,5.552-20.227-.495-5.489-1.317-8.238-6.057-10.391,10.83-13.06,15.839-31.43,13.273-48.682-2.565-17.251-12.194-25.781-26.277-34.591-19.709-12.33-43.271,4.025-65.912,7.116-16.693,2.279-34.457-9.427-49.941-2.369-15.484,7.058-30.136,11.572-37.447,27.807,0,0,16.953,26.262,18.49,31.295,1.615.387,3.222.981,4.753,1.579,4.631,1.811,9.262,3.622,13.893,5.433-1.314-2.942-1.775-5.853-.897-9.401,1.209-4.887,4.558-8.851,8.236-12.019,5.193-4.472,11.833-7.862,18.379-6.524,6.54,1.337,11.574,7.14,14.603,13.491,4.675,9.803.023,19.448-.158,30.16,3.55,1.388,7.1,2.777,10.65,4.165,8.718,3.409,17.91,7.225,24.251,14.22,1.455-.186,2.926-.386,4.422-.613,3.052-.463,5.958-1.816,8.775-3.212,5.197,6.707,11.124,14.995,17.264,18.988.852,6.636-11.544.575-12.201,13.258h36.663c2.658-11.8671-2.421-13.4401-.314-19.4831Z" style="fill: #8b5e3c;"/>
    <path d="m183.2203,70.6316c6.224,1.461,13.165.178,18.013-4.252,4.848-4.43,7.114-12.181,4.674-18.487s-9.9-10.089-15.731-7.337c-4.432,2.092-7.096,7.203-7.83,12.331-.735,5.127.146,10.345,1.023,15.446" style="fill: #8b5e3c;"/>
    <path d="m106.5643,119.6696c-21.568-8.435-43.137-16.87-64.706-25.304-1.531-.599-3.138-1.192-4.753-1.58,5.796,18.971,30.428,49.186,93.71,41.104-6.34-6.995-15.532-10.81-24.251-14.22Z" style="fill: #d2936a;"/>
    <g>
      <g>
        <g>
          <path d="m25.0383,14.1966c0,6.336-5.136,11.472-11.472,11.472s-9.471-5.136-9.471-11.472S7.2303,2.7246,13.5663,2.7246c6.336,0,11.472,5.137,11.472,11.472Z" style="fill: #8b5e3c;"/>
          <path d="m25.0383,17.1316c0,4.715-3.822,8.537-8.537,8.537s-7.048-3.822-7.048-8.537,2.333-8.538,7.048-8.538c4.714,0,8.537,3.823,8.537,8.538Z" style="fill: #d2936a;"/>
        </g>
        <g>
          <path d="m57.4593,14.1966c0,6.336,5.136,11.472,11.472,11.472s9.471-5.136,9.471-11.472-3.135-11.472-9.471-11.472c-6.336,0-11.472,5.137-11.472,11.472Z" style="fill: #8b5e3c;"/>
          <path d="m57.4593,17.1316c0,4.715,3.822,8.537,8.538,8.537s7.048-3.822,7.048-8.537-2.333-8.538-7.048-8.538-8.538,3.823-8.538,8.538Z" style="fill: #d2936a;"/>
        </g>
      </g>
      <path d="m79.5753,45.9456c0,21.167-17.159,31.656-38.327,31.656S2.9213,67.1126,2.9213,45.9456,20.0803,7.6186,41.2483,7.6186s38.327,17.159,38.327,38.327Z" style="fill: #8b5e3c;"/>
      <path d="m43.9883,77.9346c6.45-.022,12.449-4.689,11.782-12.022-1.249-6.871-7.018-10.816-11.535-15.466-.588-.605-1.392-.949-2.236-.949h-1.5c-.844,0-1.648.343-2.236.949-4.518,4.65-10.286,8.595-11.535,15.466-.667,7.333,5.332,12,11.782,12.022h5.478Z" style="fill: #d2936a;"/>
    </g>
    <path d="m95.9143,115.5046c.18-10.712,4.833-20.357.158-30.16-3.029-6.351-8.063-12.154-14.603-13.491-6.545-1.338-13.185,2.052-18.379,6.524-3.678,3.168-7.027,7.132-8.236,12.019-.878,3.549-.417,6.46.897,9.401.496,1.11,1.109,2.224,1.824,3.378,5.676,9.174,11.503,18.761,12.894,29.666.77,6.038.862,12.089-1.153,17.788-4.191,2.128-14.806,1.754-14.231,11.679h30.439c8.014-12.276,11.81-28.42,10.507-43.252-.105-1.1969-.136-2.3799-.117-3.5519Z" style="fill: #8b5e3c;"/>
    <g>
      <g>
        <path d="m55.3003,44.3976c0,1.447,1.173,2.62,2.62,2.62s2.62-1.173,2.62-2.62-1.173-2.62-2.62-2.62-2.62,1.174-2.62,2.62Z" style="fill: #383532;"/>
        <path d="m54.9613,44.3976c0-1.631,1.328-2.959,2.959-2.959,1.632,0,2.959,1.327,2.959,2.959s-1.327,2.959-2.959,2.959c-1.631.001-2.959-1.327-2.959-2.959Zm.678,0c0,1.258,1.023,2.282,2.281,2.282s2.282-1.024,2.282-2.282-1.024-2.281-2.282-2.281-2.281,1.023-2.281,2.281Z" style="fill: #452d3b;"/>
      </g>
      <g>
        <path d="m27.4893,44.3976c0,1.447-1.173,2.62-2.62,2.62s-2.62-1.173-2.62-2.62,1.173-2.62,2.62-2.62,2.62,1.174,2.62,2.62Z" style="fill: #383532;"/>
        <path d="m21.9103,44.3976c0-1.631,1.327-2.959,2.958-2.959,1.632,0,2.959,1.327,2.959,2.959s-1.327,2.959-2.959,2.959c-1.631.001-2.958-1.327-2.958-2.959Zm.677,0c0,1.258,1.023,2.282,2.281,2.282s2.282-1.024,2.282-2.282-1.024-2.281-2.282-2.281-2.281,1.023-2.281,2.281Z" style="fill: #452d3b;"/>
      </g>
    </g>
    <path d="m47.3563,60.6036c0,2.438-2.669,4.414-5.962,4.414s-5.962-1.976-5.962-4.414,2.669-4.414,5.962-4.414,5.962,1.976,5.962,4.414Z" style="fill: #383532;"/>
  </g>
</svg>