<?xml version="1.0" encoding="UTF-8"?>
<svg id="_Слой_2" data-name="Слой 2" xmlns="http://www.w3.org/2000/svg" viewBox="0 0 203.98 159.59">
  <defs>
    <style>
      .cls-1 {
        fill: #333;
      }
    </style>
  </defs>
  <g id="_Слой_1-2" data-name="Слой 1">
    <path class="cls-1" d="m202.99,45.17c-2.44-6.31-9.9-10.09-15.73-7.34-.7.33-1.35.74-1.96,1.21-4.33-4.79-9.84-8.79-16.3-12.83-19.71-12.33-43.27,4.02-65.91,7.12-9.49,1.3-19.33-1.93-28.9-3.65-1.03-2.72-2.35-5.29-3.94-7.67,3.5-1.76,5.24-5.81,5.24-10.53,0-6.34-3.13-11.47-9.47-11.47-5.36,0-9.85,3.68-11.11,8.65-5.02-2.41-10.64-3.76-16.57-3.76s-11.56,1.35-16.57,3.76C20.5,3.68,16.01,0,10.64,0,4.31,0,1.17,5.14,1.17,11.47c0,4.72,1.74,8.76,5.24,10.53C2.36,28.07,0,35.37,0,43.22c0,16.42,10.32,26.4,24.83,30.06,4.28,6.98,8.61,14.35,9.36,16.78,1.61.39,3.22.98,4.75,1.58,4.63,1.81,9.26,3.62,13.89,5.43,0,0,0,0,0,0,0,0,0,0,0,0-4.63-1.81-9.26-3.62-13.89-5.43-1.53-.6-3.14-1.19-4.75-1.58,3.32,10.86,12.83,25.4,32.21,34.33.51,1.87.9,3.77,1.15,5.72.77,6.04.86,12.09-1.15,17.79-4.19,2.13-14.81,1.75-14.23,11.68h30.44c5.31-8.13,8.75-17.96,10.1-27.98,10.13,1.25,21.78,1.28,35.19-.44-6.34-7-15.53-10.81-24.25-14.22-3.55-1.39-7.1-2.78-10.65-4.16h0s0,0,0,0c3.55,1.39,7.1,2.78,10.65,4.16,8.72,3.41,17.91,7.23,24.25,14.22,1.46-.19,2.93-.39,4.42-.61,3.05-.46,5.96-1.82,8.77-3.21,5.2,6.71,11.12,14.99,17.26,18.99.85,6.64-11.54.58-12.2,13.26h36.66c2.66-11.87-2.42-13.44-.31-19.48,2.32-6.66,6.19-13.15,5.55-20.23-.49-5.49-1.32-8.24-6.06-10.39,9.84-11.86,14.85-28.1,13.77-43.91.9-.56,1.75-1.19,2.55-1.92,4.85-4.43,7.11-12.18,4.67-18.49Z"/>
  </g>
</svg>