<?xml version="1.0" encoding="UTF-8"?>
<svg id="_Слой_1" data-name="Слой 1" xmlns="http://www.w3.org/2000/svg" width="55.1161" height="51.8189" xmlns:xlink="http://www.w3.org/1999/xlink" viewBox="0 0 55.1161 51.8189">
  <defs>
    <clipPath id="clippath">
      <path d="m25.1256,8.9824s-1.98-4.113-6.551-5.332c-4.57-1.219-9.293.762-9.293.762,0,0-4.418-1.676-4.57-.762-.153.914,3.656,4.418,3.656,4.418,0,0-2.285,4.266-1.828,7.008,0,0,8.684,3.047,17.368-.305l1.218-5.789Z" style="fill: none;"/>
    </clipPath>
  </defs>
  <g>
    <path d="m45.9167,41.5633c-2.0458-3.7197-11.5161-14.2382-15.273-18.21-.574-.607-1.134-1.27-1.727-1.972-1.2252-1.4497-2.5163-2.9694-4.0352-4.0987l-.7769-2.3881c.2073-.0287.5292-.0684.936-.1182.5362-.0658,1.0291-.1287,1.5001-.1904.0963.0733.1772.1436.2819.2184.039.027.085.041.13.041.07,0,.14-.033.184-.094.0554-.0766.0396-.1683-.0079-.2433,3.9824-.5383,5.4589-.9319,5.4589-1.4117,0-.184,0-.568-3.738-2.476-1.81-.924-3.644-1.766-3.662-1.774-.039-.018-.083-.019-.122-.002-.0035.0015-.0058.0038-.0093.0053-.3721-.694-2.3821-4.106-6.4817-5.1993-4.57-1.219-9.293.762-9.293.762,0,0-4.418-1.676-4.57-.762-.153.914,3.656,4.418,3.656,4.418,0,0-.6056,1.1348-1.1312,2.6074-.4774,1.3376-.8826,2.9503-.7117,4.2567-.0449.0047-.0875.0237-.1121.062-.061.093-6.039,9.419-1.787,18.681,2.78,6.056,9.745,8.079,16.679,8.079,3.4819,0,6.9509-.5119,9.8834-1.2777,3.0844,1.1353,5.8635,1.9706,7.7737,2.485.9203,1.1241,2.1603,2.5847,3.2268,3.6506,1.98,1.981,3.504,1.066,1.676-1.066,0,0,3.656,4.418,5.027,3.656,1.371-.762-2.59-4.57-2.59-4.57,0,0,4.723,3.504,5.485,2.438.4573-.6398-2.8162-3.2545-5.8699-5.5071Z" style="fill: #383532; stroke: #fff; stroke-miterlimit: 10; stroke-width: 4px;"/>
    <path d="m16.2126,43.1854c-1.689.563-3.188,4.584-2.232,4.777s2.048-2.517,2.048-2.517c0,0-.956,2.904-.137,3.291.819.387,2.048-2.323,2.048-2.323,0,0-.683,2.323-.273,2.323.966,0,2.185-2.323,2.048-3.678-.136-1.355-1.445-2.559-3.502-1.873Z" style="fill: #383532; stroke: #fff; stroke-miterlimit: 10; stroke-width: 4px;"/>
    <path d="m23.8666,42.9294c-1.704.516-3.413,5.421-2.458,5.614.956.194,2.048-2.517,2.048-2.517,0,0-.956,2.904-.137,3.291.819.387,2.048-2.323,2.048-2.323,0,0-.683,2.323-.273,2.323.965,0,2.452-2.949,2.315-4.304-.136-1.355-1.3701-2.742-3.543-2.084Z" style="fill: #383532; stroke: #fff; stroke-miterlimit: 10; stroke-width: 4px;"/>
  </g>
  <g>
    <path d="m37.6176,41.2804s2.59,3.352,4.571,5.332c1.98,1.981,3.504,1.066,1.676-1.066,0,0,3.656,4.418,5.027,3.656s-2.59-4.57-2.59-4.57c0,0,4.723,3.504,5.485,2.438.762-1.066-8.836-7.617-10.512-8.836-1.6759-1.219-5.3319.609-3.6569,3.046Z" style="fill: #45313d;"/>
    <path d="m6.4126,14.9944c.027-.042.073-.067.123-.068l17.368-.305h.003c.065,0,.123.042.143.104l8.227,25.29c.013.039.009.081-.01.117s-.052.062-.09.074c-3.122.915-6.992,1.548-10.872,1.548-6.934,0-13.899-2.023-16.679-8.079C.3736,24.4134,6.3516,15.0874,6.4126,14.9944Z" style="fill: #f45f42;"/>
    <path d="m11.7366,22.3664c.362-2.607,1.669-4.699,3.497-5.596,6.918-3.394,10.512.859,13.683,4.611.593.702,1.153,1.365,1.727,1.972,4.266,4.51,15.904,17.466,15.667,19.318-.019.146-.096.222-.157.261-.982.613-4.026-.685-5.552-1.408.711.727,1.427,1.572,1.272,1.894-.035.073-.114.152-.29.152-.031,0-.064-.003-.101-.008-1.526-.218-18.124-4.439-26.283-11.768-2.657-2.385-3.9521-5.91-3.463-9.428Z" style="fill: #f49886;"/>
    <path d="m16.2126,43.1854c-1.689.563-3.188,4.584-2.232,4.777s2.048-2.517,2.048-2.517c0,0-.956,2.904-.137,3.291s2.048-2.323,2.048-2.323c0,0-.683,2.323-.273,2.323.966,0,2.185-2.323,2.048-3.678-.136-1.355-1.445-2.559-3.502-1.873Z" style="fill: #e4af18;"/>
    <path d="m23.8666,42.9294c-1.704.516-3.413,5.421-2.458,5.614.956.194,2.048-2.517,2.048-2.517,0,0-.956,2.904-.137,3.291s2.048-2.323,2.048-2.323c0,0-.683,2.323-.273,2.323.965,0,2.452-2.949,2.315-4.304-.136-1.355-1.37-2.742-3.543-2.084Z" style="fill: #e4af18;"/>
    <g>
      <path id="SVGID" d="m25.1256,8.9824s-1.98-4.113-6.551-5.332c-4.57-1.219-9.293.762-9.293.762,0,0-4.418-1.676-4.57-.762-.153.914,3.656,4.418,3.656,4.418,0,0-2.285,4.266-1.828,7.008,0,0,8.684,3.047,17.368-.305l1.218-5.789Z" style="fill: #f1dec5;"/>
      <g style="clip-path: url(#clippath);">
        <path d="m5.2846,1.0284c1.979-1.841,4.696-.169,5.106.102.306-.081,1.787-.454,3.589-.603,1.87-.155,4.483-.092,6.305,1.081,3.46,2.229,5.714,6.712,5.737,6.757.014.029.019.062.014.095l-.416,2.531c-.009.057-.049.103-.101.117-.011.003-.022.004-.033.004-.041,0-.081-.02-.107-.056-3.787-5.15-9.081-5.367-17.164-.706-1.135.654-2.175.369-2.927-.803-1.474-2.292-1.475-7.15-.003-8.519Z" style="fill: #f45f42;"/>
      </g>
    </g>
    <path d="m20.2506,8.2214c-2.016,0-2.16,3.809,0,3.809,2.159-.001,1.727-3.809,0-3.809Z" style="fill: #45313d;"/>
    <g>
      <path d="m26.9526,14.8454c.07,0,.14-.033.184-.094.073-.101.049-.242-.052-.314-2.021-1.444-2.347-2.603-2.35-2.615-.032-.12-.154-.192-.274-.161-.12.031-.193.152-.163.272.013.053.35,1.317,2.525,2.871.039.027.085.041.13.041Z" style="fill: #e4af18;"/>
      <path d="m25.0656,8.8444c.039-.017.083-.016.122.002.018.008,1.852.85,3.662,1.774,3.738,1.908,3.738,2.292,3.738,2.476,0,.556-1.975.996-7.547,1.68-.548.067-.944.116-1.11.144-.024.004-.048.006-.072.006-.338,0-.654-.398-.856-1.086-.43-1.468-.236-4.01,2.063-4.996Z" style="fill: #f5dc17;"/>
    </g>
  </g>
</svg>