<?xml version="1.0" encoding="UTF-8"?>
<svg id="_Слой_2" data-name="Слой 2" xmlns="http://www.w3.org/2000/svg" viewBox="0 0 48.73 46.1">
  <defs>
    <style>
      .cls-1 {
        fill: #f45f42;
      }

      .cls-2 {
        fill: #45313d;
      }

      .cls-3 {
        fill: #f49886;
      }

      .cls-4 {
        fill: #e4af18;
      }

      .cls-5 {
        fill: #f5dc17;
      }

      .cls-6 {
        fill: #f1dec5;
      }
    </style>
  </defs>
  <g id="_Слой_1-2" data-name="Слой 1">
    <g>
      <path class="cls-2" d="m42.82,38.31c.28.5.42.89.39,1.11-.02.15-.1.22-.16.26-.98.61-4.03-.68-5.55-1.41.71.73,1.43,1.57,1.27,1.89-.03.07-.11.15-.29.15-.03,0-.06,0-.1,0-.3-.04-1.21-.25-2.52-.6.92,1.12,2.16,2.58,3.23,3.65,1.98,1.98,3.5,1.07,1.68-1.07,0,0,3.66,4.42,5.03,3.66,1.37-.76-2.59-4.57-2.59-4.57,0,0,4.72,3.5,5.48,2.44.46-.64-2.82-3.25-5.87-5.51Z"/>
      <path class="cls-1" d="m20.76,11.67c-.07,0-.15-.03-.22-.06-.85.31-1.69.57-2.53.77,1.42.22,2.66.83,3.77,1.65l-.78-2.39c-.07,0-.13.02-.17.03-.02,0-.05,0-.07,0Z"/>
      <path class="cls-1" d="m8.64,19.11c.36-2.61,1.67-4.7,3.5-5.6.36-.18.71-.32,1.05-.46-5.51.24-9.75-1.23-9.75-1.23,0-.05,0-.1-.01-.14-.04,0-.09.02-.11.06-.06.09-6.04,9.42-1.79,18.68,2.78,6.06,9.74,8.08,16.68,8.08,3.48,0,6.95-.51,9.88-1.28-5.44-2-11.82-4.94-15.99-8.68-2.66-2.38-3.95-5.91-3.46-9.43Z"/>
      <path class="cls-3" d="m38.48,40.32c.18,0,.26-.08.29-.15.16-.32-.56-1.17-1.27-1.89,1.53.72,4.57,2.02,5.55,1.41.06-.04.14-.11.16-.26.03-.22-.12-.6-.39-1.11-2.05-3.72-11.52-14.24-15.27-18.21-.57-.61-1.13-1.27-1.73-1.97-1.23-1.45-2.52-2.97-4.04-4.1-1.11-.83-2.35-1.43-3.77-1.65-1.67.4-3.3.61-4.83.68-.34.14-.69.28-1.05.46-1.83.9-3.14,2.99-3.5,5.6-.49,3.52.81,7.04,3.46,9.43,4.17,3.75,10.55,6.68,15.99,8.68,3.08,1.14,5.86,1.97,7.77,2.49,1.31.35,2.22.56,2.52.6.04,0,.07,0,.1,0Z"/>
      <path class="cls-4" d="m13.11,39.93c-1.69.56-3.19,4.58-2.23,4.78s2.05-2.52,2.05-2.52c0,0-.96,2.9-.14,3.29.82.39,2.05-2.32,2.05-2.32,0,0-.68,2.32-.27,2.32.97,0,2.18-2.32,2.05-3.68-.14-1.35-1.45-2.56-3.5-1.87Z"/>
      <path class="cls-4" d="m20.77,39.68c-1.7.52-3.41,5.42-2.46,5.61.96.19,2.05-2.52,2.05-2.52,0,0-.96,2.9-.14,3.29.82.39,2.05-2.32,2.05-2.32,0,0-.68,2.32-.27,2.32.97,0,2.45-2.95,2.32-4.3-.14-1.36-1.37-2.74-3.54-2.08Z"/>
      <path class="cls-6" d="m13.19,13.06c1.53-.07,3.16-.28,4.83-.68.84-.2,1.68-.45,2.53-.77-.25-.13-.48-.48-.64-1.02-.35-1.2-.26-3.12,1.04-4.32-3.68-3.59-8.65-3.31-15.83.83-.34.19-.66.3-.98.33-.48,1.34-.88,2.95-.71,4.26,0,.05,0,.1.01.14,0,0,4.24,1.48,9.75,1.23Zm3.96-8.09c1.73,0,2.16,3.81,0,3.81-2.16,0-2.02-3.81,0-3.81Z"/>
      <path class="cls-1" d="m20.95,6.27c.28-.26.6-.5,1.01-.67-.37-.69-2.38-4.11-6.48-5.2-4.57-1.22-9.29.76-9.29.76C6.18,1.16,1.76-.52,1.61.4c-.15.91,3.66,4.42,3.66,4.42,0,0-.61,1.13-1.13,2.61.31-.03.64-.13.98-.33,7.18-4.14,12.15-4.42,15.83-.83Z"/>
      <path class="cls-2" d="m17.15,8.78c2.16,0,1.73-3.81,0-3.81-2.02,0-2.16,3.81,0,3.81Z"/>
      <path class="cls-4" d="m23.72,11.55s.08.04.13.04c.07,0,.14-.03.18-.09.06-.08.04-.17,0-.24-.19.03-.39.05-.59.08.1.07.18.14.28.22Z"/>
      <path class="cls-5" d="m19.9,10.59c.16.54.39.89.64,1.02.07.04.14.06.22.06.02,0,.05,0,.07,0,.04,0,.1-.02.17-.03.21-.03.53-.07.94-.12.54-.07,1.03-.13,1.5-.19.2-.03.4-.05.59-.08,3.98-.54,5.46-.93,5.46-1.41,0-.18,0-.57-3.74-2.48-1.81-.92-3.64-1.77-3.66-1.77-.04-.02-.08-.02-.12,0,0,0,0,0,0,0-.41.18-.73.41-1.01.67-1.31,1.2-1.4,3.11-1.04,4.32Z"/>
    </g>
  </g>
</svg>