<?xml version="1.0" encoding="UTF-8"?>
<svg id="_Слой_2" data-name="Слой 2" xmlns="http://www.w3.org/2000/svg" viewBox="0 0 48.73 46.1">
  <defs>
    <style>
      .cls-1 {
        fill: #333;
      }
    </style>
  </defs>
  <g id="_Слой_1-2" data-name="Слой 1">
    <g>
      <path class="cls-1" d="m42.82,38.31c-2.05-3.72-11.52-14.24-15.27-18.21-.57-.61-1.13-1.27-1.73-1.97-1.23-1.45-2.52-2.97-4.04-4.1l-.78-2.39c.21-.03.53-.07.94-.12.54-.07,1.03-.13,1.5-.19.1.07.18.14.28.22.04.03.08.04.13.04.07,0,.14-.03.18-.09.06-.08.04-.17,0-.24,3.98-.54,5.46-.93,5.46-1.41,0-.18,0-.57-3.74-2.48-1.81-.92-3.64-1.77-3.66-1.77-.04-.02-.08-.02-.12,0,0,0,0,0,0,0-.37-.69-2.38-4.11-6.48-5.2-4.57-1.22-9.29.76-9.29.76C6.18,1.16,1.76-.52,1.61.4c-.15.91,3.66,4.42,3.66,4.42,0,0-.61,1.13-1.13,2.61-.48,1.34-.88,2.95-.71,4.26-.04,0-.09.02-.11.06-.06.09-6.04,9.42-1.79,18.68,2.78,6.06,9.74,8.08,16.68,8.08,3.48,0,6.95-.51,9.88-1.28,3.08,1.14,5.86,1.97,7.77,2.49.92,1.12,2.16,2.58,3.23,3.65,1.98,1.98,3.5,1.07,1.68-1.07,0,0,3.66,4.42,5.03,3.66,1.37-.76-2.59-4.57-2.59-4.57,0,0,4.72,3.5,5.48,2.44.46-.64-2.82-3.25-5.87-5.51Z"/>
      <path class="cls-1" d="m13.11,39.93c-1.69.56-3.19,4.58-2.23,4.78s2.05-2.52,2.05-2.52c0,0-.96,2.9-.14,3.29.82.39,2.05-2.32,2.05-2.32,0,0-.68,2.32-.27,2.32.97,0,2.18-2.32,2.05-3.68-.14-1.35-1.45-2.56-3.5-1.87Z"/>
      <path class="cls-1" d="m20.77,39.68c-1.7.52-3.41,5.42-2.46,5.61.96.19,2.05-2.52,2.05-2.52,0,0-.96,2.9-.14,3.29.82.39,2.05-2.32,2.05-2.32,0,0-.68,2.32-.27,2.32.97,0,2.45-2.95,2.32-4.3-.14-1.36-1.37-2.74-3.54-2.08Z"/>
    </g>
  </g>
</svg>