<?xml version="1.0" encoding="UTF-8"?>
<svg id="_Слой_1" data-name="Слой 1" xmlns="http://www.w3.org/2000/svg" width="55.1161" height="51.8189" viewBox="0 0 55.1161 51.8189">
  <path d="m45.9167,41.5633c-2.0458-3.7197-11.5161-14.2382-15.273-18.21-.574-.607-1.134-1.27-1.727-1.972-1.2252-1.4497-2.5163-2.9694-4.0352-4.0987l-.7769-2.3881c.2073-.0287.5292-.0684.936-.1182.5362-.0658,1.0291-.1287,1.5001-.1904.0963.0733.1772.1436.2819.2184.039.027.085.041.13.041.07,0,.14-.033.184-.094.0554-.0766.0396-.1683-.0079-.2433,3.9824-.5383,5.4589-.9319,5.4589-1.4117,0-.184,0-.568-3.738-2.476-1.81-.924-3.644-1.766-3.662-1.774-.039-.018-.083-.019-.122-.002-.0035.0015-.0058.0038-.0093.0053-.3721-.694-2.3821-4.106-6.4817-5.1993-4.57-1.219-9.293.762-9.293.762,0,0-4.418-1.676-4.57-.762-.153.914,3.656,4.418,3.656,4.418,0,0-.6056,1.1348-1.1312,2.6074-.4774,1.3376-.8826,2.9503-.7117,4.2567-.0449.0047-.0875.0237-.1121.062-.061.093-6.039,9.419-1.787,18.681,2.78,6.056,9.745,8.079,16.679,8.079,3.4819,0,6.9509-.5119,9.8834-1.2777,3.0844,1.1353,5.8635,1.9706,7.7737,2.485.9203,1.1241,2.1603,2.5847,3.2268,3.6506,1.98,1.981,3.504,1.066,1.676-1.066,0,0,3.656,4.418,5.027,3.656,1.371-.762-2.59-4.57-2.59-4.57,0,0,4.723,3.504,5.485,2.438.4573-.6398-2.8162-3.2545-5.8699-5.5071Z" style="fill: #383532;"/>
  <path d="m16.2126,43.1854c-1.689.563-3.188,4.584-2.232,4.777s2.048-2.517,2.048-2.517c0,0-.956,2.904-.137,3.291.819.387,2.048-2.323,2.048-2.323,0,0-.683,2.323-.273,2.323.966,0,2.185-2.323,2.048-3.678-.136-1.355-1.445-2.559-3.502-1.873Z" style="fill: #383532;"/>
  <path d="m23.8666,42.9294c-1.704.516-3.413,5.421-2.458,5.614.956.194,2.048-2.517,2.048-2.517,0,0-.956,2.904-.137,3.291.819.387,2.048-2.323,2.048-2.323,0,0-.683,2.323-.273,2.323.965,0,2.452-2.949,2.315-4.304-.136-1.355-1.3701-2.742-3.543-2.084Z" style="fill: #383532;"/>
</svg>