<?xml version="1.0" encoding="UTF-8"?>
<svg id="_Слой_1" data-name="Слой 1" xmlns="http://www.w3.org/2000/svg" width="181.0095" height="226.9995" viewBox="0 0 181.0095 226.9995">
  <path d="m137.4613,66.0103c1.385,18.889-.545,38.009-5.611,56.258.54-.764.886-1.238.886-1.238,12.171-12.072,16.444-24.286,13.361-70.132l-8.052-1.498c-.292.923-.522,1.865-.681,2.808-.768,4.548-.24,9.201.097,13.802Z" style="fill: #f1e4d3;"/>
  <g>
    <path d="m5.9652,93.1353c-.093.135-.188.269-.277.407,3.592,3.528,8.361,5.837,13.357,6.466,2.738.345,5.225-.06,7.188-2,.935-.924,1.654-2.131,2.099-3.429-7.254-1.994-14.918-2.482-22.367-1.444Z" style="fill: #f1e4d3;"/>
    <path d="m28.3312,94.5783c.489-1.428.644-2.969.348-4.384-3.322-2.87-7.916-4.211-12.26-3.578-4.182.609-8.059,3.039-10.454,6.519,7.449-1.038,15.113-.55,22.366,1.443Z" style="fill: #d2936a;"/>
  </g>
  <g>
    <path d="m33.0793,223.5343h9.994l-4.281-6.32c-.045-.187-.086-.365-.13-.55-2.285,1.723-4.68,3.299-7.162,4.724.801,1.143,1.579,2.146,1.579,2.146Z" style="fill: #383532;"/>
    <path d="m117.6853,223.5003c4.164-.128,6.905.125,11.069-.003-1.708-1.853-3.417-4.545-5.125-6.399.01-.423.013-.847.022-1.27-2.64,1.275-5.394,2.309-8.22,3.092.5529,1.895,1.2759,3.4669,2.254,4.58Z" style="fill: #383532;"/>
    <path d="m137.3642,52.2083c.16-.944.389-1.886.681-2.808l-12.773-2.376c2.152,26.056-15.253,32.822-15.253,32.822-15.287,4.593-31.469,6.188-47.359,4.667-8.364-.8-16.956-2.435-25.039-.137-8.251,2.346-15.17,8.938-17.912,17.066-2.742,8.128-1.23,17.564,3.914,24.429.132,10.26-1.326,22.018-10.986,25.478,12.312,21.089,8.825,44.374,17.216,67.306.234.64.949,1.74,1.647,2.735,2.482-1.425,4.877-3.002,7.162-4.724-4.155-17.431-3.064-22.765-5.258-43.857-.351-3.371-.727-14.432.68-17.515,1.938-4.246,15.833-15.214,16.127-25.066,18.393,6.517,39.942-1.581,58.335,4.936,3.448,12.583.982,23.861,1.026,36.908,5.733,11.322,2.495,35.307,5.861,46.852,2.826-.783,5.579-1.817,8.22-3.092.507-23.96-.05-48.168.495-72.119.083-3.65.177-7.362,1.319-10.829.872-2.646,4.645-8.152,6.385-10.613,5.066-18.248,6.996-37.368,5.611-56.258-.3391-4.6039-.8671-9.2569-.0991-13.8049Z" style="fill: #d2936a;"/>
  </g>
  <g>
    <path d="m165.3542,4.6583c2.293,1.484,4.239,3.507,5.582,5.887.612,1.086,1.082,2.246,1.437,3.44,1.894-3.355,2.949-7.042,2.949-10.523-3.093.17-6.6589.419-9.968,1.196Z" style="fill: #383532;"/>
    <path d="m106.9972,4.6583c-3.309-.777-6.874-1.026-9.967-1.195,0,3.48,1.055,7.167,2.948,10.523.355-1.194.825-2.354,1.437-3.44,1.343-2.381,3.289-4.404,5.582-5.888Z" style="fill: #383532;"/>
    <path d="m165.3542,4.6583c-2.578.605-5,1.531-6.923,2.99-7.698,5.841-7.872,12.737-8.286,12.641-9.363-2.171-18.677-1.789-27.94,0-.417.081-.588-6.799-8.286-12.641-1.923-1.459-4.345-2.385-6.923-2.99-2.293,1.484-4.239,3.507-5.582,5.887-.612,1.086-1.082,2.246-1.437,3.44,1.304,2.31,3.002,4.464,5.043,6.28,3.001,2.67,9.423,5.448,13.426,5.123,0,0-.394,2.611-.227,8.3.272,9.248,4.383,17.604,7.029,20.325.571.587,1.299,1.43,2.119,2.36,1.162-4.93,4.665-8.512,8.807-8.512s7.645,3.582,8.807,8.512c.821-.93,1.549-1.773,2.119-2.36,2.646-2.721,6.757-11.077,7.029-20.325.167-5.689-.227-8.3-.227-8.3,4.003.325,10.425-2.454,13.426-5.123,2.041-1.816,3.739-3.97,5.043-6.28-.355-1.194-.825-2.354-1.437-3.44-1.3401-2.38-3.2862-4.403-5.5802-5.887Z" style="fill: #d2936a;"/>
  </g>
  <g>
    <path d="m145.1812,37.2223c0,1.112.901,2.013,2.013,2.013s2.013-.901,2.013-2.013-.901-2.013-2.013-2.013-2.013.902-2.013,2.013Z" style="fill: #383532;"/>
    <path d="m127.1712,37.2223c0,1.112-.901,2.013-2.013,2.013s-2.013-.901-2.013-2.013.901-2.013,2.013-2.013,2.013.902,2.013,2.013Z" style="fill: #383532;"/>
  </g>
  <path d="m136.1762,47.8623c-4.142,0-7.645,3.582-8.807,8.512,2.655,3.008,6.29,6.933,8.807,6.111,2.517.823,6.153-3.103,8.807-6.111-1.162-4.93-4.665-8.512-8.807-8.512Z" style="fill: #f1e4d3;"/>
  <path d="m140.7563,55.2653c0,1.873-2.051,3.391-4.58,3.391s-4.58-1.518-4.58-3.391,2.051-3.391,4.58-3.391c2.529,0,4.58,1.518,4.58,3.391Z" style="fill: #383532;"/>
  <g>
    <circle cx="40.6642" cy="91.5303" r="3.378" style="fill: #f1e4d3;"/>
    <path d="m66.0722,93.2183c0,.933-.756,1.689-1.689,1.689s-1.689-.756-1.689-1.689.756-1.689,1.689-1.689,1.689.757,1.689,1.689Z" style="fill: #f1e4d3;"/>
    <path d="m83.9382,90.6853c0,1.399-1.134,2.533-2.533,2.533s-2.533-1.134-2.533-2.533,1.134-2.533,2.533-2.533,2.533,1.134,2.533,2.533Z" style="fill: #f1e4d3;"/>
    <path d="m94.4902,97.2603c0,1.299-1.053,2.353-2.352,2.353s-2.352-1.053-2.352-2.353c0-1.299,1.053-2.353,2.352-2.353s2.352,1.054,2.352,2.353Z" style="fill: #f1e4d3;"/>
    <path d="m106.9972,90.6433c0,1.376-1.116,2.492-2.492,2.492s-2.492-1.116-2.492-2.492,1.116-2.492,2.492-2.492c1.377.001,2.492,1.116,2.492,2.492Z" style="fill: #f1e4d3;"/>
    <path d="m119.0813,82.6233c0,1.008-.817,1.825-1.825,1.825s-1.825-.817-1.825-1.825.817-1.825,1.825-1.825,1.825.817,1.825,1.825Z" style="fill: #f1e4d3;"/>
  </g>
</svg>