<?xml version="1.0" encoding="UTF-8"?>
<svg id="_Слой_2" data-name="Слой 2" xmlns="http://www.w3.org/2000/svg" viewBox="0 0 173.06 223.15">
  <defs>
    <style>
      .cls-1 {
        fill: #d2936a;
      }

      .cls-2 {
        fill: none;
      }

      .cls-3 {
        fill: #383532;
      }

      .cls-4 {
        fill: #333;
        stroke: #fff;
        stroke-miterlimit: 10;
        stroke-width: 3px;
      }

      .cls-5 {
        fill: #f1e4d3;
      }
    </style>
  </defs>
  <g id="_Слой_1-2" data-name="Слой 1">
    <g>
      <path class="cls-4" d="m171.56,1.58c-3.1.17-6.66.41-9.97,1.19-2.58.61-5,1.53-6.92,2.99-7.7,5.84-7.87,12.74-8.29,12.64-9.36-2.17-18.68-1.79-27.94,0-.42.08-.59-6.8-8.29-12.64-1.92-1.46-4.34-2.38-6.92-2.99-3.31-.78-6.87-1.02-9.96-1.19,0,3.48,1.05,7.16,2.94,10.52,1.31,2.31,3.01,4.46,5.05,6.28,3,2.67,9.42,5.45,13.42,5.12,0,0-.39,2.61-.22,8.3.27,9.25,4.38,17.61,7.02,20.33.04.04.09.08.13.13-1.2,20.19-15.35,25.7-15.35,25.7-15.29,4.59-31.47,6.19-47.36,4.67-8.37-.8-16.96-2.44-25.04-.14-3.57,1.01-6.89,2.83-9.73,5.21-3.24-2.44-7.46-3.56-11.48-2.97-4.18.61-8.05,3.04-10.45,6.52-.09.13-.19.27-.28.41,3.6,3.52,8.36,5.83,13.36,6.46.4.05.78.08,1.17.1-.18.44-.35.88-.5,1.34-2.75,8.12-1.23,17.56,3.91,24.42.13,10.26-1.33,22.02-10.99,25.48,12.32,21.09,8.83,44.38,17.22,67.31.23.64.95,1.74,1.65,2.73.4.57.8,1.11,1.09,1.51.29.39.49.64.49.64h9.99l-4.28-6.32c-.05-.19-.09-.37-.13-.55-2.08-8.71-2.85-14.41-3.37-20.56s-.79-12.75-1.89-23.3c-.35-3.37-.73-14.43.68-17.51,1.94-4.25,15.83-15.22,16.13-25.07,18.39,6.52,39.94-1.58,58.33,4.94,3.45,12.58.98,23.86,1.03,36.91,5.73,11.32,2.49,35.3,5.86,46.84.55,1.9,1.27,3.47,2.25,4.58,4.17-.12,6.91.13,11.07,0-1.71-1.85-3.42-4.54-5.12-6.4,0-.42,0-.84.02-1.26.21-9.66.24-19.35.24-29.06,0-14.37-.07-28.76.25-43.06.09-3.65.18-7.37,1.32-10.83.88-2.65,4.65-8.15,6.39-10.62.54-.76.88-1.24.88-1.24,11.82-11.72,16.19-23.57,13.61-66.2.27-.3.53-.58.76-.81,2.64-2.72,6.75-11.08,7.03-20.33.16-5.69-.23-8.3-.23-8.3,4,.33,10.42-2.45,13.42-5.12,2.05-1.82,3.74-3.97,5.05-6.28,1.89-3.36,2.95-7.04,2.95-10.52Z"/>
      <g>
        <path class="cls-2" d="m166.05,6.95h0s0,0,0,0Z"/>
        <path class="cls-2" d="m20.25,91.72s0,0,0,0c-4.09-.78-8.27-1.11-12.43-.95,4.16-.15,8.34.18,12.43.95Z"/>
        <path class="cls-2" d="m136.06,46.96c-1.12-.63-2.35-.98-3.64-.98-1.04,0-2.03.23-2.97.64h0c.93-.41,1.93-.64,2.96-.64,1.29,0,2.53.35,3.64.98Z"/>
        <path class="cls-5" d="m7.82,90.76c-1.88.07-3.76.23-5.62.49-.09.14-.19.27-.28.41,3.59,3.53,8.36,5.84,13.36,6.47.39.05.78.08,1.16.09.94-2.34,2.24-4.53,3.8-6.51-4.09-.78-8.27-1.11-12.43-.95Z"/>
        <path class="cls-3" d="m27.74,219.51c.8,1.14,1.58,2.14,1.58,2.14h9.99l-4.28-6.32c-.05-.19-.09-.36-.13-.55,0,0,0,0,0,0,0,0,0,0,0,0-2.28,1.72-4.68,3.3-7.16,4.72Z"/>
        <path class="cls-3" d="m111.67,217.04s0,0,0,0c.55,1.89,1.28,3.47,2.25,4.58,4.16-.13,6.91.12,11.07,0-1.71-1.85-3.42-4.54-5.12-6.4,0-.42.01-.84.02-1.27-2.64,1.27-5.39,2.31-8.22,3.09,0,0,0,0,0,0Z"/>
        <path class="cls-3" d="m168.61,12.11c1.89-3.36,2.95-7.04,2.95-10.52-3.09.17-6.66.42-9.97,1.2,1.72,1.11,3.24,2.53,4.46,4.17h0c.4.54.76,1.1,1.09,1.68,0,.01.02.03.03.04.61,1.09,1.08,2.25,1.44,3.44Z"/>
        <path class="cls-3" d="m103.23,2.78h0s0,0,0,0c-3.31-.78-6.87-1.03-9.97-1.2,0,3.48,1.05,7.17,2.95,10.52.35-1.19.82-2.35,1.44-3.44,1.34-2.38,3.29-4.4,5.58-5.89Z"/>
        <path class="cls-1" d="m166.05,6.95c-1.22-1.64-2.74-3.06-4.46-4.17-2.58.6-5,1.53-6.92,2.99-7.7,5.84-7.87,12.74-8.29,12.64-9.36-2.17-18.68-1.79-27.94,0-.42.08-.59-6.8-8.29-12.64-1.92-1.46-4.34-2.38-6.92-2.99h0c-2.29,1.48-4.24,3.51-5.58,5.89-.61,1.09-1.08,2.25-1.44,3.44h0c1.3,2.31,3,4.46,5.04,6.28,3,2.67,9.42,5.45,13.43,5.12,0,0-.39,2.61-.23,8.3.27,9.25,4.38,17.6,7.03,20.32.04.04.08.09.12.13-1.2,20.19-15.35,25.7-15.35,25.7-15.29,4.59-31.47,6.19-47.36,4.67-8.36-.8-16.96-2.43-25.04-.14-3.57,1.01-6.89,2.83-9.73,5.21-3.24-2.44-7.46-3.56-11.47-2.97-4.18.61-8.06,3.04-10.45,6.52,1.86-.26,3.74-.42,5.62-.49,4.16-.15,8.34.18,12.43.95,0,0,0,0,0,0-1.57,1.98-2.86,4.17-3.8,6.51-.18.44-.35.89-.5,1.34-2.74,8.13-1.23,17.56,3.91,24.43.13,10.26-1.33,22.02-10.99,25.48,12.31,21.09,8.83,44.37,17.22,67.31.23.64.95,1.74,1.65,2.73,0,0,0,0,0,0,2.48-1.42,4.88-3,7.16-4.72,0,0,0,0,0,0-4.15-17.43-3.06-22.76-5.26-43.86-.35-3.37-.73-14.43.68-17.52,1.94-4.25,15.83-15.21,16.13-25.07,18.39,6.52,39.94-1.58,58.34,4.94,3.45,12.58.98,23.86,1.03,36.91,5.73,11.32,2.5,35.3,5.86,46.85,0,0,0,0,0,0,2.83-.78,5.58-1.82,8.22-3.09,0,0,0,0,0,0,.51-23.96-.05-48.17.49-72.12.08-3.65.18-7.36,1.32-10.83.87-2.65,4.65-8.15,6.39-10.61,0,0,0,0,0,0,5.06-18.25,6.99-37.36,5.61-56.25-.08-1.14-.18-2.29-.26-3.44-.36.04-.7.01-1.02-.09-2.52.82-6.15-3.1-8.81-6.11.87-3.7,3.06-6.63,5.84-7.87h0c.93-.41,1.93-.64,2.97-.64,1.29,0,2.53.35,3.64.98,2.46,1.39,4.36,4.14,5.16,7.53.5-.56.95-1.08,1.36-1.54.27-.3.53-.58.75-.82,2.65-2.72,6.76-11.08,7.03-20.32.17-5.69-.23-8.3-.23-8.3,4,.33,10.42-2.45,13.43-5.12,2.04-1.82,3.74-3.97,5.04-6.28-.35-1.19-.83-2.35-1.44-3.44,0-.01-.02-.03-.02-.04-.33-.58-.69-1.14-1.09-1.67h0ZM36.9,93.03c-1.87,0-3.38-1.51-3.38-3.38s1.51-3.38,3.38-3.38,3.38,1.51,3.38,3.38-1.51,3.38-3.38,3.38Zm23.72,0c-.93,0-1.69-.76-1.69-1.69s.76-1.69,1.69-1.69,1.69.76,1.69,1.69-.76,1.69-1.69,1.69Zm17.02-1.69c-1.4,0-2.53-1.13-2.53-2.53s1.13-2.53,2.53-2.53,2.53,1.13,2.53,2.53-1.13,2.53-2.53,2.53Zm10.73,6.4c-1.3,0-2.35-1.05-2.35-2.35s1.05-2.35,2.35-2.35,2.35,1.05,2.35,2.35-1.05,2.35-2.35,2.35Zm12.37-6.48c-1.38,0-2.49-1.12-2.49-2.49s1.12-2.49,2.49-2.49c1.38,0,2.49,1.12,2.49,2.49s-1.12,2.49-2.49,2.49Zm12.75-12.34c1.01,0,1.83.82,1.83,1.83s-.82,1.83-1.83,1.83-1.83-.82-1.83-1.83.82-1.83,1.83-1.83Zm7.9-41.56c-1.11,0-2.01-.9-2.01-2.01s.9-2.01,2.01-2.01,2.01.9,2.01,2.01-.9,2.01-2.01,2.01Zm22.04,0c-1.11,0-2.01-.9-2.01-2.01s.9-2.01,2.01-2.01,2.01.9,2.01,2.01-.9,2.01-2.01,2.01Z"/>
        <circle class="cls-3" cx="143.43" cy="35.34" r="2.01"/>
        <circle class="cls-3" cx="121.4" cy="35.34" r="2.01"/>
        <path class="cls-5" d="m136.06,46.96c-1.12-.63-2.35-.98-3.64-.98-1.04,0-2.03.22-2.96.64-2.78,1.24-4.97,4.18-5.84,7.87,2.66,3.01,6.29,6.93,8.81,6.11.32.11.67.13,1.02.09.08,1.15.18,2.29.26,3.44,1.38,18.89-.54,38-5.61,56.25.54-.76.88-1.23.88-1.23,11.82-11.72,16.19-23.58,13.61-66.2-.41.46-.87.98-1.36,1.54-.8-3.39-2.7-6.14-5.16-7.53Zm-3.64,9.81c-2.53,0-4.58-1.52-4.58-3.39s2.05-3.39,4.58-3.39,4.58,1.52,4.58,3.39-2.05,3.39-4.58,3.39Z"/>
        <ellipse class="cls-3" cx="132.41" cy="53.39" rx="4.58" ry="3.39"/>
        <circle class="cls-5" cx="36.9" cy="89.65" r="3.38"/>
        <path class="cls-5" d="m60.62,89.65c-.93,0-1.69.76-1.69,1.69s.76,1.69,1.69,1.69,1.69-.76,1.69-1.69-.76-1.69-1.69-1.69Z"/>
        <path class="cls-5" d="m77.64,86.27c-1.4,0-2.53,1.13-2.53,2.53s1.13,2.53,2.53,2.53,2.53-1.13,2.53-2.53-1.13-2.53-2.53-2.53Z"/>
        <path class="cls-5" d="m88.38,93.03c-1.3,0-2.35,1.05-2.35,2.35s1.05,2.35,2.35,2.35,2.35-1.05,2.35-2.35-1.05-2.35-2.35-2.35Z"/>
        <path class="cls-5" d="m100.74,86.27c-1.38,0-2.49,1.12-2.49,2.49s1.12,2.49,2.49,2.49,2.49-1.12,2.49-2.49-1.11-2.49-2.49-2.49Z"/>
        <circle class="cls-5" cx="113.49" cy="80.74" r="1.83"/>
      </g>
    </g>
  </g>
</svg>