<?xml version="1.0" encoding="UTF-8"?>
<svg id="_Слой_1" data-name="Слой 1" xmlns="http://www.w3.org/2000/svg" width="181.0095" height="226.9995" viewBox="0 0 181.0095 226.9995">
  <path d="m172.3732,13.9854c1.894-3.355,2.949-7.0421,2.949-10.523-3.093.17-6.6589.419-9.968,1.196-2.578.605-5,1.531-6.923,2.99-7.698,5.841-7.872,12.737-8.286,12.6411-9.363-2.171-18.677-1.789-27.94,0-.417.081-.588-6.799-8.286-12.6411-1.9228-1.4589-4.3445-2.3848-6.9222-2.9898.0001,0,.0001-.0001.0002-.0002-3.309-.777-6.874-1.026-9.967-1.195,0,3.4795,1.0547,7.1658,2.9472,10.5215l-.0002.0005c1.304,2.31,3.002,4.464,5.043,6.28,3.001,2.67,9.423,5.448,13.426,5.123,0,0-.394,2.611-.227,8.3.272,9.248,4.383,17.604,7.029,20.325.0381.0392.0824.0883.1219.1296-1.1996,20.1937-15.351,25.7034-15.351,25.7034-15.287,4.593-31.469,6.188-47.359,4.667-8.364-.8-16.956-2.435-25.039-.137-3.5695,1.015-6.8877,2.8271-9.7283,5.212-3.2407-2.4377-7.4575-3.5573-11.4738-2.972-4.182.609-8.059,3.039-10.454,6.519-.093.135-.188.269-.277.407,3.592,3.528,8.361,5.837,13.357,6.466.3942.0497.7814.0784,1.1644.0947-.1778.442-.3479.8873-.5004,1.3393-2.742,8.128-1.23,17.564,3.914,24.429.132,10.26-1.326,22.018-10.986,25.478,12.312,21.089,8.825,44.374,17.216,67.306.234.64.949,1.74,1.647,2.735.0004-.0002.0006-.0004.001-.0006.8005,1.1424,1.578,2.1446,1.578,2.1446h9.994l-4.281-6.32c-.045-.187-.086-.365-.13-.55-.0001.0001-.0003.0002-.0004.0003-4.1545-17.4296-3.0636-22.764-5.2576-43.8553-.351-3.371-.727-14.432.68-17.515,1.938-4.246,15.833-15.214,16.127-25.066,18.393,6.517,39.942-1.581,58.335,4.936,3.448,12.583.982,23.861,1.026,36.908,5.7323,11.3207,2.4957,35.3013,5.8599,46.8478-.0003,0-.0006.0002-.0009.0002.5529,1.895,1.2759,3.467,2.254,4.58,4.164-.128,6.905.125,11.069-.003-1.708-1.853-3.417-4.545-5.125-6.399.0099-.4213.0131-.8438.0219-1.2651.0007-.0003.0014-.0007.0021-.001.507-23.96-.05-48.168.495-72.119.083-3.65.177-7.362,1.319-10.829.872-2.646,4.645-8.152,6.385-10.613.0009-.0031.0016-.0062.0024-.0092.5371-.7599.8815-1.2317.8815-1.2317,11.8151-11.7191,16.186-23.5777,13.6113-66.2018.271-.3019.5273-.583.7529-.8152,2.646-2.7209,6.757-11.077,7.029-20.325.167-5.689-.227-8.3-.227-8.3,4.003.325,10.425-2.454,13.426-5.123,2.041-1.816,3.739-3.97,5.043-6.28-.355-1.194-.825-2.354-1.437-3.44-.0076-.0134-.0164-.0261-.0239-.0394.0078.0137.0179.0258.0257.0394.612,1.086,1.082,2.246,1.437,3.44Z" style="fill: #383532;"/>
</svg>