<?xml version="1.0" encoding="UTF-8"?>
<svg id="_Слой_2" data-name="Слой 2" xmlns="http://www.w3.org/2000/svg" viewBox="0 0 169.64 220.07">
  <defs>
    <style>
      .cls-1 {
        fill: #333;
      }
    </style>
  </defs>
  <g id="_Слой_1-2" data-name="Слой 1">
    <path class="cls-1" d="m166.68,10.52c-1.3,2.31-3,4.46-5.04,6.28-3,2.67-9.42,5.45-13.42,5.12,0,0,.39,2.61.22,8.3-.27,9.25-4.38,17.61-7.03,20.33-.22.23-.48.51-.75.81,2.58,42.63-1.8,54.49-13.61,66.2,0,0-.34.48-.88,1.24h0c-1.74,2.47-5.52,7.97-6.39,10.62-1.14,3.47-1.24,7.18-1.32,10.83-.54,23.95.01,48.16-.49,72.12h-.01c0,.42-.01.84-.02,1.26,1.71,1.86,3.42,4.55,5.13,6.4-4.17.13-6.91-.12-11.07,0-.98-1.11-1.7-2.68-2.26-4.58h.01c-3.37-11.54-.13-35.52-5.86-46.84-.05-13.05,2.42-24.33-1.03-36.91-18.39-6.52-39.94,1.58-58.34-4.94-.29,9.85-14.18,20.82-16.12,25.07-1.41,3.08-1.03,14.14-.68,17.51,1.1,10.55,1.37,17.15,1.89,23.3s1.29,11.85,3.37,20.56c.04.18.08.36.13.55l4.28,6.32h-10s-.19-.25-.49-.64c-.29-.4-.68-.94-1.09-1.51-.69-.99-1.41-2.09-1.64-2.73-8.39-22.93-4.91-46.22-17.22-67.31,9.66-3.46,11.12-15.21,10.99-25.47-5.15-6.87-6.66-16.31-3.92-24.43.16-.46.33-.9.5-1.34-.38-.02-.77-.05-1.16-.1-5-.63-9.77-2.94-13.36-6.46.09-.14.19-.28.28-.41,2.39-3.48,6.27-5.91,10.45-6.52,4.02-.58,8.24.53,11.48,2.97,2.84-2.38,6.16-4.19,9.72-5.21,8.09-2.3,16.68-.66,25.04.14,15.89,1.52,32.08-.08,47.36-4.67,0,0,14.15-5.51,15.35-25.7-.04-.04-.08-.09-.12-.13-2.64-2.72-6.76-11.08-7.03-20.33-.16-5.69.23-8.3.23-8.3-4,.33-10.43-2.45-13.43-5.12-2.04-1.82-3.74-3.97-5.04-6.28-1.89-3.36-2.95-7.04-2.95-10.52,3.1.17,6.66.42,9.97,1.19,2.58.61,5,1.53,6.92,2.99,7.7,5.84,7.87,12.72,8.29,12.64,9.26-1.79,18.58-2.17,27.94,0,.41.1.59-6.8,8.28-12.64,1.93-1.46,4.35-2.38,6.93-2.99,3.31-.77,6.87-1.02,9.97-1.19,0,3.48-1.06,7.16-2.95,10.52-.18-.59-.39-1.18-.63-1.76.24.58.44,1.17.62,1.76Z"/>
  </g>
</svg>