<?xml version="1.0" encoding="UTF-8"?>
<svg id="_Слой_2" data-name="Слой 2" xmlns="http://www.w3.org/2000/svg" viewBox="0 0 169.63 220.07">
  <defs>
    <style>
      .cls-1 {
        fill: #d2936a;
      }

      .cls-2 {
        fill: none;
      }

      .cls-3 {
        fill: #383532;
      }

      .cls-4 {
        fill: #f1e4d3;
      }
    </style>
  </defs>
  <g id="_Слой_1-2" data-name="Слой 1">
    <g>
      <path class="cls-2" d="m164.13,5.36h0s0,0,0,0Z"/>
      <path class="cls-2" d="m18.32,90.13s0,0,0,0c-4.09-.78-8.27-1.11-12.43-.95,4.16-.15,8.34.18,12.43.95Z"/>
      <path class="cls-2" d="m134.13,45.38c-1.12-.63-2.35-.98-3.64-.98-1.04,0-2.03.23-2.97.64h0c.93-.41,1.93-.64,2.96-.64,1.29,0,2.53.35,3.64.98Z"/>
      <path class="cls-4" d="m5.89,89.18c-1.88.07-3.76.23-5.62.49-.09.14-.19.27-.28.41,3.59,3.53,8.36,5.84,13.36,6.47.39.05.78.08,1.16.09.94-2.34,2.24-4.53,3.8-6.51-4.09-.78-8.27-1.11-12.43-.95Z"/>
      <path class="cls-3" d="m25.81,217.93c.8,1.14,1.58,2.14,1.58,2.14h9.99l-4.28-6.32c-.05-.19-.09-.36-.13-.55,0,0,0,0,0,0,0,0,0,0,0,0-2.28,1.72-4.68,3.3-7.16,4.72Z"/>
      <path class="cls-3" d="m109.74,215.46s0,0,0,0c.55,1.89,1.28,3.47,2.25,4.58,4.16-.13,6.91.12,11.07,0-1.71-1.85-3.42-4.54-5.12-6.4,0-.42.01-.84.02-1.27-2.64,1.27-5.39,2.31-8.22,3.09,0,0,0,0,0,0Z"/>
      <path class="cls-3" d="m166.68,10.52c1.89-3.36,2.95-7.04,2.95-10.52-3.09.17-6.66.42-9.97,1.2,1.72,1.11,3.24,2.53,4.46,4.17h0c.4.54.76,1.1,1.09,1.68,0,.01.02.03.03.04.61,1.09,1.08,2.25,1.44,3.44Z"/>
      <path class="cls-3" d="m101.31,1.2h0s0,0,0,0C98,.42,94.43.17,91.34,0c0,3.48,1.05,7.17,2.95,10.52.35-1.19.82-2.35,1.44-3.44,1.34-2.38,3.29-4.4,5.58-5.89Z"/>
      <path class="cls-1" d="m164.13,5.36c-1.22-1.64-2.74-3.06-4.46-4.17-2.58.6-5,1.53-6.92,2.99-7.7,5.84-7.87,12.74-8.29,12.64-9.36-2.17-18.68-1.79-27.94,0-.42.08-.59-6.8-8.29-12.64-1.92-1.46-4.34-2.38-6.92-2.99h0c-2.29,1.48-4.24,3.51-5.58,5.89-.61,1.09-1.08,2.25-1.44,3.44h0c1.3,2.31,3,4.46,5.04,6.28,3,2.67,9.42,5.45,13.43,5.12,0,0-.39,2.61-.23,8.3.27,9.25,4.38,17.6,7.03,20.32.04.04.08.09.12.13-1.2,20.19-15.35,25.7-15.35,25.7-15.29,4.59-31.47,6.19-47.36,4.67-8.36-.8-16.96-2.43-25.04-.14-3.57,1.01-6.89,2.83-9.73,5.21-3.24-2.44-7.46-3.56-11.47-2.97-4.18.61-8.06,3.04-10.45,6.52,1.86-.26,3.74-.42,5.62-.49,4.16-.15,8.34.18,12.43.95,0,0,0,0,0,0-1.57,1.98-2.86,4.17-3.8,6.51-.18.44-.35.89-.5,1.34-2.74,8.13-1.23,17.56,3.91,24.43.13,10.26-1.33,22.02-10.99,25.48,12.31,21.09,8.83,44.37,17.22,67.31.23.64.95,1.74,1.65,2.73,0,0,0,0,0,0,2.48-1.42,4.88-3,7.16-4.72,0,0,0,0,0,0-4.15-17.43-3.06-22.76-5.26-43.86-.35-3.37-.73-14.43.68-17.52,1.94-4.25,15.83-15.21,16.13-25.07,18.39,6.52,39.94-1.58,58.34,4.94,3.45,12.58.98,23.86,1.03,36.91,5.73,11.32,2.5,35.3,5.86,46.85,0,0,0,0,0,0,2.83-.78,5.58-1.82,8.22-3.09,0,0,0,0,0,0,.51-23.96-.05-48.17.49-72.12.08-3.65.18-7.36,1.32-10.83.87-2.65,4.65-8.15,6.39-10.61,0,0,0,0,0,0,5.06-18.25,6.99-37.36,5.61-56.25-.08-1.14-.18-2.29-.26-3.44-.36.04-.7.01-1.02-.09-2.52.82-6.15-3.1-8.81-6.11.87-3.7,3.06-6.63,5.84-7.87h0c.93-.41,1.93-.64,2.97-.64,1.29,0,2.53.35,3.64.98,2.46,1.39,4.36,4.14,5.16,7.53.5-.56.95-1.08,1.36-1.54.27-.3.53-.58.75-.82,2.65-2.72,6.76-11.08,7.03-20.32.17-5.69-.23-8.3-.23-8.3,4,.33,10.42-2.45,13.43-5.12,2.04-1.82,3.74-3.97,5.04-6.28-.35-1.19-.83-2.35-1.44-3.44,0-.01-.02-.03-.02-.04-.33-.58-.69-1.14-1.09-1.67h0ZM34.98,91.45c-1.87,0-3.38-1.51-3.38-3.38s1.51-3.38,3.38-3.38,3.38,1.51,3.38,3.38-1.51,3.38-3.38,3.38Zm23.72,0c-.93,0-1.69-.76-1.69-1.69s.76-1.69,1.69-1.69,1.69.76,1.69,1.69-.76,1.69-1.69,1.69Zm17.02-1.69c-1.4,0-2.53-1.13-2.53-2.53s1.13-2.53,2.53-2.53,2.53,1.13,2.53,2.53-1.13,2.53-2.53,2.53Zm10.73,6.4c-1.3,0-2.35-1.05-2.35-2.35s1.05-2.35,2.35-2.35,2.35,1.05,2.35,2.35-1.05,2.35-2.35,2.35Zm12.37-6.48c-1.38,0-2.49-1.12-2.49-2.49s1.12-2.49,2.49-2.49c1.38,0,2.49,1.12,2.49,2.49s-1.12,2.49-2.49,2.49Zm12.75-12.34c1.01,0,1.83.82,1.83,1.83s-.82,1.83-1.83,1.83-1.83-.82-1.83-1.83.82-1.83,1.83-1.83Zm7.9-41.56c-1.11,0-2.01-.9-2.01-2.01s.9-2.01,2.01-2.01,2.01.9,2.01,2.01-.9,2.01-2.01,2.01Zm22.04,0c-1.11,0-2.01-.9-2.01-2.01s.9-2.01,2.01-2.01,2.01.9,2.01,2.01-.9,2.01-2.01,2.01Z"/>
      <circle class="cls-3" cx="141.51" cy="33.76" r="2.01"/>
      <circle class="cls-3" cx="119.47" cy="33.76" r="2.01"/>
      <path class="cls-4" d="m134.13,45.38c-1.12-.63-2.35-.98-3.64-.98-1.04,0-2.03.22-2.96.64-2.78,1.24-4.97,4.18-5.84,7.87,2.66,3.01,6.29,6.93,8.81,6.11.32.11.67.13,1.02.09.08,1.15.18,2.29.26,3.44,1.38,18.89-.54,38-5.61,56.25.54-.76.88-1.23.88-1.23,11.82-11.72,16.19-23.58,13.61-66.2-.41.46-.87.98-1.36,1.54-.8-3.39-2.7-6.14-5.16-7.53Zm-3.64,9.81c-2.53,0-4.58-1.52-4.58-3.39s2.05-3.39,4.58-3.39,4.58,1.52,4.58,3.39-2.05,3.39-4.58,3.39Z"/>
      <ellipse class="cls-3" cx="130.49" cy="51.8" rx="4.58" ry="3.39"/>
      <circle class="cls-4" cx="34.98" cy="88.07" r="3.38"/>
      <path class="cls-4" d="m58.7,88.07c-.93,0-1.69.76-1.69,1.69s.76,1.69,1.69,1.69,1.69-.76,1.69-1.69-.76-1.69-1.69-1.69Z"/>
      <path class="cls-4" d="m75.72,84.69c-1.4,0-2.53,1.13-2.53,2.53s1.13,2.53,2.53,2.53,2.53-1.13,2.53-2.53-1.13-2.53-2.53-2.53Z"/>
      <path class="cls-4" d="m86.45,91.45c-1.3,0-2.35,1.05-2.35,2.35s1.05,2.35,2.35,2.35,2.35-1.05,2.35-2.35-1.05-2.35-2.35-2.35Z"/>
      <path class="cls-4" d="m98.82,84.69c-1.38,0-2.49,1.12-2.49,2.49s1.12,2.49,2.49,2.49,2.49-1.12,2.49-2.49-1.11-2.49-2.49-2.49Z"/>
      <circle class="cls-4" cx="111.57" cy="79.16" r="1.83"/>
    </g>
  </g>
</svg>