<?xml version="1.0" encoding="UTF-8"?>
<svg id="_Слой_2" data-name="Слой 2" xmlns="http://www.w3.org/2000/svg" viewBox="0 0 169.05 244.57">
  <defs>
    <style>
      .cls-1 {
        fill: #fce2ca;
      }

      .cls-2 {
        fill: #fcaa1a;
      }

      .cls-3 {
        fill: #90473f;
      }

      .cls-4 {
        fill: #fdbc2d;
      }

      .cls-5 {
        fill: #f18a2b;
      }

      .cls-6 {
        fill: #ffecd6;
      }
    </style>
  </defs>
  <g id="_Слой_1-2" data-name="Слой 1">
    <g>
      <path class="cls-4" d="m33.18,212.63s-1.9.57-5.83-1.58c-8.49-5.09-3.36-16.96-2.73-32.06.57-13.58-3.83-20.29-5.62-22.84-.81.72-1.73,1.09-2.74.96-.67-.09-1.56-.29-2.57-.57.08.18.19.37.38.57,2.12,2.21,5.13,10.52,6.02,17.98.88,7.46-5.84,20.35-1.59,32.91,4.24,12.55,17.14,11.42,17.15,11.42-.9-2.2-1.75-4.49-2.47-6.74l-.02-.04Z"/>
      <path class="cls-2" d="m41.55,190.8c-.25-1.35-.48-2.66-.68-3.97,0,0,0,0,0,0,0,0-9.38,3.93-9.61,15.26-.06,3.04.74,6.76,1.95,10.58.71,2.25,1.56,4.54,2.47,6.74,3.26,7.97,7.14,14.82,7.14,14.82,0,0-10.61,0-8.96,4.98,1.48,4.46,19.66,5.06,29.69,2.79-9.45-5.84-17.05-24.98-21.98-51.19Z"/>
      <path class="cls-2" d="m138.73,187.53c-.18,1.08-.36,2.16-.57,3.27-4.99,26.54-12.72,45.85-22.35,51.41,10.2,2,27.19,1.3,28.62-3.01,1.65-4.98-8.96-4.98-8.96-4.98,0,0,11.79-20.81,11.56-32.14-.18-8.67-5.71-13-8.3-14.56Z"/>
      <path class="cls-6" d="m105.62,215.89c.35-.88.71-1.78,1.09-2.7,4.21-9.99,4.36-26.57,3.34-41.34-4.76-5.19-10.9-8.89-18.72-8.89-10.29,0-17.3,6.68-22.01,14.78-.58,13.12.01,26.78,3.67,35.46,2.1,4.98,3.57,9.39,4.45,13.22,8.42-1.09,16.64-3.84,23.79-7.82.81-.45,1.6-.92,2.38-1.4.68-.42,1.35-.86,2.01-1.31Z"/>
      <path class="cls-1" d="m105.62,215.89c-.66.45-1.33.88-2.01,1.31-.78.48-1.57.95-2.38,1.4-7.15,3.99-15.37,6.73-23.79,7.82,1.96,8.47,1.01,14.04-2.55,16.32,1.67.77,5.5,1.55,13.96,1.8,5.83.18,10.71-.88,14.81-2.76-3.67-3.82-3.21-12.7,1.96-25.9Z"/>
      <path class="cls-2" d="m70.23,164.85s0,0,0-.01c12.94-1.82,25.66-5.03,38.26-8.95,0,0,0,0,0,0,9.91-3.09,19.74-6.61,29.54-10.26,0,0,0,0,0,0-.28-1.19-.57-2.3-.86-3.36-.62.29-1.23.57-1.83.84-.06.03-.12.06-.18.08-3.31,1.49-6.47,2.81-9.56,3.96-.06.02-.12.05-.18.07-.88.33-1.76.64-2.64.94-.06.02-.12.04-.18.06-.91.31-1.82.61-2.72.89-.06.02-.12.04-.18.06-2.41.75-4.79,1.38-7.17,1.91-.06.01-.13.03-.19.04-3.75.83-7.5,1.38-11.36,1.67-.06,0-.13.01-.19.02-4.19.3-8.51.3-13.1-.02-.06,0-.13,0-.19-.01-2.67-.19-5.43-.48-8.31-.88-.06,0-.13-.02-.19-.03-3.03-.42-6.19-.96-9.52-1.61-.06-.01-.13-.03-.19-.04-.87-.17-1.75-.35-2.64-.54-.06-.01-.13-.03-.19-.04-.9-.19-1.81-.39-2.73-.59-.06-.01-.13-.03-.19-.04-2.35-.52-4.77-1.09-7.29-1.71-.06-.02-.13-.03-.19-.05-.16-.04-.31-.08-.48-.12-3.83-.95-7.45-2.34-10.87-4.07-.06-.03-.12-.06-.17-.09-.64-.33-1.28-.65-1.91-1.01-1.69,5.98-3.19,14.09-3.31,24.24,4.5.26,8.96.29,13.39.14,5.9-.2,11.74-.72,17.54-1.54Z"/>
      <path class="cls-4" d="m138.16,190.8c.21-1.11.39-2.19.57-3.27,2.96-18.11,1.56-32.17-.7-41.89-9.8,3.64-19.63,7.17-29.54,10.26,0,0,0,0,0,0-12.6,3.92-25.32,7.12-38.26,8.95,0,0,0,0,0,.01-5.8.82-11.65,1.34-17.54,1.54-4.43.15-8.89.12-13.39-.14-.07,6.13.36,13,1.56,20.58.21,1.3.43,2.62.68,3.97,4.93,26.2,12.52,45.35,21.98,51.19,1.46.9,2.96,1.5,4.51,1.74,2.86.45,5.15.1,6.85-.99,3.56-2.28,4.51-7.85,2.55-16.32,8.42-1.09,16.64-3.84,23.79-7.82-7.15,3.99-15.37,6.73-23.79,7.82-.88-3.83-2.35-8.24-4.45-13.22-3.66-8.68-4.25-22.33-3.67-35.46,4.71-8.1,11.72-14.78,22.01-14.78,7.83,0,13.96,3.7,18.72,8.89,1.02,14.78.87,31.36-3.34,41.34-.39.92-.75,1.82-1.09,2.7-.66.45-1.33.88-2.01,1.31.68-.42,1.35-.86,2.01-1.31-5.17,13.2-5.64,22.08-1.96,25.9,1.75,1.82,4.44,2.5,8.01,1.94,1.42-.22,2.8-.73,4.14-1.51,9.63-5.56,17.36-24.87,22.35-51.41Z"/>
      <path class="cls-5" d="m130.4,61.6c12.62-6.2,23.91-11.75,32.54-15.99-.37-.97-.76-1.91-1.16-2.83-8.42,4.56-19.43,10.53-31.75,17.21.12.53.24,1.06.36,1.62Z"/>
      <path class="cls-5" d="m130.79,63.43c12.88-5.69,24.42-10.79,33.26-14.69-.33-1.01-.68-1.99-1.05-2.95-8.66,4.26-19.95,9.81-32.56,16.01.12.54.23,1.08.35,1.64Z"/>
      <path class="cls-5" d="m132.72,74.84c13.68-2.11,26.03-4.02,35.67-5.51-.46-4.28-1.15-8.44-2.05-12.41-9.3,3.01-21.3,6.9-34.63,11.21.38,2.14.72,4.39,1.02,6.7Z"/>
      <path class="cls-5" d="m131.67,67.95c13.35-4.32,25.35-8.21,34.63-11.21-.63-2.72-1.36-5.33-2.18-7.82-8.87,3.92-20.41,9.02-33.28,14.7.29,1.38.57,2.83.83,4.33Z"/>
      <path class="cls-5" d="m126.86,48.32s.58,1.73,1.4,4.67c10.76-7.88,20.35-14.9,27.71-20.26-1.93-2.56-4.08-4.94-6.39-7.17-2.63,2.45-5.57,5.19-8.76,8.16-2.32,7.03-13.96,14.59-13.96,14.59Z"/>
      <path class="cls-5" d="m106.1,39.26c1.67-4.29,3.28-8.43,4.82-12.38l1.42-10.87c-2.36,6.86-5.02,14.6-7.86,22.89.53.11,1.08.23,1.62.35Z"/>
      <path class="cls-5" d="m110.71,40.41c6.01-11.72,11.41-22.24,15.65-30.46-2.47-1.17-4.94-2.23-7.38-3.19-3.43,8.77-7.82,20.01-12.69,32.53,1.45.33,2.92.69,4.42,1.11Z"/>
      <path class="cls-5" d="m104.29,38.87c2.97-8.66,5.73-16.72,8.17-23.8l1.33-10.18c-.3-.1-.59-.19-.89-.29-2.75,9.13-6.27,20.89-10.18,33.97.52.1,1.04.2,1.57.3Z"/>
      <path class="cls-5" d="m117.82,42.67s5.31-14.81,13.19-17.52c2.39-3.25,4.6-6.24,6.61-8.96-3.6-2.32-7.33-4.36-11.08-6.15-4.23,8.21-9.63,18.72-15.64,30.42,2.25.63,4.56,1.36,6.92,2.2Z"/>
      <path class="cls-5" d="m137.94,26.16c3.12,2.02,3.73,4.57,2.97,7.21,3.1-2.89,5.95-5.55,8.52-7.94-3.57-3.42-7.52-6.46-11.66-9.14-1.97,2.66-4.13,5.6-6.47,8.77,2.06-.62,4.28-.42,6.63,1.1Z"/>
      <path class="cls-5" d="m119.59,121.7c5.88,8,11.24,15.29,15.75,21.42.61-.27,1.22-.55,1.83-.84,1.97-.91,3.99-1.88,6.07-2.91.2-.1.38-.2.58-.3-5.49-5.85-12.2-12.99-19.62-20.91-1.35,1.34-2.88,2.53-4.6,3.55Z"/>
      <path class="cls-5" d="m132.1,102.94c11.58,5.92,21.94,11.21,29.99,15.32,1.09-2.42,2.04-4.97,2.86-7.6-8.63-3.34-19.67-7.62-31.98-12.38-.22,1.59-.51,3.14-.87,4.66Z"/>
      <path class="cls-5" d="m129.56,110.41c9.97,7.31,18.89,13.84,25.87,18.95,2.59-3.23,4.78-6.91,6.59-10.93-8.06-4.12-18.41-9.4-29.96-15.3-.62,2.56-1.44,5.01-2.5,7.28Z"/>
      <path class="cls-5" d="m133.47,82.81c13.62.43,25.91.82,35.56,1.13.09-4.84-.12-9.69-.62-14.4-9.66,1.49-22,3.4-35.66,5.51.32,2.53.57,5.14.72,7.77Z"/>
      <path class="cls-5" d="m119.42,121.8c-1.84,1.06-3.89,1.93-6.18,2.56,4.57,8.44,8.77,16.19,12.36,22.8,3.09-1.15,6.26-2.47,9.56-3.96-4.51-6.14-9.87-13.42-15.74-21.4Z"/>
      <path class="cls-5" d="m133.56,84.73h0c.04,1.12.07,2.24.07,3.36,13.34,2.04,25.37,3.87,34.8,5.31.33-3.07.52-6.17.59-9.27-9.67-.3-21.95-.69-35.54-1.12.03.58.06,1.15.08,1.73Z"/>
      <path class="cls-5" d="m133.41,94.32c12.79,3.8,24.28,7.21,33.26,9.88.77-3.45,1.35-7.01,1.74-10.61-9.45-1.44-21.46-3.27-34.78-5.31,0,2.03-.07,4.05-.22,6.04Z"/>
      <path class="cls-5" d="m133.24,96.17c12.58,4.29,23.87,8.14,32.68,11.14.25-.96.49-1.94.71-2.92-8.99-2.67-20.47-6.08-33.23-9.87-.04.55-.1,1.1-.15,1.65Z"/>
      <path class="cls-5" d="m133.01,98.08c12.33,4.78,23.39,9.06,32.01,12.39.3-.98.59-1.97.86-2.98-8.82-3.01-20.1-6.85-32.65-11.13-.06.57-.13,1.14-.21,1.71Z"/>
      <path class="cls-5" d="m124.33,118.02c7.45,7.94,14.18,15.1,19.66,20.95,4.39-2.32,8.15-5.55,11.31-9.46-6.99-5.12-15.88-11.63-25.83-18.92-1.32,2.78-3.01,5.29-5.14,7.43Z"/>
      <path class="cls-5" d="m45.8,64.45c-12.13-4.72-22.97-8.95-31.38-12.25l12.73,7.68c5.62,1.93,11.77,4.04,18.29,6.28.12-.58.24-1.16.36-1.72Z"/>
      <path class="cls-5" d="m102.53,38.53c3.91-13.1,7.44-24.86,10.19-34-3.69-1.2-7.22-2.15-10.46-2.87-1.5,9.59-3.43,22.07-5.58,35.99,1.89.22,3.85.5,5.85.87Z"/>
      <path class="cls-5" d="m43.92,74.53c-14.09-2.17-26.59-4.11-35.92-5.58-.17,3.24-.15,6.49.02,9.73,9.27.33,21.47.75,35.17,1.2.21-1.82.46-3.61.73-5.36Z"/>
      <path class="cls-5" d="m45.4,66.36c-6.2-2.13-12.08-4.14-17.47-6l4,2.42-15.38-6.34c-2.34-.81-4.53-1.56-6.54-2.26-.23,1.04-.45,2.08-.64,3.12,9.09,2.75,21.56,6.48,35.71,10.71.11-.56.22-1.11.33-1.65Z"/>
      <path class="cls-5" d="m45.03,68.2c-14.14-4.23-26.61-7.96-35.71-10.71-.68,3.72-1.11,7.49-1.32,11.27,9.33,1.46,21.84,3.4,35.94,5.58.33-2.12.7-4.18,1.08-6.14Z"/>
      <path class="cls-5" d="m42.5,96.49c-.14-2.48-.14-5.03-.04-7.59-12.49,1.91-23.66,3.6-32.39,4.91.92,4.18,2.12,8.25,3.59,12.19,7.91-2.53,17.82-5.71,28.86-9.26,0-.08-.02-.16-.02-.25Z"/>
      <path class="cls-5" d="m44.77,106.1c-9.37,5.06-17.81,9.6-24.68,13.29,1.83,3.04,3.85,5.92,6.05,8.6,6.18-4.54,13.69-10.07,22-16.18-1.35-1.77-2.48-3.68-3.37-5.71Z"/>
      <path class="cls-5" d="m48.26,111.97c-8.32,6.12-15.83,11.64-22,16.17,1.99,2.4,4.12,4.64,6.4,6.69,5.57-5.23,12.3-11.54,19.72-18.51-1.54-1.34-2.92-2.79-4.12-4.35Z"/>
      <path class="cls-5" d="m42.54,96.94c-11.02,3.55-20.91,6.72-28.81,9.25.95,2.53,2.02,5,3.19,7.39,7.32-3.2,16.37-7.17,26.44-11.6-.41-1.61-.69-3.29-.81-5.04Z"/>
      <path class="cls-5" d="m44.02,104.18c-9.7,4.74-18.42,9.01-25.51,12.45.48.88.97,1.74,1.48,2.59,6.88-3.69,15.32-8.24,24.7-13.31-.24-.57-.47-1.15-.67-1.74Z"/>
      <path class="cls-5" d="m43.41,102.16c-10.05,4.42-19.09,8.38-26.4,11.58.45.92.93,1.83,1.41,2.73,7.09-3.45,15.83-7.72,25.54-12.47-.2-.6-.39-1.21-.55-1.84Z"/>
      <path class="cls-5" d="m43.17,80.07c-13.68-.46-25.86-.87-35.13-1.2.28,4.98.95,9.93,2,14.76,8.74-1.31,19.93-3.01,32.44-4.92.12-2.88.36-5.78.7-8.63Z"/>
      <path class="cls-5" d="m83,37.22c-2.15-14.09-4.06-26.68-5.5-36.27-3.69.49-8.02,1.22-12.67,2.33,2.91,9.1,6.77,21.14,11.12,34.65,2.18-.33,4.52-.58,7.05-.72Z"/>
      <path class="cls-5" d="m71.03,38.85c-5.72-13.02-10.79-24.57-14.57-33.23-1.01.33-2.03.67-3.05,1.03,4.11,8.45,9.65,19.79,15.92,32.6.55-.14,1.12-.27,1.71-.4Z"/>
      <path class="cls-5" d="m75.76,37.97c-4.35-13.5-8.21-25.54-11.12-34.64-2.59.62-5.28,1.36-8.01,2.23,3.78,8.66,8.86,20.22,14.58,33.25,1.41-.31,2.93-.59,4.54-.84Z"/>
      <path class="cls-5" d="m96.48,37.63c2.15-13.92,4.08-26.41,5.59-36.01-3.55-.77-6.74-1.26-9.4-1.49-.35,9.79-.79,22.68-1.27,37.08,1.64.08,3.33.22,5.08.41Z"/>
      <path class="cls-5" d="m91.21,37.21c.48-14.4.92-27.29,1.27-37.08C91.39.04,90.39,0,89.5,0c0,0-4.7,0-11.81.93,1.44,9.58,3.36,22.19,5.51,36.28,2.51-.13,5.19-.14,8.02,0Z"/>
      <path class="cls-5" d="m69.13,39.3c-6.26-12.79-11.8-24.13-15.9-32.58-.98.35-1.96.72-2.95,1.11,4.42,8.24,10.4,19.35,17.18,31.91.53-.15,1.09-.3,1.66-.45Z"/>
      <path class="cls-5" d="m46.92,59.56c-13.41-6.88-25.12-12.9-33.41-17.19-.96,2.57-1.8,5.16-2.52,7.76l2.45,1.48c8.54,3.35,19.77,7.73,32.39,12.64.37-1.69.73-3.26,1.08-4.69Z"/>
      <path class="cls-5" d="m49.05,51.58c-11.74-8.63-21.91-16.12-29.06-21.42-2.55,3.56-4.73,7.54-6.41,12,0,.01,0,.02-.01.03,8.28,4.28,19.98,10.3,33.39,17.18.92-3.75,1.71-6.52,2.09-7.78Z"/>
      <path class="cls-5" d="m49.29,50.81s-20.35-10.86-12.89-20.13c1.12-1.4,2.4-2.08,3.76-2.24-3.43-3.68-6.49-6.96-9.11-9.78-4.06,3.2-7.79,6.95-10.95,11.34,7.14,5.28,17.29,12.77,29.01,21.38.11-.37.18-.58.18-.58Z"/>
      <path class="cls-5" d="m67.27,39.8c-6.78-12.55-12.76-23.66-17.17-31.9-3.48,1.39-6.96,3.01-10.34,4.93,5.38,7.39,12.81,17.55,21.29,29.13,1.52-.64,3.61-1.41,6.22-2.16Z"/>
      <path class="cls-5" d="m58.11,43.35s.96-.54,2.76-1.31c-8.47-11.57-15.9-21.72-21.27-29.11-2.9,1.65-5.71,3.51-8.39,5.61,2.64,2.84,5.73,6.16,9.19,9.87,7.64-.57,17.71,14.93,17.71,14.93Z"/>
      <path class="cls-5" d="m129.99,59.78c12.32-6.68,23.33-12.64,31.71-17.19-1.41-3.2-3-6.09-4.75-8.56-.28-.39-.58-.77-.87-1.15-7.37,5.37-16.98,12.4-27.77,20.3.5,1.8,1.08,4.04,1.67,6.59Z"/>
      <path class="cls-5" d="m73.93,122.16h0c-1.71.26-3.43.47-5.16.63h0c1.73-.16,3.45-.37,5.16-.63Z"/>
      <path class="cls-5" d="m116.98,6l-6.05,20.87c2.95-7.57,5.62-14.41,7.88-20.17-.61-.24-1.22-.48-1.83-.7Z"/>
      <path class="cls-5" d="m88.57,118.68h0c-1.5.49-3.01.94-4.53,1.36h0c1.52-.41,3.03-.87,4.53-1.36Z"/>
      <path class="cls-5" d="m75.94,121.83s0,0,0,0c-.59.1-1.19.21-1.79.3h0c.6-.09,1.19-.2,1.79-.3Z"/>
      <path class="cls-5" d="m118.47,101.98c-.06.05-.13.11-.19.16h0c.06-.05.13-.11.19-.16Z"/>
      <path class="cls-5" d="m103.41,112.31h0c-.97.53-1.95,1.03-2.95,1.52h0c.99-.49,1.98-.99,2.95-1.52Z"/>
      <path class="cls-5" d="m83.84,120.09h0c-1.92.51-3.85.96-5.8,1.35,0,0,0,0,0,0,1.95-.39,3.89-.83,5.8-1.35Z"/>
      <path class="cls-5" d="m77.82,121.48h0c-.55.11-1.11.21-1.67.31,0,0,0,0,0,0,.56-.1,1.11-.2,1.67-.31Z"/>
      <path class="cls-5" d="m68.55,122.8c-1.48.13-2.96.23-4.45.28,1.49-.06,2.97-.15,4.45-.28h0Z"/>
      <path class="cls-5" d="m100.29,113.92h0c-1.63.8-3.28,1.55-4.96,2.25h0c1.68-.7,3.33-1.45,4.96-2.25Z"/>
      <path class="cls-5" d="m10.09,53.78c-.02.07-.03.14-.04.21,1.11.38,2.27.78,3.48,1.2l-3.43-1.41Z"/>
      <path class="cls-5" d="m109.69,108.56h0c-1.23.8-2.48,1.59-3.75,2.33h0c1.27-.74,2.52-1.52,3.75-2.33Z"/>
      <path class="cls-5" d="m105.78,110.98h0c-.33.19-.66.37-1,.56,0,0,0,0,0,0,.33-.19.67-.37,1-.56Z"/>
      <path class="cls-5" d="m95.14,116.25h0c-2.09.87-4.21,1.66-6.37,2.37h0c2.16-.71,4.28-1.5,6.37-2.37Z"/>
      <path class="cls-5" d="m113.03,106.26h0c-1.04.75-2.1,1.49-3.18,2.2h0c1.08-.71,2.13-1.44,3.18-2.2Z"/>
      <path class="cls-5" d="m104.61,111.64s0,0,0,0c-.34.19-.69.39-1.03.58h0c.35-.19.69-.39,1.03-.58Z"/>
      <path class="cls-5" d="m114.47,105.2c-.42.32-.85.63-1.28.94h0c.43-.31.86-.62,1.28-.94Z"/>
      <path class="cls-5" d="m118.12,102.27c-1.19,1.01-2.4,1.99-3.65,2.93,1.25-.94,2.46-1.92,3.65-2.93h0Z"/>
      <path class="cls-5" d="m74.41,126.3c-.59-.11-1.16-.24-1.73-.37-3.29,8.49-6.33,16.33-8.96,23.15.92.2,1.84.4,2.73.59,2.35-6.91,5.05-14.82,7.97-23.37Z"/>
      <path class="cls-5" d="m76.48,126.67c-2.56,8.63-4.94,16.63-7.01,23.61,3.33.65,6.49,1.18,9.52,1.61,1.11-7.26,2.37-15.55,3.73-24.48-2.14-.16-4.22-.41-6.24-.74Z"/>
      <path class="cls-5" d="m76.29,126.64c-.57-.09-1.13-.19-1.68-.3-2.92,8.55-5.62,16.47-7.97,23.37.89.19,1.77.37,2.64.54,2.08-6.99,4.45-14.99,7.01-23.61Z"/>
      <path class="cls-5" d="m82.92,127.42c-1.36,8.94-2.63,17.23-3.74,24.49,2.88.4,5.64.69,8.31.88.24-7.45.51-15.98.8-25.17-1.82-.01-3.62-.07-5.37-.2Z"/>
      <path class="cls-5" d="m88.48,127.62c-.29,9.2-.56,17.74-.8,25.18,4.59.32,8.91.32,13.1.02-1.16-7.53-2.5-16.2-3.95-25.58-2.85.26-5.63.39-8.35.38Z"/>
      <path class="cls-5" d="m104.29,126.28c-2.45.41-4.88.73-7.26.95,1.45,9.38,2.79,18.06,3.95,25.58,3.86-.29,7.61-.84,11.36-1.67-2.36-7.27-5.09-15.72-8.05-24.86Z"/>
      <path class="cls-5" d="m72.49,125.89c-1.6-.36-3.16-.78-4.66-1.26-4.28,8.38-8.22,16.08-11.6,22.7,2.52.62,4.95,1.19,7.29,1.71,2.64-6.82,5.68-14.67,8.96-23.15Z"/>
      <path class="cls-5" d="m60.24,121.56c-2.87-1.46-5.46-3.17-7.71-5.11-7.43,6.97-14.16,13.29-19.72,18.51,3.02,2.7,6.29,5.08,9.8,7.06.63.35,1.27.68,1.91,1.01,4.5-6.15,9.85-13.45,15.72-21.46Z"/>
      <path class="cls-5" d="m67.64,124.57c-1.39-.44-2.75-.92-4.06-1.46,0,0,0,0,0,0-1.1-.45-2.15-.95-3.17-1.47-5.87,8.01-11.22,15.32-15.72,21.46,3.42,1.73,7.04,3.12,10.87,4.07.16.04.32.08.48.12,3.39-6.63,7.32-14.34,11.6-22.72Z"/>
      <path class="cls-5" d="m113.05,124.41c-.15.04-.29.09-.44.12-.44.11-.87.2-1.3.31,4.24,8.63,8.13,16.55,11.47,23.33.87-.3,1.75-.62,2.64-.94-3.59-6.63-7.79-14.38-12.37-22.82Z"/>
      <path class="cls-5" d="m109.16,125.35c-1.57.34-3.13.63-4.68.9,2.96,9.15,5.69,17.59,8.05,24.85,2.38-.53,4.76-1.17,7.17-1.91-3.07-6.95-6.65-15.04-10.53-23.84Z"/>
      <path class="cls-5" d="m111.12,124.89c-.59.14-1.18.29-1.76.42,3.89,8.8,7.46,16.89,10.52,23.82.9-.28,1.81-.58,2.72-.89-3.34-6.79-7.24-14.72-11.48-23.35Z"/>
      <path class="cls-3" d="m43.95,74.34c-14.1-2.18-26.61-4.11-35.94-5.58,0,.06,0,.13,0,.19,9.33,1.47,21.83,3.4,35.92,5.58,0-.06.02-.13.03-.19Z"/>
      <path class="cls-3" d="m133.63,88.28c13.32,2.03,25.33,3.87,34.78,5.31,0-.06.01-.13.02-.19-9.43-1.44-21.46-3.27-34.8-5.31,0,.06,0,.13,0,.19Z"/>
      <path class="cls-3" d="m61.05,41.96c-8.48-11.58-15.91-21.74-21.29-29.13-.06.03-.11.06-.17.1,5.37,7.38,12.8,17.54,21.27,29.11.06-.03.12-.05.18-.08Z"/>
      <path class="cls-3" d="m119.59,121.7c-.06.03-.11.06-.17.1,5.87,7.99,11.23,15.27,15.74,21.4.06-.03.12-.06.18-.08-4.51-6.13-9.87-13.42-15.75-21.42Z"/>
      <path class="cls-3" d="m109.86,108.45h0c-.05.04-.11.07-.16.11h0c.05-.04.11-.07.16-.11Z"/>
      <path class="cls-3" d="m96.68,37.66c2.15-13.92,4.08-26.4,5.58-35.99-.06-.01-.12-.03-.19-.04-1.5,9.59-3.44,22.08-5.59,36.01.06,0,.13.02.19.02Z"/>
      <path class="cls-3" d="m84.05,120.04h0c-.07.02-.14.03-.2.05h0c.07-.02.14-.03.2-.05Z"/>
      <path class="cls-3" d="m82.72,127.41c-1.36,8.93-2.63,17.22-3.73,24.48.06,0,.13.02.19.03,1.11-7.26,2.37-15.55,3.74-24.49-.06,0-.13,0-.19-.01Z"/>
      <path class="cls-3" d="m48.14,111.81c-8.31,6.11-15.83,11.64-22,16.18.04.05.08.1.12.15,6.17-4.54,13.67-10.06,22-16.17-.04-.05-.08-.1-.12-.15Z"/>
      <path class="cls-3" d="m128.31,53.19c10.79-7.91,20.4-14.94,27.77-20.3-.04-.05-.08-.1-.11-.15-7.35,5.36-16.95,12.37-27.71,20.26.02.06.04.13.05.2Z"/>
      <path class="cls-3" d="m43.19,79.88c-13.7-.46-25.89-.87-35.17-1.2,0,.06,0,.13,0,.19,9.27.33,21.45.75,35.13,1.2,0-.06.02-.13.02-.19Z"/>
      <path class="cls-3" d="m133.48,83c13.59.43,25.87.82,35.54,1.12,0-.06,0-.13,0-.19-9.65-.3-21.94-.69-35.56-1.13,0,.06,0,.13.01.19Z"/>
      <path class="cls-3" d="m40.4,28.42c-3.46-3.71-6.56-7.03-9.19-9.87-.05.04-.1.08-.15.12,2.62,2.82,5.68,6.1,9.11,9.78.08,0,.16-.02.24-.03Z"/>
      <path class="cls-3" d="m124.2,118.15c7.42,7.91,14.14,15.06,19.62,20.91.06-.03.12-.06.18-.09-5.49-5.84-12.21-13.01-19.66-20.95-.05.05-.09.09-.14.13Z"/>
      <path class="cls-3" d="m113.19,106.14h0c-.05.04-.1.08-.16.12h0c.05-.04.1-.08.16-.12Z"/>
      <path class="cls-3" d="m91.41,37.22c.48-14.4.92-27.29,1.27-37.08-.06,0-.13,0-.19-.01-.35,9.79-.79,22.68-1.27,37.08.06,0,.13,0,.19.01Z"/>
      <path class="cls-3" d="m88.77,118.62h0c-.06.02-.13.04-.19.06h0c.06-.02.13-.04.19-.06Z"/>
      <path class="cls-3" d="m88.29,127.62c-.29,9.19-.56,17.72-.8,25.17.06,0,.13,0,.19.01.24-7.45.51-15.98.8-25.18-.06,0-.13,0-.19,0Z"/>
      <path class="cls-3" d="m140.82,33.73c3.19-2.97,6.13-5.72,8.76-8.16-.05-.04-.09-.09-.14-.13-2.57,2.39-5.42,5.05-8.52,7.94-.03.12-.06.24-.1.36Z"/>
      <path class="cls-3" d="m52.38,116.31c-7.42,6.97-14.15,13.28-19.72,18.51.05.04.1.08.15.13,5.56-5.22,12.29-11.54,19.72-18.51-.05-.04-.1-.08-.15-.13Z"/>
      <path class="cls-3" d="m42.47,88.7c-12.51,1.91-23.7,3.61-32.44,4.92.01.06.02.13.04.19,8.74-1.31,19.91-3.01,32.39-4.91,0-.07,0-.13,0-.2Z"/>
      <path class="cls-3" d="m132.74,75.03c13.66-2.11,26-4.01,35.66-5.51,0-.06-.01-.13-.02-.19-9.64,1.49-21.98,3.4-35.67,5.51,0,.06.02.13.02.19Z"/>
      <path class="cls-3" d="m129.47,110.59c9.95,7.29,18.84,13.8,25.83,18.92.04-.05.08-.1.12-.15-6.98-5.11-15.9-11.64-25.87-18.95-.03.06-.05.12-.08.18Z"/>
      <path class="cls-3" d="m49.11,51.39c-11.71-8.61-21.87-16.1-29.01-21.38-.04.05-.07.1-.11.16,7.15,5.3,17.32,12.79,29.06,21.42.02-.07.04-.14.06-.2Z"/>
      <path class="cls-3" d="m118.28,102.14h0c-.05.04-.1.08-.15.13h0c.05-.04.1-.08.15-.13Z"/>
      <path class="cls-3" d="m95.32,116.17h0c-.06.03-.12.05-.18.08h0c.06-.03.12-.05.18-.08Z"/>
      <path class="cls-3" d="m83.2,37.21c-2.15-14.09-4.07-26.7-5.51-36.28-.06,0-.13.02-.19.02,1.44,9.59,3.35,22.18,5.5,36.27.06,0,.13,0,.19-.01Z"/>
      <path class="cls-3" d="m96.83,127.25c1.45,9.37,2.79,18.05,3.95,25.58.06,0,.13-.01.19-.02-1.16-7.52-2.5-16.2-3.95-25.58-.06,0-.13.01-.19.02Z"/>
      <path class="cls-3" d="m60.41,121.64c-.06-.03-.12-.06-.17-.09-5.87,8.01-11.21,15.31-15.72,21.46.06.03.12.06.17.09,4.5-6.14,9.85-13.45,15.72-21.46Z"/>
      <path class="cls-3" d="m131.31,25.06c2.33-3.17,4.5-6.1,6.47-8.77-.05-.03-.11-.07-.16-.1-2.01,2.72-4.22,5.71-6.61,8.96.1-.03.2-.06.3-.09Z"/>
      <path class="cls-3" d="m131.7,68.15c13.34-4.32,25.34-8.2,34.63-11.21-.01-.06-.03-.13-.04-.19-9.27,3-21.27,6.89-34.63,11.21.01.06.02.13.03.19Z"/>
      <path class="cls-3" d="m42.53,96.74c-11.04,3.55-20.95,6.74-28.86,9.26.02.06.05.12.07.18,7.91-2.52,17.79-5.7,28.81-9.25,0-.07-.01-.13-.02-.2Z"/>
      <path class="cls-3" d="m132.06,103.13c11.55,5.9,21.89,11.18,29.96,15.3.03-.06.05-.12.08-.18-8.05-4.11-18.41-9.4-29.99-15.32-.02.06-.03.13-.05.19Z"/>
      <path class="cls-3" d="m46.97,59.37c-13.41-6.88-25.12-12.9-33.39-17.18-.02.06-.04.12-.06.18,8.29,4.29,20,10.31,33.41,17.19.02-.07.03-.13.05-.19Z"/>
      <path class="cls-3" d="m100.46,113.83h0c-.06.03-.12.06-.18.09h0c.06-.03.12-.06.18-.09Z"/>
      <path class="cls-3" d="m75.95,37.94c-4.35-13.51-8.22-25.55-11.12-34.65-.06.01-.12.03-.19.04,2.9,9.1,6.77,21.14,11.12,34.64.06,0,.13-.02.19-.03Z"/>
      <path class="cls-3" d="m104.48,126.25c-.06.01-.13.02-.19.03,2.96,9.15,5.69,17.59,8.05,24.86.06-.01.13-.03.19-.04-2.35-7.26-5.08-15.7-8.05-24.85Z"/>
      <path class="cls-3" d="m68.77,122.79h0c-.08,0-.15.01-.23.02h0c.08,0,.15-.01.23-.02Z"/>
      <path class="cls-3" d="m110.9,40.46c6-11.71,11.4-22.21,15.64-30.42-.06-.03-.11-.05-.17-.08-4.24,8.22-9.65,18.74-15.65,30.46.06.02.13.03.19.05Z"/>
      <path class="cls-3" d="m67.83,124.63c-.06-.02-.12-.04-.19-.06-4.28,8.37-8.22,16.09-11.6,22.72.07.02.13.03.19.05,3.38-6.62,7.32-14.33,11.6-22.7Z"/>
      <path class="cls-3" d="m130.03,59.98c12.32-6.67,23.33-12.64,31.75-17.21-.03-.06-.05-.12-.08-.18-8.39,4.55-19.39,10.51-31.71,17.19.01.06.03.13.05.2Z"/>
      <path class="cls-3" d="m44.69,105.92c-9.38,5.06-17.83,9.61-24.7,13.31.03.05.07.11.1.16,6.87-3.69,15.31-8.24,24.68-13.29-.03-.06-.05-.12-.08-.18Z"/>
      <path class="cls-3" d="m45.07,68.01c-14.14-4.23-26.61-7.96-35.71-10.71-.01.06-.02.13-.04.19,9.1,2.75,21.56,6.49,35.71,10.71.01-.06.02-.13.04-.19Z"/>
      <path class="cls-3" d="m133.4,94.52c12.76,3.79,24.24,7.2,33.23,9.87.01-.06.03-.13.04-.19-8.98-2.67-20.47-6.08-33.26-9.88,0,.07,0,.13-.01.2Z"/>
      <path class="cls-3" d="m67.46,39.75c-6.78-12.57-12.77-23.67-17.18-31.91-.06.02-.12.05-.18.07,4.42,8.24,10.4,19.34,17.17,31.9.06-.02.12-.04.19-.06Z"/>
      <path class="cls-3" d="m105.95,110.89h0c-.06.03-.11.06-.17.1h0c.06-.03.11-.06.17-.1Z"/>
      <path class="cls-3" d="m113.24,124.36c-.06.02-.13.04-.19.05,4.57,8.44,8.77,16.19,12.37,22.82.06-.02.12-.05.18-.07-3.58-6.61-7.78-14.36-12.36-22.8Z"/>
      <path class="cls-3" d="m78.04,121.44s0,0,0,0c-.07.01-.14.03-.22.04h0c.07-.01.14-.03.22-.04Z"/>
      <path class="cls-3" d="m102.72,38.57c3.91-13.09,7.43-24.85,10.18-33.97-.06-.02-.12-.04-.18-.06-2.75,9.14-6.28,20.9-10.19,34,.06.01.13.03.19.04Z"/>
      <path class="cls-3" d="m76.48,126.67c-.06-.01-.13-.02-.19-.03-2.56,8.62-4.94,16.62-7.01,23.61.06.01.13.03.19.04,2.07-6.98,4.45-14.98,7.01-23.61Z"/>
      <path class="cls-3" d="m130.83,63.62c12.87-5.68,24.41-10.78,33.28-14.7-.02-.06-.04-.12-.06-.18-8.84,3.91-20.38,9.01-33.26,14.69.01.07.03.13.04.19Z"/>
      <path class="cls-3" d="m43.36,101.97c-10.07,4.43-19.12,8.4-26.44,11.6.03.06.06.12.08.17,7.31-3.2,16.35-7.16,26.4-11.58-.02-.06-.03-.13-.05-.19Z"/>
      <path class="cls-3" d="m132.98,98.28c12.3,4.77,23.35,9.04,31.98,12.38.02-.06.04-.12.06-.19-8.62-3.33-19.67-7.62-32.01-12.39,0,.07-.02.13-.03.2Z"/>
      <path class="cls-3" d="m45.84,64.26c-12.62-4.91-23.85-9.29-32.39-12.64l.97.59c8.42,3.3,19.26,7.53,31.38,12.25.01-.06.03-.13.04-.19Z"/>
      <path class="cls-3" d="m71.22,38.81c-5.73-13.02-10.8-24.59-14.58-33.25-.06.02-.12.04-.18.06,3.78,8.66,8.85,20.21,14.57,33.23.06-.01.13-.03.19-.04Z"/>
      <path class="cls-3" d="m103.58,112.22h0c-.06.03-.12.06-.17.09h0c.06-.03.12-.06.17-.09Z"/>
      <path class="cls-3" d="m109.36,125.31c-.06.01-.13.03-.19.05,3.88,8.79,7.46,16.89,10.53,23.84.06-.02.12-.04.18-.06-3.06-6.93-6.64-15.03-10.52-23.82Z"/>
      <path class="cls-3" d="m106.29,39.31c4.87-12.52,9.26-23.77,12.69-32.53-.06-.02-.12-.05-.18-.07-2.26,5.77-4.93,12.6-7.88,20.17v.02s0,0,0,0c-1.54,3.94-3.15,8.09-4.82,12.38.06.01.13.03.19.04Z"/>
      <path class="cls-3" d="m74.15,122.13h0c-.07.01-.15.02-.22.03h0c.07-.01.15-.02.22-.03Z"/>
      <path class="cls-3" d="m72.68,125.93c-.06-.01-.13-.03-.19-.04-3.28,8.48-6.32,16.33-8.96,23.15.06.01.13.03.19.04,2.64-6.82,5.68-14.66,8.96-23.15Z"/>
      <path class="cls-3" d="m43.96,104c-9.71,4.75-18.45,9.02-25.54,12.47.03.06.06.11.09.17,7.09-3.45,15.81-7.71,25.51-12.45-.02-.06-.04-.12-.06-.18Z"/>
      <path class="cls-3" d="m130.44,61.79c12.62-6.2,23.91-11.75,32.56-16.01-.02-.06-.05-.12-.07-.18-8.63,4.24-19.92,9.79-32.54,15.99.01.07.03.13.04.2Z"/>
      <path class="cls-3" d="m13.52,55.19c-1.21-.42-2.37-.82-3.48-1.2-.01.06-.02.13-.04.19,2.02.7,4.2,1.45,6.54,2.26l-3.02-1.25Z"/>
      <path class="cls-3" d="m45.44,66.16c-6.52-2.23-12.67-4.35-18.29-6.28l.78.47c5.4,1.86,11.27,3.87,17.47,6,.01-.06.03-.13.04-.19Z"/>
      <path class="cls-3" d="m133.22,96.37c12.55,4.28,23.83,8.12,32.65,11.13.02-.06.03-.12.05-.19-8.81-3-20.1-6.85-32.68-11.14,0,.07-.02.13-.02.2Z"/>
      <path class="cls-3" d="m69.32,39.26c-6.27-12.8-11.81-24.14-15.92-32.6-.06.02-.12.04-.18.06,4.11,8.45,9.64,19.79,15.9,32.58.06-.02.13-.03.19-.05Z"/>
      <path class="cls-3" d="m104.78,111.55s0,0,0,0c-.06.03-.11.06-.17.1,0,0,0,0,0,0,.06-.03.11-.06.17-.1Z"/>
      <path class="cls-3" d="m111.31,124.84c-.06.02-.13.03-.19.05,4.24,8.62,8.14,16.56,11.48,23.35.06-.02.12-.04.18-.06-3.33-6.78-7.23-14.7-11.47-23.33Z"/>
      <path class="cls-3" d="m104.48,38.91c2.84-8.29,5.5-16.03,7.86-22.89l.12-.95c-2.44,7.08-5.21,15.15-8.17,23.8.06.01.13.02.19.04Z"/>
      <path class="cls-3" d="m76.16,121.79s0,0,0,0c-.07.01-.14.02-.22.04,0,0,0,0,0,0,.07-.01.14-.02.22-.04Z"/>
      <path class="cls-3" d="m74.61,126.34c-.06-.01-.13-.02-.19-.03-2.91,8.55-5.61,16.46-7.97,23.37.06.01.13.03.19.04,2.35-6.9,5.05-14.82,7.97-23.37Z"/>
      <path class="cls-4" d="m63.59,123.11s0,0,0,0h0c.17,0,.34-.02.51-.02,1.49-.06,2.97-.15,4.45-.28.08,0,.15-.01.23-.02,1.73-.16,3.45-.37,5.16-.63.07-.01.15-.02.22-.03.6-.09,1.19-.2,1.79-.3.07-.01.14-.02.22-.04.56-.1,1.11-.2,1.67-.31.07-.01.14-.03.22-.04,1.95-.39,3.89-.83,5.8-1.35.07-.02.14-.03.2-.05,1.52-.41,3.03-.87,4.53-1.36.06-.02.13-.04.19-.06,2.16-.71,4.28-1.5,6.37-2.37.06-.03.12-.05.18-.08,1.68-.7,3.33-1.45,4.96-2.25.06-.03.12-.06.18-.09.99-.49,1.98-.99,2.95-1.52.06-.03.12-.06.17-.09.35-.19.69-.39,1.03-.58.06-.03.11-.06.17-.1.33-.19.67-.37,1-.56.06-.03.11-.06.17-.1,1.27-.74,2.52-1.52,3.75-2.33.05-.04.11-.07.16-.11,1.08-.71,2.13-1.44,3.18-2.2.05-.04.1-.08.16-.12.43-.31.86-.62,1.28-.94,1.25-.94,2.46-1.92,3.65-2.93.05-.04.1-.08.15-.13.06-.05.13-.11.19-.16.65-.56,1.29-1.12,1.92-1.7,5.04-4.6,9.49-9.81,13.18-15.56h0s0,0,0,0c-.02-.58-.05-1.16-.08-1.73,0-.06,0-.13-.01-.19-.15-2.63-.41-5.24-.72-7.77,0-.06-.02-.13-.02-.19-.29-2.31-.64-4.55-1.02-6.7-.01-.06-.02-.13-.03-.19-.27-1.5-.55-2.95-.83-4.33-.01-.07-.03-.13-.04-.19-.12-.56-.23-1.1-.35-1.64-.01-.07-.03-.13-.04-.2-.12-.55-.24-1.09-.36-1.62-.02-.06-.03-.13-.05-.2-.59-2.56-1.18-4.79-1.67-6.59-.02-.07-.04-.13-.05-.2-.82-2.94-1.4-4.67-1.4-4.67,0,0,11.63-7.56,13.96-14.59.04-.12.07-.24.1-.36.76-2.64.15-5.19-2.97-7.21-2.35-1.52-4.57-1.72-6.63-1.1-.1.03-.2.06-.3.09-7.88,2.71-13.19,17.52-13.19,17.52-2.36-.85-4.67-1.57-6.92-2.2-.06-.02-.13-.03-.19-.05-1.5-.42-2.97-.78-4.42-1.11-.06-.01-.13-.03-.19-.04-.54-.12-1.08-.24-1.62-.35-.06-.01-.13-.02-.19-.04-.53-.11-1.05-.21-1.57-.3-.06-.01-.13-.03-.19-.04-2.01-.37-3.96-.66-5.85-.87-.06,0-.13-.02-.19-.02-1.74-.2-3.43-.33-5.08-.41-.06,0-.13,0-.19-.01-2.83-.14-5.51-.13-8.02,0-.07,0-.13,0-.19.01-2.52.14-4.87.39-7.05.72-.07,0-.13.02-.19.03-1.61.25-3.13.53-4.54.84-.06.01-.13.03-.19.04-.59.13-1.16.27-1.71.4-.06.02-.13.03-.19.05-.58.15-1.13.3-1.66.45-.07.02-.12.04-.19.06-2.61.75-4.7,1.52-6.22,2.16-.06.03-.12.05-.18.08-1.8.76-2.76,1.31-2.76,1.31,0,0-10.07-15.5-17.71-14.93-.08,0-.16.02-.24.03-1.36.16-2.64.84-3.76,2.24-7.46,9.27,12.89,20.13,12.89,20.13,0,0-.06.21-.18.58-.02.06-.04.13-.06.2-.38,1.27-1.17,4.04-2.09,7.78-.02.06-.03.13-.05.19-.35,1.44-.71,3.01-1.08,4.69-.01.06-.03.13-.04.19-.12.56-.24,1.13-.36,1.72-.01.06-.03.13-.04.19-.11.54-.22,1.09-.33,1.65-.01.06-.02.13-.04.19-.38,1.96-.75,4.01-1.08,6.14,0,.06-.02.13-.03.19-.27,1.75-.52,3.54-.73,5.36,0,.06-.02.13-.02.19-.33,2.85-.58,5.75-.7,8.63,0,.07,0,.13,0,.2-.1,2.57-.1,5.11.04,7.59,0,.08.02.16.02.25,0,.07.01.13.02.2.12,1.74.4,3.42.81,5.04.02.06.03.13.05.19.16.62.35,1.23.55,1.84.02.06.04.12.06.18.21.59.43,1.17.67,1.74.03.06.05.12.08.18.89,2.03,2.02,3.94,3.37,5.71.04.05.08.1.12.15,1.21,1.56,2.59,3.01,4.12,4.35.05.04.1.08.15.13,2.25,1.94,4.84,3.65,7.71,5.11.06.03.12.06.17.09,1.03.52,2.08,1.01,3.17,1.47Zm49.24-39.8c0,2.05-1.05,3.71-2.35,3.71s-2.35-1.66-2.35-3.71,1.05-3.71,2.35-3.71,2.35,1.66,2.35,3.71Zm23.82-51.06c1.44,5-12.67,14.25-12.67,14.25l-4.3-3.17c5.65-9.27,15.31-16.82,16.96-11.08Zm-97.99,2.05c1.65-5.74,11.31,1.81,16.96,11.08l-4.3,3.17s-14.11-9.24-12.67-14.25Zm28.08,48.96c0-2.08,1.07-3.77,2.39-3.77,1.32,0,2.39,1.69,2.39,3.77s-1.07,3.77-2.39,3.77-2.39-1.69-2.39-3.77Zm.28,9.6c-.08.07-.19.11-.29.11-.12,0-.23-.05-.32-.14-.16-.18-.15-.45.03-.61.28-.25,7.08-6.22,23.05-6.22s21.52,6,21.74,6.25c.16.18.14.45-.04.61s-.45.14-.61-.03c-.05-.06-5.53-5.96-21.1-5.96s-22.41,5.94-22.48,6Zm16.67-2.95c4.33-2.46,10.35-1.02,12.21,0,1.81.99-2.27,5.74-5.98,6.39v5.46c2.68-.27,4.11-4.56,4.12-4.61.07-.23.32-.35.54-.28.23.07.35.32.28.54-.07.22-1.71,5.23-5.21,5.23-.09,0-.18,0-.28-.01-3.64-.27-5.27-5.01-5.34-5.21-.08-.23.05-.47.27-.55.22-.08.47.05.55.27.01.04,1.4,4.02,4.2,4.57v-5.57c-2.3-.99-8.99-4.17-5.37-6.23Z"/>
      <path class="cls-2" d="m120.39,100.29c-.63.58-1.27,1.14-1.92,1.7-.06.05-.13.11-.19.16-.05.04-.1.08-.15.13-1.19,1.01-2.4,1.99-3.65,2.93-.42.32-.85.63-1.28.94-.05.04-.1.08-.16.12-1.04.75-2.1,1.49-3.18,2.2-.05.04-.11.07-.16.11-1.23.8-2.48,1.59-3.75,2.33-.06.03-.11.06-.17.1-.33.19-.66.37-1,.56-.06.03-.11.06-.17.1-.34.19-.69.39-1.03.58-.06.03-.12.06-.17.09-.97.53-1.95,1.03-2.95,1.52-.06.03-.12.06-.18.09-1.63.8-3.28,1.55-4.96,2.25-.06.03-.12.05-.18.08-2.09.87-4.21,1.66-6.37,2.37-.06.02-.13.04-.19.06-1.5.49-3.01.94-4.53,1.36-.07.02-.14.03-.2.05-1.92.51-3.85.96-5.8,1.35-.07.01-.14.03-.22.04-.55.11-1.11.21-1.67.31-.07.01-.14.02-.22.04-.59.1-1.19.21-1.79.3-.07.01-.15.02-.22.03-1.71.26-3.43.47-5.16.63-.08,0-.15.01-.23.02-1.48.13-2.96.23-4.45.28-.17,0-.34.02-.51.02h0c1.3.54,2.66,1.02,4.06,1.46.06.02.12.04.19.06,1.5.47,3.06.89,4.66,1.26.06.01.13.03.19.04.57.13,1.15.26,1.73.37.06.01.13.02.19.03.56.11,1.12.21,1.68.3.06.01.13.02.19.03,2.02.33,4.1.58,6.24.74.06,0,.13,0,.19.01,1.75.13,3.55.19,5.37.2.06,0,.13,0,.19,0,2.72,0,5.51-.12,8.35-.38.06,0,.13-.01.19-.02,2.38-.22,4.8-.54,7.26-.95.06-.01.13-.02.19-.03,1.55-.26,3.11-.55,4.68-.9.06-.01.13-.03.19-.05.59-.13,1.18-.28,1.76-.42.06-.02.13-.03.19-.05.43-.1.87-.2,1.3-.31.15-.04.29-.08.44-.12.06-.02.13-.04.19-.05,2.29-.63,4.35-1.5,6.18-2.56.06-.03.11-.06.17-.1,1.72-1.02,3.25-2.21,4.6-3.55.05-.05.09-.09.14-.13,2.13-2.14,3.82-4.65,5.14-7.43.03-.06.05-.12.08-.18,1.06-2.27,1.89-4.72,2.5-7.28.02-.06.03-.13.05-.19.36-1.52.65-3.08.87-4.66,0-.07.02-.13.03-.2.08-.57.15-1.14.21-1.71,0-.07.02-.13.02-.2.06-.55.11-1.1.15-1.65,0-.07,0-.13.01-.2.16-1.99.22-4.01.22-6.04,0-.07,0-.13,0-.19,0-1.12-.03-2.24-.07-3.36h0c-3.69,5.74-8.13,10.95-13.18,15.56Z"/>
      <path class="cls-6" d="m55.62,45.38c-5.66-9.27-15.31-16.82-16.96-11.08-1.44,5,12.67,14.25,12.67,14.25l4.3-3.17Z"/>
      <path class="cls-6" d="m119.69,43.33l4.3,3.17s14.11-9.24,12.67-14.25c-1.65-5.73-11.31,1.81-16.96,11.08Z"/>
      <path d="m89.07,96.13v5.57c-2.8-.55-4.19-4.52-4.2-4.57-.08-.23-.32-.35-.55-.27-.23.08-.35.32-.27.55.07.2,1.7,4.94,5.34,5.21.09,0,.19.01.28.01,3.5,0,5.14-5.01,5.21-5.23.07-.23-.05-.47-.28-.54-.23-.07-.47.05-.54.28-.01.05-1.45,4.34-4.12,4.61v-5.46c3.71-.65,7.79-5.41,5.98-6.39-1.87-1.02-7.89-2.46-12.21,0-3.61,2.06,3.08,5.24,5.37,6.23Z"/>
      <path d="m89.5,86.86c15.57,0,21.05,5.9,21.1,5.96.16.18.43.19.61.03s.19-.43.04-.61c-.23-.26-5.74-6.25-21.74-6.25s-22.77,5.96-23.05,6.22c-.18.16-.19.43-.03.61.09.09.2.14.32.14.1,0,.21-.04.29-.11.07-.06,6.83-6,22.48-6Z"/>
      <path d="m110.47,79.6c-1.3,0-2.35,1.66-2.35,3.71s1.05,3.71,2.35,3.71,2.35-1.66,2.35-3.71-1.05-3.71-2.35-3.71Z"/>
      <path d="m69.13,87.02c1.32,0,2.39-1.69,2.39-3.77s-1.07-3.77-2.39-3.77c-1.32,0-2.39,1.69-2.39,3.77s1.07,3.77,2.39,3.77Z"/>
      <path class="cls-5" d="m19,156.15c2.98-2.64,4.51-9.93,3.71-13.78-1.02-4.9-4.75,1.67-4.75,1.67,0,0,.51-10.85-1.7-12.38-2.2-1.53-4.58,8.14-4.58,8.14,0,0-1.19-12.21-4.58-12.16-3.39.05-.85,14.2-.85,14.2,0,0-2.54-11.03-5.6-8.31s5.43,13.23,5.43,13.23c0,0-3.56-2.54-4.24,0-2.87,4.02,6.3,8.22,11.85,9.78,1.01.28,1.89.48,2.57.57,1.01.14,1.92-.24,2.74-.96Z"/>
    </g>
  </g>
</svg>