<?xml version="1.0" encoding="UTF-8"?>
<svg id="_Слой_2" data-name="Слой 2" xmlns="http://www.w3.org/2000/svg" viewBox="0 0 169.05 244.57">
  <defs>
    <style>
      .cls-1 {
        fill: #333;
      }
    </style>
  </defs>
  <g id="_Слой_1-2" data-name="Слой 1">
    <path class="cls-1" d="m168.41,69.53c0-.06-.01-.13-.02-.19-.46-4.28-1.15-8.44-2.05-12.41-.01-.06-.03-.13-.04-.19-.63-2.72-1.36-5.33-2.18-7.82-.02-.06-.04-.12-.06-.18-.33-1.01-.68-1.99-1.05-2.95-.02-.06-.05-.12-.07-.18-.37-.97-.76-1.91-1.16-2.83-.03-.06-.05-.12-.08-.18-1.41-3.2-3-6.09-4.75-8.56-.28-.39-.58-.77-.87-1.15-.04-.05-.08-.1-.11-.15-1.93-2.56-4.08-4.94-6.39-7.17-.05-.04-.09-.09-.14-.13-3.57-3.42-7.52-6.46-11.66-9.14-.05-.03-.11-.07-.16-.1-3.6-2.32-7.33-4.36-11.08-6.15-.06-.03-.11-.05-.17-.08-2.47-1.17-4.94-2.23-7.38-3.19-.06-.02-.12-.05-.18-.07-.61-.24-1.22-.48-1.83-.7l-6.05,20.87v.02s0,0,0,0l1.42-10.87.12-.95,1.33-10.18c-.3-.1-.59-.19-.89-.29-.06-.02-.12-.04-.18-.06-3.69-1.2-7.22-2.15-10.46-2.87-.06-.01-.12-.03-.19-.04-3.55-.77-6.74-1.26-9.4-1.49-.06,0-.13,0-.19-.01C91.39.04,90.39,0,89.5,0c0,0-4.7,0-11.81.93-.06,0-.13.02-.19.02-3.69.49-8.02,1.22-12.67,2.33-.06.01-.12.03-.19.04-2.59.62-5.28,1.36-8.01,2.23-.06.02-.12.04-.18.06-1.01.33-2.03.67-3.05,1.03-.06.02-.12.04-.18.06-.98.35-1.96.72-2.95,1.11-.06.02-.12.05-.18.07-3.48,1.39-6.96,3.01-10.34,4.93-.06.03-.11.06-.17.1-2.9,1.65-5.71,3.51-8.39,5.61-.05.04-.1.08-.15.12-4.06,3.2-7.79,6.95-10.95,11.34-.04.05-.07.1-.11.16-2.55,3.56-4.73,7.54-6.41,12,0,.01,0,.02-.01.03-.02.06-.04.12-.06.18-.96,2.57-1.8,5.16-2.52,7.76l2.45,1.48.97.59,12.73,7.68.78.47,4,2.42-15.38-6.34-3.02-1.25-3.43-1.41c-.02.07-.03.14-.04.21-.01.06-.02.13-.04.19-.23,1.04-.45,2.08-.64,3.12-.01.06-.02.13-.04.19-.68,3.72-1.11,7.49-1.32,11.27,0,.06,0,.13,0,.19-.17,3.24-.15,6.49.02,9.73,0,.06,0,.13,0,.19.28,4.98.95,9.93,2,14.76.01.06.02.13.04.19.92,4.18,2.12,8.25,3.59,12.19.02.06.05.12.07.18.95,2.53,2.02,5,3.19,7.39.03.06.06.12.08.17.45.92.93,1.83,1.41,2.73.03.06.06.11.09.17.48.88.97,1.74,1.48,2.59.03.05.07.11.1.16,1.83,3.04,3.85,5.92,6.05,8.6.04.05.08.1.12.15,1.99,2.4,4.12,4.64,6.4,6.69.05.04.1.08.15.13,3.02,2.7,6.29,5.08,9.8,7.06-1.69,5.98-3.19,14.09-3.31,24.24,3.36.19,6.7.26,10.03.22-3.33.04-6.67-.02-10.03-.22-.07,6.13.36,13,1.56,20.58,0,0,0,0,0,0,0,0-9.38,3.93-9.61,15.26-.06,3.04.74,6.76,1.95,10.58l-.02-.04s-1.9.57-5.83-1.58c-8.49-5.09-3.36-16.96-2.73-32.06.57-13.58-3.83-20.29-5.62-22.84,2.98-2.64,4.51-9.93,3.71-13.78-1.02-4.9-4.75,1.67-4.75,1.67,0,0,.51-10.85-1.7-12.38-2.2-1.53-4.58,8.14-4.58,8.14,0,0-1.19-12.21-4.58-12.16-3.39.05-.85,14.2-.85,14.2,0,0-2.54-11.03-5.6-8.31s5.43,13.23,5.43,13.23c0,0-3.56-2.54-4.24,0-2.87,4.02,6.3,8.22,11.85,9.78.08.18.19.37.38.57,2.12,2.21,5.13,10.52,6.02,17.98.88,7.46-5.84,20.35-1.59,32.91,4.24,12.55,17.14,11.42,17.15,11.42,3.26,7.97,7.14,14.82,7.14,14.82,0,0-10.61,0-8.96,4.98,1.48,4.46,19.66,5.06,29.69,2.79,1.46.9,2.96,1.5,4.51,1.74,2.86.45,5.15.1,6.85-.99,1.67.77,5.5,1.55,13.96,1.8,5.83.18,10.71-.88,14.81-2.76,1.75,1.82,4.44,2.5,8.01,1.94,1.42-.22,2.8-.73,4.14-1.51,10.2,2,27.19,1.3,28.62-3.01,1.65-4.98-8.96-4.98-8.96-4.98,0,0,11.79-20.81,11.56-32.14-.18-8.67-5.71-13-8.3-14.56,2.96-18.11,1.56-32.17-.7-41.89,0,0,0,0,0,0-.28-1.19-.57-2.3-.86-3.36,1.97-.91,3.99-1.88,6.07-2.91.2-.1.38-.2.58-.3.06-.03.12-.06.18-.09,4.39-2.32,8.15-5.55,11.31-9.46.04-.05.08-.1.12-.15,2.59-3.23,4.78-6.91,6.59-10.93.03-.06.05-.12.08-.18,1.09-2.42,2.04-4.97,2.86-7.6.02-.06.04-.12.06-.19.3-.98.59-1.97.86-2.98.02-.06.03-.12.05-.19.25-.96.49-1.94.71-2.92.01-.06.03-.13.04-.19.77-3.45,1.35-7.01,1.74-10.61,0-.06.01-.13.02-.19.33-3.07.52-6.17.59-9.27,0-.06,0-.13,0-.19.09-4.84-.12-9.69-.62-14.4Z"/>
  </g>
</svg>