<?xml version="1.0" encoding="UTF-8"?>
<svg id="_Слой_1" data-name="Слой 1" xmlns="http://www.w3.org/2000/svg" width="178.125" height="251.4461" xmlns:xlink="http://www.w3.org/1999/xlink" viewBox="0 0 178.125 251.4461">
  <defs>
    <clipPath id="clippath">
      <path d="m161.4895,37.4774c-9.725-13.666-25.58-22.721-39.976-28.033l-6.057,20.887,2.871-22.006c-10.011-3.37-19.01-4.901-24.293-4.885,0,0-60.017.054-75.909,42.159-.997,2.644-1.86,5.306-2.592,7.977l20.932,12.638-21.841-8.995c-8.868,38.737,9.454,84.467,45.478,93.392,39.643,9.822,56.943,7.433,87.679-7.806,32.425-16.078,31.044-80.966,13.708-105.328Z" style="fill: none;"/>
    </clipPath>
    <clipPath id="clippath-1">
      <path d="m161.4895,37.4774c-9.725-13.666-25.58-22.721-39.976-28.033l-6.057,20.887,2.871-22.006c-10.011-3.37-19.01-4.901-24.293-4.885,0,0-60.017.054-75.909,42.159-.997,2.644-1.86,5.306-2.592,7.977l20.932,12.638-21.841-8.995c-8.868,38.737,9.454,84.467,45.478,93.392,39.643,9.822,56.943,7.433,87.679-7.806,32.425-16.078,31.044-80.966,13.708-105.328Z" style="fill: none;"/>
    </clipPath>
    <clipPath id="clippath-2">
      <path d="m161.4895,37.4774c-9.725-13.666-25.58-22.721-39.976-28.033l-6.057,20.887,2.871-22.006c-10.011-3.37-19.01-4.901-24.293-4.885,0,0-60.017.054-75.909,42.159-.997,2.644-1.86,5.306-2.592,7.977l20.932,12.638-21.841-8.995c-8.868,38.737,9.454,84.467,45.478,93.392,39.643,9.822,56.943,7.433,87.679-7.806,32.425-16.078,31.044-80.966,13.708-105.328Z" style="fill: none;"/>
    </clipPath>
    <clipPath id="clippath-3">
      <path d="m161.4895,37.4774c-9.725-13.666-25.58-22.721-39.976-28.033l-6.057,20.887,2.871-22.006c-10.011-3.37-19.01-4.901-24.293-4.885,0,0-60.017.054-75.909,42.159-.997,2.644-1.86,5.306-2.592,7.977l20.932,12.638-21.841-8.995c-8.868,38.737,9.454,84.467,45.478,93.392,39.643,9.822,56.943,7.433,87.679-7.806,32.425-16.078,31.044-80.966,13.708-105.328Z" style="fill: none;"/>
    </clipPath>
    <clipPath id="clippath-4">
      <path d="m161.4895,37.4774c-9.725-13.666-25.58-22.721-39.976-28.033l-6.057,20.887,2.871-22.006c-10.011-3.37-19.01-4.901-24.293-4.885,0,0-60.017.054-75.909,42.159-.997,2.644-1.86,5.306-2.592,7.977l20.932,12.638-21.841-8.995c-8.868,38.737,9.454,84.467,45.478,93.392,39.643,9.822,56.943,7.433,87.679-7.806,32.425-16.078,31.044-80.966,13.708-105.328Z" style="fill: none;"/>
    </clipPath>
    <clipPath id="clippath-5">
      <path d="m161.4895,37.4774c-9.725-13.666-25.58-22.721-39.976-28.033l-6.057,20.887,2.871-22.006c-10.011-3.37-19.01-4.901-24.293-4.885,0,0-60.017.054-75.909,42.159-.997,2.644-1.86,5.306-2.592,7.977l20.932,12.638-21.841-8.995c-8.868,38.737,9.454,84.467,45.478,93.392,39.643,9.822,56.943,7.433,87.679-7.806,32.425-16.078,31.044-80.966,13.708-105.328Z" style="fill: none;"/>
    </clipPath>
    <clipPath id="clippath-6">
      <path d="m161.4895,37.4774c-9.725-13.666-25.58-22.721-39.976-28.033l-6.057,20.887,2.871-22.006c-10.011-3.37-19.01-4.901-24.293-4.885,0,0-60.017.054-75.909,42.159-.997,2.644-1.86,5.306-2.592,7.977l20.932,12.638-21.841-8.995c-8.868,38.737,9.454,84.467,45.478,93.392,39.643,9.822,56.943,7.433,87.679-7.806,32.425-16.078,31.044-80.966,13.708-105.328Z" style="fill: none;"/>
    </clipPath>
    <clipPath id="clippath-7">
      <path d="m161.4895,37.4774c-9.725-13.666-25.58-22.721-39.976-28.033l-6.057,20.887,2.871-22.006c-10.011-3.37-19.01-4.901-24.293-4.885,0,0-60.017.054-75.909,42.159-.997,2.644-1.86,5.306-2.592,7.977l20.932,12.638-21.841-8.995c-8.868,38.737,9.454,84.467,45.478,93.392,39.643,9.822,56.943,7.433,87.679-7.806,32.425-16.078,31.044-80.966,13.708-105.328Z" style="fill: none;"/>
    </clipPath>
    <clipPath id="clippath-8">
      <path d="m161.4895,37.4774c-9.725-13.666-25.58-22.721-39.976-28.033l-6.057,20.887,2.871-22.006c-10.011-3.37-19.01-4.901-24.293-4.885,0,0-60.017.054-75.909,42.159-.997,2.644-1.86,5.306-2.592,7.977l20.932,12.638-21.841-8.995c-8.868,38.737,9.454,84.467,45.478,93.392,39.643,9.822,56.943,7.433,87.679-7.806,32.425-16.078,31.044-80.966,13.708-105.328Z" style="fill: none;"/>
    </clipPath>
    <clipPath id="clippath-9">
      <path d="m161.4895,37.4774c-9.725-13.666-25.58-22.721-39.976-28.033l-6.057,20.887,2.871-22.006c-10.011-3.37-19.01-4.901-24.293-4.885,0,0-60.017.054-75.909,42.159-.997,2.644-1.86,5.306-2.592,7.977l20.932,12.638-21.841-8.995c-8.868,38.737,9.454,84.467,45.478,93.392,39.643,9.822,56.943,7.433,87.679-7.806,32.425-16.078,31.044-80.966,13.708-105.328Z" style="fill: none;"/>
    </clipPath>
    <clipPath id="clippath-10">
      <path d="m161.4895,37.4774c-9.725-13.666-25.58-22.721-39.976-28.033l-6.057,20.887,2.871-22.006c-10.011-3.37-19.01-4.901-24.293-4.885,0,0-60.017.054-75.909,42.159-.997,2.644-1.86,5.306-2.592,7.977l20.932,12.638-21.841-8.995c-8.868,38.737,9.454,84.467,45.478,93.392,39.643,9.822,56.943,7.433,87.679-7.806,32.425-16.078,31.044-80.966,13.708-105.328Z" style="fill: none;"/>
    </clipPath>
    <clipPath id="clippath-11">
      <path d="m161.4895,37.4774c-9.725-13.666-25.58-22.721-39.976-28.033l-6.057,20.887,2.871-22.006c-10.011-3.37-19.01-4.901-24.293-4.885,0,0-60.017.054-75.909,42.159-.997,2.644-1.86,5.306-2.592,7.977l20.932,12.638-21.841-8.995c-8.868,38.737,9.454,84.467,45.478,93.392,39.643,9.822,56.943,7.433,87.679-7.806,32.425-16.078,31.044-80.966,13.708-105.328Z" style="fill: none;"/>
    </clipPath>
    <clipPath id="clippath-12">
      <path d="m161.4895,37.4774c-9.725-13.666-25.58-22.721-39.976-28.033l-6.057,20.887,2.871-22.006c-10.011-3.37-19.01-4.901-24.293-4.885,0,0-60.017.054-75.909,42.159-.997,2.644-1.86,5.306-2.592,7.977l20.932,12.638-21.841-8.995c-8.868,38.737,9.454,84.467,45.478,93.392,39.643,9.822,56.943,7.433,87.679-7.806,32.425-16.078,31.044-80.966,13.708-105.328Z" style="fill: none;"/>
    </clipPath>
    <clipPath id="clippath-13">
      <path d="m161.4895,37.4774c-9.725-13.666-25.58-22.721-39.976-28.033l-6.057,20.887,2.871-22.006c-10.011-3.37-19.01-4.901-24.293-4.885,0,0-60.017.054-75.909,42.159-.997,2.644-1.86,5.306-2.592,7.977l20.932,12.638-21.841-8.995c-8.868,38.737,9.454,84.467,45.478,93.392,39.643,9.822,56.943,7.433,87.679-7.806,32.425-16.078,31.044-80.966,13.708-105.328Z" style="fill: none;"/>
    </clipPath>
  </defs>
  <path d="m172.9458,72.9687c-.0068-.064-.0143-.1277-.0212-.1917-.4583-4.2756-1.1476-8.4432-2.0521-12.4055-.0143-.0627-.0274-.1266-.0418-.1893-.6259-2.7172-1.3553-5.3325-2.1759-7.8231-.0203-.0615-.0405-.1231-.0609-.1844-.3342-1.0059-.6837-1.9898-1.0483-2.951-.023-.0607-.0461-.1213-.0693-.1818-.3701-.9677-.7552-1.9111-1.1555-2.8287-.0259-.0594-.052-.1185-.0781-.1777-1.4095-3.2043-2.9977-6.0917-4.7528-8.5581-.2795-.3928-.5812-.7684-.8707-1.1535-.0381-.0507-.0764-.1013-.1147-.1519-1.9339-2.5554-4.0783-4.9442-6.3892-7.1707-.0458-.0441-.0909-.0889-.1368-.1329-3.5715-3.4218-7.5191-6.4612-11.6612-9.1388-.0533-.0345-.1071-.0682-.1605-.1027-3.5988-2.3157-7.3322-4.3601-11.0838-6.147-.0574-.0273-.1148-.0548-.1722-.082-2.4694-1.1709-4.9404-2.2332-7.3831-3.1857-.0596-.0233-.1188-.0453-.1783-.0684-.6097-.2366-1.2204-.4761-1.8254-.6994l-6.0526,20.8719-.0044.0151.0007-.0058,1.4179-10.8679.1237-.9482,1.3287-10.1841c-.298-.1003-.5919-.1937-.888-.2907-.0606-.0199-.1213-.0397-.1818-.0595-3.6875-1.202-7.2192-2.1523-10.4629-2.8655-.062-.0136-.1243-.0275-.1862-.041-3.5474-.7727-6.7422-1.2628-9.3996-1.485-.0647-.0054-.1257-.009-.1898-.0141-1.0892-.0867-2.0938-.1319-2.9847-.1292,0,0-4.6974.005-11.8093.9324-.063.0082-.1255.0162-.1889.0246-3.6888.4866-8.0156,1.2231-12.666,2.3309-.0616.0147-.1238.03-.1855.0447-2.5894.6212-5.2762,1.3589-8.0099,2.2335-.0609.0195-.1217.0387-.1826.0583-1.011.3255-2.0276.6704-3.048,1.0347-.0604.0216-.1207.0428-.181.0645-.98.352-1.9623.7231-2.9458,1.1129-.0593.0236-.1187.047-.178.0707-3.4771,1.3865-6.9586,3.0125-10.3394,4.9281-.0555.0314-.1102.0649-.1656.0964-2.8961,1.6506-5.7142,3.5149-8.3924,5.6139-.05.0392-.1005.0774-.1503.1168-4.0593,3.2012-7.7873,6.9506-10.9508,11.3446-.0369.0512-.0721.1042-.1088.1556-2.5457,3.5629-4.7253,7.5419-6.4066,11.9965-.0043.0113-.0076.0226-.0119.0339-.0227.0603-.0411.1211-.0637.1814-.963,2.5734-1.8043,5.163-2.5165,7.7617l2.4526,1.4808.9689.585,12.7276,7.6845.7795.4706,4.0034,2.4171-15.3823-6.335-3.0238-1.2454-3.4349-1.4146c-.0161.0703-.0278.1417-.0437.2121-.0141.0623-.0247.1254-.0386.1876-.2319,1.036-.4495,2.0756-.6428,3.1205-.0117.0629-.0247.1254-.0362.1882-.6795,3.7185-1.1134,7.4874-1.3156,11.2695-.0034.0637-.0035.1275-.0068.1912-.1666,3.2429-.153,6.4933.0201,9.7308.0034.0637.0051.1275.0086.1912.2766,4.9844.9482,9.9305,1.9985,14.7571.0135.0623.025.1253.0386.1876.9176,4.1752,2.1223,8.2534,3.5931,12.1879.0225.06.0461.1193.0687.1792.9522,2.5301,2.0168,4.9958,3.1899,7.3873.0281.0573.0555.1151.0837.1724.455.9218.9272,1.8303,1.4144,2.7282.0305.0563.0609.1127.0915.1688.4781.8761.9709,1.7396,1.4795,2.5912.0327.0548.0659.1093.0988.1639,1.8265,3.0416,3.846,5.9171,6.0515,8.5961.041.0497.0819.0995.123.1492,1.9866,2.399,4.1187,4.6381,6.3985,6.6873.0482.0432.0978.0845.1461.1276,3.0235,2.7,6.2907,5.0779,9.8032,7.0556-1.6884,5.9799-3.1912,14.0909-3.309,24.2445,3.3611.1929,6.7026.2578,10.0279.2159-3.3256.0419-6.6674-.023-10.0289-.2159-.0709,6.1285.3627,12.9966,1.5635,20.5837-.0012-.0017-.0066-.0098-.0066-.0098,0,0-9.379,3.935-9.615,15.264-.0633,3.0384.7428,6.7598,1.9506,10.5778l-.0156-.0428s-1.9.565-5.828-1.581c-8.491-5.089-3.361-16.963-2.728-32.059.5705-13.5848-3.8267-20.288-5.6177-22.8384,2.9791-2.6362,4.5103-9.9297,3.7116-13.7776-1.018-4.895-4.75,1.672-4.75,1.672,0,0,.508-10.855-1.697-12.382-2.204-1.526-4.579,8.142-4.579,8.142,0,0-1.187-12.212-4.58-12.164-3.392.048-.848,14.2-.848,14.2,0,0-2.545-11.026-5.598-8.312s5.428,13.231,5.428,13.231c0,0-3.562-2.544-4.241,0-2.8716,4.0212,6.2998,8.2227,11.8494,9.7781.079.1823.1915.3704.3826.5689,2.122,2.206,5.13,10.518,6.015,17.981.8849,7.463-5.837,20.355-1.592,32.907,4.2434,12.5464,17.144,11.4179,17.1536,11.4171,3.2638,7.9734,7.1404,14.8179,7.1404,14.8179,0,0-10.612,0-8.962,4.975,1.4811,4.4641,19.6602,5.0579,29.6874,2.7861,1.4609.9016,2.9648,1.4957,4.5115,1.7379,2.8589.4478,5.1528.1037,6.8539-.9854,1.6708.7696,5.5027,1.5452,13.9621,1.8044,5.8265.1785,10.711-.8801,14.8071-2.756,1.752,1.8206,4.4409,2.4951,8.0099,1.936,1.4172-.222,2.7992-.7341,4.1446-1.5112,10.1961,2.0003,27.1877,1.2977,28.6184-3.0118,1.65-4.975-8.962-4.975-8.962-4.975,0,0,11.792-20.808,11.557-32.136-.1799-8.6724-5.7073-13.0016-8.2951-14.5599,2.964-18.1107,1.5608-32.174-.6966-41.8927.0002-.0001.0005-.0002.0007-.0003-.2758-1.1879-.5653-2.3019-.8601-3.3595,1.9696-.9144,3.9853-1.8824,6.067-2.9146.1956-.097.3842-.2042.5774-.3047.059-.0307.1176-.0621.1763-.0931,4.3921-2.3193,8.147-5.5476,11.3089-9.4582.0403-.05.08-.1008.1202-.1509,2.587-3.2292,4.7753-6.913,6.5891-10.9264.0265-.0587.054-.1165.0803-.1752,1.0867-2.425,2.0388-4.9667,2.8599-7.5997.0192-.0616.037-.124.0561-.1857.303-.9803.5896-1.9716.8569-2.975.0165-.0621.0347-.1232.0511-.1853.2541-.963.4876-1.9381.7096-2.9196.0143-.063.0288-.126.043-.1891.7728-3.4523,1.3521-7.0078,1.743-10.6149.0069-.0637.0125-.1277.0193-.1915.3267-3.0672.5201-6.1688.586-9.272.0014-.0642.004-.1285.0052-.1927.0947-4.8441-.1211-9.6875-.6184-14.4027Z" style="fill: #383532; stroke: #fff; stroke-miterlimit: 10; stroke-width: 4px;"/>
  <g>
    <path d="m40.1975,222.8503s-12.909,1.134-17.154-11.417c-4.245-12.552,2.477-25.444,1.592-32.907-.885-7.463-3.893-15.775-6.015-17.981-2.122-2.205,3.184-3.513,4.422-1.671,1.239,1.841,6.751,8.457,6.117,23.553-.633,15.096-5.763,26.97,2.728,32.059,3.928,2.146,5.828,1.581,5.828,1.581l2.482,6.783Z" style="fill: #fdbc2d;"/>
    <path d="m45.3955,190.2683s-9.379,3.935-9.615,15.264c-.236,11.328,11.557,32.136,11.557,32.136,0,0-10.612,0-8.962,4.975,1.651,4.976,24.057,5.146,32.784,1.895,8.726-3.253-25.764-54.27-25.764-54.27Z" style="fill: #fcaa1a;"/>
    <path d="m141.9505,190.2683s9.38,3.935,9.615,15.264c.235,11.328-11.557,32.136-11.557,32.136,0,0,10.612,0,8.962,4.975-1.652,4.976-24.058,5.146-32.784,1.895-8.726-3.253,25.764-54.27,25.764-54.27Z" style="fill: #fcaa1a;"/>
    <path d="m75.5385,244.5374s16.76,4.891,38.342-1.555c0,0,5.703-55.103,8.63-86.734-18.796,6.355-37.824,11.481-57.389,13.127l10.417,75.162Z" style="fill: #fdbc2d;"/>
    <path d="m60.1035,133.1794l5.017,36.197c19.566-1.646,38.593-6.772,57.389-13.127.631-6.817,1.133-12.548,1.421-16.398,1.624-21.713-63.827-6.672-63.827-6.672Z" style="fill: #fcaa1a;"/>
    <path d="m114.7215,215.9243c4.783-4.22,9.227-8.711,13.417-13.394-2.979-11.141-11.926-36.13-32.272-36.13-26.18,0-31.104,43.197-31.104,43.197l8.242,20.784c15.269.251,30.861-5.41,41.717-14.457Z" style="fill: #ffecd6;"/>
    <path d="m114.7215,215.9243c-10.856,9.047-26.448,14.708-41.717,14.458l5.534,13.957s-3.781,3.076,14.852,3.647c34.081,1.044,35.968-40.197,35.968-40.197,0,0-.366-2.063-1.221-5.258-4.189,4.682-8.633,9.173-13.416,13.393Z" style="fill: #fce2ca;"/>
    <path d="m43.8385,169.6944c-.083,7.181.517,15.368,2.245,24.55,5.69,30.251,14.934,51.113,26.491,52.923s13.916-9.273,4.953-30.532c-4.892-11.604-4.303-32.111-2.759-48.345-10.161,1.432-20.456,2.005-30.93,1.404Z" style="fill: #fdbc2d;"/>
    <path d="m52.0555,133.1794s-7.939,12.628-8.216,36.515c10.474.601,20.769.028,30.93-1.404,1.285-13.508,3.231-24.058,3.231-24.058l-25.945-11.053Z" style="fill: #fcaa1a;"/>
    <path d="m111.2545,216.6343c-8.963,21.259-6.603,32.342,4.953,30.532,11.557-1.81,20.802-22.672,26.492-52.923,3.705-19.699,2.266-34.868-.126-45.165-9.8,3.642-19.634,7.17-29.545,10.257,2.087,16.807,4.077,43.42-1.774,57.299Z" style="fill: #fdbc2d;"/>
    <path d="m110.7825,144.2324s1.137,6.167,2.247,15.104c9.911-3.088,19.745-6.615,29.545-10.257-2.431-10.469-5.847-15.899-5.847-15.899l-25.945,11.052Z" style="fill: #fcaa1a;"/>
    <path d="m161.4895,37.4774c-9.725-13.666-25.58-22.721-39.976-28.033l-6.057,20.887,2.871-22.006c-10.011-3.37-19.01-4.901-24.293-4.885,0,0-60.017.054-75.909,42.159-.997,2.644-1.86,5.306-2.592,7.977l20.932,12.638-21.841-8.995c-8.868,38.737,9.454,84.467,45.478,93.392,39.643,9.822,56.943,7.433,87.679-7.806,32.425-16.078,31.044-80.966,13.708-105.328Z" style="fill: #f18a2b;"/>
    <g>
      <g style="clip-path: url(#clippath);">
        <g>
          <path d="m193.7845,100.2003c-8.058-1.227-197.361-30.031-198.502-30.632l.09-.17-.045.085.042-.086c1.588.659,196.475,30.314,198.444,30.613l-.029.19Z" style="fill: #90473f;"/>
          <path d="m153.8295,165.8474C148.9985,159.2823,35.5085,5.0564,35.1275,3.8253l.183-.06c.657,1.589,117.494,160.364,118.674,161.968l-.155.114Z" style="fill: #90473f;"/>
        </g>
      </g>
      <g style="clip-path: url(#clippath-1);">
        <g>
          <path d="m79.3475,184.0434l-.191-.029c1.227-8.058,30.032-197.36,30.633-198.502l.17.09-.085-.045.086.042c-.659,1.588-30.314,196.476-30.613,198.444Z" style="fill: #90473f;"/>
          <path d="m13.6235,144.2154l-.114-.155c6.565-4.831,160.791-118.321,162.022-118.702l.057.183-.029-.092.032.091c-1.589.657-160.364,117.495-161.968,118.675Z" style="fill: #90473f;"/>
        </g>
      </g>
      <g style="clip-path: url(#clippath-2);">
        <g>
          <path d="m194.9145,88.2343c-8.147-.255-199.535-6.235-200.74-6.695l.066-.181c1.656.465,198.69,6.621,200.68,6.684l-.006.192Z" style="fill: #90473f;"/>
          <path d="m163.0895,158.1854C157.5085,152.2454,26.4055,12.6834,25.8785,11.5064l.174-.081c.842,1.498,135.813,145.178,137.176,146.628l-.139.132Z" style="fill: #90473f;"/>
        </g>
      </g>
      <g style="clip-path: url(#clippath-3);">
        <g>
          <path d="m91.3145,185.1514l-.192-.006c.255-8.147,6.236-199.536,6.695-200.74l.18.069-.09-.035.091.032c-.465,1.654-6.622,198.69-6.684,200.68Z" style="fill: #90473f;"/>
          <path d="m21.3025,153.4604l-.132-.14c5.94-5.581,145.502-136.684,146.679-137.211l.081.174c-1.497.842-145.177,135.813-146.628,137.177Z" style="fill: #90473f;"/>
        </g>
      </g>
      <g style="clip-path: url(#clippath-4);">
        <g>
          <path d="m-4.6905,100.0424c-.011,0-.019-.001-.024-.002l.035-.189-.017.095.014-.095c.004.001.01.001.017.001,2.67,0,196.512-30,198.474-30.305l.03.19c-8.023,1.242-195.786,30.305-198.529,30.305Z" style="fill: #90473f;"/>
          <path d="m175.4085,144.3444C168.8315,139.5304,14.3155,26.4354,13.5825,25.3754l.156-.112c1.103,1.318,160.177,117.75,161.784,118.926l-.114.155Z" style="fill: #90473f;"/>
        </g>
      </g>
      <g style="clip-path: url(#clippath-5);">
        <g>
          <path d="m109.6205,184.0694c-1.248-8.055-30.535-197.284-30.305-198.552l.19.031c-.153,1.711,30,196.523,30.305,198.491l-.19.03Z" style="fill: #90473f;"/>
          <path d="m35.1675,165.7534l-.155-.114C39.8265,159.0623,152.9215,4.5463,153.9815,3.8133l.11.158-.055-.079.057.077c-1.319,1.102-117.75,160.177-118.926,161.784Z" style="fill: #90473f;"/>
        </g>
      </g>
      <g style="clip-path: url(#clippath-6);">
        <g>
          <path d="m-1.0175,115.6594h-.001l.002-.096-.002-.096c1.716-.122,189.238-60.92,191.132-61.534l.059.183C182.4215,56.6293.3595,115.6594-1.0175,115.6594Z" style="fill: #90473f;"/>
          <path d="m183.8615,130.7074C176.6015,127.0024,6.0435,39.9634,5.1515,39.0334l.138-.134-.069.067.067-.069c1.3,1.127,176.888,90.734,178.661,91.639l-.087.171Z" style="fill: #90473f;"/>
        </g>
      </g>
      <g style="clip-path: url(#clippath-7);">
        <g>
          <path d="m125.2415,180.4034c-2.514-7.753-61.569-189.901-61.544-191.191l.096.002.096-.001c.123,1.715,60.921,189.237,61.535,191.132l-.183.058Z" style="fill: #90473f;"/>
          <path d="m48.8205,174.1804l-.171-.087c3.704-7.26,90.745-177.817,91.674-178.71l.134.138-.067-.069.069.067c-1.126,1.298-90.734,176.887-91.639,178.661Z" style="fill: #90473f;"/>
        </g>
      </g>
      <g style="clip-path: url(#clippath-8);">
        <g>
          <path d="m6.2185,132.5833l-.035-.189c1.665-.433,174.942-94.429,176.692-95.379l.092.17c-7.164,3.886-175.476,95.189-176.749,95.398Z" style="fill: #90473f;"/>
          <path d="m190.7415,113.6404C182.9265,111.3224-.6495,56.8694-1.6975,56.1183l.11-.158c1.483.869,190.475,56.929,192.384,57.495l-.055.185Z" style="fill: #90473f;"/>
        </g>
      </g>
      <g style="clip-path: url(#clippath-9);">
        <g>
          <path d="m142.1735,173.1993C138.2865,166.0343,46.9825-2.2767,46.7735-3.5497l.189-.032-.095.016.094-.019c.434,1.664,94.431,174.941,95.381,176.692l-.169.092Z" style="fill: #90473f;"/>
          <path d="m65.9005,181.0264l-.185-.054c2.318-7.815,56.772-191.392,57.523-192.439l.158.11c-.869,1.482-56.93,190.474-57.496,192.383Z" style="fill: #90473f;"/>
        </g>
      </g>
      <g style="clip-path: url(#clippath-10);">
        <g>
          <path d="m2.6555,125.3094l-.017-.193.008.096-.011-.095c1.693-.298,181.982-80.026,183.803-80.831l.078.176C179.0625,47.7594,3.9405,125.2014,2.6555,125.3094Z" style="fill: #90473f;"/>
          <path d="m188.1025,121.2964C180.5005,118.3574,1.9085,49.2874.9255,48.4534l.122-.149c1.408.988,185.268,72.094,187.125,72.813l-.07.179Z" style="fill: #90473f;"/>
        </g>
      </g>
      <g style="clip-path: url(#clippath-11);">
        <g>
          <path d="m134.8945,176.7484C131.5985,169.2934,54.1545-5.8286,54.0485-7.1136l.192-.017-.096.008.095-.011c.298,1.694,80.026,181.982,80.831,183.803l-.176.079Z" style="fill: #90473f;"/>
          <path d="m58.2385,178.4034l-.179-.069c2.939-7.602,72.01-186.194,72.843-187.178l.149.122c-.987,1.408-72.094,185.268-72.813,187.125Z" style="fill: #90473f;"/>
        </g>
      </g>
      <g style="clip-path: url(#clippath-12);">
        <g>
          <path d="m4.3875,129.0294l-.024-.191.012.095-.015-.095c1.68-.367,178.561-87.392,180.347-88.272l.086.173c-7.314,3.6-179.127,88.132-180.406,88.29Z" style="fill: #90473f;"/>
          <path d="m189.5155,117.4453C181.7995,114.8183.5355,53.1013-.4815,52.3093l.116-.153c1.448.928,188.057,64.466,189.943,65.108l-.062.181Z" style="fill: #90473f;"/>
        </g>
      </g>
      <g style="clip-path: url(#clippath-13);">
        <g>
          <path d="m138.6165,175.0244C135.0185,167.7104,50.4865-4.1026,50.3275-5.3806l.191-.024-.095.012.095-.015c.367,1.679,87.392,178.561,88.272,180.347l-.174.085Z" style="fill: #90473f;"/>
          <path d="m62.0935,179.8094l-.182-.062c2.627-7.716,64.344-188.98,65.136-189.997l.152.119-.076-.059.077.056c-.928,1.447-64.465,188.058-65.107,189.943Z" style="fill: #90473f;"/>
        </g>
      </g>
    </g>
    <path d="m138.1015,88.1714c-.727-18.549-6.7-36.411-6.7-36.411,0,0,22.617-14.701,11.082-22.164s-20.129,16.51-20.129,16.51c-35.96-12.891-59.707.679-59.707.679,0,0-14.249-21.939-21.712-12.665-7.463,9.272,12.891,20.128,12.891,20.128,0,0-7.916,25.267-6.785,45.685.683,12.33,8.742,21.525,21.083,26.617,28.28-.935,55.236-15.408,69.977-38.379Z" style="fill: #fdbc2d;"/>
    <path d="m68.1255,126.5504c12.849,5.302,30.339,6.157,49.028,1.428,17.713-4.483,21.629-22.446,20.948-39.807-14.741,22.971-41.697,37.444-69.976,38.379Z" style="fill: #fcaa1a;"/>
    <path d="m55.8625,51.9854s-14.107-9.245-12.665-14.248c1.652-5.736,11.307,1.809,16.962,11.082l-4.297,3.166Z" style="fill: #ffecd6;"/>
    <path d="m128.5215,49.9404s14.107-9.245,12.666-14.249c-1.653-5.735-11.309,1.81-16.963,11.082l4.297,3.167Z" style="fill: #ffecd6;"/>
    <path d="m94.3385,99.8744s-.198-.076-.528-.216c-2.065-.875-9.308-4.194-5.579-6.315,4.326-2.46,10.347-1.018,12.213,0,1.866,1.018-2.517,6.038-6.304,6.454h0"/>
    <path d="m94.2045,106.0783c-.092,0-.185-.004-.28-.011-3.636-.272-5.27-5.011-5.339-5.213-.076-.226.046-.47.272-.546.223-.077.47.045.546.271.015.044,1.52,4.397,4.585,4.627,2.984.235,4.588-4.572,4.603-4.621.073-.227.316-.354.543-.28.227.072.353.316.28.543-.069.219-1.712,5.23-5.21,5.23Z"/>
    <path d="m71.2695,96.4044c-.118,0-.235-.048-.321-.142-.159-.177-.145-.45.032-.61.282-.253,7.079-6.217,23.055-6.217,16.003,0,21.517,5.996,21.744,6.251.159.178.142.45-.035.609s-.451.142-.609-.034c-.054-.06-5.532-5.963-21.1-5.963-15.647,0-22.41,5.936-22.476,5.996-.0829.074-.187.11-.2899.11Z"/>
    <path d="m117.3655,86.7523c0,2.047-1.055,3.708-2.354,3.708-1.298,0-2.353-1.661-2.353-3.708,0-2.05,1.055-3.71,2.353-3.71,1.299,0,2.354,1.66,2.354,3.71Z"/>
    <path d="m76.0615,86.6934c0,2.08-1.071,3.767-2.39,3.767-1.32,0-2.392-1.687-2.392-3.767s1.072-3.768,2.392-3.768c1.319-.001,2.39,1.687,2.39,3.768Z"/>
    <path d="m20.8065,160.5453c-4.396-.594-17.81-5.597-14.418-10.347.679-2.544,4.241,0,4.241,0,0,0-8.481-10.517-5.428-13.231,3.053-2.714,5.598,8.312,5.598,8.312,0,0-2.544-14.152.848-14.2,3.393-.048,4.58,12.164,4.58,12.164,0,0,2.375-9.668,4.579-8.142,2.205,1.527,1.697,12.382,1.697,12.382,0,0,3.732-6.567,4.75-1.672,1.0161,4.895-1.737,15.371-6.447,14.734Z" style="fill: #f18a2b;"/>
    <path d="m94.0355,106.0684c-.238,0-.431-.193-.431-.431v-7.926c0-.238.193-.431.431-.431s.431.193.431.431v7.925c0,.239-.193.432-.431.432Z"/>
  </g>
</svg>