<?xml version="1.0" encoding="UTF-8"?>
<svg id="_Слой_1" data-name="Слой 1" xmlns="http://www.w3.org/2000/svg" width="178.125" height="251.4461" viewBox="0 0 178.125 251.4461">
  <path d="m172.9458,72.9687c-.0068-.064-.0143-.1277-.0212-.1917-.4583-4.2756-1.1476-8.4432-2.0521-12.4055-.0143-.0627-.0274-.1266-.0418-.1893-.6259-2.7172-1.3553-5.3325-2.1759-7.8231-.0203-.0615-.0405-.1231-.0609-.1844-.3342-1.0059-.6837-1.9898-1.0483-2.951-.023-.0607-.0461-.1213-.0693-.1818-.3701-.9677-.7552-1.9111-1.1555-2.8287-.0259-.0594-.052-.1185-.0781-.1777-1.4095-3.2043-2.9977-6.0917-4.7528-8.5581-.2795-.3928-.5812-.7684-.8707-1.1535-.0381-.0507-.0764-.1013-.1147-.1519-1.9339-2.5554-4.0783-4.9442-6.3892-7.1707-.0458-.0441-.0909-.0889-.1368-.1329-3.5715-3.4218-7.5191-6.4612-11.6612-9.1388-.0533-.0345-.1071-.0682-.1605-.1027-3.5988-2.3157-7.3322-4.3601-11.0838-6.147-.0574-.0273-.1148-.0548-.1722-.082-2.4694-1.1709-4.9404-2.2332-7.3831-3.1857-.0596-.0233-.1188-.0453-.1783-.0684-.6097-.2366-1.2204-.4761-1.8254-.6994l-6.0526,20.8719-.0044.0151.0007-.0058,1.4179-10.8679.1237-.9482,1.3287-10.1841c-.298-.1003-.5919-.1937-.888-.2907-.0606-.0199-.1213-.0397-.1818-.0595-3.6875-1.202-7.2192-2.1523-10.4629-2.8655-.062-.0136-.1243-.0275-.1862-.041-3.5474-.7727-6.7422-1.2628-9.3996-1.485-.0647-.0054-.1257-.009-.1898-.0141-1.0892-.0867-2.0938-.1319-2.9847-.1292,0,0-4.6974.005-11.8093.9324-.063.0082-.1255.0162-.1889.0246-3.6888.4866-8.0156,1.2231-12.666,2.3309-.0616.0147-.1238.03-.1855.0447-2.5894.6212-5.2762,1.3589-8.0099,2.2335-.0609.0195-.1217.0387-.1826.0583-1.011.3255-2.0276.6704-3.048,1.0347-.0604.0216-.1207.0428-.181.0645-.98.352-1.9623.7231-2.9458,1.1129-.0593.0236-.1187.047-.178.0707-3.4771,1.3865-6.9586,3.0125-10.3394,4.9281-.0555.0314-.1102.0649-.1656.0964-2.8961,1.6506-5.7142,3.5149-8.3924,5.6139-.05.0392-.1005.0774-.1503.1168-4.0593,3.2012-7.7873,6.9506-10.9508,11.3446-.0369.0512-.0721.1042-.1088.1556-2.5457,3.5629-4.7253,7.5419-6.4066,11.9965-.0043.0113-.0076.0226-.0119.0339-.0227.0603-.0411.1211-.0637.1814-.963,2.5734-1.8043,5.163-2.5165,7.7617l2.4526,1.4808.9689.585,12.7276,7.6845.7795.4706,4.0034,2.4171-15.3823-6.335-3.0238-1.2454-3.4349-1.4146c-.0161.0703-.0278.1417-.0437.2121-.0141.0623-.0247.1254-.0386.1876-.2319,1.036-.4495,2.0756-.6428,3.1205-.0117.0629-.0247.1254-.0362.1882-.6795,3.7185-1.1134,7.4874-1.3156,11.2695-.0034.0637-.0035.1275-.0068.1912-.1666,3.2429-.153,6.4933.0201,9.7308.0034.0637.0051.1275.0086.1912.2766,4.9844.9482,9.9305,1.9985,14.7571.0135.0623.025.1253.0386.1876.9176,4.1752,2.1223,8.2534,3.5931,12.1879.0225.06.0461.1193.0687.1792.9522,2.5301,2.0168,4.9958,3.1899,7.3873.0281.0573.0555.1151.0837.1724.455.9218.9272,1.8303,1.4144,2.7282.0305.0563.0609.1127.0915.1688.4781.8761.9709,1.7396,1.4795,2.5912.0327.0548.0659.1093.0988.1639,1.8265,3.0416,3.846,5.9171,6.0515,8.5961.041.0497.0819.0995.123.1492,1.9866,2.399,4.1187,4.6381,6.3985,6.6873.0482.0432.0978.0845.1461.1276,3.0235,2.7,6.2907,5.0779,9.8032,7.0556-1.6884,5.9799-3.1912,14.0909-3.309,24.2445,3.3611.1929,6.7026.2578,10.0279.2159-3.3256.0419-6.6674-.023-10.0289-.2159-.0709,6.1285.3627,12.9966,1.5635,20.5837-.0012-.0017-.0066-.0098-.0066-.0098,0,0-9.379,3.935-9.615,15.264-.0633,3.0384.7428,6.7598,1.9506,10.5778l-.0156-.0428s-1.9.565-5.828-1.581c-8.491-5.089-3.361-16.963-2.728-32.059.5705-13.5848-3.8267-20.288-5.6177-22.8384,2.9791-2.6362,4.5103-9.9297,3.7116-13.7776-1.018-4.895-4.75,1.672-4.75,1.672,0,0,.508-10.855-1.697-12.382-2.204-1.526-4.579,8.142-4.579,8.142,0,0-1.187-12.212-4.58-12.164-3.392.048-.848,14.2-.848,14.2,0,0-2.545-11.026-5.598-8.312s5.428,13.231,5.428,13.231c0,0-3.562-2.544-4.241,0-2.8716,4.0212,6.2998,8.2227,11.8494,9.7781.079.1823.1915.3704.3826.5689,2.122,2.206,5.13,10.518,6.015,17.981.8849,7.463-5.837,20.355-1.592,32.907,4.2434,12.5464,17.144,11.4179,17.1536,11.4171,3.2638,7.9734,7.1404,14.8179,7.1404,14.8179,0,0-10.612,0-8.962,4.975,1.4811,4.4641,19.6602,5.0579,29.6874,2.7861,1.4609.9016,2.9648,1.4957,4.5115,1.7379,2.8589.4478,5.1528.1037,6.8539-.9854,1.6708.7696,5.5027,1.5452,13.9621,1.8044,5.8265.1785,10.711-.8801,14.8071-2.756,1.752,1.8206,4.4409,2.4951,8.0099,1.936,1.4172-.222,2.7992-.7341,4.1446-1.5112,10.1961,2.0003,27.1877,1.2977,28.6184-3.0118,1.65-4.975-8.962-4.975-8.962-4.975,0,0,11.792-20.808,11.557-32.136-.1799-8.6724-5.7073-13.0016-8.2951-14.5599,2.964-18.1107,1.5608-32.174-.6966-41.8927.0002-.0001.0005-.0002.0007-.0003-.2758-1.1879-.5653-2.3019-.8601-3.3595,1.9696-.9144,3.9853-1.8824,6.067-2.9146.1956-.097.3842-.2042.5774-.3047.059-.0307.1176-.0621.1763-.0931,4.3921-2.3193,8.147-5.5476,11.3089-9.4582.0403-.05.08-.1008.1202-.1509,2.587-3.2292,4.7753-6.913,6.5891-10.9264.0265-.0587.054-.1165.0803-.1752,1.0867-2.425,2.0388-4.9667,2.8599-7.5997.0192-.0616.037-.124.0561-.1857.303-.9803.5896-1.9716.8569-2.975.0165-.0621.0347-.1232.0511-.1853.2541-.963.4876-1.9381.7096-2.9196.0143-.063.0288-.126.043-.1891.7728-3.4523,1.3521-7.0078,1.743-10.6149.0069-.0637.0125-.1277.0193-.1915.3267-3.0672.5201-6.1688.586-9.272.0014-.0642.004-.1285.0052-.1927.0947-4.8441-.1211-9.6875-.6184-14.4027Z" style="fill: #383532;"/>
</svg>