<?xml version="1.0" encoding="UTF-8"?>
<svg id="_Слой_2" data-name="Слой 2" xmlns="http://www.w3.org/2000/svg" viewBox="0 0 72.35 106.66">
  <defs>
    <style>
      .cls-1 {
        fill: #cb7a44;
      }

      .cls-2 {
        fill: #c16f40;
      }

      .cls-3 {
        fill: #f19a94;
      }

      .cls-4 {
        fill: #90473f;
      }

      .cls-5 {
        fill: #7f3b36;
      }
    </style>
  </defs>
  <g id="_Слой_1-2" data-name="Слой 1">
    <g>
      <path class="cls-4" d="m5.4,32.01c-1.72-.21-3.43-.57-5.09-1.04-1.17,3.68,1.23,7.87,3.7,8.19,2.89.38,2.78-2.19,1.58-4.28-.56-.97-.56-2.07-.19-2.88Z"/>
      <path class="cls-5" d="m20.79,57.88c-2.73-1.41-5.14-3.47-6.33-4.99-2.33-2.99-1.82-8.08-.63-11.83.91-2.86,1.03-6.22-.33-9.37-1.4.33-2.84.49-4.31.52,1.02,1.71,1,5.06-.94,10.61-2.57,7.37.94,13.95,8.84,19.05.15.1.3.18.44.27.76-.93,1.52-1.86,2.29-2.79.29-.36.62-.9.97-1.48Z"/>
      <path class="cls-5" d="m7.87,31.04c.53.22.98.61,1.32,1.17,1.47-.03,2.91-.2,4.31-.52-.43-.99-1-1.96-1.74-2.88-3.12-3.87-7.68-3.59-10.55.37-.41.57-.7,1.17-.89,1.79,1.66.47,3.38.83,5.09,1.04.42-.92,1.33-1.45,2.47-.97Z"/>
      <path class="cls-4" d="m25.5,70.43c.8,1.16,1.64,2.29,2.58,3.33.09-.12.17-.26.25-.39-1.14-.83-2.07-1.83-2.84-2.94Z"/>
      <path class="cls-5" d="m51.01,75.49c-.19-.05-.31-.07-.31-.07,0,0,.09.05.31.07Z"/>
      <path class="cls-4" d="m29.39,41.46s0,0,0,.01c-.13-.06-.26-.13-.39-.2-.59-.28-1.17-.58-1.76-.88-.27-.14-.54-.26-.81-.41.2-1.74.37-3.55.68-4.93-.3,1.36-.48,3.14-.67,4.85-.01-.01-.03-.03-.04-.04-.73-.87-1.46-2.26-2.38-3.15-.16-1.02-.35-2.14-1.38-2.53-.42-.16-.8,0-1.22.02-.33.02-.64.02-.94.02,1.21,3.9,2.55,7.39,3.63,9.71-.92,3.73-1.77,8.01-2.08,12.03-.42.55-.84,1.26-1.24,1.92-.35.58-.68,1.12-.97,1.48-.76.93-1.52,1.86-2.29,2.79-2.4,2.92-4.79,5.84-7.18,8.75-1.05,1.28-2.11,2.58-2.72,4.11-.07.18-.13.37-.19.56-.26.55-.45,1.18-.54,1.89-.25,2.02.35,4.07,1.13,5.94,1.94,4.62,5.11,8.7,9.11,11.7-.1,0,.59.83,1.61,1.8-.48,2.12-.65,4.43-.82,5.6-.11.88-.13,1.98.63,2.42.58.34,1.32.1,1.91-.2,1.91-.95,4.19-3.29,5.15-5.75.45-.56.78-1.46.94-2.8.19-1.64-.65-3.2-1.52-4.62-1.15-1.86-2.83-4.42-4.24-6.64-1.47-2.32-.63-5.36,1.77-6.69.28-.16.56-.32.84-.48.28-.6.62-1.18.82-1.81.61-1.88-.11-3.92-.87-5.75s-1.59-3.79-1.18-5.73c.89,2.03,1.98,3.99,3.23,5.83-3.28-4.9-3.23-11.77-1.95-14.71.1-.23.21-.47.32-.71,2.1-4.4,6.34-9.74,14.73-7.85,4.42.99,6.61,4.28,7.79,7.29,3.05,7.78-.14,14.16-.14,14.16-7.08-3.02-16.85-6.92-21.52-12.46,4.67,5.55,14.44,9.45,21.52,12.46,0,0-3.57,6.3-9.6,7.12,1.91-.18,3.88-.87,5.91-2.11.07.22.12.43.2.64.43-.72.9-1.45,1.39-2.26,1.75-2.87,3.78-5.71,5.3-8.72-2.39,4.73-2.94,10.37-1.49,15.47.41,1.47.98,3.1.27,4.45-.05.09-.1.18-.17.27-.01,1.31-.55,2.6-1.63,3.52-2,1.71-4.36,3.66-6.01,5.11-1.25,1.1-2.51,2.34-2.81,3.96-.24,1.33-.19,2.29.08,2.96.19,2.63,1.69,5.54,3.23,7.01.48.46,1.12.9,1.77.75.86-.2,1.16-1.26,1.31-2.13.19-1.17.7-3.43.86-5.59,1.34-.66,2.26-1.29,2.05-1.25,4.71-1.69,8.95-4.66,12.16-8.51,1.3-1.56,2.47-3.34,2.83-5.35.12-.7.13-1.36.04-1.96,0-.2,0-.4-.02-.59-.13-1.64-.76-3.2-1.39-4.73-1.89-4.6-3.78-9.21-5.67-13.81-.41-1-2.48-6.91-3.65-9.54.29-1.97.51-3.89.68-5.68-2.33-.2-4.64-.53-6.93-.97-5.36-1.04-10.56-2.75-15.48-5.07Zm21.31,33.97s.12.02.31.07c-.22-.02-.31-.07-.31-.07Z"/>
      <path class="cls-1" d="m24.64,55.99c4.67,5.55,14.44,9.45,21.52,12.46,0,0,3.19-6.38.14-14.16-1.18-3-3.37-6.29-7.79-7.29-8.39-1.89-12.63,3.45-14.73,7.85.26.38.55.76.86,1.13Z"/>
      <path class="cls-2" d="m46.16,68.45c-7.08-3.02-16.85-6.92-21.52-12.46-.31-.37-.6-.75-.86-1.13-.11.24-.22.48-.32.71-1.29,2.95-1.33,9.81,1.95,14.71.03.05.07.1.1.15.76,1.11,1.7,2.11,2.84,2.94,1.45,1.06,3.22,1.83,5.37,2.17,1,.16,1.96.15,2.85.03,6.03-.82,9.6-7.12,9.6-7.12Z"/>
      <path class="cls-5" d="m60.93,43.95s0,0,0,0c-3.28-3.51-6.44-5.7-7.75-6.54-4.88,2.59-10.13,2.09-10.13,2.09-7.12-.17-12.26-2.38-15.43-6.01-.01.02-.02.04-.04.06.01-.02.02-.04.03-.06-1.05-1.21-1.89-2.57-2.5-4.07v.02c-2.21.88-4.09,1.23-5.68,1.19.09.32.17.64.26.95.03.1.06.19.08.29.09.31.18.63.27.94.04.13.08.25.11.38.08.28.17.56.26.84.02.06.04.13.06.19h0c.3,0,.61,0,.94-.02.43-.02.8-.17,1.22-.02,1.03.38,1.22,1.51,1.38,2.53.92.9,1.65,2.28,2.38,3.15.01.01.03.03.04.04.19-1.71.37-3.49.67-4.85-.31,1.38-.48,3.19-.68,4.93.27.14.54.27.81.41.58.3,1.17.6,1.76.88.13.06.26.14.39.2,0,0,0,0,0-.01,4.92,2.32,10.12,4.03,15.48,5.07,2.29.44,4.6.77,6.93.97.05-.57.1-1.12.14-1.65.82.69,1.62,1.51,2.36,2.43,2.28-1.31,4.49-2.75,6.62-4.33,0,0,0,0,0,0Zm-33.6-9.74c.07-.22.14-.41.23-.59-.08.17-.16.37-.23.59Zm-.02.08c-.07.23-.14.47-.19.74.06-.26.12-.51.19-.74Z"/>
      <path class="cls-4" d="m60.93,43.95s0,0,0,0c-2.13,1.58-4.34,3.02-6.62,4.33,0,0,0,0,0,0,5.07,6.21,8.32,16.54,8.45,16.72.17.25-.03,11.1,2.98,11.23,3.01.13,6.91-4.27,3.99-16.43-1.63-6.79-5.28-12.08-8.79-15.85Z"/>
      <path class="cls-4" d="m17.17,15.24c.01-.24.04-.47.06-.7-.02.23-.04.46-.06.7Z"/>
      <path class="cls-4" d="m25.6,11.66s0,.02,0,.02c0,0,0-.01,0-.02Z"/>
      <path class="cls-4" d="m20.42,34.03c-.09-.28-.17-.56-.26-.84.08.28.17.56.26.84Z"/>
      <path class="cls-4" d="m25.68,11.37s-.01.04-.02.06c0-.02.01-.04.02-.06Z"/>
      <path class="cls-4" d="m20.05,32.81c-.09-.31-.18-.62-.27-.94.09.31.18.63.27.94Z"/>
      <path class="cls-4" d="m22.45,12.85c1.31-.49,2.5-1.36,3.5-2.35-.07.21-.13.4-.18.57.74-2.39,3.21-9.87.84-10.84-2.7-1.11-7.65,1.53-9.22,13.06,1.67-.16,3.42.18,5.06-.44Z"/>
      <path class="cls-4" d="m27.11,35.02c.06-.26.12-.51.19-.74-.07.23-.14.47-.19.74Z"/>
      <path class="cls-4" d="m27.33,34.21c.07-.22.14-.41.23-.59-.08.17-.16.37-.23.59Z"/>
      <path class="cls-5" d="m25.31,15.87c.08-2.39.28-3.99.26-4.07,0-.01,0-.06.02-.11,0,0,0-.01,0-.02.02-.06.04-.14.07-.24,0-.02.01-.04.02-.06.03-.09.06-.18.09-.29.05-.17.11-.35.18-.57-1,.99-2.19,1.86-3.5,2.35-1.65.62-3.39.28-5.06.44h0c-.05.34-.1.66-.14,1.02,0,.07-.01.15-.02.23-.02.23-.04.46-.06.7,0,.12-.01.24-.02.36,3.32-1.96,6.8-.48,8.16.27Z"/>
      <path class="cls-1" d="m60.49,28.28c9.51,3.41,11.07-5.78,7.39-9.92-3.01-3.4-6.73-1.87-8.07-1.14,1.51,3.04,2.06,6.72.68,11.07Z"/>
      <path class="cls-4" d="m25.11,29.44v-.02c.62,1.5,1.45,2.86,2.5,4.07-.01.02-.02.04-.03.06.01-.02.02-.04.04-.06,3.17,3.62,8.31,5.84,15.43,6.01,0,0,5.25.51,10.13-2.09,2.52-1.34,4.95-3.51,6.5-7.01.15-.33.27-.65.4-.97h0c12.55,5.02,14.67-6.86,9.97-12.16-4.7-5.29-10.77-1.04-10.77-1.04h0c-2.49-4.25-6.78-7.16-9.82-8.88-5.67-3.21-6.64-3.5-5.97-.75,0,0-4.1-2.61-4.18-1.42-.06,1.03.82,1.78,1.06,1.97-.43-.32-3.19-2.31-3.67-1.15-.52,1.27,0,1.64,0,1.64,0,0-7.32,2.91-10.94,8.49-.1-.06-.25-.16-.46-.27-1.36-.75-4.84-2.23-8.16-.27-.68.4-1.36.94-2.01,1.67-3.87,4.36-3.11,13.18,4.29,13.36.09.32.17.64.26.95-.09-.32-.18-.63-.26-.95,1.58.04,3.46-.31,5.68-1.19Zm42.77-11.09c3.68,4.15,2.12,13.34-7.39,9.92,1.38-4.35.83-8.02-.68-11.07,1.35-.73,5.06-2.25,8.07,1.14Zm-37.35,6.83s-1.64-9.64,2.98-11.75c4.62-2.12,9.04,3.03,9.04,3.03,0,0,5.65-5.07,10.27-2.09,4.62,2.98,3.52,11.93,3.52,11.93,0,0,3.49-.22,1.4,4.03-2.09,4.25-6.67,7.91-15.2,7.91s-12.7-5.97-14.41-8.2c-1.71-2.24-.89-6.11,2.39-4.85Zm-13.21-6.83c2.89-3.26,6.43-1.99,7.9-1.24-.87,1.62-1.41,3.43-1.4,5.45.02,2.04.33,3.95.9,5.71-9.51,3.41-11.07-5.78-7.39-9.92Z"/>
      <path class="cls-1" d="m24.71,28.28c-.57-1.76-.88-3.66-.9-5.71-.02-2.02.53-3.83,1.4-5.45-1.47-.75-5-2.02-7.9,1.24-3.68,4.15-2.12,13.34,7.39,9.92Z"/>
      <path class="cls-1" d="m42.55,38.23c8.52,0,13.11-3.65,15.2-7.91,2.09-4.25-1.4-4.03-1.4-4.03,0,0,1.1-8.95-3.52-11.93-4.62-2.98-10.27,2.09-10.27,2.09,0,0-4.42-5.15-9.04-3.03-4.62,2.12-2.98,11.75-2.98,11.75-3.28-1.27-4.1,2.61-2.39,4.85,1.72,2.24,5.89,8.2,14.41,8.2Zm-.73-12.51c-.12-.5,1.67-.79,2.47-.3.56.35-.3,1.09-.86,1.48v1.02c.18.15.33.23.45.21.15-.02.25-.2.25-.21.07-.15.25-.21.4-.13.15.07.21.25.14.4-.02.05-.23.45-.68.53-.05,0-.09.01-.14.01-.23,0-.47-.1-.71-.29-.39.23-.98.33-1.48-.17-.12-.12-.12-.3,0-.42s.3-.12.42,0c.31.31.62.17.78.07v-.93c-.33-.3-.94-.91-1.02-1.28Zm8.02-2.1c.37,0,.67.48.67,1.07s-.3,1.07-.67,1.07-.67-.48-.67-1.07.3-1.07.67-1.07Zm1.09,3.85c1.62-.31,3.04.02,3.18.74.14.72-1.06,1.56-2.68,1.88-1.62.31-3.04-.02-3.18-.74-.14-.72,1.06-1.56,2.68-1.88Zm-11.67-1.9c.06-.07,1.5-1.65,3.88-1.65s3.81,1.42,3.87,1.48c.12.12.11.31,0,.42-.12.12-.31.12-.42,0-.01-.01-1.33-1.31-3.44-1.31s-3.42,1.43-3.43,1.45c-.06.07-.14.1-.22.1-.07,0-.14-.03-.2-.08-.12-.11-.13-.3-.02-.42Zm-2.81-1.95c.37,0,.67.48.67,1.07s-.3,1.07-.67,1.07-.67-.48-.67-1.07.3-1.07.67-1.07Zm-.68,3.85c1.62.31,2.82,1.15,2.68,1.88-.14.72-1.56,1.05-3.18.74-1.62-.31-2.82-1.15-2.68-1.88.14-.72,1.56-1.06,3.18-.74Z"/>
      <path d="m42.06,27.86c-.12-.12-.3-.12-.42,0s-.12.3,0,.42c.5.5,1.09.41,1.48.17.24.19.48.29.71.29.05,0,.09,0,.14-.01.45-.08.66-.48.68-.53.07-.15.01-.33-.14-.4-.15-.07-.33-.01-.4.13,0,0-.1.18-.25.21-.12.02-.27-.07-.44-.21v-1.02c.54-.4,1.41-1.13.85-1.48-.79-.5-2.58-.2-2.47.3.09.36.7.97,1.02,1.28v.93c-.15.11-.46.24-.77-.07Z"/>
      <path d="m39.48,26.05c.08,0,.16-.03.22-.1.01-.01,1.33-1.45,3.43-1.45s3.43,1.29,3.44,1.31c.12.12.3.12.42,0,.12-.12.12-.3,0-.42-.06-.06-1.49-1.48-3.87-1.48s-3.82,1.58-3.88,1.65c-.11.12-.1.31.02.42.06.05.13.08.2.08Z"/>
      <path d="m49.84,25.76c.37,0,.67-.48.67-1.07s-.3-1.07-.67-1.07-.67.48-.67,1.07.3,1.07.67,1.07Z"/>
      <path d="m36.45,25.76c.37,0,.67-.48.67-1.07s-.3-1.07-.67-1.07-.67.48-.67,1.07.3,1.07.67,1.07Z"/>
      <path class="cls-3" d="m51.43,30.08c1.62-.31,2.82-1.15,2.68-1.88-.14-.72-1.56-1.06-3.18-.74-1.62.31-2.82,1.15-2.68,1.88.14.72,1.57,1.05,3.18.74Z"/>
      <path class="cls-3" d="m35.27,30.08c1.62.31,3.04-.02,3.18-.74.14-.72-1.06-1.56-2.68-1.88-1.62-.31-3.04.02-3.18.74-.14.72,1.06,1.56,2.68,1.88Z"/>
      <path class="cls-5" d="m47.88,78.6c-1.45-5.1-.9-10.74,1.49-15.47-1.52,3.01-3.55,5.85-5.3,8.72-.49.81-.96,1.54-1.39,2.26.8,2.17,2.25,4.08,3.93,5.82.92.95,1.38,2.18,1.37,3.39.07-.09.12-.18.17-.27.71-1.35.14-2.98-.27-4.45Z"/>
      <path class="cls-5" d="m25.4,70.28c-1.25-1.85-2.34-3.8-3.23-5.83-.41,1.94.42,3.9,1.18,5.73s1.48,3.87.87,5.75c-.2.63-.54,1.21-.82,1.81,1.81-1.08,3.46-2.36,4.68-3.98-.94-1.04-1.79-2.17-2.58-3.33-.03-.05-.07-.1-.1-.15Z"/>
    </g>
  </g>
</svg>