<?xml version="1.0" encoding="UTF-8"?>
<svg id="_Слой_1" data-name="Слой 1" xmlns="http://www.w3.org/2000/svg" width="78.9507" height="113.0378" viewBox="0 0 78.9507 113.0378">
  <path d="m74.3846,63.216c2.92,12.16-.98,16.56-3.99,16.43-3.01-.12-2.81-10.98-2.98-11.22-.06-.1-.9-2.72-2.36-6.1-1.47-3.38-3.55-7.52-6.08-10.63-.75-.92-1.54-1.74-2.3701-2.43-.04.54-.09,1.09-.14,1.65-.17,1.79-.39,3.71-.68,5.68,1.18,2.6201,3.24,8.54,3.65,9.54,1.89,4.6,3.78,9.21,5.67,13.81.63,1.53,1.26,3.09,1.39,4.73.02.19.02.39.02.59.09.6.08,1.26-.04,1.96-.36,2.01-1.53,3.79-2.83,5.35-3.21,3.85-7.45,6.82-12.16,8.51.21-.04-.71.59-2.05,1.25-.16,2.16-.67,4.42-.86,5.59-.15.87-.45,1.93-1.31,2.13-.65.15-1.29-.29-1.77-.75-1.54-1.47-3.04-4.38-3.23-7.01-.27-.67-.32-1.63-.08-2.96.3-1.62,1.56-2.86,2.81-3.96,1.65-1.45,4.01-3.4,6.01-5.11,1.08-.92,1.62-2.21,1.63-3.52.01-1.21-.45-2.44-1.37-3.39-1.68-1.74-3.13-3.65-3.93-5.82-.08-.21-.13-.43-.2-.65-2.03,1.24-4.01,1.93-5.91,2.11-.9.12-1.85.13-2.85-.03-2.15-.34-3.92-1.11-5.37-2.17-.09.13-.17.26-.26.39-1.22,1.62-2.87,2.9-4.68,3.98-.28.16-.56.32-.84.48-2.4,1.33-3.2401,4.37-1.77,6.69,1.41,2.22,3.09,4.78,4.24,6.64.87,1.42,1.71,2.98,1.52,4.62-.16,1.34-.49,2.2401-.94,2.8-.96,2.46-3.24,4.8-5.15,5.75-.59.3-1.33.54-1.91.2-.76-.4399-.74-1.54-.63-2.42.17-1.17.34-3.48.82-5.6-1.02-.97-1.71-1.8-1.61-1.8-4-3-7.17-7.08-9.11-11.7-.78-1.87-1.38-3.92-1.13-5.94.09-.71.28-1.34.54-1.89.06-.19.12-.38.19-.56.61-1.53,1.67-2.83,2.72-4.11,2.39-2.92,4.79-5.84,7.19-8.76-.15-.09-.3-.17-.45-.27-7.89-5.1-11.4-11.68-8.83-19.05,1.9301-5.55,1.95-8.9.9301-10.61-.33-.56-.78-.95-1.31-1.17-1.15-.48-2.05.05-2.48.97-.37.8-.36,1.9.2,2.88,1.2,2.08,1.3,4.66-1.59,4.27-2.47-.33-4.86-4.51-3.7-8.19.2-.62.48-1.22.89-1.79,2.88-3.96,7.44-4.24,10.56-.37.75.92,1.32,1.89,1.7401,2.88h.0099c1.36,3.15,1.2401,6.51.33,9.37-1.2,3.75-1.7,8.84.62,11.82,1.19,1.53,3.61,3.59,6.34,5,.4-.66.82-1.37,1.24-1.92.31-4.02,1.16-8.3,2.08-12.04-.54-1.16-1.15-2.6-1.77-4.25-.62-1.65-1.26-3.5-1.86-5.45-.02-.07-.04-.13-.06-.19-.09-.28-.17-.56-.26-.84-.03-.13-.07-.25-.11-.38-.09-.31-.18-.62-.27-.94-.03-.09-.06-.19-.09-.29-.08-.31-.17-.63-.2599-.95-7.4-.18-8.16-9-4.29-13.36.65-.73,1.33-1.27,2.01-1.67.01-.12.01-.2401.02-.36.01-.24.03-.47.06-.7,0-.08.01-.16.02-.23.04-.36.09-.68.14-1.02,1.57-11.53,6.51-14.17,9.22-13.06,2.2.91.22,7.4399-.66,10.27v.01c-.07.21-.13.4-.18.57-.03.1-.06.2-.09.28-.01.02-.01.04-.02.06-.03.1-.05.1801-.06.2401-.01.0099-.01.02-.01.03-.01.05-.02.1-.02.11.02.08-.18,1.6801-.2599,4.07.21.12.36.21.46.27,3.62-5.58,10.94-8.49,10.94-8.49,0,0-.52-.37,0-1.64.45-1.1,2.9.59,3.56,1.06-.33-.28-1.01-.97-.95-1.88.07-1.19,4.18,1.42,4.18,1.42-.68-2.7599.29-2.47,5.96.7401,1.52.86,3.35,2.02,5.12,3.49,1.76,1.48,3.46,3.26,4.7,5.39,0,0,6.07-4.25,10.77,1.04,4.69,5.3,2.58,17.17-9.97,12.17-.13.32-.26.63-.4.96-1.55,3.5-3.98,5.67-6.5,7.01,1.31.84,4.47,3.02,7.75,6.54,3.5099,3.76,7.16,9.05,8.79,15.84Z" style="fill: #333;"/>
  <g>
    <g>
      <path d="m8.6694,42.5913c2.885.384,2.784-2.194,1.583-4.275-.562-.973-.564-2.073-.193-2.878-1.718-.21-3.43-.571-5.094-1.041-1.165,3.681,1.234,7.866,3.704,8.194Z" style="fill: #90473f;"/>
      <path d="m18.1604,35.1193c-1.398.326-2.845.491-4.313.521,1.02,1.708.996,5.063-.937,10.609-2.57,7.373.942,13.952,8.838,19.051s13.87-.452,13.87-.452l-2.279-2.292c-4.893,1.76-11.893-3.257-14.221-6.244-2.328-2.988-1.823-8.075-.627-11.827.909-2.857,1.034-6.216-.331-9.366Z" style="fill: #7f3b36;"/>
      <path d="m16.4144,32.2373c-3.121-3.872-7.676-3.589-10.555.368-.414.569-.698,1.174-.894,1.792,1.664.47,3.376.831,5.094,1.041.422-.916,1.328-1.452,2.471-.97.532.224.981.609,1.316,1.172,1.468-.03,2.915-.195,4.313-.521-.428-.989-.999-1.957-1.745-2.882Z" style="fill: #7f3b36;"/>
    </g>
    <path d="m42.2684,102.2953c.19,2.63,1.69,5.54,3.23,7.01.48.46,1.12.9,1.77.75.86-.2,1.16-1.26,1.31-2.13.19-1.17.7-3.43.86-5.59,1.34-.66,2.26-1.29,2.05-1.25,4.71-1.69,8.95-4.66,12.16-8.51,1.3-1.56,2.47-3.34,2.83-5.35.12-.7.13-1.36.04-1.96,0-.2,0-.4-.02-.59-.13-1.64-.76-3.2-1.39-4.73-1.89-4.6-3.78-9.21-5.67-13.81-.5-1.22-3.47-9.76-4.27-10.71-1.34-1.58-4.74,4.55-5.82,5.54-3.66,3.33-3.16,9.25-2.59,14.16.09.84.29,1.64.58,2.41.8,2.17,2.25,4.08,3.93,5.82.92.95,1.38,2.18,1.37,3.39-.01,1.31-.55,2.6-1.63,3.52-2,1.71-4.36,3.66-6.01,5.11-1.25,1.1-2.51,2.34-2.81,3.96-.24,1.33-.19,2.29.08,2.96Z" style="fill: #90473f;"/>
    <path d="m12.6884,86.8253c1.94,4.62,5.11,8.7,9.11,11.7-.1,0,.59.83,1.61,1.8-.48,2.12-.65,4.43-.82,5.6-.11.88-.13,1.98.63,2.42.58.34,1.32.1,1.91-.2,1.91-.95,4.19-3.29,5.15-5.75.45-.56.78-1.46.94-2.8.19-1.64-.65-3.2-1.52-4.62-1.15-1.86-2.83-4.42-4.24-6.64-1.47-2.32-.63-5.36,1.77-6.69.28-.16.56-.32.84-.48,1.81-1.08,3.46-2.36,4.68-3.98.47-.64.88-1.33,1.21-2.08,1.99-4.53.28-9.84-2.24-14.1-.75-1.26-2.49-3.54-4.23-2.42-1.04.67-2.17,3.18-3.01,4.2-3.16,3.85-6.32,7.7-9.47,11.54-1.05,1.28-2.11,2.58-2.72,4.11-.07.18-.13.37-.19.56-.26.55-.45,1.18-.54,1.89-.25,2.02.35,4.07,1.13,5.94Z" style="fill: #90473f;"/>
    <path d="m55.6734,78.9213c-.194-.047-.311-.072-.311-.072,0,0,.094.048.311.072Z" style="fill: #7f3b36;"/>
    <path d="m29.9884,42.8173c.989-3.42,1.808-5.702,1.808-5.702l25.006,4.205c.19.032.174,4.165-.338,9.602-9.323-.813-18.367-3.569-26.476-8.105Z" style="fill: #7f3b36;"/>
    <path d="m56.4644,50.9223c-.845,8.976-3.043,21.508-7.904,25.023-7.806,5.645-14.889,3.475-20.262-5.322-3.742-6.126-.577-19.964,1.691-27.806,8.108,4.536,17.152,7.292,26.475,8.105Z" style="fill: #90473f;"/>
    <path d="m28.4414,58.2863c2.095-4.402,6.342-9.74,14.727-7.851,4.421.995,6.614,4.283,7.793,7.286,3.051,7.777-.136,14.158-.136,14.158-7.553-3.216-18.161-7.439-22.384-13.593Z" style="fill: #cb7a44;"/>
    <path d="m28.4414,58.2863c4.223,6.154,14.83,10.377,22.383,13.593,0,0-4.708,8.319-12.454,7.09-11.284-1.79-12.222-15.464-10.254-19.973.102-.233.211-.47.325-.71Z" style="fill: #c16f40;"/>
    <path d="m53.1594,47.3303c-3.791-1.05,4.042-6.888,4.042-6.888,0,0,4.098,2.331,8.39,6.932-2.126,1.576-4.336,3.022-6.619,4.328-1.742-2.134-3.696-3.786-5.813-4.372Z" style="fill: #7f3b36;"/>
    <path d="m58.9714,51.7023c2.283-1.306,4.493-2.752,6.619-4.328,3.515,3.768,7.16,9.057,8.794,15.849,2.923,12.155-.982,16.555-3.99,16.429-3.007-.126-2.809-10.98-2.978-11.227-.125-.184-3.375-10.509-8.445-16.723Z" style="fill: #90473f;"/>
    <path d="m31.6064,36.1383s9.524,1.897,6.319,4.179c-1.655,1.179-2.918,2.769-3.883,4.579-2.096-.986-4.142-2.08-6.124-3.288,1.936-3.45,3.688-5.47,3.688-5.47Z" style="fill: #7f3b36;"/>
    <path d="m32.8904,36.2303c-4.339-8.135-2.594-20.764-2.654-21.002-.074-.29,3.819-10.424,1.036-11.569-2.783-1.146-7.956,1.656-9.361,14.078-1.024,9.055,4.904,26.277,7.658,31.188,1.982-1.208,1.225-11.709,3.321-12.695Z" style="fill: #90473f;"/>
    <path d="m22.0514,16.7203c1.674-.163,3.416.178,5.063-.44,1.307-.491,2.5-1.356,3.497-2.348-.233.744-.39,1.236-.375,1.296.061.237-1.684,12.867,2.654,21.002-1.15.541-1.443,3.941-1.799,7.104-.012-.014-.026-.027-.038-.041-.729-.873-1.458-2.255-2.375-3.155-.158-1.022-.35-2.143-1.375-2.527-.42-.157-.798-.006-1.224.015-.332.016-.64.021-.939.018-2.094-6.731-3.821-14.678-3.23-19.906.041-.357.094-.677.141-1.018Z" style="fill: #7f3b36;"/>
    <path d="m63.9444,19.6593s6.067-4.255,10.766,1.04,2.584,17.172-9.969,12.166l-.797-13.206Z" style="fill: #90473f;"/>
    <path d="m63.9444,20.9483s4.844-3.397,8.596.831c3.751,4.228,2.063,13.711-7.96,9.714l-.636-10.545Z" style="fill: #cb7a44;"/>
    <path d="m30.5714,19.6593s-6.067-4.255-10.766,1.04-2.584,17.172,9.969,12.166l.797-13.206Z" style="fill: #90473f;"/>
    <path d="m30.5714,20.9483s-4.844-3.397-8.596.831c-3.751,4.228-2.063,13.711,7.96,9.714l.636-10.545Z" style="fill: #cb7a44;"/>
    <path d="m47.7124,42.9243s12.081,1.171,16.631-9.099c5.519-12.455-4.549-19.838-10.217-23.045s-6.638-3.505-5.966-.746c0,0-4.102-2.61-4.176-1.417-.075,1.193,1.119,2.014,1.119,2.014,0,0-3.207-2.461-3.729-1.193s0,1.641,0,1.641c0,0-12.977,5.146-12.902,14.916s6.487,16.63,19.24,16.929Z" style="fill: #90473f;"/>
    <path d="m47.2084,19.8793s5.65-5.071,10.275-2.088c4.624,2.983,3.519,11.933,3.519,11.933,0,0,3.492-.224,1.404,4.027-2.088,4.251-6.673,7.905-15.197,7.905s-12.696-5.966-14.411-8.204c-1.715-2.237-.895-6.115,2.387-4.848,0,0-1.641-9.636,2.983-11.754,4.622-2.117,9.04,3.029,9.04,3.029Z" style="fill: #cb7a44;"/>
    <g>
      <path d="m47.6884,30.5973s2.05-1.256,1.255-1.753c-.795-.497-2.583-.199-2.467.298s1.212,1.455,1.212,1.455Z"/>
      <path d="m48.4944,32.1653c.047,0,.093-.003.139-.011.45-.075.663-.483.685-.529.073-.148.012-.327-.136-.399-.148-.073-.325-.013-.398.133-.004.008-.102.183-.251.206-.136.019-.32-.08-.523-.283-.114-.114-.298-.117-.416-.006-.075.068-.477.4-.871.006-.117-.117-.305-.117-.422,0s-.117.305,0,.422c.499.501,1.09.406,1.479.173.242.192.481.288.714.288Z"/>
      <path d="m47.7994,31.7923h.003c.165-.002.297-.136.296-.301l-.017-1.902c-.001-.165-.129-.285-.301-.295-.165.002-.297.136-.296.301l.018,1.902c0,.164.134.295.297.295Z"/>
    </g>
    <path d="m44.1454,29.4803c.082,0,.163-.033.222-.099.013-.014,1.326-1.448,3.432-1.448,2.114,0,3.43,1.293,3.443,1.306.116.117.305.117.422.001s.118-.305.002-.421c-.06-.061-1.495-1.483-3.867-1.483-2.381,0-3.817,1.58-3.877,1.647-.11.123-.099.311.024.421.057.051.128.076.199.076Z"/>
    <ellipse cx="54.4994" cy="28.1103" rx=".671" ry="1.072"/>
    <ellipse cx="41.1134" cy="28.1103" rx=".671" ry="1.072"/>
    <path d="m52.9124,32.7603c.14.723,1.565,1.055,3.182.743,1.618-.313,2.816-1.152,2.676-1.875s-1.564-1.056-3.182-.743c-1.617.313-2.815,1.152-2.676,1.875Z" style="fill: #f19a94;"/>
    <path d="m43.1094,32.7603c-.14.723-1.564,1.055-3.182.743-1.618-.313-2.816-1.152-2.676-1.875s1.564-1.056,3.182-.743c1.618.313,2.816,1.152,2.676,1.875Z" style="fill: #f19a94;"/>
    <path d="m47.3384,77.5353c.8,2.17,2.25,4.08,3.93,5.82.92.95,1.38,2.18,1.37,3.39.07-.09.12-.18.17-.27.71-1.35.14-2.98-.27-4.45-1.45-5.1-.9-10.74,1.49-15.47-1.52,3.01-3.55,5.85-5.3,8.72-.49.81-.96,1.54-1.39,2.26Z" style="fill: #7f3b36;"/>
    <path d="m28.0184,73.6053c.76,1.83,1.48,3.87.87,5.75-.2.63-.54,1.21-.82,1.81,1.81-1.08,3.46-2.36,4.68-3.98-2.48-2.74-4.44-5.94-5.91-9.31-.41,1.94.42,3.9,1.18,5.73Z" style="fill: #7f3b36;"/>
  </g>
</svg>