<?xml version="1.0" encoding="UTF-8"?>
<svg id="_Слой_2" data-name="Слой 2" xmlns="http://www.w3.org/2000/svg" viewBox="0 0 72.35 106.66">
  <defs>
    <style>
      .cls-1 {
        fill: #333;
      }
    </style>
  </defs>
  <g id="_Слой_1-2" data-name="Слой 1">
    <path class="cls-1" d="m69.73,59.8c2.92,12.15-.98,16.55-3.99,16.43-3.01-.13-2.81-10.98-2.98-11.23-.06-.09-.9-2.72-2.36-6.1-1.47-3.38-3.55-7.52-6.08-10.62-.75-.92-1.54-1.74-2.37-2.43-.04.53-.09,1.08-.14,1.65-.17,1.78-.39,3.71-.68,5.67,1.17,2.63,3.24,8.54,3.65,9.54,1.89,4.6,3.78,9.21,5.67,13.81.63,1.53,1.26,3.09,1.39,4.73.02.19.02.39.02.59.09.6.08,1.26-.04,1.96-.36,2.01-1.53,3.79-2.83,5.35-3.21,3.85-7.45,6.82-12.16,8.51.21-.04-.71.59-2.05,1.25-.16,2.16-.67,4.42-.86,5.59-.15.87-.45,1.93-1.31,2.13-.65.15-1.29-.29-1.77-.75-1.54-1.47-3.04-4.38-3.23-7.01-.27-.67-.32-1.63-.08-2.96.3-1.62,1.56-2.86,2.81-3.96,1.65-1.45,4.01-3.4,6.01-5.11,1.08-.92,1.62-2.21,1.63-3.52.01-1.21-.45-2.44-1.37-3.39-1.68-1.74-3.13-3.65-3.93-5.82-.08-.21-.13-.43-.2-.64-2.03,1.23-4.01,1.92-5.91,2.11-.9.12-1.85.13-2.86-.03-2.14-.34-3.91-1.12-5.36-2.17-.09.12-.17.26-.26.38-1.22,1.62-2.87,2.9-4.68,3.98-.28.16-.56.32-.84.48-2.4,1.33-3.24,4.37-1.77,6.69,1.41,2.22,3.09,4.78,4.24,6.64.87,1.42,1.71,2.98,1.52,4.62-.16,1.34-.49,2.24-.94,2.8-.96,2.46-3.24,4.8-5.15,5.75-.59.3-1.33.54-1.91.2-.76-.44-.74-1.54-.63-2.42.17-1.17.34-3.48.82-5.6-1.02-.97-1.71-1.8-1.61-1.8-4-3-7.17-7.08-9.11-11.7-.78-1.87-1.38-3.92-1.13-5.94.09-.71.28-1.34.54-1.89.06-.19.12-.38.19-.56.61-1.53,1.67-2.83,2.72-4.11,2.39-2.91,4.79-5.83,7.19-8.75-.15-.09-.3-.18-.45-.27-7.89-5.1-11.41-11.68-8.84-19.05,1.94-5.55,1.96-8.91.94-10.61-.33-.57-.78-.95-1.32-1.18-1.14-.48-2.04.06-2.47.97-.37.81-.37,1.91.2,2.88,1.2,2.08,1.3,4.66-1.59,4.28-2.47-.33-4.87-4.52-3.7-8.2.2-.61.48-1.22.89-1.79,2.88-3.96,7.44-4.24,10.56-.37.74.93,1.32,1.9,1.74,2.89,1.37,3.15,1.24,6.5.34,9.36-1.2,3.75-1.71,8.84.62,11.83,1.19,1.53,3.61,3.58,6.34,4.99.39-.66.82-1.37,1.24-1.92.31-4.02,1.16-8.3,2.08-12.03-1.08-2.32-2.42-5.81-3.63-9.71h-.01c-.01-.06-.03-.12-.05-.19-.09-.27-.17-.55-.26-.84-.04-.12-.07-.25-.11-.37-.09-.31-.18-.63-.27-.94-.03-.1-.06-.19-.09-.29-.09-.32-.17-.64-.26-.95-7.4-.18-8.16-9-4.29-13.36.65-.74,1.33-1.27,2.01-1.68.01-.12.01-.24.02-.36.01-.23.03-.47.06-.7,0-.07.01-.15.01-.23.05-.35.1-.67.15-1.01C18.97,1.76,23.91-.88,26.62.24c2.36.97-.1,8.45-.84,10.84-.04.1-.07.2-.09.29-.01.02-.01.04-.02.06-.03.09-.05.18-.07.24v.02c-.02.06-.02.1-.02.11.02.09-.18,1.69-.26,4.08.21.11.36.21.46.27,3.61-5.59,10.94-8.49,10.94-8.49,0,0-.52-.38,0-1.65.45-1.09,2.88.59,3.55,1.06-.33-.27-1-.97-.94-1.88.07-1.19,4.17,1.42,4.17,1.42-.67-2.76.3-2.46,5.97.75,1.52.86,3.35,2.01,5.11,3.49,1.77,1.47,3.47,3.27,4.71,5.39,0,0,6.07-4.26,10.76,1.04,4.7,5.29,2.59,17.17-9.96,12.16h-.01c-.12.31-.25.63-.39.96-1.55,3.5-3.98,5.67-6.5,7.01,1.31.84,4.47,3.03,7.75,6.54h-.01c3.52,3.77,7.16,9.06,8.8,15.85Z"/>
  </g>
</svg>