<?xml version="1.0" encoding="UTF-8"?>
<svg id="_Слой_1" data-name="Слой 1" xmlns="http://www.w3.org/2000/svg" width="78.9507" height="113.0378" viewBox="0 0 78.9507 113.0378">
  <path d="m74.3846,63.216c2.92,12.16-.98,16.56-3.99,16.43-3.01-.12-2.81-10.98-2.98-11.22-.06-.1-.9-2.72-2.36-6.1-1.47-3.38-3.55-7.52-6.08-10.63-.75-.92-1.54-1.74-2.3701-2.43-.04.54-.09,1.09-.14,1.65-.17,1.79-.39,3.71-.68,5.68,1.18,2.6201,3.24,8.54,3.65,9.54,1.89,4.6,3.78,9.21,5.67,13.81.63,1.53,1.26,3.09,1.39,4.73.02.19.02.39.02.59.09.6.08,1.26-.04,1.96-.36,2.01-1.53,3.79-2.83,5.35-3.21,3.85-7.45,6.82-12.16,8.51.21-.04-.71.59-2.05,1.25-.16,2.16-.67,4.42-.86,5.59-.15.87-.45,1.93-1.31,2.13-.65.15-1.29-.29-1.77-.75-1.54-1.47-3.04-4.38-3.23-7.01-.27-.67-.32-1.63-.08-2.96.3-1.62,1.56-2.86,2.81-3.96,1.65-1.45,4.01-3.4,6.01-5.11,1.08-.92,1.62-2.21,1.63-3.52.01-1.21-.45-2.44-1.37-3.39-1.68-1.74-3.13-3.65-3.93-5.82-.08-.21-.13-.43-.2-.65-2.03,1.24-4.01,1.93-5.91,2.11-.9.12-1.85.13-2.85-.03-2.15-.34-3.92-1.11-5.37-2.17-.09.13-.17.26-.26.39-1.22,1.62-2.87,2.9-4.68,3.98-.28.16-.56.32-.84.48-2.4,1.33-3.2401,4.37-1.77,6.69,1.41,2.22,3.09,4.78,4.24,6.64.87,1.42,1.71,2.98,1.52,4.62-.16,1.34-.49,2.2401-.94,2.8-.96,2.46-3.24,4.8-5.15,5.75-.59.3-1.33.54-1.91.2-.76-.4399-.74-1.54-.63-2.42.17-1.17.34-3.48.82-5.6-1.02-.97-1.71-1.8-1.61-1.8-4-3-7.17-7.08-9.11-11.7-.78-1.87-1.38-3.92-1.13-5.94.09-.71.28-1.34.54-1.89.06-.19.12-.38.19-.56.61-1.53,1.67-2.83,2.72-4.11,2.39-2.92,4.79-5.84,7.19-8.76-.15-.09-.3-.17-.45-.27-7.89-5.1-11.4-11.68-8.83-19.05,1.9301-5.55,1.95-8.9.9301-10.61-.33-.56-.78-.95-1.31-1.17-1.15-.48-2.05.05-2.48.97-.37.8-.36,1.9.2,2.88,1.2,2.08,1.3,4.66-1.59,4.27-2.47-.33-4.86-4.51-3.7-8.19.2-.62.48-1.22.89-1.79,2.88-3.96,7.44-4.24,10.56-.37.75.92,1.32,1.89,1.7401,2.88h.0099c1.36,3.15,1.2401,6.51.33,9.37-1.2,3.75-1.7,8.84.62,11.82,1.19,1.53,3.61,3.59,6.34,5,.4-.66.82-1.37,1.24-1.92.31-4.02,1.16-8.3,2.08-12.04-.54-1.16-1.15-2.6-1.77-4.25-.62-1.65-1.26-3.5-1.86-5.45-.02-.07-.04-.13-.06-.19-.09-.28-.17-.56-.26-.84-.03-.13-.07-.25-.11-.38-.09-.31-.18-.62-.27-.94-.03-.09-.06-.19-.09-.29-.08-.31-.17-.63-.2599-.95-7.4-.18-8.16-9-4.29-13.36.65-.73,1.33-1.27,2.01-1.67.01-.12.01-.2401.02-.36.01-.24.03-.47.06-.7,0-.08.01-.16.02-.23.04-.36.09-.68.14-1.02,1.57-11.53,6.51-14.17,9.22-13.06,2.2.91.22,7.4399-.66,10.27v.01c-.07.21-.13.4-.18.57-.03.1-.06.2-.09.28-.01.02-.01.04-.02.06-.03.1-.05.1801-.06.2401-.01.0099-.01.02-.01.03-.01.05-.02.1-.02.11.02.08-.18,1.6801-.2599,4.07.21.12.36.21.46.27,3.62-5.58,10.94-8.49,10.94-8.49,0,0-.52-.37,0-1.64.45-1.1,2.9.59,3.56,1.06-.33-.28-1.01-.97-.95-1.88.07-1.19,4.18,1.42,4.18,1.42-.68-2.7599.29-2.47,5.96.7401,1.52.86,3.35,2.02,5.12,3.49,1.76,1.48,3.46,3.26,4.7,5.39,0,0,6.07-4.25,10.77,1.04,4.69,5.3,2.58,17.17-9.97,12.17-.13.32-.26.63-.4.96-1.55,3.5-3.98,5.67-6.5,7.01,1.31.84,4.47,3.02,7.75,6.54,3.5099,3.76,7.16,9.05,8.79,15.84Z" style="fill: #333;"/>
</svg>