<?xml version="1.0" encoding="UTF-8"?>
<svg id="_Слой_1" data-name="Слой 1" xmlns="http://www.w3.org/2000/svg" width="98.4802" height="133.8338" viewBox="0 0 98.4802 133.8338">
  <path d="m94.2949,105.6327c-.779-1.269-2.019-2.514-3.503-2.385-1.217.105-2.144,1.095-2.945,2.017-.2269.2612-.4537.5225-.6807.7838-1.0093-7.0343-5.2659-13.4944-10.9053-18.2547-6.017-5.079-13.509-6.519-21.194-8.881-2.8558-.8776-5.8919-1.7214-8.1486-3.5167,2.6426-2.0955,4.6382-5.0853,4.8495-8.377.0004-.0001.0007-.0002.001-.0004.015-.237.024-.474.02-.713-.037-2.456-1.055-4.776-2.056-7.019-1.735-3.89-3.514-7.849-6.344-11.033-.263-.296-.549-.578-.8459-.854-.0141.0043-.0273.0108-.0414.0151.0005-.0005.001-.001.0015-.0015.0135-.0042.0262-.0104.0399-.0146-.0045-.0042-.0097-.0076-.0142-.0118,5.2409-5.3802,10.3795-11.1884,13.7961-17.4962,4.387-8.1,6.191-17.779,2.541-26.197-7.885,5.04-13.076,13.167-16.025,21.699-2.1796,6.3065-3.2479,12.8777-4.022,19.4833-2.2604-1.1129-4.7925-1.7534-7.136-1.7534s-4.8704.6555-7.1331,1.7684c-.7742-6.6107-1.8427-13.1871-4.0239-19.4984-.671-1.941-1.465-3.859-2.373-5.728-.0128.0016-.0252.0052-.038.0068.0128-.0016.0252-.0052.038-.0068-3.084-6.34-7.561-12.077-13.651-15.97-3.223,7.433-2.189,15.849,1.117,23.294,1.359-1.895,3.1071-3.543,5.149-4.783-2.042,1.24-3.789,2.888-5.149,4.783.438.986.912,1.956,1.424,2.903,3.4175,6.3099,8.5588,12.12,13.8021,17.5023-.3014.2787-.6015.5588-.868.8588-2.83,3.185-4.608,7.143-6.344,11.033-1,2.243-2.019,4.564-2.056,7.019-.064,4.217,2.86,8.025,6.47,10.208,2.1046,1.273,4.9579,2.3634,7.8069,3.0615-.1972.4949-.3756.9922-.5368,1.4917-3.0922,3.5936-4.6254,9.5263-4.1451,13.5468.4703,3.9359,2.4596,7.5884,5.3116,10.2499,1.9877,7.8666,4.2037,15.1659,2.4194,20.7841-.463,1.457-.992,3.136-.333,4.485.993,2.033,2.967,1.486,4.843.667,4.8749-2.1293,6.8663-9.8231,7.4666-16.8182.0938.0735.1777.1498.2751.2222.0001.0006.0002.0015.0003.0021.597.445,1.259.871,1.998,1.269.198.104.397.208.5959.303,0-.0005-.0002-.0011-.0002-.0016.0004.0002.0009.0005.0013.0007,3.1998,1.572,6.9867,2.234,10.8486,2.348.0002.0003.0002.0007.0004.001.7595.0265,1.5182.0215,2.275.002,1.9833,2.6176,5.0518,4.5593,8.618,5.3881-3.67.097-15.868.026-16.868,4.924-.372,1.824,3.094,2.006,5.062,1.844,6.244-.516,12.487.137,18.731-.38,1.722-.142,3.805-.539,4.349-2.082l.501-.88c2.7466-1.5209,4.9756-3.6964,6.6423-6.2314,1.4332.6935,3.0767.9797,4.6497.7244,3.265-.53,6.019-3.13,7.046-6.275,1.026-3.144.419-6.707-1.31-9.526Z" style="fill: #383532;"/>
  <path d="m94.2949,105.6327c-.779-1.269-2.019-2.514-3.503-2.385-1.217.105-2.144,1.095-2.945,2.017-.2269.2612-.4537.5225-.6807.7838-1.0093-7.0343-5.2659-13.4944-10.9053-18.2547-6.017-5.079-13.509-6.519-21.194-8.881-2.8558-.8776-5.8919-1.7214-8.1486-3.5167,2.6426-2.0955,4.6382-5.0853,4.8495-8.377.0004-.0001.0007-.0002.001-.0004.015-.237.024-.474.02-.713-.037-2.456-1.055-4.776-2.056-7.019-1.735-3.89-3.514-7.849-6.344-11.033-.263-.296-.549-.578-.8459-.854-.0141.0043-.0273.0108-.0414.0151.0005-.0005.001-.001.0015-.0015.0135-.0042.0262-.0104.0399-.0146-.0045-.0042-.0097-.0076-.0142-.0118,5.2409-5.3802,10.3795-11.1884,13.7961-17.4962,4.387-8.1,6.191-17.779,2.541-26.197-7.885,5.04-13.076,13.167-16.025,21.699-2.1796,6.3065-3.2479,12.8777-4.022,19.4833-2.2604-1.1129-4.7925-1.7534-7.136-1.7534s-4.8704.6555-7.1331,1.7684c-.7742-6.6107-1.8427-13.1871-4.0239-19.4984-.671-1.941-1.465-3.859-2.373-5.728-.0128.0016-.0252.0052-.038.0068.0128-.0016.0252-.0052.038-.0068-3.084-6.34-7.561-12.077-13.651-15.97-3.223,7.433-2.189,15.849,1.117,23.294,1.359-1.895,3.1071-3.543,5.149-4.783-2.042,1.24-3.789,2.888-5.149,4.783.438.986.912,1.956,1.424,2.903,3.4175,6.3099,8.5588,12.12,13.8021,17.5023-.3014.2787-.6015.5588-.868.8588-2.83,3.185-4.608,7.143-6.344,11.033-1,2.243-2.019,4.564-2.056,7.019-.064,4.217,2.86,8.025,6.47,10.208,2.1046,1.273,4.9579,2.3634,7.8069,3.0615-.1972.4949-.3756.9922-.5368,1.4917-3.0922,3.5936-4.6254,9.5263-4.1451,13.5468.4703,3.9359,2.4596,7.5884,5.3116,10.2499,1.9877,7.8666,4.2037,15.1659,2.4194,20.7841-.463,1.457-.992,3.136-.333,4.485.993,2.033,2.967,1.486,4.843.667,4.8749-2.1293,6.8663-9.8231,7.4666-16.8182.0938.0735.1777.1498.2751.2222.0001.0006.0002.0015.0003.0021.597.445,1.259.871,1.998,1.269.198.104.397.208.5959.303,0-.0005-.0002-.0011-.0002-.0016.0004.0002.0009.0005.0013.0007,3.1998,1.572,6.9867,2.234,10.8486,2.348.0002.0003.0002.0007.0004.001.7595.0265,1.5182.0215,2.275.002,1.9833,2.6176,5.0518,4.5593,8.618,5.3881-3.67.097-15.868.026-16.868,4.924-.372,1.824,3.094,2.006,5.062,1.844,6.244-.516,12.487.137,18.731-.38,1.722-.142,3.805-.539,4.349-2.082l.501-.88c2.7466-1.5209,4.9756-3.6964,6.6423-6.2314,1.4332.6935,3.0767.9797,4.6497.7244,3.265-.53,6.019-3.13,7.046-6.275,1.026-3.144.419-6.707-1.31-9.526Z" style="fill: #383532; stroke: #fff; stroke-miterlimit: 10; stroke-width: 4px;"/>
  <g>
    <path d="m72.3099,112.4827c-2.906,3.929-8.87,5.339-14.143,5.604-.104.009-.208.009-.312.009-1.079.057-2.168.066-3.256.028-3.862-.114-7.649-.776-10.849-2.348-.199-.095-.398-.199-.596-.303-.739-.398-1.401-.824-1.998-1.269-9.855-7.318-.937-20.306,11.18-23.979,4.146-1.25,8.766-1.477,12.486.028,5.32,2.149,7.782,7.308,8.842,12.307.691,3.268.861,6.931-1.354,9.923Z" style="fill: #fffaf3;"/>
    <path d="m67.1039,99.2107c-2.386,5.642-4.8,11.294-7.744,16.671-.426.795-.88,1.59-1.505,2.215-1.079.057-2.168.066-3.256.028-.36-.71-.606-1.59-.795-2.244-.663-2.225-.748-4.62-.256-6.882.274-1.25.729-2.471,1.354-3.578,2.338-4.184,7.062-6.901,11.852-6.844.123,0,.275.019.36.113.122.133.056.35-.01.521Z" style="fill: #e6e1db;"/>
    <path d="m83.032,110.8087c1.605-1.848,3.21-3.696,4.815-5.544.801-.922,1.728-1.912,2.945-2.017,1.484-.129,2.724,1.116,3.503,2.385,1.729,2.819,2.336,6.382,1.31,9.526-1.027,3.145-3.781,5.745-7.046,6.275-3.265.53-6.855-1.227-8.17-4.262" style="fill: #dd883a;"/>
    <path d="m21.172,94.6127c.822,6.88,6.274,12.909,12.891,14.255-1.906-.56-2.78-27.745-3.622-30.851-6.413.87-9.967,10.753-9.269,16.596Z" style="fill: #dd883a;"/>
    <path d="m67.224,97.8477c-6.65.757-12.29,6.387-12.698,12.674-.408,6.287,4.464,11.482,10.966,12.993-3.67.097-15.868.026-16.868,4.924-.372,1.824,3.094,2.006,5.062,1.844,6.244-.516,12.487.137,18.731-.38,1.722-.142,3.805-.539,4.349-2.082l.501-.88c6.967-3.858,10.663-11.89,10.058-19.472-.604-7.582-5.047-14.596-11.064-19.675-6.017-5.079-13.509-6.519-21.194-8.881-3.303-1.015-6.852-1.979-9.151-4.43s-2.462-8.83.605-10.368l-20.179,14.297c-7.537,16.303,6.301,35.459,2.561,47.235-.463,1.457-.992,3.136-.333,4.485.993,2.033,2.967,1.486,4.843.667,6.266-2.737,7.779-14.673,7.68-22.493" style="fill: #fffaf3;"/>
    <path d="m38.0719,51.8747c.901-8.932,1.82-17.949,4.769-26.482,2.949-8.532,8.14-16.659,16.025-21.699,3.65,8.418,1.846,18.097-2.541,26.197-4.388,8.101-11.615,15.381-18.253,21.984Z" style="fill: #fffaf3;"/>
    <g>
      <path d="m10.7679,22.2057c2.222-1.349,4.766-2.205,7.385-2.541-3.084-6.34-7.561-12.077-13.651-15.97-3.223,7.433-2.189,15.849,1.117,23.294,1.359-1.895,3.107-3.543,5.149-4.783Z" style="fill: #dd883a;"/>
      <path d="m18.153,19.6647c-2.619.335-5.163,1.191-7.385,2.541-2.042,1.24-3.789,2.888-5.149,4.783.438.986.912,1.956,1.424,2.903,4.387,8.1,11.614,15.38,18.252,21.983-.901-8.932-1.82-17.949-4.769-26.482-.671-1.941-1.465-3.859-2.373-5.728Z" style="fill: #fffaf3;"/>
    </g>
    <path d="m37.665,81.4547c3.87-.932,7.292-3.586,9.157-7.103-.122.23-2.669.282-3.038.332-1.04.14-2.077.308-3.108.502-2.093.394-4.165.898-6.206,1.509-1.808.542-4.256,1.025-5.801,2.141-2.087,1.507,1.045,2.266,2.275,2.572,2.196.545,4.521.577,6.721.047Z" style="fill: #e6e1db;"/>
    <g>
      <path d="m35.2979,64.0987c2.373,3.392,6.881,4.807,10.998,4.381,1.894-.196,3.718-.727,5.473-1.461.015-.237.024-.474.02-.713-.037-2.456-1.055-4.776-2.056-7.019-1.735-3.89-3.514-7.849-6.344-11.033-.263-.296-.549-.578-.846-.854-2.12.645-4.077,1.74-5.637,3.321-3.424,3.469-4.403,9.384-1.608,13.378Z" style="fill: #dd883a;"/>
      <path d="m46.2959,68.4797c-4.117.426-8.625-.989-10.998-4.381-2.795-3.994-1.816-9.909,1.608-13.379,1.56-1.581,3.517-2.676,5.637-3.321-2.828-2.622-7.089-4.276-10.86-4.276-4.167,0-8.938,2.015-11.706,5.13-2.83,3.185-4.608,7.143-6.344,11.033-1,2.243-2.019,4.564-2.056,7.019-.064,4.217,2.86,8.025,6.47,10.208,3.609,2.183,9.418,3.865,13.636,3.865s10.027-1.683,13.636-3.865c3.405-2.059,6.197-5.564,6.449-9.494-1.754.734-3.578,1.265-5.472,1.461Z" style="fill: #fffaf3;"/>
    </g>
    <g>
      <path d="m39.068,60.4477c0,1.028.739,1.861,1.651,1.861.911,0,1.65-.833,1.65-1.861s-.739-1.861-1.65-1.861c-.912,0-1.651.833-1.651,1.861Z" style="fill: #383532;"/>
      <path d="m24.299,60.4477c0,1.028-.739,1.861-1.651,1.861s-1.65-.833-1.65-1.861.739-1.861,1.65-1.861c.912,0,1.651.833,1.651,1.861Z" style="fill: #383532;"/>
      <path d="m31.939,71.3457l1.822-2.241c.388-.477.088-1.247-.487-1.247h-3.645c-.574,0-.875.77-.486,1.247l1.822,2.241c.262.322.712.322.974,0Z" style="fill: #383532;"/>
    </g>
    <path d="m43.749,115.7767c-.199-.095-.398-.199-.596-.303-.739-.398-1.401-.824-1.998-1.269-.094-.521-.132-1.221-.218-2.244-.199-2.225.237-6.22-.729-8.198,1.828,3.778,3.03,7.859,3.541,12.014Z" style="fill: #e6e1db;"/>
  </g>
</svg>