<?xml version="1.0" encoding="UTF-8"?>
<svg id="_Слой_1" data-name="Слой 1" xmlns="http://www.w3.org/2000/svg" width="98.4802" height="133.8338" viewBox="0 0 98.4802 133.8338">
  <path d="m94.2949,105.6327c-.779-1.269-2.019-2.514-3.503-2.385-1.217.105-2.144,1.095-2.945,2.017-.2269.2612-.4537.5225-.6807.7838-1.0093-7.0343-5.2659-13.4944-10.9053-18.2547-6.017-5.079-13.509-6.519-21.194-8.881-2.8558-.8776-5.8919-1.7214-8.1486-3.5167,2.6426-2.0955,4.6382-5.0853,4.8495-8.377.0004-.0001.0007-.0002.001-.0004.015-.237.024-.474.02-.713-.037-2.456-1.055-4.776-2.056-7.019-1.735-3.89-3.514-7.849-6.344-11.033-.263-.296-.549-.578-.8459-.854-.0141.0043-.0273.0108-.0414.0151.0005-.0005.001-.001.0015-.0015.0135-.0042.0262-.0104.0399-.0146-.0045-.0042-.0097-.0076-.0142-.0118,5.2409-5.3802,10.3795-11.1884,13.7961-17.4962,4.387-8.1,6.191-17.779,2.541-26.197-7.885,5.04-13.076,13.167-16.025,21.699-2.1796,6.3065-3.2479,12.8777-4.022,19.4833-2.2604-1.1129-4.7925-1.7534-7.136-1.7534s-4.8704.6555-7.1331,1.7684c-.7742-6.6107-1.8427-13.1871-4.0239-19.4984-.671-1.941-1.465-3.859-2.373-5.728-.0128.0016-.0252.0052-.038.0068.0128-.0016.0252-.0052.038-.0068-3.084-6.34-7.561-12.077-13.651-15.97-3.223,7.433-2.189,15.849,1.117,23.294,1.359-1.895,3.1071-3.543,5.149-4.783-2.042,1.24-3.789,2.888-5.149,4.783.438.986.912,1.956,1.424,2.903,3.4175,6.3099,8.5588,12.12,13.8021,17.5023-.3014.2787-.6015.5588-.868.8588-2.83,3.185-4.608,7.143-6.344,11.033-1,2.243-2.019,4.564-2.056,7.019-.064,4.217,2.86,8.025,6.47,10.208,2.1046,1.273,4.9579,2.3634,7.8069,3.0615-.1972.4949-.3756.9922-.5368,1.4917-3.0922,3.5936-4.6254,9.5263-4.1451,13.5468.4703,3.9359,2.4596,7.5884,5.3116,10.2499,1.9877,7.8666,4.2037,15.1659,2.4194,20.7841-.463,1.457-.992,3.136-.333,4.485.993,2.033,2.967,1.486,4.843.667,4.8749-2.1293,6.8663-9.8231,7.4666-16.8182.0938.0735.1777.1498.2751.2222.0001.0006.0002.0015.0003.0021.597.445,1.259.871,1.998,1.269.198.104.397.208.5959.303,0-.0005-.0002-.0011-.0002-.0016.0004.0002.0009.0005.0013.0007,3.1998,1.572,6.9867,2.234,10.8486,2.348.0002.0003.0002.0007.0004.001.7595.0265,1.5182.0215,2.275.002,1.9833,2.6176,5.0518,4.5593,8.618,5.3881-3.67.097-15.868.026-16.868,4.924-.372,1.824,3.094,2.006,5.062,1.844,6.244-.516,12.487.137,18.731-.38,1.722-.142,3.805-.539,4.349-2.082l.501-.88c2.7466-1.5209,4.9756-3.6964,6.6423-6.2314,1.4332.6935,3.0767.9797,4.6497.7244,3.265-.53,6.019-3.13,7.046-6.275,1.026-3.144.419-6.707-1.31-9.526Z" style="fill: #383532;"/>
</svg>