<?xml version="1.0" encoding="UTF-8"?>
<svg id="_Слой_2" data-name="Слой 2" xmlns="http://www.w3.org/2000/svg" viewBox="0 0 93.56 127.84">
  <defs>
    <style>
      .cls-1 {
        fill: #333;
      }
    </style>
  </defs>
  <g id="_Слой_1-2" data-name="Слой 1">
    <path class="cls-1" d="m91.75,101.94c-.78-1.27-2.02-2.51-3.5-2.39-1.22.1-2.14,1.09-2.95,2.02-.23.26-.45.52-.68.78-1.01-7.03-5.27-13.49-10.91-18.25-6.02-5.08-13.51-6.52-21.19-8.88-2.86-.88-5.89-1.72-8.15-3.52,2.64-2.1,4.64-5.09,4.85-8.38,0,0,0,0,0,0,.02-.24.02-.47.02-.71-.04-2.46-1.05-4.78-2.06-7.02-1.74-3.89-3.51-7.85-6.34-11.03-.26-.3-.55-.58-.85-.85-.01,0-.03.01-.04.02,0,0,0,0,0,0,.01,0,.03-.01.04-.01,0,0,0,0-.01-.01,5.24-5.38,10.38-11.19,13.8-17.5,4.39-8.1,6.19-17.78,2.54-26.2-7.88,5.04-13.08,13.17-16.02,21.7-2.18,6.31-3.25,12.88-4.02,19.48-2.26-1.11-4.79-1.75-7.14-1.75s-4.87.66-7.13,1.77c-.77-6.61-1.84-13.19-4.02-19.5-.67-1.94-1.47-3.86-2.37-5.73C12.52,9.63,8.05,3.89,1.96,0-1.27,7.43-.23,15.85,3.07,23.3c.44.99.91,1.96,1.42,2.9,3.42,6.31,8.56,12.12,13.8,17.5-.3.28-.6.56-.87.86-2.83,3.18-4.61,7.14-6.34,11.03-1,2.24-2.02,4.56-2.06,7.02-.06,4.22,2.86,8.02,6.47,10.21,2.1,1.27,4.96,2.36,7.81,3.06-.2.49-.38.99-.54,1.49-3.09,3.59-4.63,9.53-4.15,13.55.47,3.94,2.46,7.59,5.31,10.25,1.99,7.87,4.2,15.17,2.42,20.78-.46,1.46-.99,3.14-.33,4.48.99,2.03,2.97,1.49,4.84.67,4.87-2.13,6.87-9.82,7.47-16.82.09.07.18.15.28.22,0,0,0,0,0,0,.6.45,1.26.87,2,1.27.2.1.4.21.6.3,0,0,0,0,0,0,0,0,0,0,0,0,3.2,1.57,6.99,2.23,10.85,2.35,0,0,0,0,0,0,.76.03,1.52.02,2.27,0,1.98,2.62,5.05,4.56,8.62,5.39-3.67.1-15.87.03-16.87,4.92-.37,1.82,3.09,2.01,5.06,1.84,6.24-.52,12.49.14,18.73-.38,1.72-.14,3.8-.54,4.35-2.08l.5-.88c2.75-1.52,4.98-3.7,6.64-6.23,1.43.69,3.08.98,4.65.72,3.26-.53,6.02-3.13,7.05-6.27,1.03-3.14.42-6.71-1.31-9.53Z"/>
  </g>
</svg>