<?xml version="1.0" encoding="UTF-8"?>
<svg id="_Слой_2" data-name="Слой 2" xmlns="http://www.w3.org/2000/svg" viewBox="0 0 96.56 131.55">
  <defs>
    <style>
      .cls-1 {
        fill: #fffaf3;
      }

      .cls-2 {
        fill: #e6e1db;
      }

      .cls-3 {
        fill: #dd883a;
      }

      .cls-4 {
        fill: none;
      }

      .cls-5 {
        fill: #383532;
      }

      .cls-6 {
        fill: #333;
        stroke: #fff;
        stroke-miterlimit: 10;
        stroke-width: 3px;
      }
    </style>
  </defs>
  <g id="_Слой_1-2" data-name="Слой 1">
    <g>
      <path class="cls-6" d="m41.48,45.9c5.24-5.38,10.38-11.19,13.8-17.5,4.39-8.1,6.19-17.78,2.54-26.19-7.88,5.04-13.08,13.16-16.02,21.7-2.18,6.3-3.25,12.87-4.03,19.48-2.26-1.11-4.79-1.76-7.13-1.76s-4.87.66-7.14,1.77c-.77-6.61-1.84-13.18-4.02-19.49-.67-1.95-1.46-3.86-2.37-5.73C14.02,11.84,9.55,6.1,3.46,2.21.23,9.64,1.27,18.06,4.57,25.5c.44.99.92,1.96,1.43,2.9,3.42,6.31,8.56,12.12,13.8,17.51-.3.27-.6.56-.87.86-2.83,3.18-4.61,7.14-6.34,11.03-1,2.24-2.02,4.56-2.06,7.02-.06,4.21,2.86,8.02,6.47,10.21,2.11,1.27,4.96,2.36,7.81,3.06-.2.49-.38.99-.54,1.49-3.09,3.59-4.62,9.52-4.14,13.54.47,3.94,2.46,7.59,5.31,10.25,1.99,7.87,4.2,15.17,2.42,20.79-.46,1.46-.99,3.13-.33,4.48.99,2.04,2.96,1.49,4.84.67,4.87-2.13,6.86-9.82,7.46-16.82.1.08.18.15.28.22h0c.6.45,1.26.88,2,1.28.2.1.4.2.59.3h.01c3.19,1.57,6.98,2.23,10.84,2.35.38,0,.76,0,1.14,0s.76,0,1.14,0c1.98,2.62,5.05,4.56,8.62,5.39-3.67.09-15.87.02-16.87,4.92-.37,1.83,3.09,2.01,5.06,1.85,6.25-.52,12.49.13,18.73-.38,1.72-.15,3.81-.54,4.35-2.09l.5-.88c2.75-1.52,4.98-3.69,6.64-6.23,1.44.7,3.08.98,4.65.73,3.27-.53,6.02-3.13,7.05-6.28,1.03-3.14.42-6.71-1.31-9.52-.78-1.27-2.02-2.52-3.5-2.39-1.22.1-2.15,1.09-2.95,2.02-.22.26-.45.52-.68.78-1.01-7.03-5.26-13.49-10.9-18.25-6.02-5.08-13.51-6.52-21.2-8.88-2.85-.88-5.89-1.73-8.15-3.52,2.65-2.1,4.64-5.09,4.85-8.38,0-.18.02-.35.02-.52v-.19c-.03-2.46-1.05-4.78-2.05-7.02-1.74-3.89-3.52-7.85-6.35-11.03-.26-.3-.54-.58-.84-.86-.01,0-.01-.01-.02-.01Z"/>
      <g>
        <path class="cls-4" d="m4.68,25.37c1.34-1.83,3.05-3.43,5.04-4.64-1.99,1.21-3.69,2.81-5.04,4.64Z"/>
        <path class="cls-4" d="m37.27,48.03s0,0,0,0c-.49.37-.97.76-1.41,1.21-2.14,2.17-3.33,5.29-3.23,8.31-.09-3.01,1.09-6.14,3.23-8.3.44-.44.91-.84,1.41-1.21Z"/>
        <path class="cls-2" d="m53.48,109.04c.25-3.88,2.5-7.5,5.74-9.89l-1.75.7c-1.46,1.1-2.71,2.48-3.61,4.09-.62,1.11-1.08,2.33-1.35,3.58-.49,2.26-.41,4.66.26,6.88.19.65.43,1.53.79,2.24,0,0,0,0,0,0,.76.03,1.52.02,2.27,0-1.63-2.15-2.53-4.77-2.35-7.6Z"/>
        <path class="cls-3" d="m93.25,104.15c-.78-1.27-2.02-2.51-3.5-2.39-1.22.1-2.14,1.09-2.95,2.02-.23.26-.45.52-.68.78.07.47.12.94.16,1.42.37,4.59-.85,9.35-3.42,13.24,1.43.69,3.08.98,4.65.72,3.26-.53,6.02-3.13,7.05-6.27,1.03-3.14.42-6.71-1.31-9.53Z"/>
        <path class="cls-3" d="m24.27,79.58c-3.09,3.59-4.63,9.53-4.15,13.55.47,3.94,2.46,7.59,5.31,10.25-1.95-7.74-3.68-16.02-1.17-23.8Z"/>
        <path class="cls-1" d="m86.28,105.99c-.04-.48-.09-.95-.16-1.42-1.01-7.03-5.27-13.49-10.91-18.25-6.02-5.08-13.51-6.52-21.19-8.88-2.86-.88-5.89-1.72-8.15-3.52,2.64-2.1,4.64-5.09,4.85-8.38,0,0,0,0,0,0-1.32.55-2.67.99-4.06,1.25-.46.09-.93.16-1.41.21-4.12.43-8.62-.99-11-4.38-.7-1-1.16-2.12-1.41-3.29-.12-.59-.19-1.18-.21-1.79-.09-3.01,1.09-6.14,3.23-8.31.44-.44.91-.84,1.41-1.21,0,0,0,0,0,0,1.26-.93,2.68-1.64,4.19-2.1,0,0,0,0,0,0,.01,0,.03-.01.04-.01,0,0,0,0-.01-.01,5.24-5.38,10.38-11.19,13.8-17.5,4.39-8.1,6.19-17.78,2.54-26.2-7.88,5.04-13.08,13.17-16.02,21.7-2.18,6.31-3.25,12.88-4.02,19.48-2.26-1.11-4.79-1.75-7.14-1.75s-4.87.66-7.13,1.77c-.77-6.61-1.84-13.19-4.02-19.5-.67-1.94-1.47-3.86-2.37-5.73-2.62.34-5.16,1.19-7.39,2.54-1.99,1.21-3.69,2.81-5.04,4.64-.04.05-.08.09-.11.14h0c.44.99.91,1.96,1.42,2.9,3.42,6.31,8.56,12.12,13.8,17.5-.3.28-.6.56-.87.86-2.83,3.18-4.61,7.14-6.34,11.03-1,2.24-2.02,4.56-2.06,7.02-.06,4.22,2.86,8.02,6.47,10.21,2.1,1.27,4.96,2.36,7.81,3.06-.2.49-.38.99-.54,1.49-2.51,7.78-.79,16.06,1.17,23.8,1.99,7.87,4.2,15.17,2.42,20.78-.46,1.46-.99,3.14-.33,4.48.99,2.03,2.97,1.49,4.84.67,4.87-2.13,6.87-9.82,7.47-16.82.09.07.18.15.28.22-.09-.52-.13-1.22-.22-2.24-.2-2.23.24-6.22-.73-8.2,1.83,3.78,3.03,7.86,3.54,12.01,0,0,0,0,0,0,3.2,1.57,6.99,2.23,10.85,2.35-.36-.71-.61-1.59-.79-2.24-.66-2.22-.75-4.62-.26-6.88.27-1.25.73-2.47,1.35-3.58.9-1.6,2.14-2.99,3.61-4.09l1.75-.7c-3.24,2.39-5.49,6.01-5.74,9.89-.18,2.84.72,5.45,2.35,7.6,1.98,2.62,5.05,4.56,8.62,5.39-3.67.1-15.87.03-16.87,4.92-.37,1.82,3.09,2.01,5.06,1.84,6.24-.52,12.49.14,18.73-.38,1.72-.14,3.8-.54,4.35-2.08l.5-.88c2.75-1.52,4.98-3.7,6.64-6.23,2.56-3.9,3.78-8.65,3.42-13.24Zm-57.7-39.61h3.64c.58,0,.88.77.49,1.25l-1.82,2.24c-.26.32-.71.32-.97,0l-1.82-2.24c-.39-.48-.09-1.25.49-1.25Zm-6.98-5.55c-.91,0-1.65-.83-1.65-1.86s.74-1.86,1.65-1.86,1.65.83,1.65,1.86-.74,1.86-1.65,1.86Zm8.3,19.1c-.85-.21-2.6-.64-2.92-1.38,1.28.22,2.53.35,3.66.35,4.22,0,10.03-1.68,13.64-3.86.04-.02.08-.05.12-.07-1.95,2.46-4.71,4.28-7.77,5.02-2.2.53-4.52.5-6.72-.05Z"/>
        <path class="cls-3" d="m4.68,25.37c1.34-1.83,3.05-3.43,5.04-4.64,2.22-1.35,4.77-2.21,7.39-2.54C14.02,11.84,9.55,6.1,3.46,2.21.23,9.64,1.27,18.06,4.57,25.51h0s.08-.09.11-.14Z"/>
        <path class="cls-2" d="m44.39,74.96s-.08.05-.12.07c-3.61,2.18-9.42,3.86-13.64,3.86-1.13,0-2.38-.13-3.66-.35.32.74,2.07,1.17,2.92,1.38,2.2.54,4.52.58,6.72.05,3.06-.74,5.82-2.56,7.77-5.02Z"/>
        <path class="cls-3" d="m35.86,49.24c-2.14,2.17-3.32,5.29-3.23,8.3.02.6.09,1.2.21,1.79.25,1.17.71,2.29,1.41,3.29,2.37,3.39,6.88,4.81,11,4.38.47-.05.94-.12,1.41-.21,1.39-.27,2.75-.7,4.06-1.25,0,0,0,0,0,0,0,0,0,0,0,0,.02-.24.02-.47.02-.71-.04-2.46-1.05-4.78-2.06-7.02-1.74-3.89-3.51-7.85-6.34-11.03-.26-.3-.55-.58-.85-.85-.01,0-.03.01-.04.02-1.51.46-2.93,1.16-4.19,2.1-.49.37-.97.76-1.41,1.21Zm2.16,9.73c0-1.03.74-1.86,1.65-1.86s1.65.83,1.65,1.86-.74,1.86-1.65,1.86-1.65-.83-1.65-1.86Z"/>
        <path class="cls-5" d="m41.32,58.96c0-1.03-.74-1.86-1.65-1.86s-1.65.83-1.65,1.86.74,1.86,1.65,1.86,1.65-.83,1.65-1.86Z"/>
        <path class="cls-5" d="m21.6,57.1c-.91,0-1.65.83-1.65,1.86s.74,1.86,1.65,1.86,1.65-.83,1.65-1.86-.74-1.86-1.65-1.86Z"/>
        <path class="cls-5" d="m29.92,69.86c.26.32.71.32.97,0l1.82-2.24c.39-.48.09-1.25-.49-1.25h-3.64c-.57,0-.88.77-.49,1.25l1.82,2.24Z"/>
        <path class="cls-2" d="m39.16,102.28c.97,1.98.53,5.97.73,8.2.09,1.02.12,1.72.22,2.24,0,0,0,0,0,0,.6.45,1.26.87,2,1.27.2.1.4.21.6.3,0,0,0,0,0,0-.51-4.15-1.71-8.23-3.54-12.01Z"/>
      </g>
    </g>
  </g>
</svg>