<?xml version="1.0" encoding="UTF-8"?>
<svg id="_Слой_1" data-name="Слой 1" xmlns="http://www.w3.org/2000/svg" width="94.4444" height="92.5556" viewBox="0 0 94.4444 92.5556">
  <path d="m86.0033,44.6067c-.55-.3-1.15-.52-1.8-.62v-2.04h-1.68v2.04c-1.95.31-3.55,1.65-4.23,3.45h-.01c-.22.06-.45.13-.69.21s-.48.18-.73.28v-.01c-.04-.23-.07-.44-.1-.63-.04-.29-.08-.53-.11-.72-.14-.9-.31-1.82-.49-2.74-.06-.31-.13-.62-.19-.92.07-.03.15-.05.22-.08.69-.24,1.37-.52,2.04-.82,4.7-2.08,8.64-5.11,8.64-5.11-1.56-1.04-1.05-7.4-1.46-11.28-.52-4.97-1.71-6.24-1.71-6.24,10.34-3.94,7.23-14.71,7.23-14.71l-10.66,8.63c-.22-.22-.57-.42-1.03-.59-.07-.03-.14-.05-.22-.08-.04-.02-.08-.03-.13-.04-.12-.04-.25-.08-.38-.12-.03,0-.06-.01-.09-.02h-.02c-.1-.03-.2-.05-.3-.08-.15-.04-.3-.07-.45-.1-.21-.04-.43-.08-.66-.12-.03-.01-.06-.01-.1-.02l-.42-.06c-.1-.02-.2-.03-.31-.04-.03-.01-.06-.01-.09-.02-.01-.01-.02-.01-.04,0-.04-.01-.08-.01-.13-.01-.1-.02-.21-.03-.32-.04-.19-.03-.39-.05-.58-.07-.17-.02-.34-.03-.51-.04-.03,0-.06-.01-.1-.01-.2-.02-.41-.03-.63-.04-.01,0-.02-.01-.03-.01-.1-.01-.21-.01-.31-.01-.04,0-.08-.01-.11-.01l-.81-.03c-.75-.03-1.52-.04-2.28-.02-.21-.01-.41,0-.62,0h-.01c-.15,0-.3.01-.45.02h-.16c-.05.01-.1.01-.16.01-.15,0-.3.01-.45.02-.35.02-.7.04-1.04.07-.05,0-.1,0-.14.01-.2.02-.39.03-.58.05-.46.04-.91.09-1.33.16-.09.01-.19.02-.28.04-.13.02-.26.04-.38.06-.04.01-.08.01-.12.02-.16.03-.32.06-.47.09s-.3.06-.45.1c-.28.07-.55.14-.79.22-.01,0-.02,0-.02.01-.05.01-.1.03-.15.05l-.18.06c-.19.08-.37.15-.52.24-.1.05-.19.1-.27.16-.09.06-.16.12-.23.19l-10.09-9.3s-3.44,10.53,6.65,15.38c0,0-1.18,1.27-1.7,6.24-.41,3.88.1,10.24-1.46,11.28,0,0,.01,0,.02.02.01.01.03.02.06.04.24.18,1.03.77,2.19,1.52.44.3.93.61,1.46.93.1.06.2.12.31.19.06.04.12.08.19.12h.01c-.37.4-.77.8-1.17,1.2-.46.45-.93.91-1.41,1.37-1.39,1.32-2.88,2.65-4.39,3.99-.31.28-.62.56-.94.84-.93.83-1.86,1.66-2.76,2.49l-.01.01.01-.01c.13-.36.26-.72.38-1.09,3.08-9.2,3.2-19.63-1.04-28.36-4.24-8.73-13.21-15.35-22.91-15.48-9.7-.14-19.37,7.07-20.82,16.66,2.17-3.15,7.18-3.28,10.22-.95s4.32,6.36,4.41,10.19c.1,3.83-.81,7.6-1.34,11.4-1.44,10.37.26,21.57,6.68,29.84.62.8,2.19,2.2,4.21,3.72.12.09.25.19.38.28.92.68,1.92,1.38,2.96,2.04.21.14.42.27.63.4,1.05.67,2.14,1.3,3.22,1.85.21.11.43.22.64.32,1.07.53,2.12.97,3.11,1.29.39.13.78.23,1.15.32.18.04.36.08.54.11,0,.01.01.01.01.01.41.62.83,1.18,1.28,1.7.15.17.3.34.45.5.16.16.31.32.47.48.63.61,1.3,1.14,1.97,1.61.34.23.69.45,1.03.65.35.19.7.38,1.04.55,1.01.48,2.02.85,2.99,1.12.2.06.4.12.61.16.64.15,1.25.27,1.83.36.66.1,1.28.16,1.84.19.2.01.39.02.58.03,1.37.05,2.24-.06,2.24-.06h25.06s2.3-.57,0-4.03c-1.72-2.58-9.02-1.31-12.64-.5l-.01-.01c1.99-.61,3.48-1.54,4.61-2.68,4-4.07,4.4-14.06,3.92-22.5-.03-.49-.06-.98-.1-1.46-.03-.49-.07-.96-.11-1.44-.03-.47-.07-.93-.12-1.38-.04-.45-.09-.9-.13-1.33l-.06-.6v-.01c.46,0,.93-.02,1.39-.06.13.28.26.55.42.82.1.19.21.38.33.56.03.05.06.1.1.15.08.12.16.23.24.35.25.34.52.66.8.93.09.09.19.18.29.26.45.39.94.68,1.44.82.07.03.15.05.22.06.08.02.16.03.23.04.11.01.22.02.33.02,3,0,5.43-5.12,5.43-8.12v-.06c0-.17-.01-.34-.03-.5-.01-.13-.03-.27-.06-.4,0-.03-.01-.06-.01-.1-.04-.15-.07-.3-.12-.45-.04-.15-.09-.3-.15-.44,0,0,.01-.01,0-.01-.05-.13-.11-.26-.17-.39-.08-.17-.17-.35-.28-.51-.15-.25-.33-.48-.52-.7-.1-.12-.21-.23-.32-.34-.34-.32-.72-.6-1.13-.83h0Z" style="fill: #333;"/>
  <g>
    <g>
      <g>
        <path d="m83.364,43.907c2.979,0,5.395,2.399,5.427,5.37h-10.854c.033-2.971,2.448-5.37,5.427-5.37Z" style="fill: #745e3c;"/>
        <path d="m88.791,49.277c0,.02.003.039.003.06,0,2.999-2.431,8.115-5.43,8.115s-5.43-5.116-5.43-8.115c0-.02.003-.04.003-.06h10.854Z" style="fill: #bb9a6f;"/>
      </g>
      <rect x="82.527" y="41.946" width="1.674" height="4.58" style="fill: #745e3c;"/>
    </g>
    <path d="m23.972,71.813c-6.42-8.27-8.116-19.469-6.679-29.84.526-3.793,1.438-7.565,1.345-11.393-.093-3.829-1.376-7.862-4.414-10.194s-8.049-2.204-10.224.948C5.454,11.742,15.127,4.538,24.827,4.674c9.701.136,18.665,6.754,22.904,15.481,4.238,8.727,4.125,19.16,1.047,28.36-1.781,5.323-4.612,10.409-5.428,16.02-.764,5.248,2.287,9.497,2.038,14.413-.479,9.4341-18.863-3.8459-21.416-7.1349Z" style="fill: #b5672b;"/>
    <g>
      <path d="m67.598,85.828l-.188-.815s.809-.225,2.05-.504l.217.809c-.681.212-1.362.378-2.079.51Z" style="fill: #dd883a;"/>
      <path d="m74.1733,82.2267c4-4.07,4.4-14.06,3.92-22.5-.03-.49-.06-.98-.1-1.46-.03-.49-.07-.96-.11-1.44-.04-.47-.08-.93-.12-1.38s-.09-.9-.13-1.33c-.02-.2-.04-.4-.07-.6-.24-2.33-.51-4.28-.7-5.59v-.01c-.04-.23-.07-.44-.1-.63-.04-.29-.08-.53-.11-.72-3.1-.23-6.29.51-8.73,2.26-.24.17-.48.36-.7.55-3.05,2.58-4.42,6.64-3.71,10.35l10.66,22.5Z" style="fill: #dad8d2;"/>
      <g>
        <path d="m63.5133,59.7267c-.71-3.71.66-7.77,3.71-10.35.22-.19.46-.38.7-.55,2.44-1.75,5.63-2.49,8.73-2.26-.14-.9-.31-1.82-.49-2.74-.06-.31-.13-.62-.2-.92-.23-1.08-.48-2.13-.74-3.15-1.08-4.23-2.23-7.71-2.23-8.21,0,0-.17-.1-.47-.26-.77-.4-2.36-1.2-4.01-1.75-2.61-.86-5.34-1.06-5.05,2.01.01.09.01.19.01.29.02.31-.01.62-.07.95v.01c-.36,2.11-2.03,4.45-4.34,6.91v.01h-.01c-.37.39-.76.79-1.16,1.2-.46.45-.93.91-1.41,1.37-1.39,1.31-2.89,2.65-4.39,3.99-.31.28-.63.55-.94.84-.93.82-1.86,1.66-2.76,2.49l-.01.01c-.98.89-1.93,1.79-2.81,2.67-7.2,7.2-10.99,19.78-4.94,29.58.06.1.12.19.18.28,0,.01.01.01.01.01.39.62.82,1.18,1.28,1.7.13.17.28.34.45.5.15.17.3.33.47.48.63.62,1.29,1.15,1.97,1.61.34.24.68.46,1.03.65.34.21.69.39,1.04.55,1.01.49,2.02.86,2.99,1.12.2.06.4.12.61.16.63.16,1.25.27,1.83.36.66.1,1.28.16,1.84.19.2.01.39.02.58.03,1.37.05,2.24-.06,2.24-.06h25.06s2.3-.57,0-4.03c-1.72-2.58-9.02-1.31-12.64-.5h-.02c-.62.2-1.28.36-1.99.49l-4.05-25.68Z" style="fill: #dd883a;"/>
        <path d="m67.5233,85.4167c.01,0,.03,0,.04-.01.17-.05.91-.24,1.99-.49l.01-.01c1.99-.61,3.48-1.54,4.61-2.68l-6.65,3.19Z" style="fill: #dd883a;"/>
      </g>
    </g>
    <g>
      <path d="m51.336,4l10.087,9.293c2.123-2.122,16.726-2.122,18.848,0l10.658-8.622s3.118,10.765-7.221,14.706c0,0,1.183,1.271,1.704,6.243.407,3.878-.1,10.237,1.459,11.276,0,0-3.942,3.032-8.639,5.113-.635-1.661-3.697-2.922-7.386-2.922s-6.751,1.261-7.386,2.922c-4.697-2.081-8.639-5.113-8.639-5.113,1.559-1.039,1.052-7.398,1.459-11.276.522-4.973,1.704-6.243,1.704-6.243-10.0941-4.854-6.648-15.377-6.648-15.377Z" style="fill: #dd883a;"/>
      <path d="m70.847,39.088c3.689,0,6.751,1.261,7.386,2.922-.667.296-1.349.572-2.037.818-3.288,1.174-4.616,1.649-5.159,1.842l-.003.135s-.003-.001-.187-.067c-.184.066-.187.067-.187.067l-.003-.135c-.542-.194-1.871-.668-5.158-1.842-.688-.246-1.37-.523-2.037-.818.634-1.661,3.696-2.922,7.385-2.922Z" style="fill: #dad8d2;"/>
    </g>
    <path d="m59.901,46.592s9.636,5.214,14.606,2.459c4.97-2.755,7.978-2.41,9.06.494s-2.899,4.075-6.472,3.957c0,0-4.444,8.432-18.073,5.692l.879-12.602Z" style="fill: #dd883a;"/>
    <g>
      <path d="m63.522,32.195c0,.854-.692,1.546-1.546,1.546s-1.546-.692-1.546-1.546.692-1.546,1.546-1.546c.854,0,1.546.692,1.546,1.546Z" style="fill: #212120;"/>
      <path d="m77.351,32.195c0,.854.692,1.546,1.546,1.546s1.546-.692,1.546-1.546-.692-1.546-1.546-1.546-1.546.692-1.546,1.546Z" style="fill: #212120;"/>
    </g>
    <path d="m70.349,42.276l-1.708-1.862c-.364-.397-.082-1.037.456-1.037h3.415c.538,0,.82.64.456,1.037l-1.708,1.862c-.244.267-.666.267-.911,0Z" style="fill: #212120;"/>
    <path d="m62.448,12.709c3.512-1.341,13.274-1.341,16.792-.002l-8.409,23.255-8.383-23.253Z" style="fill: #b5672b;"/>
  </g>
</svg>