<?xml version="1.0" encoding="UTF-8"?>
<svg id="_Слой_2" data-name="Слой 2" xmlns="http://www.w3.org/2000/svg" viewBox="0 0 87.37 85.52">
  <defs>
    <style>
      .cls-1 {
        fill: #dd883a;
      }

      .cls-2 {
        fill: #bb9a6f;
      }

      .cls-3 {
        fill: none;
      }

      .cls-4 {
        fill: #745e3c;
      }

      .cls-5 {
        fill: #b5672b;
      }

      .cls-6 {
        fill: #212120;
      }

      .cls-7 {
        fill: #dad8d2;
      }
    </style>
  </defs>
  <g id="_Слой_1-2" data-name="Слой 1">
    <g>
      <path class="cls-3" d="m72.53,42.56c-3.06-.2-6.2.54-8.61,2.26-.24.17-.47.36-.69.55h0c.22-.19.45-.37.69-.55,2.41-1.72,5.55-2.46,8.61-2.26Z"/>
      <path class="cls-3" d="m65.95,65.39c-1.4-2.23-3.64-3.96-5.06-6.18-.69-1.08-1.14-2.26-1.37-3.48,0,0,0,0,0,0,.23,1.22.68,2.4,1.37,3.48,1.42,2.22,3.65,3.95,5.06,6.18,2.92,4.63,1.36,11.14-3.41,14.27.05,0,.1,0,.15,0-.05,0-.1,0-.15,0,4.77-3.13,6.33-9.64,3.41-14.27Z"/>
      <path class="cls-3" d="m69.25,78.6c-.06.02-.12.04-.18.06.06-.02.12-.04.18-.06Z"/>
      <path class="cls-3" d="m71.22,35.76s0,0,0,0c1.03.35,1.86.82,2.41,1.37-.55-.55-1.38-1.02-2.41-1.37Z"/>
      <path class="cls-4" d="m79.45,45.28h5.34c-.03-2.69-2.01-4.88-4.59-5.29v-2.04h-1.67v2.04c-1.96.3-3.55,1.64-4.23,3.45,2.62-.69,4.33-.02,5.15,1.84Z"/>
      <path class="cls-2" d="m79.45,45.28c.04.09.08.17.12.27.89,2.4-1.67,3.61-4.6,3.9.99,2.14,2.59,4.01,4.4,4.01,3,0,5.43-5.12,5.43-8.11,0-.02,0-.04,0-.06h-5.34Z"/>
      <path class="cls-5" d="m41.58,48.29c.89-.89,1.83-1.78,2.81-2.68.13-.37.27-.73.39-1.1,3.08-9.2,3.19-19.63-1.05-28.36C39.49,7.43,30.53.81,20.83.67,11.13.54,1.45,7.74,0,17.33c2.17-3.15,7.19-3.28,10.22-.95,3.04,2.33,4.32,6.36,4.41,10.19.09,3.83-.82,7.6-1.34,11.39-1.44,10.37.26,21.57,6.68,29.84,1.77,2.27,11.1,9.32,16.85,10.34-.06-.1-.13-.19-.19-.29-6.05-9.79-2.26-22.37,4.94-29.57Z"/>
      <path class="cls-7" d="m59.52,55.73c.23,1.22.68,2.4,1.37,3.48,1.42,2.22,3.65,3.95,5.06,6.18,2.92,4.63,1.36,11.14-3.41,14.27.05,0,.1,0,.15,0,2.15.16,4.32-.24,6.39-1,.06-.02.12-.04.18-.06.05-.02.1-.04.15-.06.26-.1.52-.21.78-.32,5.05-5.14,4.36-19.74,3.39-28.72-.16,0-.32,0-.47,0,0,0-3.45,6.53-13.58,6.23Z"/>
      <path class="cls-7" d="m72.53,42.56c-3.06-.2-6.2.54-8.61,2.26-.24.17-.47.36-.69.55,2.56.6,5.29.78,7.28-.32.84-.47,1.62-.84,2.35-1.13-.09-.58-.16-1.05-.2-1.36,0,0,0,0,0,0h0s-.08,0-.12,0Z"/>
      <path class="cls-1" d="m60.03,8.27c1.52-.31,3.5-.5,5.56-.55-2.06.05-4.04.24-5.56.55Z"/>
      <path class="cls-7" d="m73.63,37.12c-.55-.55-1.38-1.02-2.41-1.37-1.23-.42-2.74-.67-4.38-.67-3.69,0-6.75,1.26-7.38,2.92.67.29,1.35.57,2.04.82,3.29,1.17,4.62,1.65,5.16,1.84v.14s0,0,.19-.07c.18.07.19.07.19.07v-.14c.53-.19,1.82-.65,4.93-1.76.08-.03.15-.05.23-.08.69-.25,1.37-.52,2.04-.82,0,0,0,0,0,0-.12-.31-.32-.61-.6-.89Zm-4.66-.71l-1.71,1.86c-.24.27-.67.27-.91,0l-1.71-1.86c-.36-.4-.08-1.04.46-1.04h3.42c.54,0,.82.64.46,1.04Z"/>
      <path class="cls-1" d="m79.57,45.54c-.04-.09-.08-.18-.12-.27-.82-1.86-2.53-2.53-5.15-1.84-.45.12-.93.28-1.44.48-.73.29-1.51.66-2.35,1.13-1.99,1.1-4.71.92-7.28.32h0c.22-.19.45-.37.69-.55,2.41-1.73,5.55-2.46,8.61-2.26.04,0,.08,0,.12,0h0c-.18-1.2-.42-2.44-.69-3.66-3.11,1.11-4.4,1.57-4.93,1.76v.14s0,0-.19-.07c-.18.07-.19.07-.19.07v-.14c-.54-.19-1.87-.67-5.16-1.84-.69-.25-1.37-.52-2.04-.82.63-1.66,3.7-2.92,7.38-2.92,1.63,0,3.14.25,4.38.67,0,0,0,0,0,0,1.03.35,1.86.82,2.41,1.37.28.28.48.57.6.89,4.7-2.08,8.64-5.11,8.64-5.11-1.56-1.04-1.05-7.4-1.46-11.28-.52-4.97-1.7-6.24-1.7-6.24,10.34-3.94,7.22-14.71,7.22-14.71l-10.66,8.62c-1.17-1.17-6.1-1.69-10.67-1.57,3.71-.09,7.66.24,9.64.99l-8.41,23.26-8.38-23.25c.44-.17.98-.31,1.58-.44-1.24.26-2.18.6-2.61,1.02L47.34,0s-3.45,10.52,6.65,15.38c0,0-1.18,1.27-1.7,6.24-.41,3.88.1,10.24-1.46,11.28,0,0,1.72,1.32,4.24,2.82-3,3.19-7.05,6.57-10.67,9.9-.98.9-1.92,1.79-2.81,2.68-7.2,7.2-10.99,19.78-4.94,29.57.06.1.13.19.19.29,5.57,8.6,16.33,7.3,16.33,7.3h25.06s2.3-.58,0-4.03c-1.72-2.57-9.02-1.31-12.64-.5h0c1.98-.62,3.48-1.55,4.61-2.69-.26.11-.51.22-.77.32-.05.02-.1.04-.15.06-.06.02-.12.04-.18.06-2.07.76-4.24,1.16-6.39,1-.05,0-.1,0-.15,0,4.77-3.13,6.33-9.64,3.41-14.27-1.4-2.23-3.64-3.96-5.06-6.18-.69-1.08-1.14-2.26-1.37-3.48,0,0,0,0,0,0,10.13.31,13.58-6.23,13.58-6.23.16,0,.32,0,.47,0,.47,0,.94-.02,1.4-.07,2.93-.28,5.5-1.5,4.6-3.9Zm-4.67-18.9c.85,0,1.55.69,1.55,1.55s-.69,1.55-1.55,1.55-1.55-.69-1.55-1.55.69-1.55,1.55-1.55Zm-16.92,3.09c-.85,0-1.55-.69-1.55-1.55s.69-1.55,1.55-1.55,1.55.69,1.55,1.55-.69,1.55-1.55,1.55Z"/>
      <path class="cls-6" d="m57.98,26.65c-.85,0-1.55.69-1.55,1.55s.69,1.55,1.55,1.55,1.55-.69,1.55-1.55-.69-1.55-1.55-1.55Z"/>
      <path class="cls-6" d="m74.9,29.74c.85,0,1.55-.69,1.55-1.55s-.69-1.55-1.55-1.55-1.55.69-1.55,1.55.69,1.55,1.55,1.55Z"/>
      <path class="cls-6" d="m68.51,35.38h-3.42c-.54,0-.82.64-.46,1.04l1.71,1.86c.24.27.67.27.91,0l1.71-1.86c.36-.4.08-1.04-.46-1.04Z"/>
      <path class="cls-5" d="m66.83,31.96l8.41-23.26c-1.98-.75-5.93-1.08-9.64-.99h0c-2.06.05-4.04.24-5.56.55,0,0,0,0,0,0-.61.13-1.15.27-1.58.44l8.38,23.25Z"/>
    </g>
  </g>
</svg>