<?xml version="1.0" encoding="UTF-8"?>
<svg id="_Слой_1" data-name="Слой 1" xmlns="http://www.w3.org/2000/svg" width="94.4444" height="92.5556" viewBox="0 0 94.4444 92.5556">
  <path d="m86.0033,44.6067c-.55-.3-1.15-.52-1.8-.62v-2.04h-1.68v2.04c-1.95.31-3.55,1.65-4.23,3.45h-.01c-.22.06-.45.13-.69.21s-.48.18-.73.28v-.01c-.04-.23-.07-.44-.1-.63-.04-.29-.08-.53-.11-.72-.14-.9-.31-1.82-.49-2.74-.06-.31-.13-.62-.19-.92.07-.03.15-.05.22-.08.69-.24,1.37-.52,2.04-.82,4.7-2.08,8.64-5.11,8.64-5.11-1.56-1.04-1.05-7.4-1.46-11.28-.52-4.97-1.71-6.24-1.71-6.24,10.34-3.94,7.23-14.71,7.23-14.71l-10.66,8.63c-.22-.22-.57-.42-1.03-.59-.07-.03-.14-.05-.22-.08-.04-.02-.08-.03-.13-.04-.12-.04-.25-.08-.38-.12-.03,0-.06-.01-.09-.02h-.02c-.1-.03-.2-.05-.3-.08-.15-.04-.3-.07-.45-.1-.21-.04-.43-.08-.66-.12-.03-.01-.06-.01-.1-.02l-.42-.06c-.1-.02-.2-.03-.31-.04-.03-.01-.06-.01-.09-.02-.01-.01-.02-.01-.04,0-.04-.01-.08-.01-.13-.01-.1-.02-.21-.03-.32-.04-.19-.03-.39-.05-.58-.07-.17-.02-.34-.03-.51-.04-.03,0-.06-.01-.1-.01-.2-.02-.41-.03-.63-.04-.01,0-.02-.01-.03-.01-.1-.01-.21-.01-.31-.01-.04,0-.08-.01-.11-.01l-.81-.03c-.75-.03-1.52-.04-2.28-.02-.21-.01-.41,0-.62,0h-.01c-.15,0-.3.01-.45.02h-.16c-.05.01-.1.01-.16.01-.15,0-.3.01-.45.02-.35.02-.7.04-1.04.07-.05,0-.1,0-.14.01-.2.02-.39.03-.58.05-.46.04-.91.09-1.33.16-.09.01-.19.02-.28.04-.13.02-.26.04-.38.06-.04.01-.08.01-.12.02-.16.03-.32.06-.47.09s-.3.06-.45.1c-.28.07-.55.14-.79.22-.01,0-.02,0-.02.01-.05.01-.1.03-.15.05l-.18.06c-.19.08-.37.15-.52.24-.1.05-.19.1-.27.16-.09.06-.16.12-.23.19l-10.09-9.3s-3.44,10.53,6.65,15.38c0,0-1.18,1.27-1.7,6.24-.41,3.88.1,10.24-1.46,11.28,0,0,.01,0,.02.02.01.01.03.02.06.04.24.18,1.03.77,2.19,1.52.44.3.93.61,1.46.93.1.06.2.12.31.19.06.04.12.08.19.12h.01c-.37.4-.77.8-1.17,1.2-.46.45-.93.91-1.41,1.37-1.39,1.32-2.88,2.65-4.39,3.99-.31.28-.62.56-.94.84-.93.83-1.86,1.66-2.76,2.49l-.01.01.01-.01c.13-.36.26-.72.38-1.09,3.08-9.2,3.2-19.63-1.04-28.36-4.24-8.73-13.21-15.35-22.91-15.48-9.7-.14-19.37,7.07-20.82,16.66,2.17-3.15,7.18-3.28,10.22-.95s4.32,6.36,4.41,10.19c.1,3.83-.81,7.6-1.34,11.4-1.44,10.37.26,21.57,6.68,29.84.62.8,2.19,2.2,4.21,3.72.12.09.25.19.38.28.92.68,1.92,1.38,2.96,2.04.21.14.42.27.63.4,1.05.67,2.14,1.3,3.22,1.85.21.11.43.22.64.32,1.07.53,2.12.97,3.11,1.29.39.13.78.23,1.15.32.18.04.36.08.54.11,0,.01.01.01.01.01.41.62.83,1.18,1.28,1.7.15.17.3.34.45.5.16.16.31.32.47.48.63.61,1.3,1.14,1.97,1.61.34.23.69.45,1.03.65.35.19.7.38,1.04.55,1.01.48,2.02.85,2.99,1.12.2.06.4.12.61.16.64.15,1.25.27,1.83.36.66.1,1.28.16,1.84.19.2.01.39.02.58.03,1.37.05,2.24-.06,2.24-.06h25.06s2.3-.57,0-4.03c-1.72-2.58-9.02-1.31-12.64-.5l-.01-.01c1.99-.61,3.48-1.54,4.61-2.68,4-4.07,4.4-14.06,3.92-22.5-.03-.49-.06-.98-.1-1.46-.03-.49-.07-.96-.11-1.44-.03-.47-.07-.93-.12-1.38-.04-.45-.09-.9-.13-1.33l-.06-.6v-.01c.46,0,.93-.02,1.39-.06.13.28.26.55.42.82.1.19.21.38.33.56.03.05.06.1.1.15.08.12.16.23.24.35.25.34.52.66.8.93.09.09.19.18.29.26.45.39.94.68,1.44.82.07.03.15.05.22.06.08.02.16.03.23.04.11.01.22.02.33.02,3,0,5.43-5.12,5.43-8.12v-.06c0-.17-.01-.34-.03-.5-.01-.13-.03-.27-.06-.4,0-.03-.01-.06-.01-.1-.04-.15-.07-.3-.12-.45-.04-.15-.09-.3-.15-.44,0,0,.01-.01,0-.01-.05-.13-.11-.26-.17-.39-.08-.17-.17-.35-.28-.51-.15-.25-.33-.48-.52-.7-.1-.12-.21-.23-.32-.34-.34-.32-.72-.6-1.13-.83h0Z" style="fill: #333;"/>
</svg>