<?xml version="1.0" encoding="UTF-8"?>
<svg id="_Слой_2" data-name="Слой 2" xmlns="http://www.w3.org/2000/svg" viewBox="0 0 91.33 89.7">
  <defs>
    <style>
      .cls-1 {
        fill: #dd883a;
      }

      .cls-2 {
        fill: #bb9a6f;
      }

      .cls-3 {
        fill: none;
      }

      .cls-4 {
        fill: #745e3c;
      }

      .cls-5 {
        fill: #b5672b;
      }

      .cls-6 {
        fill: #333;
        stroke: #fff;
        stroke-miterlimit: 10;
        stroke-width: 3px;
      }

      .cls-7 {
        fill: #212120;
      }

      .cls-8 {
        fill: #dad8d2;
      }
    </style>
  </defs>
  <g id="_Слой_1-2" data-name="Слой 1">
    <g>
      <path class="cls-6" d="m76.03,52.19c.47,0,.93-.02,1.39-.07.99,2.14,2.59,4.01,4.4,4.01,3,0,5.43-5.11,5.43-8.11v-.06c-.03-2.69-2.01-4.89-4.59-5.29v-2.04h-1.67v2.04c-1.96.31-3.56,1.65-4.23,3.45-.46.12-.93.28-1.44.48-.09-.58-.16-1.05-.21-1.35-.18-1.21-.42-2.44-.68-3.66.08-.03.14-.05.23-.08.68-.25,1.37-.52,2.03-.82,2.35-1.04,4.51-2.32,6.08-3.34,1.58-1.01,2.56-1.77,2.56-1.77-1.56-1.04-1.05-7.4-1.46-11.28-.52-4.97-1.7-6.24-1.7-6.24,10.34-3.94,7.22-14.71,7.22-14.71l-10.66,8.62c-.33-.33-.99-.61-1.85-.84t-.02-.01c-.9-.23-2.03-.41-3.28-.54-.03,0-.07,0-.11,0-.41-.04-.82-.07-1.24-.1h-.03c-.41-.02-.82-.04-1.24-.06h-.17c-.4-.01-.82-.02-1.23-.02h-.24c-.42,0-.84,0-1.26,0-2.06.05-4.04.24-5.57.55-1.24.26-2.18.6-2.61,1.02l-10.08-9.29s-3.45,10.52,6.64,15.38c0,0-1.18,1.27-1.7,6.24-.41,3.88.1,10.24-1.46,11.28,0,0,1.72,1.32,4.24,2.81-3,3.19-7.05,6.58-10.68,9.9.14-.36.27-.73.4-1.09,3.08-9.2,3.19-19.64-1.05-28.36-4.24-8.73-13.2-15.35-22.9-15.48C13.59,3.22,3.91,10.42,2.46,20.02c2.17-3.16,7.19-3.28,10.22-.95,3.04,2.33,4.32,6.36,4.42,10.19.09,3.83-.82,7.6-1.35,11.39-1.43,10.37.26,21.57,6.68,29.84,1.77,2.28,11.1,9.33,16.85,10.34,5.57,8.6,16.33,7.3,16.33,7.3h25.06s2.3-.58,0-4.03c-1.72-2.58-9.02-1.32-12.64-.51,1.98-.62,3.48-1.54,4.6-2.68,5.05-5.15,4.36-19.74,3.4-28.72Z"/>
      <g>
        <path class="cls-3" d="m74.99,45.25c-3.06-.2-6.2.54-8.61,2.26-.24.17-.47.36-.69.55h0c.22-.19.45-.37.69-.55,2.41-1.72,5.55-2.46,8.61-2.26Z"/>
        <path class="cls-3" d="m68.4,68.07c-1.4-2.23-3.64-3.96-5.06-6.18-.69-1.08-1.14-2.26-1.37-3.48,0,0,0,0,0,0,.23,1.22.68,2.4,1.37,3.48,1.42,2.22,3.65,3.95,5.06,6.18,2.92,4.63,1.36,11.14-3.41,14.27.05,0,.1,0,.15,0-.05,0-.1,0-.15,0,4.77-3.13,6.33-9.64,3.41-14.27Z"/>
        <path class="cls-3" d="m71.71,81.29c-.06.02-.12.04-.18.06.06-.02.12-.04.18-.06Z"/>
        <path class="cls-3" d="m73.68,38.44s0,0,0,0c1.03.35,1.86.82,2.41,1.37-.55-.55-1.38-1.02-2.41-1.37Z"/>
        <path class="cls-4" d="m81.91,47.96h5.34c-.03-2.69-2.01-4.88-4.59-5.29v-2.04h-1.67v2.04c-1.96.3-3.55,1.64-4.23,3.45,2.62-.69,4.33-.02,5.15,1.84Z"/>
        <path class="cls-2" d="m81.91,47.96c.04.09.08.17.12.27.89,2.4-1.67,3.61-4.6,3.9.99,2.14,2.59,4.01,4.4,4.01,3,0,5.43-5.12,5.43-8.11,0-.02,0-.04,0-.06h-5.34Z"/>
        <path class="cls-5" d="m44.03,50.97c.89-.89,1.83-1.78,2.81-2.68.13-.37.27-.73.39-1.1,3.08-9.2,3.19-19.63-1.05-28.36-4.24-8.73-13.2-15.35-22.9-15.48C13.59,3.22,3.91,10.43,2.46,20.02c2.17-3.15,7.19-3.28,10.22-.95,3.04,2.33,4.32,6.36,4.41,10.19.09,3.83-.82,7.6-1.34,11.39-1.44,10.37.26,21.57,6.68,29.84,1.77,2.27,11.1,9.32,16.85,10.34-.06-.1-.13-.19-.19-.29-6.05-9.79-2.26-22.37,4.94-29.57Z"/>
        <path class="cls-8" d="m61.98,58.41c.23,1.22.68,2.4,1.37,3.48,1.42,2.22,3.65,3.95,5.06,6.18,2.92,4.63,1.36,11.14-3.41,14.27.05,0,.1,0,.15,0,2.15.16,4.32-.24,6.39-1,.06-.02.12-.04.18-.06.05-.02.1-.04.15-.06.26-.1.52-.21.78-.32,5.05-5.14,4.36-19.74,3.39-28.72-.16,0-.32,0-.47,0,0,0-3.45,6.53-13.58,6.23Z"/>
        <path class="cls-8" d="m74.99,45.25c-3.06-.2-6.2.54-8.61,2.26-.24.17-.47.36-.69.55,2.56.6,5.29.78,7.28-.32.84-.47,1.62-.84,2.35-1.13-.09-.58-.16-1.05-.2-1.36,0,0,0,0,0,0h0s-.08,0-.12,0Z"/>
        <path class="cls-1" d="m62.49,10.95c1.52-.31,3.5-.5,5.56-.55-2.06.05-4.04.24-5.56.55Z"/>
        <path class="cls-8" d="m76.09,39.81c-.55-.55-1.38-1.02-2.41-1.37-1.23-.42-2.74-.67-4.38-.67-3.69,0-6.75,1.26-7.38,2.92.67.29,1.35.57,2.04.82,3.29,1.17,4.62,1.65,5.16,1.84v.14s0,0,.19-.07c.18.07.19.07.19.07v-.14c.53-.19,1.82-.65,4.93-1.76.08-.03.15-.05.23-.08.69-.25,1.37-.52,2.04-.82,0,0,0,0,0,0-.12-.31-.32-.61-.6-.89Zm-4.66-.71l-1.71,1.86c-.24.27-.67.27-.91,0l-1.71-1.86c-.36-.4-.08-1.04.46-1.04h3.42c.54,0,.82.64.46,1.04Z"/>
        <path class="cls-1" d="m82.03,48.23c-.04-.09-.08-.18-.12-.27-.82-1.86-2.53-2.53-5.15-1.84-.45.12-.93.28-1.44.48-.73.29-1.51.66-2.35,1.13-1.99,1.1-4.71.92-7.28.32h0c.22-.19.45-.37.69-.55,2.41-1.73,5.55-2.46,8.61-2.26.04,0,.08,0,.12,0h0c-.18-1.2-.42-2.44-.69-3.66-3.11,1.11-4.4,1.57-4.93,1.76v.14s0,0-.19-.07c-.18.07-.19.07-.19.07v-.14c-.54-.19-1.87-.67-5.16-1.84-.69-.25-1.37-.52-2.04-.82.63-1.66,3.7-2.92,7.38-2.92,1.63,0,3.14.25,4.38.67,0,0,0,0,0,0,1.03.35,1.86.82,2.41,1.37.28.28.48.57.6.89,4.7-2.08,8.64-5.11,8.64-5.11-1.56-1.04-1.05-7.4-1.46-11.28-.52-4.97-1.7-6.24-1.7-6.24,10.34-3.94,7.22-14.71,7.22-14.71l-10.66,8.62c-1.17-1.17-6.1-1.69-10.67-1.57,3.71-.09,7.66.24,9.64.99l-8.41,23.26-8.38-23.25c.44-.17.98-.31,1.58-.44-1.24.26-2.18.6-2.61,1.02l-10.09-9.29s-3.45,10.52,6.65,15.38c0,0-1.18,1.27-1.7,6.24-.41,3.88.1,10.24-1.46,11.28,0,0,1.72,1.32,4.24,2.82-3,3.19-7.05,6.57-10.67,9.9-.98.9-1.92,1.79-2.81,2.68-7.2,7.2-10.99,19.78-4.94,29.57.06.1.13.19.19.29,5.57,8.6,16.33,7.3,16.33,7.3h25.06s2.3-.58,0-4.03c-1.72-2.57-9.02-1.31-12.64-.5h0c1.98-.62,3.48-1.55,4.61-2.69-.26.11-.51.22-.77.32-.05.02-.1.04-.15.06-.06.02-.12.04-.18.06-2.07.76-4.24,1.16-6.39,1-.05,0-.1,0-.15,0,4.77-3.13,6.33-9.64,3.41-14.27-1.4-2.23-3.64-3.96-5.06-6.18-.69-1.08-1.14-2.26-1.37-3.48,0,0,0,0,0,0,10.13.31,13.58-6.23,13.58-6.23.16,0,.32,0,.47,0,.47,0,.94-.02,1.4-.07,2.93-.28,5.5-1.5,4.6-3.9Zm-4.67-18.9c.85,0,1.55.69,1.55,1.55s-.69,1.55-1.55,1.55-1.55-.69-1.55-1.55.69-1.55,1.55-1.55Zm-16.92,3.09c-.85,0-1.55-.69-1.55-1.55s.69-1.55,1.55-1.55,1.55.69,1.55,1.55-.69,1.55-1.55,1.55Z"/>
        <path class="cls-7" d="m60.43,29.33c-.85,0-1.55.69-1.55,1.55s.69,1.55,1.55,1.55,1.55-.69,1.55-1.55-.69-1.55-1.55-1.55Z"/>
        <path class="cls-7" d="m77.36,32.43c.85,0,1.55-.69,1.55-1.55s-.69-1.55-1.55-1.55-1.55.69-1.55,1.55.69,1.55,1.55,1.55Z"/>
        <path class="cls-7" d="m70.97,38.06h-3.42c-.54,0-.82.64-.46,1.04l1.71,1.86c.24.27.67.27.91,0l1.71-1.86c.36-.4.08-1.04-.46-1.04Z"/>
        <path class="cls-5" d="m69.29,34.65l8.41-23.26c-1.98-.75-5.93-1.08-9.64-.99h0c-2.06.05-4.04.24-5.56.55,0,0,0,0,0,0-.61.13-1.15.27-1.58.44l8.38,23.25Z"/>
      </g>
    </g>
  </g>
</svg>